<svg width="224" height="612" viewBox="0 0 224 612" fill="none" xmlns="http://www.w3.org/2000/svg">
<g opacity="0.5">
<path d="M284.691 488.573C284.974 488.746 285.257 488.919 285.541 489.092C285.633 489.063 285.341 488.884 284.691 488.573Z" fill="white"/>
<path d="M285.541 489.092L285.69 489.569L285.474 489.637L285.28 489.519L285.541 489.092ZM118.976 -6.07677C79.953 35.5065 41.4465 110.088 52.6678 198.729C63.8868 287.351 124.831 390.15 284.952 488.146L284.43 488.999C124.142 390.901 62.9446 287.871 51.6757 198.854C40.409 109.856 79.0675 34.9888 118.247 -6.76107L118.976 -6.07677ZM284.952 488.146C285.235 488.319 285.518 488.492 285.801 488.665L285.28 489.519C284.997 489.346 284.713 489.172 284.43 488.999L284.952 488.146ZM285.392 488.615C285.352 488.627 285.266 488.66 285.188 488.744C285.097 488.842 285.052 488.971 285.058 489.099C285.064 489.208 285.104 489.284 285.124 489.318C285.146 489.354 285.168 489.378 285.177 489.388C285.202 489.414 285.204 489.408 285.133 489.365C285.014 489.292 284.798 489.178 284.475 489.024L284.907 488.122C285.234 488.278 285.489 488.41 285.655 488.512C285.727 488.556 285.826 488.62 285.9 488.697C285.922 488.72 285.953 488.755 285.981 488.803C286.007 488.846 286.051 488.932 286.057 489.049C286.064 489.186 286.016 489.322 285.919 489.426C285.836 489.516 285.741 489.553 285.69 489.569L285.392 488.615ZM284.475 489.024C279.713 486.744 255.452 477.281 222.965 468.367C190.482 459.455 149.818 451.104 112.242 451.026C74.6436 450.948 40.2706 459.15 20.2029 483.194C0.150497 507.22 -5.76062 547.241 13.9954 611.159L13.04 611.455C-6.75329 547.416 -0.942219 506.968 19.4351 482.553C39.797 458.157 74.5612 449.947 112.244 450.026C149.948 450.105 190.709 458.48 223.23 467.403C255.747 476.325 280.07 485.806 284.907 488.122L284.475 489.024Z" fill="white"/>
</g>
</svg>
