<svg width="199" height="210" viewBox="0 0 199 210" fill="none" xmlns="http://www.w3.org/2000/svg">
<g opacity="0.5">
<path d="M61.7701 -23.1361C61.7156 -23.2827 61.661 -23.4295 61.6063 -23.5763C61.5635 -23.5925 61.6198 -23.4407 61.7701 -23.1361Z" fill="white"/>
<path d="M61.6063 -23.5763L61.7838 -24.0437L61.9956 -23.9632L62.0748 -23.7509L61.6063 -23.5763ZM-20.91 208.365C5.62012 204.319 41.5541 187.906 63.1669 151.839C84.7705 115.787 92.1284 59.9894 61.3015 -22.9619L62.2388 -23.3102C93.1339 59.8244 85.8325 115.96 64.0247 152.353C42.2262 188.73 5.99676 205.273 -20.7592 209.354L-20.91 208.365ZM61.3015 -22.9619C61.247 -23.1084 61.1925 -23.2549 61.1378 -23.4016L62.0748 -23.7509C62.1296 -23.604 62.1843 -23.4571 62.2388 -23.3103L61.3015 -22.9619ZM61.4287 -23.1089C61.4708 -23.0929 61.5608 -23.0654 61.6761 -23.0833C61.8109 -23.1042 61.9277 -23.1793 62.003 -23.2857C62.0671 -23.3763 62.0835 -23.4639 62.0888 -23.5056C62.0945 -23.5514 62.0921 -23.5873 62.0904 -23.6051C62.0851 -23.6597 62.071 -23.687 62.0844 -23.6507C62.1025 -23.6022 62.1445 -23.5073 62.2185 -23.3574L61.3218 -22.9147C61.2454 -23.0695 61.1841 -23.2028 61.1471 -23.3023C61.1331 -23.34 61.1035 -23.4212 61.095 -23.5092C61.0925 -23.5355 61.0901 -23.5784 61.0965 -23.63C61.1025 -23.6774 61.1204 -23.7696 61.1867 -23.8634C61.2643 -23.9729 61.3842 -24.0499 61.5228 -24.0715C61.6419 -24.0899 61.7364 -24.0617 61.7838 -24.0437L61.4287 -23.1089ZM62.2185 -23.3574C63.3112 -21.1439 69.5433 -10.5798 78.9922 2.18484C88.4389 14.9463 101.073 29.8694 114.963 40.825C128.869 51.794 143.926 58.7032 158.257 55.6561C172.563 52.614 186.367 39.5956 197.648 10.1615L198.582 10.5194C187.255 40.0713 173.267 53.4867 158.465 56.6342C143.685 59.7768 128.316 52.6315 114.343 41.6102C100.354 30.5754 87.6581 15.5723 78.1885 2.77981C68.7212 -10.0096 62.4512 -20.6271 61.3218 -22.9147L62.2185 -23.3574Z" fill="white"/>
</g>
</svg>
