<svg width="106" height="102" viewBox="0 0 106 102" fill="none" xmlns="http://www.w3.org/2000/svg">
<path opacity="0.6" d="M105.523 24.0565L102.766 35.2694L94.434 27.2748L105.523 24.0565ZM-28.4066 28.2935L-29.3975 28.1585L-28.4066 28.2935ZM69.9537 52.2609L70.3536 53.1775L69.9537 52.2609ZM-18.0474 82.3074L-18.3951 81.3698L-18.0474 82.3074ZM24.1979 11.9743L23.4208 12.6038L24.1979 11.9743ZM98.1435 32.8499C96.4398 34.458 94.5319 36.2041 92.4841 37.9885L91.1702 36.4807C93.195 34.7162 95.0832 32.9883 96.7706 31.3955L98.1435 32.8499ZM86.5921 42.883C84.5843 44.4652 82.5092 46.008 80.413 47.4397L79.285 45.7882C81.3371 44.3866 83.3753 42.8715 85.3543 41.3121L86.5921 42.883ZM73.8405 51.4745C72.67 52.1031 71.5049 52.6753 70.3536 53.1775L69.5539 51.3443C70.6489 50.8667 71.7649 50.3191 72.8942 49.7125L73.8405 51.4745ZM70.3536 53.1775C69.1146 53.7179 67.8081 54.2347 66.4425 54.7265L65.7648 52.8448C67.0932 52.3664 68.3587 51.8657 69.5539 51.3443L70.3536 53.1775ZM58.3918 57.1712C55.7737 57.8389 53.025 58.4312 50.1833 58.9414L49.8298 56.9729C52.6279 56.4705 55.3293 55.8882 57.8976 55.2333L58.3918 57.1712ZM41.8901 60.165C39.1491 60.4855 36.3578 60.7319 33.5448 60.8989L33.4263 58.9024C36.2014 58.7377 38.9548 58.4946 41.6577 58.1785L41.8901 60.165ZM25.1704 61.1559C22.3623 61.1606 19.5597 61.0819 16.7904 60.9143L16.9113 58.918C19.6372 59.0829 22.3984 59.1606 25.167 59.1559L25.1704 61.1559ZM8.43638 60.1166C5.59775 59.7397 2.82716 59.256 0.158747 58.6587L0.595602 56.707C3.20116 57.2902 5.91346 57.764 8.69963 58.134L8.43638 60.1166ZM-7.95042 56.3653C-10.7362 55.3885 -13.3442 54.2484 -15.7186 52.9325L-14.7492 51.1832C-12.4879 52.4363 -9.98537 53.5324 -7.28869 54.4779L-7.95042 56.3653ZM-22.6424 47.9266C-24.7845 45.8733 -26.5099 43.5454 -27.7133 40.9244L-25.8958 40.0899C-24.8095 42.4558 -23.2413 44.5822 -21.2584 46.4827L-22.6424 47.9266ZM-29.6405 32.491C-29.6805 31.0988 -29.6014 29.6549 -29.3975 28.1585L-27.4158 28.4285C-27.6058 29.8227 -27.678 31.1571 -27.6413 32.4336L-29.6405 32.491ZM-29.3975 28.1585C-29.1878 26.6199 -28.8963 25.1404 -28.5293 23.721L-26.593 24.2215C-26.9399 25.5633 -27.2164 26.9658 -27.4158 28.4285L-29.3975 28.1585ZM-25.1452 15.3475C-23.58 12.6255 -21.6765 10.2555 -19.5244 8.24748L-18.16 9.70978C-20.1674 11.5828 -21.9462 13.7963 -23.4114 16.3445L-25.1452 15.3475ZM-12.0417 3.13794C-9.29401 1.81635 -6.37376 0.920606 -3.3915 0.459878L-3.08614 2.43643C-5.87693 2.86758 -8.60764 3.70554 -11.1748 4.9403L-12.0417 3.13794ZM5.66235 0.396072C8.63886 0.814699 11.5698 1.67195 14.3467 2.97832L13.4954 4.78806C10.9042 3.56908 8.16683 2.76799 5.3838 2.37658L5.66235 0.396072ZM21.8672 8.03369C22.9627 9.04041 24.0021 10.1439 24.9749 11.3449L23.4208 12.6038C22.5095 11.4788 21.5372 10.4467 20.5139 9.50631L21.8672 8.03369ZM24.9749 11.3449C26.0183 12.633 26.8954 13.9796 27.615 15.3759L25.8372 16.2921C25.1813 15.0194 24.3796 13.7874 23.4208 12.6038L24.9749 11.3449ZM30.1391 24.6035C30.3488 27.682 30.0196 30.8581 29.2471 34.0611L27.3029 33.5922C28.0355 30.5542 28.3374 27.5837 28.1437 24.7394L30.1391 24.6035ZM26.0612 42.9227C24.7663 45.6667 23.2041 48.3953 21.4276 51.068L19.762 49.9609C21.491 47.3596 23.0036 44.7156 24.2525 42.0692L26.0612 42.9227ZM15.8041 58.5296C13.8106 60.889 11.6712 63.1703 9.42685 65.3409L8.03645 63.9033C10.2343 61.7776 12.3277 59.5452 14.2765 57.2388L15.8041 58.5296ZM2.41511 71.4922C-0.0622454 73.4596 -2.60971 75.2784 -5.18377 76.9127L-6.2558 75.2243C-3.74396 73.6295 -1.2537 71.8519 1.1713 69.926L2.41511 71.4922ZM-13.3777 81.432C-14.8255 82.1077 -16.2688 82.7143 -17.6997 83.2449L-18.3951 81.3698C-17.0187 80.8593 -15.6257 80.274 -14.2235 79.6196L-13.3777 81.432ZM-17.6997 83.2449C-19.0837 83.7582 -20.5314 84.2697 -22.0312 84.7779L-22.6731 82.8837C-21.1888 82.3807 -19.7591 81.8756 -18.3951 81.3698L-17.6997 83.2449ZM-30.7984 87.5509C-33.6645 88.4033 -36.6267 89.2393 -39.6258 90.0516L-40.1486 88.1211C-37.1628 87.3124 -34.2165 86.4809 -31.3685 85.6339L-30.7984 87.5509ZM-48.4986 92.3657C-51.5067 93.1228 -54.4948 93.8494 -57.4045 94.5383L-57.8653 92.5921C-54.9636 91.9051 -51.9847 91.1807 -48.9868 90.4262L-48.4986 92.3657ZM-66.3402 96.5968C-69.5572 97.3184 -72.5719 97.9745 -75.2827 98.5524L-75.6997 96.5964C-72.9949 96.0198 -69.9873 95.3652 -66.7779 94.6453L-66.3402 96.5968ZM-84.253 100.415C-85.6737 100.701 -86.7964 100.923 -87.5642 101.074C-87.9481 101.149 -88.2434 101.207 -88.4428 101.245C-88.5425 101.264 -88.6183 101.279 -88.6692 101.289C-88.6946 101.294 -88.7139 101.297 -88.7268 101.3C-88.7333 101.301 -88.7382 101.302 -88.7415 101.303C-88.7431 101.303 -88.7444 101.303 -88.7452 101.303C-88.7456 101.303 -88.746 101.304 -88.7462 101.304C-88.7463 101.304 -88.7464 101.304 -88.7464 101.304C-88.7465 101.304 -88.7465 101.304 -88.7465 101.304C-88.7465 101.304 -88.7466 101.304 -88.9342 100.321C-89.1219 99.3392 -89.1219 99.3392 -89.1219 99.3392C-89.1219 99.3392 -89.1219 99.3392 -89.1219 99.3392C-89.1218 99.3392 -89.1218 99.3392 -89.1217 99.3391C-89.1215 99.3391 -89.1212 99.3391 -89.1209 99.339C-89.1201 99.3388 -89.1189 99.3386 -89.1174 99.3383C-89.1143 99.3377 -89.1096 99.3368 -89.1033 99.3356C-89.0907 99.3332 -89.0719 99.3296 -89.0468 99.3248C-88.9966 99.3151 -88.9216 99.3007 -88.8227 99.2815C-88.6248 99.2433 -88.3312 99.1862 -87.9489 99.1113C-87.1844 98.9614 -86.0653 98.7401 -84.6485 98.4542L-84.253 100.415Z" fill="#B0C5DE"/>
</svg>
