<svg width="329" height="218" viewBox="0 0 329 218" fill="none" xmlns="http://www.w3.org/2000/svg">
<path opacity="0.2" d="M384.101 5.46942L383.863 5.0381L383.864 5.03811L384.101 5.46942ZM384.343 5.63042L384.647 6.02216L384.343 5.63042ZM384.189 5.42538L384.426 5.85668L384.426 5.85668L384.189 5.42538ZM1.83534 -72.701C13.6136 -33.6165 46.8278 17.0659 108.2 42.3609C169.556 67.6491 259.173 67.6105 383.863 5.0381L384.339 5.90073C259.472 68.5617 169.52 68.6976 107.792 43.2561C46.0806 17.8214 12.6947 -33.1303 0.851674 -72.4298L1.83534 -72.701ZM384.647 6.02216C373.003 14.23 319.45 56.2397 292.623 101.501C279.207 124.137 272.545 147.467 280.978 167.764C289.406 188.048 312.996 205.499 360.593 216.183L360.356 217.132C312.638 206.421 288.638 188.851 280.026 168.125C271.42 147.411 278.267 123.741 291.732 101.023C318.668 55.5774 372.365 13.468 384.039 5.23867L384.647 6.02216ZM383.864 5.03811L383.951 4.99407L384.426 5.85668L384.339 5.90072L383.864 5.03811ZM383.951 4.99408C384.318 4.81005 384.604 4.66627 384.802 4.57158C384.899 4.5249 384.986 4.48518 385.053 4.45776C385.085 4.44502 385.128 4.42817 385.174 4.41568C385.195 4.40997 385.239 4.399 385.292 4.39497C385.311 4.39355 385.494 4.37433 385.661 4.50175C385.909 4.69122 385.857 4.95817 385.827 5.04239C385.798 5.12582 385.752 5.18265 385.738 5.19949C385.702 5.24398 385.661 5.28024 385.638 5.30003C385.584 5.3464 385.51 5.40304 385.426 5.46527C385.255 5.5927 384.993 5.77821 384.647 6.02216L384.039 5.23867C384.388 4.99246 384.639 4.81468 384.799 4.69601C384.881 4.63521 384.929 4.59813 384.951 4.57886C384.966 4.56581 384.952 4.57628 384.931 4.60184C384.925 4.60926 384.883 4.65832 384.856 4.73574C384.842 4.77692 384.82 4.85742 384.836 4.9588C384.855 5.07458 384.917 5.18492 385.02 5.26331C385.111 5.33245 385.203 5.3544 385.253 5.36228C385.305 5.37052 385.347 5.36883 385.37 5.36712C385.415 5.36378 385.446 5.35516 385.453 5.35342C385.469 5.34892 385.472 5.34662 385.452 5.35481C385.416 5.36933 385.355 5.39723 385.26 5.44263C385.073 5.53211 384.798 5.67041 384.426 5.85668L383.951 4.99408Z" fill="#687BFE"/>
</svg>
