<svg width="77" height="326" viewBox="0 0 77 326" fill="none" xmlns="http://www.w3.org/2000/svg">
<g opacity="0.2">
<path d="M160.977 179.08C161.135 179.146 161.292 179.213 161.45 179.279C161.503 179.271 161.34 179.202 160.977 179.08Z" fill="white"/>
<path d="M161.45 179.279L161.489 179.679L161.273 179.714L161.101 179.642L161.45 179.279ZM7.62867 217.644L7.09277 217.854L7.08493 217.841L7.0786 217.827L7.62867 217.644ZM71.7543 0.907717C49.6012 14.8744 27.4647 40.5065 33.0765 72.0268C38.6906 103.56 72.0917 141.076 161.327 178.718L160.627 179.442C71.2766 141.752 37.6019 104.094 31.934 72.2584C26.2637 40.4101 48.6388 14.4785 71.075 0.333301L71.7543 0.907717ZM161.327 178.718C161.484 178.784 161.642 178.851 161.8 178.917L161.101 179.642C160.943 179.575 160.785 179.509 160.627 179.442L161.327 178.718ZM161.412 178.88C161.37 178.887 161.244 178.91 161.117 178.991C160.951 179.096 160.878 179.236 160.885 179.357C160.89 179.449 160.941 179.509 160.958 179.528C160.981 179.553 161.003 179.569 161.013 179.576C161.042 179.597 161.059 179.601 161.019 179.584C160.959 179.559 160.845 179.517 160.665 179.456L161.288 178.703C161.472 178.765 161.62 178.818 161.719 178.86C161.759 178.877 161.829 178.907 161.886 178.947C161.903 178.959 161.93 178.98 161.956 179.008C161.977 179.032 162.03 179.094 162.035 179.19C162.042 179.313 161.967 179.457 161.799 179.563C161.668 179.646 161.537 179.671 161.489 179.679L161.412 178.88ZM160.665 179.456C158.017 178.565 144.463 174.772 126.277 171.022C108.093 167.273 85.3188 163.577 64.2243 162.866C53.6771 162.511 43.5739 162.903 34.6872 164.398C25.7992 165.894 18.1723 168.485 12.5232 172.505C1.26491 180.516 -2.43653 194.448 8.17874 217.461L7.0786 217.827C-3.55688 194.77 -0.0552381 180.395 11.7796 171.973C17.6771 167.777 25.5693 165.121 34.6026 163.601C43.637 162.08 53.8571 161.689 64.4647 162.047C85.6798 162.762 108.542 166.475 126.757 170.231C144.969 173.986 158.577 177.791 161.288 178.703L160.665 179.456ZM8.16457 217.434L72.0359 324.674L70.9641 325.094L7.09277 217.854L8.16457 217.434Z" fill="#687BFE"/>
</g>
</svg>
