<svg width="245" height="110" viewBox="0 0 245 110" fill="none" xmlns="http://www.w3.org/2000/svg">
<path opacity="0.6" d="M0.4549 36.9566L8.75575 21.7548L17.7705 36.5444L0.4549 36.9566ZM184.072 79.9832L185.456 80.5635L184.072 79.9832ZM59.0849 11.5705L58.8614 10.0873L59.0849 11.5705ZM189.665 2.77934L189.805 4.27281L189.665 2.77934ZM106.614 83.0064L107.984 82.3961L106.614 83.0064ZM10.1103 29.549C12.2429 28.3601 14.6315 27.0633 17.2077 25.7202L18.5946 28.3804C16.046 29.7091 13.6822 30.9924 11.5711 32.1693L10.1103 29.549ZM24.4325 22.092C26.8045 20.9477 29.2657 19.8084 31.7765 18.7096L32.9793 21.4579C30.5062 22.5402 28.0788 23.6638 25.7359 24.794L24.4325 22.092ZM39.2674 15.6279C41.8223 14.6485 44.3914 13.7422 46.9356 12.9447L47.833 15.8074C45.3567 16.5836 42.8469 17.4686 40.3412 18.4291L39.2674 15.6279ZM54.8265 10.8325C56.1916 10.5371 57.5389 10.2865 58.8614 10.0873L59.3083 13.0538C58.055 13.2426 56.7705 13.4813 55.4609 13.7646L54.8265 10.8325ZM58.8614 10.0873C60.1967 9.88612 61.5735 9.71359 62.9877 9.56917L63.2925 12.5537C61.9226 12.6935 60.5932 12.8602 59.3083 13.0538L58.8614 10.0873ZM71.2622 9.05112C73.9411 8.97909 76.7134 8.98918 79.558 9.07939L79.4629 12.0779C76.6726 11.9894 73.959 11.9797 71.3429 12.05L71.2622 9.05112ZM87.8113 9.5491C90.5141 9.7681 93.2619 10.0523 96.0388 10.4004L95.6657 13.3771C92.931 13.0343 90.2269 12.7547 87.569 12.5393L87.8113 9.5491ZM104.205 11.5953C106.904 12.0462 109.615 12.5545 112.326 13.1191L111.714 16.0561C109.042 15.4996 106.37 14.9986 103.711 14.5543L104.205 11.5953ZM120.375 14.9642C123.05 15.6343 125.711 16.3589 128.345 17.1371L127.495 20.0142C124.902 19.2482 122.281 18.5345 119.646 17.8742L120.375 14.9642ZM136.213 19.6522C138.847 20.561 141.439 21.5253 143.974 22.5443L142.855 25.3278C140.369 24.3284 137.824 23.3814 135.235 22.4882L136.213 19.6522ZM151.562 25.8443C154.115 27.0447 156.587 28.3061 158.96 29.6276L157.501 32.2488C155.192 30.963 152.781 29.7326 150.286 28.5591L151.562 25.8443ZM166.049 33.9594C168.431 35.5616 170.671 37.238 172.744 38.9877L170.81 41.2804C168.828 39.608 166.676 37.9965 164.375 36.4485L166.049 33.9594ZM178.78 44.8368C180.712 47.0171 182.393 49.2966 183.782 51.6739L181.191 53.1868C179.913 50.9988 178.352 48.8774 176.534 46.8265L178.78 44.8368ZM187.148 59.5364C187.913 62.2827 188.291 65.127 188.234 68.0616L185.234 68.0034C185.285 65.3676 184.947 62.8139 184.258 60.3414L187.148 59.5364ZM186.896 76.5288C186.504 77.8614 186.025 79.2064 185.456 80.5635L182.689 79.4029C183.217 78.1442 183.658 76.9042 184.017 75.683L186.896 76.5288ZM185.456 80.5635C184.897 81.8946 184.3 83.1778 183.665 84.4134L180.996 83.0436C181.595 81.8776 182.16 80.6642 182.689 79.4029L185.456 80.5635ZM179.168 91.6284C177.409 93.9711 175.492 96.071 173.449 97.9322L171.429 95.7146C173.331 93.9812 175.121 92.0209 176.769 89.8271L179.168 91.6284ZM166.599 103.03C164.116 104.517 161.525 105.723 158.868 106.654L157.876 103.823C160.344 102.958 162.751 101.838 165.058 100.457L166.599 103.03ZM150.57 108.655C147.737 109.045 144.88 109.151 142.044 108.981L142.224 105.987C144.865 106.145 147.525 106.046 150.161 105.683L150.57 108.655ZM133.62 107.646C130.869 106.93 128.185 105.946 125.613 104.701L126.921 102.001C129.314 103.159 131.813 104.076 134.375 104.743L133.62 107.646ZM118.339 100.235C116.096 98.5267 114.002 96.5785 112.102 94.3982L114.363 92.4269C116.128 94.4518 118.072 96.2612 120.156 97.8484L118.339 100.235ZM107.17 87.4342C106.475 86.2099 105.831 84.9371 105.243 83.6168L107.984 82.3961C108.532 83.6277 109.132 84.8136 109.779 85.9531L107.17 87.4342ZM105.243 83.6168C104.655 82.2953 104.161 80.9661 103.758 79.6314L106.63 78.7649C106.996 79.9772 107.446 81.1881 107.984 82.3961L105.243 83.6168ZM102.398 71.2489C102.318 68.4252 102.606 65.6107 103.219 62.8248L106.149 63.4692C105.585 66.0329 105.324 68.6022 105.397 71.1639L102.398 71.2489ZM105.865 54.845C106.963 52.3595 108.299 49.9114 109.839 47.5132L112.363 49.1345C110.898 51.4158 109.639 53.7277 108.609 56.0576L105.865 54.845ZM114.753 40.8279C116.477 38.7474 118.347 36.7144 120.341 34.7378L122.453 36.8684C120.523 38.7816 118.72 40.7427 117.062 42.7423L114.753 40.8279ZM126.435 29.1848C128.512 27.4388 130.681 25.7487 132.923 24.1223L134.685 26.5509C132.497 28.1372 130.385 29.7833 128.365 31.4812L126.435 29.1848ZM139.728 19.5214C142.039 18.0648 144.404 16.6751 146.808 15.3593L148.249 17.9908C145.898 19.2775 143.586 20.6361 141.328 22.0593L139.728 19.5214ZM154.128 11.6361C156.622 10.4617 159.139 9.36981 161.663 8.36797L162.77 11.1563C160.305 12.1348 157.845 13.2019 155.407 14.3502L154.128 11.6361ZM169.395 5.5896C172.053 4.73527 174.701 3.98913 177.318 3.36036L178.019 6.2774C175.478 6.88766 172.903 7.61313 170.313 8.44565L169.395 5.5896ZM185.418 1.78226C186.803 1.57848 188.173 1.41248 189.525 1.28587L189.805 4.27281C188.507 4.39427 187.19 4.55382 185.855 4.75028L185.418 1.78226ZM189.525 1.28587C190.92 1.15527 192.354 1.03637 193.822 0.928453L194.042 3.92037C192.592 4.02696 191.178 4.14423 189.805 4.27281L189.525 1.28587ZM202.435 0.431113C205.237 0.308343 208.119 0.215837 211.052 0.14973L211.12 3.14897C208.205 3.21466 205.345 3.30651 202.567 3.42824L202.435 0.431113ZM219.666 0.0286609C222.519 0.0108871 225.397 0.0135179 228.275 0.0333054L228.254 3.03323C225.388 3.01353 222.524 3.01091 219.684 3.0286L219.666 0.0286609ZM236.88 0.140743C239.778 0.192315 242.654 0.258219 245.482 0.335074L245.4 3.33397C242.581 3.25735 239.715 3.19166 236.827 3.14027L236.88 0.140743ZM254.077 0.604956C257.035 0.709857 259.907 0.823685 262.66 0.942043L262.531 3.93927C259.785 3.82122 256.921 3.70769 253.971 3.60307L254.077 0.604956ZM271.267 1.34275C274.399 1.49959 277.282 1.65591 279.85 1.80258L279.679 4.7977C277.117 4.65141 274.241 4.49546 271.117 4.33899L271.267 1.34275ZM288.425 2.32479C289.794 2.41382 290.863 2.48646 291.59 2.53688C291.954 2.56208 292.232 2.58174 292.42 2.5951C292.513 2.60178 292.584 2.6069 292.632 2.61034C292.656 2.61207 292.674 2.61338 292.686 2.61426C292.692 2.6147 292.697 2.61503 292.7 2.61526C292.702 2.61538 292.703 2.61546 292.704 2.61552C292.704 2.61555 292.704 2.61557 292.705 2.61559C292.705 2.6156 292.705 2.6156 292.705 2.6156C292.705 2.61561 292.705 2.61561 292.705 2.61561C292.705 2.61561 292.705 2.61562 292.595 4.11162C292.486 5.60762 292.486 5.60763 292.486 5.60763C292.486 5.60762 292.486 5.60762 292.486 5.60762C292.486 5.60762 292.486 5.60761 292.486 5.60761C292.486 5.6076 292.485 5.60758 292.485 5.60755C292.484 5.6075 292.483 5.60743 292.482 5.60732C292.479 5.60711 292.475 5.6068 292.469 5.60637C292.457 5.60552 292.44 5.60424 292.416 5.60255C292.369 5.59917 292.299 5.59412 292.206 5.58751C292.021 5.57428 291.744 5.55477 291.383 5.52969C290.659 5.47956 289.595 5.4072 288.23 5.31846L288.425 2.32479Z" fill="white"/>
</svg>
