<svg width="140" height="28" viewBox="0 0 140 28" fill="none" xmlns="http://www.w3.org/2000/svg">
<g clip-path="url(#clip0_5541_378834)">
<path d="M10.3385 6.01953C4.02051 6.01953 0 11.0595 0 16.7995C0 23.2395 4.66667 27.5095 11.0564 27.5095C14.359 27.5095 17.7333 26.2495 19.7436 23.8695L16.5846 20.6495C15.5795 21.6995 13.641 23.0295 11.2 23.0295C8.18462 23.0295 5.81538 20.9995 5.52821 18.1295H20.1026C20.1744 17.7095 20.2462 17.1495 20.2462 16.5895C20.2462 10.8495 16.1538 6.01953 10.3385 6.01953ZM5.81539 14.1395C6.03077 12.2495 7.96923 10.5695 10.3385 10.5695C12.7077 10.5695 14.359 12.3895 14.5026 14.1395H5.81539Z" fill="white"/>
<path d="M34.7474 5.94922C32.3782 5.94922 30.3679 6.78922 28.7884 8.04922V6.43922H23.332V27.0892H29.0038V13.7192C29.7936 12.6692 31.6602 11.1992 34.1013 11.1992C35.3936 11.1992 36.5423 11.6192 37.2602 12.3192C38.05 13.0892 38.4807 14.1392 38.4807 16.1692V27.0892H44.1525V16.5892C44.1525 13.0192 43.3628 10.9192 41.9987 9.30922C40.3474 7.27922 37.691 5.94922 34.7474 5.94922Z" fill="white"/>
<path d="M93.9791 8.18984C92.3279 6.78984 90.2458 6.08984 87.8048 6.08984C81.9894 6.08984 77.3945 10.7798 77.3945 16.8698C77.3945 19.7398 78.3997 22.2598 80.0509 24.1498C81.9176 26.2498 84.8612 27.6498 88.0202 27.6498C90.1022 27.6498 92.1125 27.0198 93.9074 25.5498V27.1598H99.3638H99.4356V6.50984H93.9791V8.18984ZM93.6202 19.9498C92.5432 21.4198 90.6766 22.4698 88.5227 22.4698C85.3638 22.4698 82.9227 20.0898 82.9227 16.7998C82.9227 13.8598 85.0048 11.1298 88.3791 11.1298C90.6766 11.1298 92.4714 12.1098 93.6202 13.6498V19.9498Z" fill="white"/>
<path d="M134.542 6.50984V8.18984C132.89 6.78984 130.808 6.08984 128.367 6.08984C122.552 6.08984 117.957 10.7798 117.957 16.8698C117.957 19.7398 118.962 22.2598 120.613 24.1498C122.48 26.2498 125.424 27.6498 128.583 27.6498C130.665 27.6498 132.675 27.0198 134.47 25.5498V27.1598H139.926H139.998V6.50984H134.542ZM134.254 19.9498C133.178 21.4198 131.311 22.4698 129.157 22.4698C125.998 22.4698 123.557 20.0898 123.557 16.7998C123.557 13.8598 125.639 11.1298 129.013 11.1298C131.311 11.1298 133.106 12.1098 134.254 13.6498V19.9498Z" fill="white"/>
<path d="M76.9623 6.22984C76.3879 6.15984 75.8854 6.08984 75.0238 6.08984C72.511 6.08984 70.1418 7.06984 68.9213 8.60984V6.50984H63.4648V27.0898H69.1366V14.0698C69.7828 12.8798 71.7213 11.1298 74.2341 11.1298C75.0956 11.1298 75.8854 11.1998 76.3161 11.3398L76.9623 11.4798V6.15984L76.8187 6.29984L76.9623 6.22984Z" fill="white"/>
<path d="M53.414 0.699219H47.7422V21.7692H53.414V11.0592H60.3781V6.43922H53.414V0.699219Z" fill="white"/>
<path d="M58.8705 21.7695H53.4141V27.0895H58.8705V21.7695Z" fill="white"/>
<path d="M109.199 6.43922V0.699219H103.527C103.527 0.699219 103.527 21.6292 103.527 21.8392H109.127V11.1292H116.091V6.50922H109.199V6.43922Z" fill="white"/>
<path d="M114.656 21.7695H109.199V27.0895H114.656V21.7695Z" fill="white"/>
</g>
<defs>
<clipPath id="clip0_5541_378834">
<rect width="140" height="28" fill="white"/>
</clipPath>
</defs>
</svg>
