<svg width="234" height="28" viewBox="0 0 234 28" fill="none" xmlns="http://www.w3.org/2000/svg">
<path d="M21.2134 4.59971C21.2134 7.13917 19.1136 9.19942 16.5232 9.19942C13.9329 9.19942 11.8359 7.13917 11.8359 4.59971C11.8359 2.06026 13.9358 0 16.5262 0C19.1136 0 21.2134 2.06026 21.2134 4.59971Z" fill="white"/>
<path d="M9.72907 23.4005C9.72907 25.9399 7.62919 28.0002 5.03885 28.0002C2.44851 28.0002 0.351562 25.9399 0.351562 23.4005C0.351562 20.861 2.45144 18.8008 5.04178 18.8008C7.63212 18.8008 9.72907 20.8582 9.72907 23.4005Z" fill="white"/>
<path d="M32.6939 23.4005C32.6939 25.9399 30.594 28.0002 28.0037 28.0002C25.4163 28.0002 23.3164 25.9399 23.3164 23.4005C23.3164 20.861 25.4163 18.8008 28.0037 18.8008C30.597 18.8008 32.6939 20.8582 32.6939 23.4005Z" fill="white"/>
<path d="M184.793 17.0447C184.793 10.6688 189.839 6.19531 196.103 6.19531C199.698 6.19531 202.946 7.69316 204.802 9.70751L202.165 12.4277C200.629 10.8983 198.482 9.93419 196.103 9.93419C191.956 9.93419 188.852 12.9385 188.852 17.016C188.852 21.0131 191.868 24.1006 196.041 24.1006C198.391 24.1006 200.652 23.0791 202.044 21.6932V18.5196H195.839V15.1193H205.698V23.5899C203.06 26.3101 199.665 27.8108 195.927 27.8108C189.463 27.8137 184.793 23.2513 184.793 17.0447Z" fill="white"/>
<path d="M49.4566 19.6266H46.8193V27.4745H42.875V6.53906H50.8516C55.7503 6.53906 58.0411 9.68397 58.0411 13.0814C58.0411 15.6323 56.6784 18.1804 53.5477 19.1761L58.9428 27.4774H54.2437L49.4566 19.6266ZM46.8163 16.1402H50.414C52.9926 16.1402 53.9794 14.6424 53.9794 13.1101C53.9794 11.5233 52.9074 10.1373 50.8487 10.1373H46.8163V16.1402Z" fill="white"/>
<path d="M68.0469 6.53906H82.2849V10.166H72.0205V15.0957H81.5037V18.694H72.0205V23.8504H82.2849V27.4774H68.0469V6.53906Z" fill="white"/>
<path d="M103.396 22.7131H95.7979L94.0299 27.4735H89.8242L98.118 6.53516H101.164L109.369 27.4735H105.164L103.396 22.7131ZM96.9609 19.2296H102.268L99.6305 12.0617L96.9609 19.2296Z" fill="white"/>
<path d="M117.66 6.53906H121.634V23.7643H132.653V27.4745H117.66V6.53906Z" fill="white"/>
<path d="M156.21 13.3655C156.21 16.8518 153.949 20.0828 148.495 20.0828H145.015V27.4774H141.07V6.53906H148.812C154.063 6.53906 156.21 9.93935 156.21 13.3655ZM152.178 13.3081C152.178 11.6381 151.047 10.1373 148.9 10.1373H145.012V16.5391H148.609C151.106 16.5391 152.178 14.8949 152.178 13.3081Z" fill="white"/>
<path d="M174.017 22.7131H166.419L164.651 27.4735H160.445L168.739 6.53516H171.785L179.99 27.4735H175.785L174.017 22.7131ZM167.579 19.2296H172.886L170.249 12.0617L167.579 19.2296Z" fill="white"/>
<path d="M214.156 6.53906H228.394V10.166H218.13V15.0957H227.613V18.694H218.13V23.8504H228.394V27.4774H214.156V6.53906Z" fill="white"/>
<path d="M232.005 6.53516C232.942 6.53516 233.688 7.24391 233.688 8.14778C233.688 9.05166 232.942 9.77189 231.996 9.77189C231.051 9.77189 230.293 9.05452 230.293 8.14778C230.293 7.24104 231.048 6.53516 231.996 6.53516H232.005ZM231.985 6.8594C231.268 6.8594 230.716 7.43903 230.716 8.14778C230.716 8.86514 231.271 9.43616 232.005 9.43616C232.722 9.44477 233.265 8.86514 233.265 8.15639C233.265 7.43903 232.722 6.85653 231.996 6.85653H231.985V6.8594ZM231.732 8.98566H231.35V7.37303C231.503 7.35295 231.711 7.32425 231.985 7.32425C232.296 7.32425 232.437 7.37303 232.549 7.45338C232.648 7.52224 232.719 7.63989 232.719 7.79771C232.719 7.9957 232.566 8.12196 232.375 8.18221V8.2023C232.537 8.25108 232.616 8.38021 232.666 8.59541C232.716 8.84219 232.757 8.93114 232.786 8.98853H232.384C232.334 8.92827 232.305 8.79054 232.252 8.59541C232.223 8.42899 232.12 8.34864 231.908 8.34864H231.726V8.98566H231.732ZM231.741 8.07891H231.923C232.134 8.07891 232.305 8.01005 232.305 7.84362C232.305 7.69441 232.193 7.59685 231.952 7.59685C231.852 7.59685 231.782 7.60546 231.741 7.61693V8.07891Z" fill="white"/>
</svg>
