<svg width="125" height="28" viewBox="0 0 125 28" fill="none" xmlns="http://www.w3.org/2000/svg">
<path fill-rule="evenodd" clip-rule="evenodd" d="M0.00826779 5.60067L0.0353001 11.2013L1.96707 12.1917C3.02961 12.7364 3.93719 13.1821 3.98402 13.1821C4.03086 13.1821 4.06921 10.7194 4.06921 7.70933C4.06921 2.99764 4.04762 2.22018 3.91435 2.11857C3.74817 1.99195 0.0875838 0 0.0210505 0C-0.000847813 0 -0.00661051 2.52029 0.00826779 5.60067ZM10.9845 8.20448L0.0353001 16.4074L0.00826779 22.2037C-0.00661051 25.3917 0.00543879 28 0.0348811 28C0.0643233 28 5.01544 24.3802 11.0373 19.9559L21.986 11.9118V5.95592C21.986 2.68021 21.9742 0.000288657 21.9598 0.000673537C21.9455 0.00115464 17.0065 3.69282 10.9845 8.20448ZM29.0061 0.670557C29.0061 0.723478 30.1618 3.61392 31.5744 7.09381L34.1427 13.4209L33.2508 17.2744C32.7602 19.3938 32.3589 21.1593 32.3589 21.1978C32.3589 21.2362 33.6638 21.2561 35.2587 21.2421L38.1585 21.2165L38.3994 20.1581C38.532 19.5759 38.9321 17.8339 39.2889 16.2869L39.9373 13.4741L45.4186 7.09786C48.4334 3.59093 50.901 0.689223 50.9022 0.649485C50.9034 0.609746 49.349 0.57732 47.4479 0.57732H43.9916L43.545 1.14454C43.2995 1.45648 41.8962 3.36106 40.4267 5.37696C38.9573 7.39277 37.7302 9.04275 37.6999 9.04342C37.6698 9.0441 37.0527 7.15039 36.3289 4.83505L35.0128 0.62543L32.0095 0.599931C30.059 0.583285 29.0061 0.60811 29.0061 0.670557ZM49.6099 10.8645C45.9998 16.5223 43.0462 21.1769 43.0462 21.2081C43.0462 21.2392 44.4103 21.2646 46.0776 21.2646H49.109L49.3095 21C49.4197 20.8545 49.9512 20.0102 50.4905 19.1237L51.4708 17.512H55.3767H59.2826L59.3322 17.7285C59.3596 17.8476 59.4901 18.6811 59.6224 19.5808L59.8628 21.2165L62.7373 21.2421C64.3182 21.2562 65.6428 21.2346 65.6809 21.194C65.7445 21.1264 62.2048 1.0258 62.0744 0.713952C62.027 0.600412 61.5224 0.57732 59.0955 0.57732H56.1735L49.6099 10.8645ZM71.7026 0.793814C71.477 1.66037 67.1448 20.954 67.1448 21.092C67.1448 21.2584 67.2974 21.2663 70.0524 21.2421L72.9599 21.2165L73.7981 17.512L74.6364 13.8076L76.9938 13.7807C78.9675 13.7582 79.4244 13.7793 79.8007 13.9103C80.3908 14.1159 80.8263 14.4616 81.1109 14.9503C81.3343 15.3337 81.3421 15.4427 81.3421 18.1856C81.3421 19.7467 81.3802 21.0782 81.4268 21.1443C81.4914 21.2358 82.2144 21.2646 84.4504 21.2646C87.1526 21.2646 87.3837 21.2517 87.322 21.1039C87.0886 20.5452 87.0438 19.8134 87.0729 17.0336C87.1045 14.027 87.1026 13.9949 86.8549 13.4305C86.5601 12.7585 85.9173 12.0805 85.4177 11.9146C85.2219 11.8496 85.0617 11.7705 85.0617 11.7387C85.0617 11.7071 85.34 11.6283 85.6804 11.5638C87.1759 11.2801 88.6222 10.2892 89.2402 9.12463C89.764 8.13761 89.9213 7.42096 89.9229 6.01375C89.9249 4.17623 89.5399 3.085 88.5648 2.1636C87.9815 1.61245 87.374 1.30619 86.2973 1.02051C84.9121 0.652948 83.4219 0.579436 77.3363 0.578282L71.759 0.57732L71.7026 0.793814ZM94.7711 0.647464C94.7174 0.72723 89.9862 21.0527 89.9862 21.2035C89.9862 21.3022 99.6489 21.2718 101.213 21.1682C102 21.116 102.99 21.0073 103.414 20.9265C108.136 20.0251 111.521 17.1122 112.667 12.9648C113.336 10.5395 113.282 7.56241 112.532 5.57864C111.724 3.44208 110.176 2.03342 107.798 1.27058C106.025 0.701828 105.414 0.650254 99.8742 0.601856C96.8167 0.575203 94.8077 0.5931 94.7711 0.647464ZM118.484 0.601375C118.483 0.614653 117.427 5.23677 116.139 10.8729C114.85 16.5089 113.816 21.1528 113.842 21.1924C113.867 21.2322 115.183 21.2646 116.766 21.2646C118.972 21.2646 119.656 21.2365 119.694 21.1443C119.74 21.0343 124.353 0.708082 124.353 0.617058C124.353 0.575299 118.487 0.559711 118.484 0.601375ZM82.4063 4.95446C83.6132 5.28363 84.0722 5.85931 84.0564 7.02406C84.0398 8.25134 83.4828 8.98656 82.2127 9.45755C81.6971 9.64874 81.4322 9.66635 78.5918 9.69868C76.0761 9.72726 75.5358 9.71052 75.5752 9.60554C75.6016 9.5352 75.837 8.52509 76.0982 7.36083C76.3595 6.19656 76.5981 5.14652 76.6284 5.02749L76.6835 4.811H79.282C81.2794 4.811 82.002 4.84419 82.4063 4.95446ZM104.913 5.56623C106.602 6.27364 107.381 7.8247 107.241 10.1993C107.082 12.8775 105.77 15.0141 103.682 15.9927C102.645 16.4788 102.105 16.5498 99.4464 16.5498C97.5636 16.5498 97.0064 16.5223 97.0071 16.4296C97.0079 16.3291 99.294 6.19079 99.4714 5.50089L99.529 5.2767L101.961 5.3124C104.219 5.34559 104.43 5.36368 104.913 5.56623ZM58.4005 10.0353C58.6137 11.8766 58.7658 13.4037 58.7386 13.4287C58.7113 13.4539 57.5808 13.4627 56.2264 13.4485L53.7637 13.4227L55.8179 9.84128C57.452 6.99221 57.8864 6.30356 57.9424 6.47358C57.981 6.59107 58.1871 8.1939 58.4005 10.0353Z" fill="white"/>
</svg>
