<svg width="153" height="28" viewBox="0 0 153 28" fill="none" xmlns="http://www.w3.org/2000/svg">
<g clip-path="url(#clip0_5541_380030)">
<path d="M14.3937 12.8081C14.3937 12.3007 14.3778 11.8205 14.3778 11.4C14.3778 8.72491 13.1191 7.38741 12.0626 6.73627C10.9832 6.12554 9.76566 5.81403 8.53133 5.83284C5.91282 5.83284 3.98351 6.58431 2.79134 8.06296C2.10394 8.93929 1.68883 10.0049 1.59916 11.1233C1.5965 11.1521 1.5965 11.1812 1.59916 11.2101C1.63192 11.5674 1.79554 11.8991 2.05743 12.1389C2.31931 12.3787 2.66022 12.5092 3.01221 12.5042C3.34481 12.5388 3.67772 12.4417 3.94218 12.2332C4.20663 12.0247 4.38244 11.7206 4.43325 11.3837C4.73662 9.94582 5.40987 8.61367 8.28651 8.61367C9.81133 8.61367 10.8066 8.93384 11.3281 9.59309C11.507 9.79003 11.6429 10.0234 11.7268 10.2778C11.8108 10.5322 11.8409 10.8019 11.8152 11.069C11.8152 11.5574 11.6342 12.1542 10.2185 12.4716C9.30042 12.6751 8.33443 12.789 7.40038 12.8976L6.95331 12.9519C1.6577 13.5894 0.859375 16.4381 0.859375 18.0768C0.859375 21.0503 4.3667 22.7324 6.90007 22.8138C7.02518 22.8138 7.18478 22.8138 7.36844 22.8138C8.32658 22.8352 9.27955 22.6646 10.1733 22.3119L10.2504 22.2793C11.1263 21.939 11.9197 21.4099 12.5765 20.7282C13.2332 20.0464 13.7379 19.228 14.0558 18.3291C14.4683 17.1978 14.431 14.8646 14.3937 12.8081ZM11.7007 15.8331C11.7007 19.2407 8.49144 19.9868 7.25404 19.9868C5.56687 19.9868 3.74934 19.0725 3.74934 17.5911C3.74934 15.9959 5.15706 15.494 8.11624 15.0328C8.88526 14.9134 10.1386 14.6882 10.9689 14.5254C11.2203 14.4719 11.4656 14.392 11.7007 14.2867V15.8331Z" fill="white"/>
<path d="M16.9531 7.50015C16.9531 6.83547 17.2778 6.50173 17.9324 6.50173H18.6164C19.2683 6.50173 19.5956 6.83547 19.5956 7.35092V8.25708C19.5954 8.52947 19.5759 8.8015 19.5371 9.07098H19.5956C19.5956 9.07098 20.8729 6.13281 24.6517 6.13281C28.6913 6.13281 31.2459 9.40203 31.2459 14.1579C31.2459 19.0414 28.364 22.1804 24.4441 22.1804C23.4973 22.21 22.5608 21.9723 21.7381 21.4936C20.9154 21.0148 20.2384 20.3136 19.7819 19.4674H19.7234C19.7846 19.9086 19.814 20.3539 19.8111 20.7995V26.8821C19.8111 27.5495 19.4838 27.8832 18.8611 27.8832H17.9324C17.2778 27.8832 16.9531 27.5495 16.9531 26.8821V7.50015ZM23.9918 19.6437C26.3681 19.6437 28.3267 17.6741 28.3267 14.1932C28.3267 10.8616 26.5757 8.7129 24.0689 8.7129C21.823 8.70476 19.7526 10.3163 19.7526 14.2231C19.7526 16.9497 21.2295 19.6437 23.9918 19.6437Z" fill="white"/>
<path d="M33.8555 7.50015C33.8555 6.83547 34.1802 6.50173 34.8348 6.50173H35.5187C36.1708 6.50173 36.4979 6.83547 36.4979 7.35092V8.25708C36.4979 8.52947 36.4782 8.8015 36.4394 9.07098H36.4979C36.4979 9.07098 37.7753 6.13281 41.5541 6.13281C45.5937 6.13281 48.1482 9.40203 48.1482 14.1579C48.1482 19.0414 45.2691 22.1804 41.3463 22.1804C40.3995 22.21 39.4633 21.9723 38.6404 21.4936C37.8179 21.0148 37.1408 20.3136 36.6842 19.4674H36.6257C36.687 19.9086 36.7162 20.3539 36.7134 20.7995V26.8821C36.7134 27.5495 36.3863 27.8832 35.7635 27.8832H34.8428C34.1881 27.8832 33.8635 27.5495 33.8635 26.8821L33.8555 7.50015ZM40.8942 19.6437C43.2706 19.6437 45.229 17.6741 45.229 14.1932C45.229 10.8616 43.478 8.7129 40.9713 8.7129C38.7147 8.7129 36.6363 10.3163 36.6363 14.2231C36.6496 16.9497 38.1345 19.6437 40.8967 19.6437H40.8942Z" fill="white"/>
<path d="M51.2989 9.04915H50.3542C50.2219 9.06369 50.0877 9.04782 49.9623 9.00266C49.8366 8.95754 49.7226 8.8842 49.6282 8.78821C49.5342 8.69219 49.4624 8.57584 49.418 8.44776C49.3736 8.31964 49.3581 8.18309 49.3722 8.04801V7.65464C49.3585 7.51985 49.3743 7.38355 49.4187 7.25582C49.4634 7.12806 49.5352 7.01212 49.6293 6.91634C49.7236 6.82064 49.8374 6.74762 49.9631 6.70257C50.0884 6.65759 50.2222 6.64176 50.3542 6.65626H51.3042V5.92913C51.2989 1.08366 55.1893 0.296875 56.7407 0.296875H57.0973C57.7442 0.296875 58.0713 0.660425 58.0713 1.29527V1.87044C58.0713 2.53785 57.7178 2.80915 57.034 2.87156C55.9344 2.93124 54.1809 3.20254 54.1809 6.05125V6.65626H56.765C56.897 6.64176 57.0308 6.65759 57.1565 6.70257C57.2819 6.74762 57.3952 6.82064 57.4896 6.91634C57.584 7.01212 57.6558 7.12806 57.7005 7.25582C57.7445 7.38355 57.7611 7.51985 57.747 7.65464V8.04801C57.7611 8.18309 57.7456 8.31964 57.7016 8.44776C57.6568 8.57584 57.585 8.69219 57.4906 8.78821C57.397 8.8842 57.2822 8.95754 57.1569 9.00266C57.0315 9.04782 56.8974 9.06369 56.765 9.04915H54.1809V20.8265C54.1809 21.4939 53.8562 21.8276 53.2017 21.8276H52.2809C51.6584 21.8276 51.3017 21.4939 51.3017 20.8265L51.2989 9.04915Z" fill="white"/>
<path d="M66.2757 6.14062C70.7622 6.14062 74.3843 9.5021 74.3843 14.136C74.3843 18.7698 70.7622 22.1883 66.2757 22.1883C61.7889 22.1883 58.1992 18.7969 58.1992 14.1333C58.1992 9.46954 61.7998 6.14062 66.2757 6.14062ZM66.2757 19.6461C69.1281 19.6461 71.4432 17.3455 71.4432 14.136C71.4432 10.9264 69.1281 8.68543 66.2757 8.68543C63.423 8.68543 61.1079 10.9563 61.1079 14.1333C61.1079 17.3103 63.4547 19.6461 66.2757 19.6461Z" fill="white"/>
<path d="M76.8867 1.44371C76.8867 0.77992 77.2142 0.447118 77.8687 0.445312H78.7891C79.412 0.445312 79.7687 0.779015 79.7687 1.44371V17.2797C79.7687 19.008 80.5109 19.2494 81.1338 19.3091C81.2419 19.3121 81.3486 19.3375 81.4475 19.3839C81.5454 19.4303 81.6338 19.4966 81.7063 19.5789C81.7785 19.6611 81.8341 19.7576 81.869 19.8623C81.9035 19.9671 81.9168 20.0779 81.908 20.1881V20.9126C81.908 21.5474 81.6422 21.9408 80.8968 21.9408C79.3004 21.9408 76.8867 21.4877 76.8867 17.6406V1.44371Z" fill="white"/>
<path d="M84.4961 7.50229C84.4961 6.83761 84.8524 6.50391 85.4756 6.50391H86.396C87.0506 6.50391 87.3752 6.83761 87.3752 7.50229V20.8261C87.3752 21.4935 87.0506 21.8272 86.396 21.8272H85.4834C84.8605 21.8272 84.5038 21.4935 84.5038 20.8261L84.4961 7.50229Z" fill="white"/>
<path d="M97.9536 6.14062C102.44 6.14062 106.062 9.5021 106.062 14.136C106.062 18.7698 102.44 22.1883 97.9536 22.1883C93.4675 22.1883 89.875 18.7969 89.875 14.1333C89.875 9.46954 93.4647 6.14062 97.9536 6.14062ZM97.9536 19.6461C100.806 19.6461 103.122 17.3455 103.122 14.136C103.122 10.9264 100.806 8.68543 97.9536 8.68543C95.1013 8.68543 92.7862 10.9563 92.7862 14.1333C92.7862 17.3103 95.1333 19.6461 97.9536 19.6461Z" fill="white"/>
<path d="M112.174 6.20137H114.54C114.818 6.18845 115.095 6.23379 115.355 6.33462C115.615 6.43539 115.852 6.5895 116.051 6.7874C116.244 6.99259 116.394 7.23533 116.492 7.50108C116.59 7.76682 116.635 8.05005 116.623 8.33382C116.636 8.61935 116.592 8.90456 116.494 9.17217C116.395 9.43986 116.245 9.68436 116.051 9.89113C115.852 10.089 115.615 10.2431 115.355 10.3439C115.095 10.4447 114.818 10.4901 114.54 10.4771H113.018V12.2813C113.018 12.4197 112.948 12.4875 112.807 12.4875H112.174C112.033 12.4875 111.961 12.4197 111.961 12.2813V6.40757C111.961 6.26376 112.033 6.20137 112.174 6.20137ZM114.417 9.47332C114.566 9.48229 114.716 9.45903 114.856 9.40507C114.996 9.35108 115.124 9.26759 115.23 9.16011C115.336 9.05256 115.419 8.92337 115.473 8.781C115.527 8.63859 115.55 8.48628 115.543 8.33382C115.549 8.18341 115.524 8.03333 115.47 7.89322C115.416 7.75308 115.334 7.62596 115.229 7.51992C115.122 7.41743 114.997 7.33735 114.86 7.28425C114.723 7.23123 114.577 7.20621 114.431 7.21063H113.031V9.47874L114.417 9.47332Z" fill="white"/>
<path d="M118.175 12.2825V9.41211C118.156 9.23302 118.176 9.05185 118.235 8.88187C118.293 8.71186 118.388 8.5575 118.513 8.43014C118.638 8.30277 118.79 8.20564 118.956 8.14597C119.123 8.08631 119.301 8.0656 119.476 8.08541H120.4C120.541 8.08541 120.61 8.15322 120.61 8.29161V8.8016C120.614 8.83093 120.612 8.86087 120.603 8.88909C120.594 8.9173 120.579 8.94297 120.558 8.96408C120.538 8.98522 120.513 9.00112 120.486 9.0106C120.458 9.02008 120.429 9.0228 120.4 9.01868H119.601C119.54 9.01426 119.478 9.02255 119.42 9.04309C119.362 9.06362 119.309 9.09593 119.263 9.13804C119.222 9.18309 119.191 9.23618 119.171 9.29405C119.151 9.35184 119.143 9.41326 119.147 9.4745V12.2825C119.15 12.3105 119.148 12.3391 119.139 12.366C119.13 12.3929 119.116 12.4173 119.096 12.4374C119.076 12.4574 119.052 12.4724 119.026 12.4813C119 12.4903 118.972 12.4928 118.944 12.4887H118.372C118.344 12.4919 118.317 12.4887 118.292 12.4793C118.266 12.47 118.243 12.4548 118.224 12.4349C118.205 12.415 118.19 12.3909 118.182 12.3644C118.173 12.338 118.171 12.31 118.175 12.2825Z" fill="white"/>
<path d="M122.584 8.60643C123.031 8.19594 123.611 7.96875 124.212 7.96875C124.813 7.96875 125.393 8.19594 125.839 8.60643C126.049 8.82853 126.212 9.09162 126.319 9.37977C126.426 9.66792 126.474 9.97524 126.462 10.2831C126.472 10.5906 126.422 10.897 126.313 11.1843C126.205 11.4715 126.042 11.7336 125.832 11.9549C125.622 12.1761 125.371 12.3521 125.093 12.4723C124.815 12.5925 124.517 12.6544 124.215 12.6544C123.913 12.6544 123.614 12.5925 123.336 12.4723C123.059 12.3521 122.807 12.1761 122.597 11.9549C122.388 11.7336 122.224 11.4715 122.116 11.1843C122.007 10.897 121.957 10.5906 121.967 10.2831C121.953 9.97542 122 9.66803 122.106 9.37966C122.212 9.0913 122.375 8.82813 122.584 8.60643ZM122.952 10.2831C122.944 10.4629 122.971 10.6427 123.032 10.8118C123.092 10.9808 123.185 11.1359 123.306 11.2679C123.546 11.5126 123.872 11.65 124.212 11.65C124.552 11.65 124.878 11.5126 125.118 11.2679C125.352 10.9944 125.474 10.64 125.459 10.2776C125.479 9.91278 125.362 9.55384 125.131 9.27384C124.89 9.02877 124.563 8.89124 124.222 8.89124C123.882 8.89124 123.555 9.02877 123.314 9.27384C123.068 9.54885 122.938 9.91127 122.952 10.2831Z" fill="white"/>
<path d="M128.265 14.039V8.29005C128.261 8.26205 128.263 8.23344 128.272 8.20659C128.281 8.17967 128.295 8.15526 128.315 8.13519C128.335 8.11516 128.359 8.10008 128.385 8.09118C128.412 8.08231 128.44 8.07977 128.467 8.08386H128.922C128.975 8.07779 129.027 8.09323 129.069 8.12679C129.11 8.16036 129.137 8.20936 129.143 8.26295L129.239 8.80554H129.258C129.35 8.54895 129.53 8.33435 129.764 8.20056C130.019 8.04426 130.314 7.96439 130.612 7.96996C130.884 7.95998 131.154 8.01206 131.403 8.12238C131.652 8.23272 131.874 8.39846 132.052 8.60749C132.427 9.07868 132.617 9.67541 132.584 10.2814C132.618 10.8893 132.428 11.4883 132.052 11.9608C131.874 12.1686 131.653 12.3332 131.405 12.4426C131.157 12.552 130.888 12.6034 130.617 12.5929C130.319 12.5979 130.026 12.5191 129.769 12.3651C129.536 12.2329 129.357 12.0216 129.263 11.7682H129.244V14.0471C129.248 14.0752 129.246 14.1038 129.237 14.1307C129.228 14.1576 129.214 14.182 129.194 14.202C129.174 14.222 129.151 14.2371 129.124 14.246C129.097 14.255 129.07 14.2574 129.042 14.2533H128.472C128.444 14.2588 128.414 14.257 128.387 14.2481C128.359 14.2392 128.334 14.2235 128.313 14.2024C128.293 14.1812 128.278 14.1553 128.269 14.1268C128.261 14.0983 128.259 14.0682 128.265 14.039ZM129.566 11.2934C129.667 11.4215 129.796 11.524 129.943 11.5927C130.089 11.6615 130.249 11.6946 130.41 11.6895C130.571 11.6928 130.73 11.6588 130.876 11.5902C131.022 11.5216 131.151 11.4201 131.253 11.2934C131.479 11.0076 131.595 10.6478 131.578 10.2814C131.595 9.9142 131.479 9.55336 131.253 9.26675C131.149 9.14057 131.018 9.04027 130.87 8.9735C130.722 8.90677 130.561 8.87532 130.399 8.88153C130.239 8.87611 130.078 8.90796 129.932 8.97472C129.784 9.04146 129.654 9.14132 129.55 9.26675C129.326 9.55418 129.212 9.91466 129.228 10.2814C129.214 10.6498 129.335 11.0102 129.566 11.2934Z" fill="white"/>
<path d="M134.221 10.2804C134.193 9.66469 134.405 9.06269 134.812 8.60647C135.012 8.39597 135.253 8.23084 135.52 8.12193C135.787 8.01301 136.073 7.96272 136.361 7.97428C136.64 7.96286 136.918 8.01211 137.178 8.11877C137.437 8.22542 137.671 8.38703 137.864 8.59286C138.256 9.03842 138.461 9.62269 138.436 10.2207V10.3916C138.441 10.4201 138.438 10.4491 138.43 10.4765C138.421 10.5039 138.407 10.529 138.387 10.5497C138.368 10.5705 138.343 10.5864 138.317 10.5961C138.29 10.6058 138.262 10.6092 138.234 10.606H135.163C135.2 10.9183 135.346 11.207 135.573 11.4199C135.81 11.6237 136.113 11.7293 136.422 11.7156C136.628 11.7329 136.833 11.6913 137.017 11.5954C137.2 11.4995 137.354 11.3532 137.46 11.173C137.48 11.1426 137.508 11.1172 137.54 11.0989C137.572 11.0806 137.607 11.0697 137.643 11.0672C137.673 11.0676 137.703 11.073 137.731 11.0835L138.136 11.2544C138.231 11.2951 138.276 11.3493 138.276 11.4145C138.276 11.4535 138.264 11.4914 138.242 11.523C138.07 11.8474 137.811 12.1148 137.494 12.2935C137.071 12.5284 136.587 12.6216 136.109 12.5597C135.631 12.4979 135.185 12.2842 134.833 11.949C134.627 11.7264 134.467 11.4642 134.362 11.1777C134.257 10.8912 134.209 10.5861 134.221 10.2804ZM135.155 10.0091H137.502C137.499 9.69057 137.377 9.38516 137.162 9.15451C137.051 9.04908 136.921 8.96738 136.779 8.91425C136.636 8.86116 136.485 8.83765 136.334 8.84522C136.187 8.83937 136.041 8.86378 135.904 8.91691C135.767 8.97007 135.642 9.05084 135.536 9.15451C135.319 9.38462 135.184 9.68303 135.155 10.0009V10.0091Z" fill="white"/>
<path d="M140.167 12.2825V9.41211C140.148 9.23302 140.168 9.05185 140.227 8.88187C140.285 8.71186 140.38 8.5575 140.505 8.43014C140.63 8.30277 140.782 8.20564 140.948 8.14597C141.116 8.08631 141.293 8.0656 141.468 8.08541H142.394C142.533 8.08541 142.605 8.15322 142.605 8.29161V8.8016C142.609 8.83082 142.606 8.86058 142.597 8.88848C142.588 8.91644 142.573 8.94186 142.552 8.96286C142.532 8.98378 142.507 8.99972 142.48 9.00942C142.452 9.01907 142.423 9.02227 142.394 9.01868H141.596C141.535 9.01426 141.474 9.02255 141.416 9.04309C141.357 9.06362 141.304 9.09593 141.258 9.13804C141.217 9.18291 141.185 9.23582 141.164 9.29369C141.144 9.35152 141.135 9.41305 141.139 9.4745V12.2825C141.143 12.3105 141.14 12.3391 141.131 12.366C141.123 12.3929 141.108 12.4173 141.088 12.4374C141.069 12.4574 141.044 12.4724 141.018 12.4813C140.992 12.4903 140.964 12.4928 140.936 12.4887H140.364C140.337 12.4919 140.31 12.4887 140.284 12.4793C140.259 12.47 140.235 12.4548 140.216 12.4349C140.197 12.415 140.182 12.3909 140.174 12.3644C140.166 12.338 140.163 12.31 140.167 12.2825Z" fill="white"/>
<path d="M144.139 6.91125C144.135 6.88318 144.137 6.85464 144.146 6.82772C144.154 6.80083 144.17 6.77642 144.189 6.75639C144.209 6.73632 144.233 6.72125 144.259 6.71234C144.285 6.70344 144.313 6.70093 144.341 6.70506H144.913C144.941 6.70093 144.968 6.70344 144.995 6.71234C145.021 6.72125 145.045 6.73632 145.065 6.75639C145.084 6.77642 145.099 6.80083 145.108 6.82772C145.117 6.85464 145.119 6.88318 145.115 6.91125V8.086H146.156C146.297 8.086 146.368 8.15381 146.368 8.29219V8.74794C146.372 8.77688 146.368 8.80621 146.359 8.8336C146.349 8.86095 146.333 8.88575 146.312 8.90593C146.292 8.9261 146.267 8.94122 146.24 8.95005C146.213 8.95884 146.184 8.96121 146.156 8.95687H145.118V11.149C145.115 11.2109 145.126 11.2725 145.15 11.3295C145.174 11.3864 145.21 11.4369 145.256 11.4773C145.359 11.5618 145.489 11.6044 145.621 11.5967H146.209C146.236 11.5923 146.265 11.5946 146.292 11.6033C146.319 11.612 146.344 11.6268 146.364 11.6468C146.384 11.6667 146.4 11.6912 146.41 11.7182C146.419 11.7453 146.423 11.7743 146.419 11.8029V12.2885C146.419 12.4269 146.35 12.4947 146.209 12.4947H145.442C145.268 12.5054 145.095 12.4807 144.93 12.422C144.765 12.3634 144.614 12.2719 144.484 12.1528C144.365 12.0261 144.274 11.8755 144.215 11.7107C144.155 11.5458 144.13 11.3703 144.141 11.1951L144.139 6.91125Z" fill="white"/>
<path d="M147.957 8.08329H148.643C148.696 8.07751 148.748 8.09183 148.791 8.12349C148.833 8.15508 148.862 8.20175 148.872 8.25423L149.963 11.5886L151.047 8.25423C151.061 8.20247 151.092 8.15731 151.135 8.12622C151.179 8.09517 151.231 8.07998 151.283 8.08329H151.951C152.082 8.08329 152.146 8.12399 152.146 8.20807C152.144 8.24576 152.135 8.2827 152.119 8.31662L149.972 14.109C149.957 14.1607 149.926 14.2058 149.883 14.2369C149.84 14.268 149.787 14.2832 149.734 14.2799H149.109C149.082 14.2837 149.055 14.2812 149.029 14.2727C149.003 14.2643 148.98 14.25 148.96 14.2311C148.938 14.2015 148.925 14.1653 148.925 14.128C148.927 14.0972 148.933 14.0669 148.944 14.0384L149.428 12.709L147.792 8.32477C147.776 8.29085 147.767 8.25387 147.766 8.21621C147.766 8.12672 147.829 8.08329 147.957 8.08329Z" fill="white"/>
<path d="M150.171 22.5913V19.7209C150.152 19.5415 150.172 19.36 150.232 19.1898C150.29 19.0196 150.386 18.8651 150.512 18.7378C150.637 18.6104 150.789 18.5134 150.956 18.454C151.124 18.3945 151.302 18.3741 151.478 18.3942H152.404C152.542 18.3942 152.614 18.4621 152.614 18.6004V19.1105C152.618 19.1397 152.615 19.1694 152.606 19.1973C152.597 19.2253 152.581 19.2507 152.561 19.2717C152.541 19.2926 152.516 19.3085 152.488 19.3183C152.461 19.3279 152.433 19.3311 152.404 19.3275H151.605C151.544 19.3231 151.482 19.3314 151.424 19.3519C151.366 19.3725 151.312 19.4048 151.267 19.4469C151.226 19.4917 151.194 19.5447 151.173 19.6025C151.153 19.6604 151.144 19.7219 151.147 19.7833V22.5913C151.152 22.6193 151.149 22.6479 151.141 22.6749C151.131 22.7017 151.117 22.7262 151.097 22.7462C151.078 22.7662 151.054 22.7813 151.027 22.7902C151.001 22.7991 150.973 22.8016 150.945 22.7975H150.373C150.346 22.8016 150.318 22.7991 150.291 22.7902C150.265 22.7813 150.241 22.7662 150.221 22.7462C150.202 22.7262 150.187 22.7017 150.178 22.6749C150.17 22.6479 150.167 22.6193 150.171 22.5913Z" fill="white"/>
<path d="M112.174 16.5097H113.185C113.236 16.5062 113.287 16.52 113.33 16.549C113.373 16.5779 113.405 16.6204 113.422 16.6698L115.284 21.4963L117.147 16.6698C117.162 16.6202 117.192 16.5771 117.234 16.5479C117.276 16.5187 117.326 16.5052 117.376 16.5097H118.396C118.423 16.5056 118.451 16.5081 118.477 16.517C118.504 16.5259 118.528 16.541 118.547 16.5611C118.567 16.5811 118.582 16.6055 118.591 16.6324C118.599 16.6593 118.602 16.6879 118.598 16.7159V22.5897C118.602 22.6177 118.599 22.6463 118.591 22.6732C118.582 22.7001 118.567 22.7245 118.547 22.7445C118.528 22.7646 118.504 22.7796 118.477 22.7886C118.451 22.7975 118.423 22.8 118.396 22.7959H117.754C117.727 22.8 117.699 22.7975 117.672 22.7886C117.646 22.7796 117.622 22.7646 117.603 22.7445C117.583 22.7245 117.568 22.7001 117.559 22.6732C117.551 22.6463 117.548 22.6177 117.552 22.5897V18.105L115.82 22.625C115.807 22.6763 115.777 22.7216 115.736 22.7528C115.694 22.7841 115.643 22.7993 115.59 22.7959H114.947C114.895 22.7997 114.844 22.7846 114.802 22.7532C114.761 22.7219 114.732 22.6763 114.721 22.625L113.004 18.1403V22.5897C113.004 22.7281 112.935 22.7959 112.794 22.7959H112.174C112.033 22.7959 111.961 22.7281 111.961 22.5897V16.7159C111.961 16.5721 112.033 16.5097 112.174 16.5097Z" fill="white"/>
<path d="M121.073 18.916C121.249 18.7087 121.468 18.5444 121.715 18.4354C121.962 18.3264 122.23 18.2756 122.499 18.2866C122.799 18.2806 123.094 18.3605 123.351 18.5173C123.582 18.6492 123.759 18.8595 123.854 19.1114H123.87L123.976 18.5688C123.982 18.5152 124.009 18.4662 124.05 18.4326C124.092 18.3991 124.144 18.3836 124.197 18.3897H124.644C124.672 18.3856 124.699 18.3881 124.726 18.397C124.753 18.406 124.776 18.421 124.796 18.4411C124.816 18.4611 124.83 18.4855 124.84 18.5124C124.848 18.5393 124.85 18.5679 124.846 18.5959V22.5922C124.85 22.6203 124.848 22.6489 124.84 22.6757C124.83 22.7027 124.816 22.7271 124.796 22.7471C124.776 22.7671 124.753 22.7822 124.726 22.7911C124.699 22.8 124.672 22.8025 124.644 22.7984H124.197C124.144 22.8045 124.092 22.7891 124.05 22.7555C124.009 22.722 123.982 22.673 123.976 22.6194L123.87 22.0768H123.854C123.76 22.3299 123.582 22.5413 123.351 22.6736C123.094 22.8295 122.799 22.9084 122.499 22.9015C122.23 22.9125 121.961 22.8616 121.714 22.7526C121.466 22.6437 121.245 22.4795 121.068 22.2721C120.694 21.8009 120.505 21.2058 120.535 20.6009C120.501 19.9905 120.694 19.3893 121.073 18.916ZM121.523 20.5927C121.505 20.9593 121.621 21.3195 121.847 21.6047C121.954 21.7274 122.085 21.8255 122.232 21.8928C122.379 21.96 122.538 21.9947 122.699 21.9947C122.86 21.9947 123.019 21.96 123.166 21.8928C123.312 21.8255 123.443 21.7274 123.55 21.6047C123.774 21.3141 123.888 20.9509 123.87 20.5819C123.888 20.217 123.774 19.8579 123.55 19.5726C123.446 19.4476 123.316 19.3483 123.169 19.2821C123.022 19.2158 122.862 19.1844 122.702 19.1901C122.54 19.1835 122.379 19.2146 122.231 19.2809C122.083 19.3471 121.952 19.447 121.847 19.5726C121.617 19.8589 121.501 20.2232 121.523 20.5927Z" fill="white"/>
<path d="M126.811 18.5994C126.806 18.5714 126.809 18.5427 126.818 18.5159C126.826 18.489 126.842 18.4646 126.861 18.4445C126.881 18.4245 126.905 18.4094 126.931 18.4005C126.957 18.3916 126.985 18.3891 127.013 18.3932H127.47C127.497 18.3902 127.523 18.3925 127.548 18.3999C127.573 18.4073 127.596 18.4196 127.616 18.4363C127.637 18.453 127.653 18.4735 127.666 18.4969C127.678 18.5202 127.686 18.5458 127.688 18.5723L127.787 19.1149H127.793C127.885 18.8582 128.064 18.6437 128.298 18.5099C128.558 18.3528 128.856 18.273 129.157 18.2793C129.373 18.2683 129.588 18.304 129.789 18.384C129.99 18.4639 130.172 18.5864 130.323 18.7432C130.622 19.078 130.779 19.5199 130.759 19.9722V22.5822C130.764 22.6102 130.762 22.6388 130.752 22.6657C130.744 22.6926 130.729 22.717 130.709 22.737C130.689 22.7571 130.666 22.7721 130.639 22.781C130.613 22.7899 130.585 22.7925 130.558 22.7884H129.985C129.958 22.7925 129.93 22.7899 129.903 22.781C129.877 22.7721 129.853 22.7571 129.833 22.737C129.814 22.717 129.799 22.6926 129.79 22.6657C129.781 22.6388 129.779 22.6102 129.783 22.5822V20.3303C129.798 20.0346 129.703 19.7439 129.517 19.5164C129.432 19.4169 129.326 19.3379 129.207 19.2854C129.089 19.2328 128.959 19.208 128.83 19.2125C128.687 19.2091 128.544 19.2382 128.413 19.2978C128.282 19.3574 128.165 19.446 128.072 19.5571C127.876 19.8065 127.777 20.1201 127.793 20.4389V22.5903C127.797 22.6183 127.794 22.6469 127.785 22.6738C127.777 22.7007 127.762 22.7251 127.742 22.7452C127.722 22.7652 127.699 22.7803 127.672 22.7892C127.646 22.7981 127.618 22.8006 127.591 22.7965H127.018C126.991 22.8006 126.962 22.7981 126.936 22.7892C126.91 22.7803 126.886 22.7652 126.866 22.7452C126.847 22.7251 126.832 22.7007 126.823 22.6738C126.814 22.6469 126.812 22.6183 126.816 22.5903L126.811 18.5994Z" fill="white"/>
<path d="M133.061 18.916C133.236 18.7087 133.456 18.5444 133.702 18.4355C133.949 18.3264 134.216 18.2756 134.485 18.2866C134.785 18.28 135.081 18.36 135.339 18.5173C135.568 18.6501 135.745 18.8602 135.839 19.1114H135.858L135.962 18.5688C135.968 18.5155 135.995 18.467 136.037 18.4335C136.078 18.4001 136.13 18.3844 136.182 18.3897H136.632C136.66 18.3856 136.688 18.3881 136.714 18.397C136.741 18.4059 136.764 18.421 136.784 18.4411C136.804 18.4611 136.819 18.4855 136.827 18.5124C136.836 18.5393 136.838 18.5679 136.834 18.5959V22.5922C136.838 22.6203 136.836 22.6489 136.827 22.6757C136.819 22.7027 136.804 22.7271 136.784 22.7471C136.764 22.7671 136.741 22.7822 136.714 22.7911C136.688 22.8 136.66 22.8025 136.632 22.7984H136.182C136.13 22.8038 136.078 22.7881 136.037 22.7547C135.995 22.7212 135.968 22.6727 135.962 22.6194L135.858 22.0768H135.839C135.746 22.3293 135.569 22.5405 135.339 22.6736C135.08 22.8286 134.785 22.9075 134.485 22.9015C134.216 22.9124 133.947 22.8615 133.7 22.7526C133.453 22.6436 133.232 22.4794 133.056 22.2721C132.681 21.8016 132.492 21.206 132.523 20.6009C132.49 19.9905 132.681 19.3893 133.061 18.916ZM133.508 20.5927C133.492 20.9591 133.607 21.3189 133.832 21.6047C133.94 21.7274 134.07 21.8255 134.217 21.8928C134.364 21.96 134.523 21.9947 134.684 21.9947C134.845 21.9947 135.005 21.96 135.151 21.8928C135.298 21.8255 135.429 21.7274 135.536 21.6047C135.76 21.3143 135.874 20.9512 135.858 20.5819C135.875 20.2166 135.761 19.8575 135.536 19.5726C135.432 19.4476 135.301 19.3483 135.154 19.2821C135.007 19.2158 134.848 19.1844 134.687 19.1901C134.525 19.1847 134.365 19.2163 134.217 19.2825C134.07 19.3487 133.938 19.4479 133.832 19.5726C133.604 19.8595 133.488 20.2233 133.508 20.5927Z" fill="white"/>
<path d="M139.159 22.6717C139.013 22.6187 138.887 22.5196 138.8 22.3889C138.713 22.2581 138.669 22.1025 138.674 21.9445C138.671 21.7505 138.733 21.5611 138.849 21.4076C138.966 21.2541 139.131 21.1459 139.316 21.1008C139.114 20.9697 138.951 20.7856 138.843 20.5679C138.735 20.3502 138.687 20.1069 138.703 19.8636C138.691 19.6426 138.729 19.4216 138.815 19.2184C138.902 19.0153 139.034 18.8358 139.201 18.6944C139.615 18.395 140.116 18.2503 140.622 18.2847C140.932 18.2777 141.24 18.3236 141.535 18.4203C141.566 18.1933 141.679 17.9863 141.851 17.8401C142.024 17.6939 142.245 17.6192 142.469 17.6308H142.735C142.763 17.6267 142.791 17.6292 142.817 17.6381C142.843 17.647 142.867 17.6621 142.887 17.6822C142.907 17.7022 142.921 17.7266 142.93 17.7535C142.939 17.7804 142.942 17.809 142.937 17.837V18.2005C142.942 18.229 142.94 18.2581 142.931 18.2854C142.922 18.3129 142.908 18.3379 142.888 18.3587C142.869 18.3794 142.845 18.3953 142.818 18.405C142.791 18.4148 142.763 18.4181 142.735 18.4149H142.429C142.341 18.4034 142.25 18.4205 142.172 18.4637C142.093 18.5071 142.029 18.5744 141.99 18.6564C142.161 18.8004 142.298 18.9798 142.396 19.1827C142.492 19.3855 142.546 19.6071 142.552 19.8326C142.558 20.0581 142.516 20.2824 142.43 20.4903C142.344 20.6983 142.216 20.8851 142.054 21.0384C141.641 21.3354 141.14 21.479 140.636 21.4454C140.375 21.4502 140.114 21.4201 139.861 21.3558C139.643 21.4101 139.534 21.5268 139.534 21.7058C139.534 21.9283 139.715 22.0395 140.066 22.0395H141.493C141.873 22.0107 142.25 22.1214 142.557 22.3515C142.68 22.4595 142.778 22.5949 142.842 22.7473C142.906 22.8996 142.935 23.0649 142.927 23.2305C142.933 23.4485 142.879 23.6639 142.772 23.8526C142.665 24.0413 142.508 24.1961 142.32 24.2995C141.775 24.5757 141.169 24.7019 140.561 24.6657C140.01 24.6945 139.459 24.602 138.946 24.3945C138.784 24.3362 138.644 24.2297 138.543 24.0889C138.442 23.948 138.385 23.7794 138.379 23.6049C138.37 23.1311 138.63 22.82 139.159 22.6717ZM140.591 23.8627C140.941 23.88 141.292 23.8236 141.62 23.6972C141.722 23.6649 141.811 23.6014 141.876 23.5155C141.94 23.4295 141.978 23.3253 141.982 23.217C141.984 23.1571 141.971 23.0977 141.944 23.0445C141.917 22.9913 141.877 22.9461 141.828 22.9131C141.696 22.8326 141.544 22.7948 141.391 22.8046H139.949C139.515 22.8046 139.3 22.9755 139.3 23.3173C139.3 23.6592 139.731 23.8627 140.591 23.8627ZM139.64 19.8636C139.635 19.9743 139.657 20.0846 139.704 20.1849C139.75 20.2851 139.82 20.3723 139.907 20.4388C140.127 20.5728 140.38 20.6435 140.637 20.6435C140.894 20.6435 141.146 20.5728 141.368 20.4388C141.454 20.3717 141.524 20.284 141.571 20.1833C141.617 20.0827 141.639 19.9721 141.634 19.8609C141.636 19.7502 141.614 19.6404 141.567 19.5404C141.52 19.4404 141.451 19.3531 141.365 19.2858C141.143 19.1542 140.891 19.085 140.634 19.085C140.378 19.085 140.126 19.1542 139.904 19.2858C139.818 19.354 139.75 19.4419 139.704 19.5424C139.658 19.6428 139.636 19.753 139.64 19.8636Z" fill="white"/>
<path d="M144.19 20.593C144.162 19.9772 144.374 19.3753 144.781 18.9191C144.981 18.7082 145.222 18.5428 145.489 18.4338C145.756 18.3248 146.042 18.2748 146.33 18.2869C146.609 18.2757 146.888 18.325 147.147 18.4316C147.406 18.5382 147.64 18.6998 147.834 18.9055C148.225 19.351 148.43 19.9353 148.405 20.5333V20.7042C148.41 20.7326 148.408 20.7617 148.399 20.7891C148.39 20.8166 148.376 20.8416 148.356 20.8623C148.337 20.8831 148.312 20.8989 148.286 20.9087C148.259 20.9184 148.231 20.9218 148.203 20.9185H145.132C145.169 21.231 145.315 21.5196 145.542 21.7325C145.779 21.9363 146.082 22.0419 146.391 22.0282C146.597 22.0449 146.802 22.003 146.985 21.9071C147.169 21.8113 147.322 21.6653 147.429 21.4856C147.449 21.4551 147.477 21.4298 147.509 21.4115C147.541 21.3932 147.576 21.3824 147.612 21.3798C147.642 21.3801 147.672 21.3856 147.7 21.396L148.105 21.567C148.198 21.6077 148.246 21.6619 148.246 21.727C148.246 21.766 148.234 21.804 148.211 21.8356C148.039 22.16 147.78 22.4274 147.463 22.606C147.134 22.7987 146.76 22.898 146.38 22.8937C146.086 22.9081 145.791 22.8593 145.516 22.7504C145.241 22.6415 144.992 22.4749 144.784 22.2615C144.581 22.0375 144.424 21.7745 144.322 21.4881C144.221 21.2017 144.175 20.8973 144.19 20.593ZM145.124 20.3217H147.471C147.467 20.0028 147.344 19.6975 147.128 19.4671C147.018 19.3616 146.888 19.2799 146.746 19.2267C146.605 19.1736 146.454 19.1502 146.303 19.1578C146.156 19.152 146.01 19.1764 145.873 19.2295C145.736 19.2826 145.611 19.3634 145.505 19.4671C145.288 19.6972 145.153 19.9956 145.124 20.3135V20.3217Z" fill="white"/>
</g>
<defs>
<clipPath id="clip0_5541_380030">
<rect width="152.108" height="28" fill="white" transform="translate(0.683594)"/>
</clipPath>
</defs>
</svg>
