<svg width="180" height="180" viewBox="0 0 180 180" fill="none" xmlns="http://www.w3.org/2000/svg">
<path opacity="0.5" d="M179.377 90C179.377 139.706 139.222 180 89.6886 180C40.1549 180 0 139.706 0 90C0 40.2944 40.1549 0 89.6886 0C139.222 0 179.377 40.2944 179.377 90ZM35.5018 90C35.5018 120.03 59.7621 144.375 89.6886 144.375C119.615 144.375 143.875 120.03 143.875 90C143.875 59.9696 119.615 35.6251 89.6886 35.6251C59.7621 35.6251 35.5018 59.9696 35.5018 90Z" fill="#687BFE"/>
<path fill-rule="evenodd" clip-rule="evenodd" d="M147.399 21.1026C134.419 10.1535 118.616 3.12538 101.827 0.824159C101.784 0.818142 101.741 0.812279 101.698 0.806571C101.442 0.771872 101.186 0.738271 100.93 0.705771L100.928 0.721544C100.409 0.675734 99.8835 0.652344 99.3528 0.652344C89.5587 0.652344 81.6189 8.61964 81.6189 18.4478C81.6189 27.2961 88.0545 34.6361 96.4848 36.0117L96.48 36.05C106.825 37.3614 116.573 41.6402 124.555 48.373C132.537 55.1059 138.414 64.0067 141.48 74.0077C144.546 84.0087 144.671 94.685 141.841 104.756C139.01 114.826 133.345 123.864 125.523 130.783C117.701 137.703 108.056 142.211 97.7447 143.767C87.4332 145.322 76.8935 143.859 67.39 139.554C57.8865 135.248 49.8229 128.282 44.1667 119.491C38.5104 110.701 35.5018 100.46 35.5018 89.9961H35.4391C35.4581 89.6582 35.4678 89.3178 35.4678 88.9751C35.4678 79.147 27.528 71.1797 17.7339 71.1797C7.93974 71.1797 8.13103e-06 79.147 8.13103e-06 88.9751C8.13103e-06 89.3178 0.00965978 89.6582 0.0287052 89.9961H0C0 107.315 4.97975 124.266 14.3418 138.816C23.7038 153.365 37.0505 164.895 52.7804 172.022C68.5104 179.149 85.9556 181.571 103.023 178.996C120.09 176.421 136.054 168.959 149.001 157.506C161.947 146.053 171.325 131.094 176.01 114.426C180.695 97.757 180.487 80.0858 175.412 63.5325C170.337 46.9791 160.611 32.2466 147.399 21.1026Z" fill="#687BFE"/>
</svg>
