<svg width="214" height="126" viewBox="0 0 214 126" fill="none" xmlns="http://www.w3.org/2000/svg">
<path d="M0.597455 125.916L9.60649 120.456L0.372858 115.384L0.597455 125.916ZM204.081 116.705L203.526 117.429L204.081 116.705ZM204.422 116.541L203.749 117.158L203.749 117.158L204.422 116.541ZM5.33301 119.188C17.1677 99.7471 39.6273 78.5912 72.6014 72.6224C105.559 66.6565 149.217 75.8283 203.526 117.429L204.636 115.981C150.06 74.1755 105.892 64.7419 72.2764 70.8269C38.6767 76.909 15.8148 98.4604 3.77442 118.239L5.33301 119.188ZM205.095 115.925C198.451 108.669 175.841 81.5048 167.331 55.4632C163.075 42.4396 162.419 29.9241 168.755 20.309C175.086 10.7022 188.606 3.67858 213.47 2.14291L213.357 0.321704C188.274 1.87091 174.032 8.98544 167.232 19.305C160.436 29.6162 161.278 42.8155 165.597 56.03C174.235 82.4645 197.076 109.87 203.749 117.158L205.095 115.925ZM203.526 117.429C203.868 117.691 204.146 117.901 204.348 118.045C204.447 118.116 204.545 118.183 204.633 118.235C204.674 118.26 204.737 118.295 204.809 118.326C204.845 118.341 204.906 118.365 204.981 118.383C205.041 118.397 205.2 118.429 205.397 118.387C205.644 118.333 205.924 118.16 206.056 117.832C206.161 117.576 206.119 117.353 206.1 117.273C206.062 117.106 205.984 116.981 205.965 116.951C205.905 116.853 205.825 116.753 205.757 116.671C205.611 116.494 205.386 116.243 205.095 115.925L203.749 117.158C204.042 117.477 204.238 117.697 204.351 117.834C204.413 117.909 204.423 117.927 204.413 117.91C204.408 117.902 204.396 117.883 204.382 117.853C204.37 117.829 204.342 117.767 204.322 117.68C204.306 117.612 204.264 117.397 204.366 117.146C204.496 116.825 204.77 116.656 205.01 116.604C205.199 116.563 205.349 116.595 205.396 116.606C205.459 116.621 205.505 116.639 205.523 116.647C205.561 116.663 205.579 116.675 205.566 116.667C205.545 116.654 205.495 116.622 205.406 116.559C205.233 116.436 204.98 116.244 204.636 115.981L203.526 117.429Z" fill="white"/>
</svg>
