<svg width="77" height="38" viewBox="0 0 77 38" fill="none" xmlns="http://www.w3.org/2000/svg">
<path d="M12.0016 0.661891C11.9759 0.629117 11.9502 0.596306 11.9244 0.563457C11.9267 0.551494 11.9533 0.58536 12.0016 0.661891Z" fill="#B0C5DE"/>
<path d="M76.1565 14.1915L71.979 15.4235L75.1347 18.4253L76.1565 14.1915ZM11.9244 0.563457L11.5538 0.493631L11.5221 0.66151L11.6275 0.796008L11.9244 0.563457ZM73.559 16.3758C68.2319 21.3764 59.6198 25.9116 49.0131 24.9564C38.4111 24.0016 25.7367 17.5538 12.2983 0.429039L11.7049 0.894743C25.2263 18.1253 38.073 24.7286 48.9454 25.7077C59.8132 26.6864 68.6289 22.0384 74.0753 16.9258L73.559 16.3758ZM12.2983 0.429036C12.2727 0.396379 12.2471 0.36367 12.2214 0.330905L11.6275 0.796008C11.6533 0.828941 11.6791 0.861856 11.7049 0.894747L12.2983 0.429036ZM12.2951 0.633282C12.2886 0.667954 12.2704 0.737716 12.2129 0.805546C12.1458 0.884772 12.0507 0.930835 11.9516 0.937456C11.867 0.943105 11.803 0.918856 11.7728 0.90521C11.7398 0.89026 11.7161 0.873673 11.7037 0.864295C11.679 0.8457 11.6634 0.82875 11.6592 0.824194C11.6531 0.817556 11.6495 0.812998 11.649 0.812317C11.648 0.810984 11.6504 0.814093 11.6573 0.824169C11.6636 0.833551 11.672 0.846372 11.6825 0.863092L12.3206 0.46069C12.2954 0.420681 12.2681 0.379308 12.2425 0.346661C12.2356 0.33792 12.2043 0.296978 12.1576 0.261764C12.1434 0.251039 12.1181 0.233461 12.0837 0.217872C12.0521 0.203587 11.9868 0.179048 11.9013 0.184769C11.8011 0.191462 11.7051 0.237945 11.6373 0.317955C11.5792 0.386565 11.5606 0.457464 11.5538 0.493631L12.2951 0.633282ZM11.6826 0.863098C12.0225 1.40212 13.5487 4.27226 15.1309 8.18661C16.7121 12.0983 18.3356 17.0202 18.8891 21.6669C19.4446 26.3298 18.9112 30.6145 16.305 33.3624C13.7113 36.097 8.9433 37.4315 0.722618 35.9025L0.584675 36.6441C8.89884 38.1905 13.9951 36.894 16.8523 33.8815C19.6969 30.8823 20.2012 26.3037 19.6382 21.5776C19.0733 16.8353 17.4223 11.8425 15.8303 7.90391C14.2394 3.96802 12.6938 1.05247 12.3206 0.460684L11.6826 0.863098Z" fill="#B0C5DE"/>
</svg>
