<svg width="228" height="227" viewBox="0 0 228 227" fill="none" xmlns="http://www.w3.org/2000/svg">
<path d="M2.59746 184.916L11.6065 179.456L2.37286 174.384L2.59746 184.916ZM206.081 175.705L205.526 176.429L206.081 175.705ZM206.422 175.541L205.749 176.158L205.749 176.158L206.422 175.541ZM7.33301 178.188C19.1677 158.747 41.6273 137.591 74.6014 131.622C107.559 125.656 151.217 134.828 205.526 176.429L206.636 174.981C152.06 133.176 107.892 123.742 74.2764 129.827C40.6767 135.909 17.8148 157.46 5.77442 177.239L7.33301 178.188ZM207.095 174.925C200.451 167.669 177.841 140.505 169.331 114.463C165.075 101.44 164.419 88.9241 170.755 79.309C177.086 69.7022 190.606 62.6786 215.47 61.1429L215.357 59.3217C190.274 60.8709 176.032 67.9854 169.232 78.305C162.436 88.6162 163.278 101.815 167.597 115.03C176.235 141.465 199.076 168.87 205.749 176.158L207.095 174.925ZM205.526 176.429C205.868 176.691 206.146 176.901 206.348 177.045C206.447 177.116 206.545 177.183 206.633 177.235C206.674 177.26 206.737 177.295 206.809 177.326C206.845 177.341 206.906 177.365 206.981 177.383C207.041 177.397 207.2 177.429 207.397 177.387C207.644 177.333 207.924 177.16 208.056 176.832C208.161 176.576 208.119 176.353 208.1 176.273C208.062 176.106 207.984 175.981 207.965 175.951C207.905 175.853 207.825 175.753 207.757 175.671C207.611 175.494 207.386 175.243 207.095 174.925L205.749 176.158C206.042 176.477 206.238 176.697 206.351 176.834C206.413 176.909 206.423 176.927 206.413 176.91C206.408 176.902 206.396 176.883 206.382 176.853C206.37 176.829 206.342 176.767 206.322 176.68C206.306 176.612 206.264 176.397 206.366 176.146C206.496 175.825 206.77 175.656 207.01 175.604C207.199 175.563 207.349 175.595 207.396 175.606C207.459 175.621 207.505 175.639 207.523 175.647C207.561 175.663 207.579 175.675 207.566 175.667C207.545 175.654 207.495 175.622 207.406 175.559C207.233 175.436 206.98 175.244 206.636 174.981L205.526 176.429Z" fill="white"/>
</svg>
