<svg width="209" height="166" viewBox="0 0 209 166" fill="none" xmlns="http://www.w3.org/2000/svg">
<path d="M72.9049 131.67C72.8681 131.76 72.8314 131.849 72.7947 131.939C72.8074 131.965 72.8455 131.872 72.9049 131.67Z" fill="#B0C5DE"/>
<path d="M208.118 60.5056L193.664 60.7073L200.717 48.089L208.118 60.5056ZM72.7947 131.939L71.6749 132.499L71.4213 131.992L71.6356 131.467L72.7947 131.939ZM197.759 56.1456C182.328 49.0409 160.681 45.4877 138.31 54.899C115.946 64.3077 92.6328 86.7689 74.0635 132.144L71.7463 131.196C90.4789 85.4217 114.179 62.3347 137.339 52.5912C160.494 42.8503 182.885 46.5408 198.806 53.8713L197.759 56.1456ZM74.0635 132.144C74.0269 132.233 73.9903 132.323 73.9538 132.412L71.6356 131.467C71.6724 131.376 71.7094 131.286 71.7463 131.195L74.0635 132.144ZM73.9144 131.38C73.8617 131.274 73.7398 131.067 73.4942 130.903C73.2075 130.711 72.8615 130.65 72.5388 130.719C72.2636 130.778 72.0808 130.914 71.9963 130.985C71.9038 131.063 71.8429 131.139 71.811 131.181C71.7477 131.264 71.7117 131.335 71.7008 131.357C71.6858 131.387 71.6767 131.408 71.6736 131.416C71.6664 131.433 71.676 131.411 71.7038 131.317L74.106 132.022C74.0744 132.13 74.0352 132.256 73.9909 132.364C73.9809 132.389 73.9214 132.541 73.8068 132.692C73.7718 132.739 73.7079 132.817 73.6126 132.897C73.5254 132.971 73.34 133.108 73.0624 133.168C72.7374 133.237 72.3892 133.176 72.1005 132.983C71.8529 132.817 71.7293 132.608 71.6749 132.499L73.9144 131.38ZM71.7038 131.317C72.1135 129.922 73.7017 122.542 74.7512 112.774C75.7997 103.015 76.2969 90.9877 74.5817 80.2684C72.8579 69.4956 68.955 60.3759 61.5058 55.9636C54.1084 51.5821 42.7175 51.5646 25.3032 60.2039L24.1905 57.961C41.8877 49.1813 54.2918 48.7807 62.7817 53.8094C71.2198 58.8074 75.2967 68.8911 77.054 79.8728C78.8198 90.908 78.2994 103.186 77.2406 113.041C76.1828 122.886 74.5741 130.429 74.106 132.022L71.7038 131.317Z" fill="#B0C5DE"/>
<circle r="4.61497" transform="matrix(-0.949019 -0.315219 -0.315219 0.949019 21.8821 61.0698)" fill="#B0C5DE" stroke="#B0C5DE" stroke-width="1.33219"/>
</svg>
