<svg width="71" height="170" viewBox="0 0 71 170" fill="none" xmlns="http://www.w3.org/2000/svg">
<path d="M22.1153 169.923L11.5953 165.243L20.9773 158.441L22.1153 169.923ZM48.6427 56.7085L48.4474 57.6908L48.6427 56.7085ZM2.53652 130.331L1.54303 130.452L2.53652 130.331ZM2.53652 43.9373L3.53584 43.8935L2.53652 43.9373ZM43.0925 107.993L43.0472 106.994L43.0925 107.993ZM14.9795 161.291C13.7443 159.354 12.4223 157.195 11.1061 154.898L12.8432 153.894C14.1415 156.159 15.4469 158.291 16.6681 160.206L14.9795 161.291ZM7.57176 148.298C6.45505 146.044 5.41085 143.735 4.51008 141.435L6.37299 140.694C7.24894 142.93 8.26859 145.186 9.36516 147.4L7.57176 148.298ZM2.21135 134.221C1.91146 132.94 1.68353 131.679 1.54303 130.452L3.53002 130.21C3.66048 131.349 3.87373 132.534 4.15882 133.751L2.21135 134.221ZM1.54303 130.452C1.40465 129.243 1.27579 128.001 1.15878 126.731L3.1503 126.532C3.26594 127.788 3.39328 129.015 3.53002 130.21L1.54303 130.452ZM0.637124 119.244C0.521939 116.792 0.459616 114.277 0.463919 111.731L2.46385 111.719C2.45961 114.231 2.5211 116.713 2.63487 119.135L0.637124 119.244ZM0.679474 104.213C0.822544 101.707 1.04113 99.1964 1.34802 96.7082L3.33289 96.9382C3.03187 99.3788 2.81698 101.846 2.67616 104.312L0.679474 104.213ZM2.56406 89.2527C3.08176 86.7459 3.70907 84.2905 4.46084 81.9176L6.36696 82.5085C5.6384 84.8082 5.02789 87.1959 4.52253 89.643L2.56406 89.2527ZM7.22391 74.8227C8.33688 72.4718 9.61598 70.252 11.0811 68.2051L12.7043 69.3611C11.3175 71.2987 10.0979 73.4122 9.03032 75.6673L7.22391 74.8227ZM16.2248 62.4735C18.1391 60.788 20.2666 59.3321 22.6255 58.1498L23.5107 59.9365C21.3124 61.0383 19.3287 62.3953 17.54 63.9702L16.2248 62.4735ZM29.8927 55.581C32.2518 55.0522 34.7791 54.7472 37.4844 54.6878L37.5131 56.6874C34.9312 56.7441 32.5365 57.0348 30.316 57.5325L29.8927 55.581ZM45.0809 55.1211C46.3026 55.2792 47.5547 55.4805 48.838 55.7263L48.4474 57.6908C47.2019 57.4522 45.9895 57.2574 44.8094 57.1046L45.0809 55.1211ZM48.838 55.7263C50.1746 55.9824 51.4505 56.3169 52.6652 56.7233L52.0179 58.6206C50.889 58.2429 49.699 57.9305 48.4474 57.6908L48.838 55.7263ZM59.6864 60.3009C61.8886 61.8934 63.7451 63.7876 65.2552 65.8892L63.6281 67.0645C62.2383 65.1303 60.5315 63.3891 58.5064 61.9247L59.6864 60.3009ZM68.8144 72.927C69.6373 75.4321 70.0918 78.0546 70.1795 80.693L68.1807 80.7746C68.0991 78.3205 67.6764 75.8854 66.9139 73.5642L68.8144 72.927ZM69.3462 88.5471C68.7064 91.1029 67.7043 93.5795 66.3382 95.8765L64.6214 94.8637C65.8833 92.742 66.8122 90.4486 67.4064 88.0752L69.3462 88.5471ZM61.2835 102.006C59.3662 103.709 57.1426 105.172 54.6158 106.315L53.8029 104.494C56.1444 103.434 58.1963 102.084 59.9614 100.515L61.2835 102.006ZM47.0607 108.57C45.8023 108.778 44.4945 108.92 43.1378 108.992L43.0472 106.994C44.3324 106.926 45.5665 106.792 46.7496 106.597L47.0607 108.57ZM43.1378 108.992C41.6013 109.073 40.1203 109.084 38.6928 109.029L38.7852 107.031C40.1488 107.083 41.5686 107.073 43.0472 106.994L43.1378 108.992ZM29.926 107.702C26.9036 106.855 24.2016 105.631 21.788 104.09L22.8733 102.401C25.12 103.836 27.6425 104.98 30.4797 105.776L29.926 107.702ZM15.09 98.2402C13.1866 96.0259 11.5635 93.5496 10.1765 90.8846L11.9521 89.9506C13.2792 92.5007 14.8202 94.8466 16.6108 96.9299L15.09 98.2402ZM6.79773 82.7591C5.89767 80.0264 5.16012 77.185 4.55225 74.2886L6.50968 73.8636C7.10504 76.7004 7.82448 79.4691 8.69775 82.1204L6.79773 82.7591ZM3.10903 65.6734C2.73072 62.774 2.4459 59.8669 2.22471 57.0015L4.21872 56.8325C4.43781 59.6707 4.71931 62.5421 5.0922 65.3998L3.10903 65.6734ZM1.71021 48.3136C1.64451 46.8404 1.58839 45.3936 1.53721 43.9811L3.53584 43.8935C3.5869 45.3027 3.64281 46.7436 3.70817 48.2094L1.71021 48.3136ZM1.53721 43.9811C1.48919 42.6561 1.48611 41.3484 1.5233 40.0596L3.5224 40.1022C3.48644 41.3487 3.48944 42.6131 3.53584 43.8935L1.53721 43.9811ZM2.23946 32.2621C2.6511 29.5899 3.21421 27.032 3.87753 24.6097L5.80617 25.1244C5.16148 27.4786 4.61511 29.9613 4.21602 32.552L2.23946 32.2621ZM6.34516 17.1799C7.37784 14.5384 8.48152 12.1452 9.55557 10.0418L11.3353 10.9407C10.2884 12.991 9.2129 15.3231 8.20707 17.8959L6.34516 17.1799ZM13.4684 3.25232C14.1429 2.21479 14.7068 1.41084 15.1041 0.863749C15.3028 0.590194 15.4598 0.380782 15.5683 0.238419C15.6225 0.167253 15.6646 0.112827 15.6937 0.0755274C15.7082 0.0568778 15.7195 0.0425101 15.7274 0.0324556C15.7314 0.027436 15.7345 0.0234909 15.7367 0.0206509C15.7379 0.0192232 15.7388 0.0180566 15.7395 0.0171815C15.7398 0.0167364 15.7401 0.0163679 15.7404 0.0160609C15.7405 0.0159074 15.7406 0.0157693 15.7407 0.0156465C15.7407 0.0155851 15.7408 0.0155083 15.7408 0.0154929C15.7409 0.0154162 15.7409 0.0153395 16.5214 0.634576C17.3019 1.25381 17.302 1.25375 17.302 1.25369C17.302 1.25369 17.302 1.25363 17.3021 1.25361C17.3021 1.25355 17.3021 1.25352 17.3021 1.25351C17.3022 1.25347 17.3021 1.25351 17.3021 1.25361C17.3019 1.25381 17.3015 1.25429 17.3009 1.25503C17.2998 1.25651 17.2977 1.25909 17.2949 1.26273C17.2891 1.27001 17.28 1.28158 17.2677 1.29741C17.2431 1.32906 17.2054 1.37768 17.1557 1.44295C17.0563 1.57347 16.9084 1.77047 16.7192 2.03103C16.3407 2.55221 15.7967 3.32742 15.1428 4.33346L13.4684 3.25232Z" fill="#FF7F5F"/>
</svg>
