<svg width="121" height="132" viewBox="0 0 121 132" fill="none" xmlns="http://www.w3.org/2000/svg">
<path d="M75.5637 130.236C75.5658 130.335 75.5681 130.434 75.5703 130.533C75.5925 130.552 75.5904 130.449 75.5637 130.236Z" fill="#A8B1EF"/>
<path d="M172.884 8.62698L159.713 14.5715L161.166 0.176434L172.884 8.62698ZM75.5703 130.533L74.7675 131.494L74.3328 131.13L74.3199 130.563L75.5703 130.533ZM161.658 8.75226C144.364 8.34732 122.652 13.7934 105.531 31.6959C88.4155 49.5931 75.7192 80.1173 76.8142 130.208L74.3132 130.264C73.2088 79.7415 86.0109 48.4862 103.725 29.963C121.435 11.445 143.885 5.82952 161.718 6.24708L161.658 8.75226ZM76.8142 130.208C76.8163 130.306 76.8185 130.405 76.8208 130.504L74.3199 130.563C74.3176 130.463 74.3154 130.364 74.3132 130.264L76.8142 130.208ZM76.3731 129.572C76.2827 129.496 76.0887 129.355 75.7982 129.302C75.4589 129.241 75.1179 129.323 74.8498 129.516C74.621 129.68 74.5077 129.877 74.4587 129.977C74.4052 130.085 74.3793 130.179 74.3668 130.23C74.3422 130.332 74.3374 130.411 74.3361 130.435C74.3343 130.468 74.3346 130.492 74.3348 130.5C74.3352 130.518 74.3351 130.492 74.3226 130.392L76.8048 130.079C76.8189 130.193 76.8332 130.325 76.8358 130.443C76.8364 130.47 76.8427 130.634 76.7979 130.819C76.7843 130.876 76.7569 130.973 76.7017 131.085C76.6511 131.188 76.5359 131.387 76.3052 131.553C76.0351 131.747 75.6919 131.83 75.3502 131.768C75.0573 131.715 74.8607 131.572 74.7675 131.494L76.3731 129.572ZM74.3226 130.392C74.1383 128.92 72.6235 121.372 69.636 111.812C66.6513 102.261 62.2305 90.8127 56.2746 81.4881C50.2895 72.1179 42.9375 65.1746 34.1811 64.0831C25.4845 62.9991 14.8369 67.6305 2.08733 82.8031L0.173904 81.1901C13.1268 65.7755 24.536 60.3554 34.4915 61.5964C44.3874 62.8299 52.283 70.5881 58.382 80.1367C64.5102 89.7309 69.0099 101.419 72.0234 111.062C75.0339 120.696 76.5948 128.401 76.8048 130.079L74.3226 130.392Z" fill="#A8B1EF"/>
</svg>
