<svg width="134" height="138" viewBox="0 0 134 138" fill="none" xmlns="http://www.w3.org/2000/svg">
<g opacity="0.3">
<path d="M88.5637 130.236C88.5658 130.335 88.5681 130.434 88.5703 130.533C88.5925 130.552 88.5904 130.449 88.5637 130.236Z" fill="#A8B1EF"/>
<path d="M185.884 8.62698L172.713 14.5715L174.166 0.176434L185.884 8.62698ZM88.5703 130.533L87.7675 131.494L87.3328 131.13L87.3199 130.563L88.5703 130.533ZM174.658 8.75226C157.364 8.34732 135.652 13.7934 118.531 31.6959C101.416 49.5931 88.7192 80.1173 89.8142 130.208L87.3132 130.264C86.2088 79.7415 99.0109 48.4862 116.725 29.963C134.435 11.445 156.885 5.82952 174.718 6.24708L174.658 8.75226ZM89.8142 130.208C89.8163 130.306 89.8185 130.405 89.8208 130.504L87.3199 130.563C87.3176 130.463 87.3154 130.364 87.3132 130.264L89.8142 130.208ZM89.3731 129.572C89.2827 129.496 89.0887 129.355 88.7982 129.302C88.4589 129.241 88.1179 129.323 87.8498 129.516C87.621 129.68 87.5077 129.877 87.4587 129.977C87.4052 130.085 87.3793 130.179 87.3668 130.23C87.3422 130.332 87.3374 130.411 87.3361 130.435C87.3343 130.468 87.3346 130.492 87.3348 130.5C87.3352 130.518 87.3351 130.492 87.3226 130.392L89.8048 130.079C89.8189 130.193 89.8332 130.325 89.8358 130.443C89.8364 130.47 89.8427 130.634 89.7979 130.819C89.7843 130.876 89.7569 130.973 89.7017 131.085C89.6511 131.188 89.5359 131.387 89.3052 131.553C89.0351 131.747 88.6919 131.83 88.3502 131.768C88.0573 131.715 87.8607 131.572 87.7675 131.494L89.3731 129.572ZM87.3226 130.392C87.1383 128.92 85.6235 121.372 82.636 111.812C79.6513 102.261 75.2305 90.8127 69.2746 81.4881C63.2895 72.1179 55.9375 65.1746 47.1811 64.0831C38.4845 62.9991 27.8369 67.6305 15.0873 82.8031L13.1739 81.1901C26.1268 65.7755 37.536 60.3554 47.4915 61.5964C57.3874 62.8299 65.283 70.5881 71.382 80.1367C77.5102 89.7309 82.0099 101.419 85.0234 111.062C88.0339 120.696 89.5948 128.401 89.8048 130.079L87.3226 130.392Z" fill="#A8B1EF"/>
<circle r="5.99487" transform="matrix(-0.995132 0.0902198 0.0894567 0.99678 12.2642 85.0217)" fill="#A8B1EF" stroke="#A8B1EF" stroke-width="1.33219"/>
</g>
</svg>
