<svg width="292" height="120" viewBox="0 0 292 120" fill="none" xmlns="http://www.w3.org/2000/svg">
<path opacity="0.6" d="M291.828 106.469L280.061 119.179L274.937 102.634L291.828 106.469ZM124.31 19.8404L123.111 18.9394L124.31 19.8404ZM228.77 116.745L228.623 118.238L228.77 116.745ZM100.005 93.3316L100.235 91.8493L100.005 93.3316ZM200.156 35.8539L198.678 36.1105L200.156 35.8539ZM280.654 111.291C278.295 111.922 275.662 112.595 272.836 113.267L272.141 110.349C274.938 109.684 277.544 109.017 279.878 108.393L280.654 111.291ZM264.943 115.018C262.363 115.548 259.698 116.05 256.995 116.502L256.501 113.543C259.163 113.098 261.792 112.602 264.34 112.079L264.943 115.018ZM248.977 117.658C246.261 117.982 243.548 118.233 240.886 118.384L240.716 115.389C243.307 115.242 245.957 114.997 248.621 114.679L248.977 117.658ZM232.718 118.502C231.322 118.454 229.955 118.368 228.623 118.238L228.916 115.252C230.177 115.375 231.481 115.458 232.82 115.504L232.718 118.502ZM228.623 118.238C227.28 118.106 225.902 117.937 224.496 117.731L224.93 114.762C226.293 114.962 227.622 115.125 228.916 115.252L228.623 118.238ZM216.346 116.209C213.731 115.624 211.045 114.936 208.309 114.153L209.134 111.269C211.818 112.037 214.447 112.71 217.001 113.282L216.346 116.209ZM200.421 111.679C197.854 110.805 195.259 109.858 192.652 108.841L193.742 106.046C196.309 107.047 198.863 107.98 201.387 108.839L200.421 111.679ZM185.025 105.685C182.519 104.588 180.015 103.432 177.524 102.221L178.836 99.5233C181.29 100.716 183.759 101.856 186.229 102.937L185.025 105.685ZM170.171 98.4639C167.741 97.1599 165.338 95.8063 162.974 94.4075L164.502 91.8257C166.829 93.2026 169.196 94.5357 171.59 95.8205L170.171 98.4639ZM155.96 90.0444C153.628 88.519 151.351 86.9501 149.143 85.3421L150.909 82.9169C153.075 84.4939 155.31 86.0345 157.603 87.5339L155.96 90.0444ZM142.592 80.2863C140.411 78.4981 138.322 76.6704 136.344 74.8085L138.4 72.6239C140.325 74.4354 142.361 76.2181 144.494 77.9662L142.592 80.2863ZM130.53 68.8744C128.612 66.7385 126.85 64.565 125.268 62.3614L127.704 60.6115C129.217 62.7178 130.91 64.8068 132.762 66.8705L130.53 68.8744ZM120.846 55.2138C119.506 52.6272 118.433 50.0056 117.668 47.3609L120.55 46.5277C121.254 48.9616 122.249 51.4005 123.51 53.8337L120.846 55.2138ZM116.327 38.9138C116.257 36.0638 116.587 33.2137 117.36 30.3821L120.254 31.1722C119.56 33.7154 119.263 36.2743 119.326 38.8402L116.327 38.9138ZM120.728 22.4993C121.434 21.303 122.227 20.116 123.111 18.9394L125.51 20.7414C124.69 21.8326 123.959 22.927 123.312 24.0234L120.728 22.4993ZM123.111 18.9394C123.978 17.7853 124.872 16.6872 125.789 15.6443L128.042 17.6252C127.176 18.6095 126.331 19.6478 125.51 20.7414L123.111 18.9394ZM131.914 9.74838C134.193 7.9071 136.565 6.33975 139.001 5.03473L140.418 7.67918C138.149 8.89455 135.934 10.3575 133.8 12.0818L131.914 9.74838ZM146.89 1.76685C149.662 0.932392 152.469 0.397272 155.272 0.144298L155.542 3.13216C152.937 3.36719 150.33 3.86427 147.755 4.63946L146.89 1.76685ZM163.808 0.233344C166.65 0.548021 169.447 1.14399 172.154 2.00203L171.248 4.86189C168.726 4.06262 166.122 3.50791 163.477 3.21513L163.808 0.233344ZM179.997 5.35725C182.488 6.72401 184.85 8.33494 187.04 10.1714L185.112 12.4698C183.074 10.7609 180.875 9.26081 178.554 7.98757L179.997 5.35725ZM193.001 16.2808C194.758 18.4859 196.311 20.8868 197.621 23.4658L194.946 24.8241C193.73 22.429 192.287 20.1991 190.655 18.1503L193.001 16.2808ZM200.699 31.4245C201.074 32.7816 201.387 34.1731 201.634 35.5972L198.678 36.1105C198.448 34.7821 198.156 33.4856 197.808 32.2225L200.699 31.4245ZM201.634 35.5972C201.882 37.0225 202.035 38.4321 202.099 39.8248L199.103 39.9625C199.045 38.6976 198.905 37.4135 198.678 36.1105L201.634 35.5972ZM201.368 48.2852C200.755 51.0428 199.787 53.7013 198.512 56.2528L195.828 54.9114C197.002 52.5635 197.883 50.1359 198.439 47.6342L201.368 48.2852ZM193.994 63.3431C192.321 65.4845 190.428 67.5316 188.348 69.4802L186.297 67.2908C188.275 65.4372 190.062 63.5035 191.63 61.4962L193.994 63.3431ZM181.948 74.7608C179.768 76.3563 177.457 77.8702 175.04 79.299L173.513 76.7166C175.853 75.3336 178.081 73.8731 180.177 72.3396L181.948 74.7608ZM167.773 83.1929C165.332 84.378 162.816 85.4862 160.243 86.5147L159.13 83.7292C161.639 82.726 164.089 81.6465 166.463 80.4941L167.773 83.1929ZM152.52 89.3116C149.923 90.1588 147.29 90.9277 144.637 91.6156L143.884 88.7117C146.478 88.039 149.052 87.2873 151.59 86.4595L152.52 89.3116ZM136.629 93.4354C133.923 93.9642 131.216 94.4073 128.523 94.7614L128.132 91.787C130.762 91.4412 133.408 91.0082 136.053 90.4911L136.629 93.4354ZM120.347 95.5643C117.561 95.7427 114.811 95.8186 112.119 95.788L112.153 92.7881C114.766 92.8179 117.44 92.7442 120.155 92.5704L120.347 95.5643ZM103.879 95.337C102.487 95.1961 101.118 95.022 99.7755 94.8139L100.235 91.8493C101.523 92.0489 102.839 92.2164 104.181 92.3523L103.879 95.337ZM99.7755 94.8139C98.3909 94.5994 96.9713 94.3639 95.5216 94.1095L96.0401 91.1547C97.472 91.4059 98.8717 91.6381 100.235 91.8493L99.7755 94.8139ZM87.0483 92.4851C84.3016 91.9189 81.485 91.3039 78.6243 90.6505L79.2924 87.7258C82.1349 88.375 84.9306 88.9855 87.654 89.5469L87.0483 92.4851ZM70.2429 88.6612C67.4716 87.9805 64.6821 87.2741 61.8962 86.551L62.6499 83.6472C65.4244 84.3674 68.2011 85.0705 70.9585 85.7478L70.2429 88.6612ZM53.5785 84.3421C50.7809 83.5833 48.0092 82.8162 45.2859 82.05L46.0984 79.1621C48.8134 79.926 51.5761 80.6906 54.3639 81.4468L53.5785 84.3421ZM37.0172 79.6859C34.1748 78.8608 31.4183 78.0481 28.7775 77.2599L29.6355 74.3852C32.2696 75.1714 35.0189 75.982 37.8536 76.8049L37.0172 79.6859ZM20.53 74.7663C17.5316 73.8482 14.7743 72.9915 12.3198 72.2211L13.2181 69.3588C15.6666 70.1272 18.4171 70.9819 21.4083 71.8977L20.53 74.7663ZM4.13323 69.6175C2.82786 69.1964 1.80903 68.8645 1.11616 68.6378C0.769712 68.5244 0.504745 68.4373 0.3262 68.3785C0.236912 68.349 0.169231 68.3267 0.123761 68.3117C0.101026 68.3042 0.0838519 68.2985 0.0722949 68.2947C0.0665315 68.2927 0.0621423 68.2913 0.0592176 68.2903C0.0577259 68.2898 0.0566136 68.2895 0.0558534 68.2892C0.0554726 68.2891 0.0551806 68.289 0.0549758 68.2889C0.0548585 68.2889 0.0547698 68.2889 0.0547111 68.2888C0.0546824 68.2888 0.0546538 68.2888 0.0546538 68.2888C0.0546237 68.2888 0.0546251 68.2888 0.526579 66.865C0.998532 65.4412 0.998534 65.4412 0.998534 65.4412C0.998562 65.4412 0.998562 65.4412 0.998562 65.4412C0.998591 65.4412 0.99865 65.4412 0.998739 65.4412C0.998885 65.4413 0.999118 65.4414 0.99944 65.4415C1.00011 65.4417 1.00114 65.442 1.00248 65.4425C1.00523 65.4434 1.00939 65.4448 1.01495 65.4466C1.02606 65.4503 1.0428 65.4558 1.0651 65.4632C1.10969 65.4779 1.17649 65.5 1.26487 65.5291C1.44163 65.5873 1.70476 65.6738 2.0493 65.7866C2.73837 66.0121 3.75315 66.3427 5.05425 66.7624L4.13323 69.6175Z" fill="#B0C5DE"/>
</svg>
