<svg width="81" height="73" viewBox="0 0 81 73" fill="none" xmlns="http://www.w3.org/2000/svg">
<path opacity="0.6" d="M79.3079 38.8041L74.646 49.3684L67.8283 40.0492L79.3079 38.8041ZM-12.2155 26.1653L-13.1695 25.8657L-12.2155 26.1653ZM51.8634 53.8554L52.1035 54.8262L51.8634 53.8554ZM-11.4323 64.0836L-11.6176 63.1009L-11.4323 64.0836ZM25.4306 21.1672L24.5588 21.6571L25.4306 21.1672ZM70.1179 46.3339C67.9921 47.6625 65.6509 49.039 63.2378 50.307L62.3075 48.5365C64.6665 47.2969 66.9637 45.9468 69.0579 44.6379L70.1179 46.3339ZM55.9615 53.6168C54.6547 54.103 53.3608 54.5152 52.1035 54.8262L51.6233 52.8847C52.7932 52.5953 54.0137 52.2076 55.2642 51.7423L55.9615 53.6168ZM52.1035 54.8262C50.8423 55.1382 49.4994 55.4037 48.0901 55.6233L47.7822 53.6472C49.1409 53.4354 50.4258 53.1809 51.6233 52.8847L52.1035 54.8262ZM39.9704 56.365C37.3598 56.4584 34.6341 56.4324 31.8556 56.2866L31.9605 54.2894C34.6837 54.4323 37.3505 54.4575 39.899 54.3663L39.9704 56.365ZM23.7797 55.5374C21.094 55.1799 18.4112 54.7131 15.7851 54.136L16.2145 52.1826C18.783 52.7471 21.4104 53.2043 24.0437 53.5549L23.7797 55.5374ZM7.93923 52.0102C5.26312 51.1326 2.71359 50.1204 0.362388 48.9707L1.24096 47.174C3.49744 48.2774 5.95997 49.2563 8.56252 50.1098L7.93923 52.0102ZM-6.64118 44.6263C-8.95711 42.7726 -10.8481 40.6732 -12.1356 38.3165L-10.3804 37.3575C-9.24782 39.4308 -7.55169 41.3357 -5.39138 43.0648L-6.64118 44.6263ZM-13.9739 30.0452C-13.8845 28.6934 -13.6198 27.2998 -13.1695 25.8657L-11.2614 26.4648C-11.6676 27.7586 -11.9001 28.9954 -11.9782 30.1771L-13.9739 30.0452ZM-13.1695 25.8657C-12.7332 24.4761 -12.2073 23.1763 -11.6025 21.9663L-9.81355 22.8605C-10.3694 23.9726 -10.8559 25.1735 -11.2614 26.4648L-13.1695 25.8657ZM-6.54268 15.252C-4.36929 13.2948 -1.89063 11.8751 0.725006 10.9807L1.37205 12.8731C-0.995351 13.6826 -3.23722 14.9667 -5.20433 16.7382L-6.54268 15.252ZM9.07548 9.87484C11.8852 10.0556 14.6599 10.7818 17.2159 12.0403L16.3324 13.8346C14.017 12.6946 11.4994 12.035 8.94697 11.8707L9.07548 9.87484ZM23.8774 17.2047C24.7775 18.2543 25.5917 19.4125 26.3024 20.6773L24.5588 21.6571C23.9125 20.5069 23.1737 19.4565 22.3592 18.5067L23.8774 17.2047ZM26.3024 20.6773C27.0195 21.9533 27.544 23.2633 27.8899 24.5968L25.954 25.0991C25.652 23.9348 25.1927 22.7852 24.5588 21.6571L26.3024 20.6773ZM27.8976 32.9535C27.2975 35.5235 26.1902 38.0733 24.7042 40.5412L22.9909 39.5096C24.3918 37.1828 25.4064 34.8266 25.95 32.4988L27.8976 32.9535ZM19.7962 47.0389C18.0182 48.9889 16.0334 50.8536 13.9096 52.5971L12.6406 51.0513C14.6972 49.363 16.611 47.5639 18.3183 45.6914L19.7962 47.0389ZM7.35849 57.3212C5.05448 58.7771 2.67316 60.0844 0.27742 61.2071L-0.571218 59.3961C1.74638 58.31 4.05444 57.0433 6.29013 55.6305L7.35849 57.3212ZM-7.28692 64.1049C-8.62497 64.4986 -9.94893 64.8215 -11.2471 65.0663L-11.6176 63.1009C-10.3903 62.8695 -9.13127 62.5628 -7.85144 62.1862L-7.28692 64.1049ZM-11.2471 65.0663C-12.5709 65.3158 -13.9692 65.5502 -15.4236 65.7703L-15.7228 63.7928C-14.2881 63.5757 -12.9139 63.3452 -11.6176 63.1009L-11.2471 65.0663ZM-23.8145 66.8367C-26.5739 67.1328 -29.407 67.3921 -32.2207 67.6188L-32.3813 65.6253C-29.5816 65.3996 -26.7665 65.142 -24.0277 64.8481L-23.8145 66.8367ZM-40.6343 68.2134C-43.6209 68.3974 -46.4688 68.5465 -49.0502 68.6665L-49.1429 66.6686C-46.57 66.5491 -43.7323 66.4005 -40.7573 66.2171L-40.6343 68.2134ZM-57.4675 68.9986C-58.7875 69.0411 -59.8401 69.0702 -60.5632 69.0887C-60.9247 69.098 -61.2038 69.1046 -61.3928 69.1089C-61.4873 69.111 -61.5592 69.1126 -61.6077 69.1136C-61.6319 69.1141 -61.6502 69.1145 -61.6625 69.1148C-61.6687 69.1149 -61.6734 69.115 -61.6765 69.115C-61.6781 69.1151 -61.6793 69.1151 -61.6801 69.1151C-61.6805 69.1151 -61.6808 69.1151 -61.6811 69.1151C-61.6812 69.1151 -61.6813 69.1151 -61.6813 69.1151C-61.6813 69.1151 -61.6814 69.1151 -61.6814 69.1151C-61.6814 69.1151 -61.6814 69.1151 -61.7014 68.1153C-61.7213 67.1155 -61.7213 67.1155 -61.7213 67.1155C-61.7213 67.1155 -61.7213 67.1155 -61.7213 67.1155C-61.7212 67.1155 -61.7212 67.1155 -61.7211 67.1155C-61.7209 67.1155 -61.7207 67.1155 -61.7203 67.1155C-61.7196 67.1155 -61.7185 67.1155 -61.717 67.1154C-61.7141 67.1154 -61.7097 67.1153 -61.7037 67.1152C-61.6918 67.1149 -61.6739 67.1145 -61.6501 67.114C-61.6026 67.113 -61.5316 67.1115 -61.438 67.1094C-61.2509 67.1051 -60.9737 67.0986 -60.6142 67.0894C-59.8952 67.071 -58.847 67.042 -57.5319 66.9996L-57.4675 68.9986Z" fill="#B0C5DE"/>
</svg>
