<svg width="114" height="68" viewBox="0 0 114 68" fill="none" xmlns="http://www.w3.org/2000/svg">
<path opacity="0.6" d="M0.753627 58.1705L2.53249 46.7613L11.5237 54.0064L0.753627 58.1705ZM81.2466 48.1584L82.2457 48.2017L81.2466 48.1584ZM20.6233 39.189L20.1409 38.313L20.6233 39.189ZM71.9945 16.1773L72.427 17.079L71.9945 16.1773ZM50.447 60.9245L51.1629 60.2262L50.447 60.9245ZM6.75415 49.6194C8.25789 48.0093 9.93415 46.3094 11.6965 44.6849L13.052 46.1555C11.3346 47.7386 9.69411 49.4017 8.21578 50.9845L6.75415 49.6194ZM17.1307 40.2199C18.132 39.5094 19.1401 38.8642 20.1409 38.313L21.1058 40.0649C20.1838 40.5727 19.2403 41.1754 18.288 41.8511L17.1307 40.2199ZM20.1409 38.313C21.3806 37.6302 22.7425 36.9797 24.2013 36.3671L24.9756 38.2111C23.5719 38.8006 22.2748 39.421 21.1058 40.0649L20.1409 38.313ZM32.6821 33.5124C35.4634 32.7675 38.4008 32.1422 41.3991 31.663L41.7147 33.6379C38.7821 34.1066 35.9122 34.7178 33.1994 35.4443L32.6821 33.5124ZM50.261 30.7019C53.2979 30.5322 56.31 30.5351 59.2009 30.7393L59.06 32.7343C56.2634 32.5368 53.3363 32.5332 50.3726 32.6988L50.261 30.7019ZM68.0823 32.1583C71.2488 33.0106 74.0951 34.2421 76.3966 35.9327L75.2126 37.5446C73.1648 36.0404 70.5643 34.8975 67.5625 34.0895L68.0823 32.1583ZM81.7637 43.5215C82.1519 44.9607 82.3186 46.5202 82.2457 48.2017L80.2476 48.1151C80.3123 46.6205 80.163 45.2672 79.8327 44.0423L81.7637 43.5215ZM82.2457 48.2017C82.19 49.4854 82.0376 50.7134 81.7972 51.8832L79.8382 51.4807C80.0565 50.4181 80.1964 49.2958 80.2476 48.1151L82.2457 48.2017ZM79.0088 58.7657C77.5994 60.9321 75.8067 62.7092 73.7774 64.0691L72.664 62.4077C74.4754 61.1938 76.0743 59.6088 77.3323 57.675L79.0088 58.7657ZM66.9012 66.9166C64.4617 67.4028 61.9276 67.4156 59.4585 66.9241L59.8489 64.9626C62.055 65.4018 64.3236 65.391 66.5103 64.9552L66.9012 66.9166ZM52.5932 64.0341C51.5853 63.3433 50.6261 62.5402 49.7312 61.6227L51.1629 60.2262C51.9661 61.0496 52.8245 61.7679 53.7239 62.3845L52.5932 64.0341ZM49.7312 61.6227C48.5148 60.3758 47.5827 58.9973 46.911 57.5178L48.7321 56.691C49.3074 57.9581 50.1073 59.1441 51.1629 60.2262L49.7312 61.6227ZM45.783 47.8356C46.219 44.8392 47.2572 41.7496 48.7241 38.7163L50.5246 39.587C49.1249 42.4815 48.1623 45.3738 47.7621 48.1236L45.783 47.8356ZM53.7034 30.6321C55.5971 28.1094 57.7275 25.7152 59.9898 23.5507L61.3724 24.9958C59.1878 27.086 57.1301 29.3986 55.3029 31.8327L53.7034 30.6321ZM67.4034 17.6272C68.7838 16.7311 70.1763 15.9404 71.562 15.2757L72.427 17.079C71.1269 17.7026 69.8091 18.45 68.4924 19.3048L67.4034 17.6272ZM71.562 15.2757C72.6298 14.7635 73.7642 14.2473 74.949 13.7308L75.7484 15.5641C74.5818 16.0727 73.4697 16.5788 72.427 17.079L71.562 15.2757ZM81.8296 10.9237C84.1043 10.0471 86.4496 9.18512 88.7857 8.35518L89.4552 10.2398C87.1325 11.065 84.804 11.9208 82.5487 12.7899L81.8296 10.9237ZM95.7897 5.94441C98.2819 5.1116 100.664 4.33986 102.827 3.65326L103.432 5.55951C101.278 6.24355 98.9048 7.01215 96.4236 7.8413L95.7897 5.94441ZM109.893 1.46449C111.003 1.12933 111.89 0.86611 112.499 0.686577C112.804 0.596806 113.039 0.527956 113.199 0.481488C113.279 0.458254 113.339 0.440613 113.38 0.428753C113.401 0.422824 113.416 0.418339 113.427 0.41532C113.432 0.413814 113.436 0.412671 113.438 0.4119C113.44 0.411513 113.441 0.411218 113.441 0.411019C113.442 0.410917 113.442 0.41084 113.442 0.410783C113.442 0.41076 113.442 0.410739 113.442 0.410724C113.442 0.410715 113.442 0.410709 113.442 0.410703C113.443 0.410697 113.443 0.410694 113.72 1.37149C113.997 2.33229 113.997 2.33229 113.997 2.33229C113.997 2.33229 113.997 2.33229 113.997 2.3323C113.997 2.3323 113.997 2.33232 113.997 2.33234C113.997 2.33238 113.997 2.33244 113.996 2.33252C113.996 2.33269 113.995 2.33296 113.993 2.33331C113.991 2.33402 113.987 2.33511 113.982 2.33656C113.972 2.33945 113.957 2.34381 113.937 2.34962C113.897 2.36123 113.837 2.37861 113.758 2.40159C113.601 2.44753 113.367 2.51584 113.065 2.60504C112.459 2.78343 111.577 3.04538 110.471 3.37915L109.893 1.46449Z" fill="#B0C5DE"/>
</svg>
