<svg width="82" height="71" viewBox="0 0 82 71" fill="none" xmlns="http://www.w3.org/2000/svg">
<path opacity="0.6" d="M81.8105 10.0543L80.0317 21.4635L71.0405 14.2184L81.8105 10.0543ZM-2.68193 20.5639L-3.68099 20.5206L-2.68193 20.5639ZM60.9536 29.979L61.436 30.8549L60.9536 29.979ZM7.02988 54.134L6.59738 53.2324L7.02988 54.134ZM29.648 7.1635L28.9322 7.86176L29.648 7.1635ZM75.4755 18.9964C73.8977 20.6857 72.1391 22.4692 70.2903 24.1734L68.9347 22.7028C70.7386 21.0401 72.4615 19.2934 74.0139 17.6313L75.4755 18.9964ZM64.591 28.8562C63.5411 29.6012 62.4846 30.2774 61.436 30.8549L60.4711 29.103C61.4409 28.5689 62.4328 27.9352 63.4337 27.2251L64.591 28.8562ZM61.436 30.8549C60.1364 31.5707 58.7085 32.2528 57.1785 32.8952L56.4042 31.0512C57.8791 30.4319 59.2422 29.7799 60.4711 29.103L61.436 30.8549ZM48.2828 35.8896C45.365 36.6711 42.2833 37.3271 39.1377 37.8298L38.822 35.8549C41.902 35.3626 44.9162 34.7208 47.7654 33.9577L48.2828 35.8896ZM29.8405 38.8381C26.6546 39.0161 23.4949 39.0131 20.4626 38.7989L20.6036 36.8039C23.5415 37.0114 26.6161 37.0152 29.7289 36.8412L29.8405 38.8381ZM11.1494 37.311C7.82966 36.4175 4.84808 35.1269 2.43851 33.357L3.6225 31.7451C5.77837 33.3287 8.51417 34.5305 11.6692 35.3797L11.1494 37.311ZM-3.17676 25.4182C-3.58274 23.9128 -3.75729 22.281 -3.68099 20.5206L-1.68287 20.6072C-1.75106 22.1806 -1.59393 23.6063 -1.24574 24.8975L-3.17676 25.4182ZM-3.68099 20.5206C-3.62269 19.1756 -3.46295 17.8892 -3.21124 16.664L-1.25215 17.0665C-1.48186 18.1846 -1.62904 19.3652 -1.68287 20.6072L-3.68099 20.5206ZM-0.291244 9.45661C1.18444 7.18836 3.06138 5.32771 5.18607 3.90389L6.29944 5.56533C4.39267 6.84312 2.70952 8.51169 1.3852 10.5473L-0.291244 9.45661ZM12.386 0.922317C14.9404 0.41323 17.5939 0.399828 20.1791 0.914448L19.7886 2.87596C17.4664 2.4137 15.0786 2.42503 12.7769 2.88374L12.386 0.922317ZM27.3671 3.94031C28.4224 4.66364 29.4267 5.50454 30.3638 6.46523L28.9322 7.86176C28.0868 6.99509 27.1832 6.23898 26.2364 5.58996L27.3671 3.94031ZM30.3638 6.46523C31.6366 7.77006 32.6118 9.21224 33.3145 10.76L31.4934 11.5868C30.8871 10.2514 30.0442 9.00173 28.9322 7.86176L30.3638 6.46523ZM34.4946 20.8956C34.0378 24.0347 32.9499 27.2729 31.4119 30.4535L29.6113 29.5828C31.0823 26.541 32.0945 23.5001 32.5155 20.6076L34.4946 20.8956ZM26.1901 38.9312C24.204 41.577 21.9695 44.0882 19.5968 46.3583L18.2141 44.9132C20.5092 42.7174 22.6709 40.2879 24.5906 37.7305L26.1901 38.9312ZM11.8221 52.5704C10.3747 53.51 8.91479 54.3389 7.46239 55.0356L6.59738 53.2324C7.96419 52.5767 9.34938 51.7911 10.7331 50.8928L11.8221 52.5704ZM7.46239 55.0356C6.34212 55.573 5.15194 56.1145 3.9087 56.6566L3.10937 54.8232C4.33439 54.2891 5.5023 53.7577 6.59738 53.2324L7.46239 55.0356ZM-3.31173 59.6023C-5.69899 60.5223 -8.1604 61.4269 -10.6122 62.298L-11.2818 60.4134C-8.84327 59.547 -6.39871 58.6485 -4.03088 57.7361L-3.31173 59.6023ZM-17.9633 64.8282C-20.5791 65.7023 -23.0797 66.5123 -25.3498 67.233L-25.9549 65.3267C-23.6929 64.6086 -21.202 63.8018 -18.5972 62.9313L-17.9633 64.8282ZM-32.7663 69.5303C-33.9315 69.8821 -34.862 70.1583 -35.5015 70.3468C-35.8213 70.441 -36.0683 70.5132 -36.2356 70.562C-36.3193 70.5864 -36.383 70.6049 -36.4259 70.6173C-36.4474 70.6236 -36.4636 70.6283 -36.4746 70.6314C-36.48 70.633 -36.4842 70.6342 -36.487 70.635C-36.4884 70.6354 -36.4894 70.6357 -36.4902 70.6359C-36.4905 70.636 -36.4908 70.6361 -36.491 70.6362C-36.4911 70.6362 -36.4912 70.6362 -36.4912 70.6362C-36.4913 70.6363 -36.4913 70.6363 -36.4913 70.6363C-36.4913 70.6363 -36.4913 70.6363 -36.7686 69.6755C-37.0458 68.7147 -37.0458 68.7147 -37.0458 68.7147C-37.0458 68.7147 -37.0458 68.7147 -37.0458 68.7147C-37.0458 68.7147 -37.0457 68.7147 -37.0457 68.7146C-37.0455 68.7146 -37.0453 68.7145 -37.045 68.7144C-37.0444 68.7143 -37.0434 68.714 -37.0421 68.7136C-37.0395 68.7129 -37.0356 68.7117 -37.0303 68.7102C-37.0198 68.7071 -37.004 68.7026 -36.9829 68.6965C-36.9409 68.6843 -36.878 68.666 -36.7953 68.6419C-36.6298 68.5937 -36.3846 68.5219 -36.0668 68.4283C-35.4311 68.241 -34.5049 67.966 -33.3443 67.6156L-32.7663 69.5303Z" fill="#B0C5DE"/>
</svg>
