<svg width="83" height="35" viewBox="0 0 83 35" fill="none" xmlns="http://www.w3.org/2000/svg">
<path opacity="0.5" d="M0.0772393 10.9975L2.51206 5.78127L5.82843 10.5322L0.0772393 10.9975ZM54.8848 23.8395L54.3937 23.7418L54.8848 23.8395ZM19.2441 1.51936L19.1835 1.02262L19.2441 1.51936ZM61.0674 1.51936L61.0893 2.01902L61.0674 1.51936ZM30.0579 21.1526L30.5572 21.13L30.0579 21.1526ZM3.48522 8.02164C3.73033 7.86157 3.98475 7.69724 4.24758 7.52963L4.78983 8.37392C4.53013 8.53953 4.27872 8.70192 4.03648 8.86011L3.48522 8.02164ZM13.8624 2.45996C15.6798 1.74811 17.5003 1.21528 19.1835 1.02262L19.3047 2.01611C17.7379 2.19545 16.0056 2.69722 14.2332 3.39142L13.8624 2.45996ZM19.1835 1.02262C20.5159 0.870109 21.9316 0.741458 23.4022 0.649962L23.4718 1.64801C22.0194 1.73837 20.6208 1.86546 19.3047 2.01611L19.1835 1.02262ZM31.8885 0.604492C34.7437 0.767497 37.6136 1.13304 40.3259 1.78283L40.0999 2.75518C37.4585 2.12237 34.6496 1.76329 31.839 1.60283L31.8885 0.604492ZM48.2952 4.9538C50.7985 6.50944 52.8608 8.56277 54.2013 11.2375L53.3079 11.6801C52.0648 9.19974 50.1454 7.27693 47.772 5.802L48.2952 4.9538ZM55.8712 19.6757C55.8265 21.0108 55.6647 22.4297 55.3759 23.9371L54.3937 23.7418C54.6737 22.2801 54.8289 20.9129 54.8718 19.6346L55.8712 19.6757ZM55.3759 23.9371C55.0525 25.6252 54.4708 27.1125 53.6899 28.3954L52.8346 27.8708C53.5515 26.693 54.0918 25.3179 54.3937 23.7418L55.3759 23.9371ZM46.1176 33.8855C43.0303 34.6566 39.6582 34.323 36.7624 32.8813L37.2026 31.9868C39.8784 33.319 43.0053 33.6303 45.8683 32.9152L46.1176 33.8855ZM30.4916 25.8511C29.9752 24.4578 29.6497 22.8983 29.5585 21.1752L30.5572 21.13C30.6434 22.7587 30.9501 24.2178 31.429 25.5099L30.4916 25.8511ZM29.5585 21.1752C29.4913 19.9053 29.5227 18.7134 29.6449 17.5949L30.6391 17.711C30.5231 18.7717 30.4926 19.9094 30.5572 21.13L29.5585 21.1752ZM31.9341 10.8304C33.2449 8.77739 35.0203 7.16874 37.0888 5.90521L37.6148 6.75963C35.6513 7.95905 33.9945 9.46807 32.7781 11.3731L31.9341 10.8304ZM43.6239 3.15252C45.848 2.52163 48.1922 2.08746 50.5427 1.78075L50.6795 2.77233C48.3624 3.07468 46.0683 3.50061 43.9036 4.11469L43.6239 3.15252ZM57.5459 1.17177C58.7461 1.10788 59.9185 1.06054 61.0455 1.01971L61.0893 2.01902C59.9649 2.05977 58.7988 2.10687 57.6066 2.17033L57.5459 1.17177ZM61.0455 1.01971C63.026 0.947938 64.9272 1.08342 66.7217 1.35984L66.5767 2.34813C64.8389 2.08042 63.001 1.94974 61.0893 2.01902L61.0455 1.01971ZM77.4834 4.90316C79.0047 5.67997 80.2143 6.4255 81.0454 6.97817C81.461 7.25457 81.7823 7.48293 82.0008 7.6431C82.11 7.7232 82.1936 7.78627 82.2505 7.82979C82.2789 7.85155 82.3007 7.86843 82.3156 7.88011C82.3231 7.88595 82.3289 7.89049 82.333 7.8937C82.335 7.8953 82.3366 7.89656 82.3378 7.89749C82.3383 7.89795 82.3388 7.89833 82.3392 7.89863C82.3394 7.89877 82.3395 7.8989 82.3397 7.899C82.3397 7.89905 82.3398 7.89911 82.3398 7.89914C82.3399 7.8992 82.34 7.89925 82.0304 8.28949C81.7207 8.67973 81.7208 8.67977 81.7208 8.67981C81.7208 8.67981 81.7209 8.67984 81.7209 8.67985C81.7209 8.67987 81.7209 8.67987 81.7209 8.67984C81.7208 8.67979 81.7206 8.67966 81.7204 8.67944C81.7198 8.679 81.7188 8.67823 81.7174 8.67711C81.7146 8.6749 81.7101 8.67134 81.7039 8.6665C81.6915 8.65681 81.6723 8.64194 81.6465 8.62221C81.595 8.58275 81.5169 8.52384 81.4135 8.44798C81.2065 8.29626 80.8979 8.07679 80.496 7.80953C79.692 7.27488 78.5158 6.5497 77.034 5.79302L77.4834 4.90316Z" fill="white"/>
</svg>
