<svg width="40" height="40" viewBox="0 0 40 40" fill="none" xmlns="http://www.w3.org/2000/svg">
<path d="M23.993 1.82445e-06C27.6528 -0.00174545 31.2026 1.25158 34.0503 3.55096C36.898 5.85033 38.8715 9.05675 39.6417 12.6354C40.4119 16.2141 39.9321 19.9488 38.2825 23.2165C36.6329 26.4842 33.9131 29.0874 30.5767 30.5921C29.5103 32.9504 27.8879 35.0147 25.8487 36.6081C23.8094 38.2015 21.4143 39.2764 18.8685 39.7406C16.3228 40.2047 13.7025 40.0443 11.2323 39.2732C8.76215 38.502 6.51586 37.143 4.68609 35.3128C2.85632 33.4826 1.49767 31.2357 0.726667 28.765C-0.0443351 26.2942 -0.204682 23.6733 0.259377 21.1269C0.723436 18.5806 1.79805 16.1848 3.39106 14.1451C4.98408 12.1054 7.04794 10.4826 9.40566 9.41587C10.6739 6.60909 12.7247 4.22784 15.3121 2.55772C17.8995 0.887604 20.9136 -0.000474223 23.993 1.82445e-06ZM17.9933 14.0028H13.9935V16.0032C12.6937 16 11.4439 16.5032 10.5088 17.4061C9.57369 18.3091 9.02686 19.5407 8.98421 20.84C8.94156 22.1394 9.40644 23.4043 10.2803 24.3666C11.1542 25.3289 12.3684 25.913 13.6655 25.9952L13.9935 26.0052H17.9933L18.1733 26.0212C18.4038 26.0629 18.6124 26.1843 18.7626 26.3642C18.9128 26.5441 18.9951 26.771 18.9951 27.0054C18.9951 27.2397 18.9128 27.4666 18.7626 27.6465C18.6124 27.8264 18.4038 27.9478 18.1733 27.9896L17.9933 28.0056H9.99364V32.0063H13.9935V34.0067H17.9933V32.0063C19.293 32.0095 20.5429 31.5063 21.478 30.6034C22.4131 29.7005 22.9599 28.4688 23.0025 27.1695C23.0452 25.8701 22.5803 24.6053 21.7064 23.6429C20.8326 22.6806 19.6184 22.0965 18.3213 22.0144L17.9933 22.0044H13.9935L13.8135 21.9884C13.5829 21.9466 13.3743 21.8252 13.2241 21.6453C13.074 21.4654 12.9917 21.2385 12.9917 21.0042C12.9917 20.7698 13.074 20.5429 13.2241 20.363C13.3743 20.1831 13.5829 20.0617 13.8135 20.02L13.9935 20.004H21.9931V16.0032H17.9933V14.0028ZM23.993 4.0008C22.2985 3.99881 20.6228 4.35675 19.0769 5.05092C17.531 5.7451 16.15 6.7597 15.0254 8.02759C17.2858 7.89034 19.5497 8.23462 21.6671 9.03769C23.7846 9.84075 25.7076 11.0843 27.3088 12.6861C28.91 14.2879 30.153 16.2114 30.9556 18.3295C31.7582 20.4476 32.1022 22.712 31.9647 24.973C33.783 23.3559 35.067 21.2241 35.6462 18.8604C36.2254 16.4966 36.0725 14.0126 35.2078 11.7378C34.3431 9.46293 32.8075 7.50477 30.8046 6.12298C28.8017 4.74119 26.4261 4.00108 23.993 4.0008Z" fill="#687BFE"/>
</svg>
