<svg width="14" height="20" viewBox="0 0 14 20" fill="none" xmlns="http://www.w3.org/2000/svg">
<path d="M6.9997 20C5.59698 19.9999 4.22665 19.5798 3.06638 18.7941C1.90611 18.0085 1.00941 16.8936 0.492548 15.594C-0.0243122 14.2943 -0.137495 12.8699 0.167675 11.5054C0.472845 10.1409 1.18229 8.89924 2.20403 7.9414C3.45662 6.76651 6.53302 4.65116 6.06633 0C11.6666 3.72093 14.4667 7.44186 8.86645 13.0233C9.79982 13.0233 11.1999 13.0233 13.5333 10.7256C13.7853 11.4447 14 12.2177 14 13.0233C14 14.8736 13.2625 16.6482 11.9497 17.9566C10.6368 19.265 8.8563 20 6.9997 20Z" fill="white"/>
</svg>
