<svg width="40" height="40" viewBox="0 0 40 40" fill="none" xmlns="http://www.w3.org/2000/svg">
<path d="M21.8182 0L21.82 5.56727C25.024 5.97235 28.0023 7.43169 30.2857 9.71548C32.5692 11.9993 34.0281 14.9777 34.4327 18.1818H40V21.8182L34.4327 21.82C34.0277 25.0238 32.5687 28.0018 30.2852 30.2852C28.0018 32.5687 25.0238 34.0277 21.82 34.4327L21.8182 40H18.1818V34.4327C14.9777 34.0281 11.9993 32.5692 9.71548 30.2857C7.43169 28.0023 5.97235 25.024 5.56727 21.82L0 21.8182V18.1818H5.56727C5.97197 14.9775 7.43115 11.9988 9.71497 9.71497C11.9988 7.43115 14.9775 5.97197 18.1818 5.56727V0H21.8182ZM20 16.3636C19.0356 16.3636 18.1107 16.7468 17.4287 17.4287C16.7468 18.1107 16.3636 19.0356 16.3636 20C16.3636 20.9644 16.7468 21.8893 17.4287 22.5713C18.1107 23.2532 19.0356 23.6364 20 23.6364C20.9644 23.6364 21.8893 23.2532 22.5713 22.5713C23.2532 21.8893 23.6364 20.9644 23.6364 20C23.6364 19.0356 23.2532 18.1107 22.5713 17.4287C21.8893 16.7468 20.9644 16.3636 20 16.3636Z" fill="#687BFE"/>
</svg>
