<svg width="22" height="20" viewBox="0 0 22 20" fill="none" xmlns="http://www.w3.org/2000/svg">
<path d="M11 20C9.73199 20 8.4764 19.7582 7.30492 19.2883C6.13343 18.8185 5.069 18.1298 4.17238 17.2617C3.27577 16.3935 2.56453 15.3629 2.07929 14.2286C1.59404 13.0943 1.34429 11.8786 1.34429 10.6508C1.34429 9.42305 1.59404 8.20732 2.07929 7.07303C2.56453 5.93873 3.27577 4.90808 4.17238 4.03993C5.069 3.17178 6.13343 2.48312 7.30492 2.01328C8.4764 1.54344 9.73199 1.30162 11 1.30162C13.5609 1.30162 16.0168 2.28662 17.8276 4.03993C19.6384 5.79324 20.6557 8.17125 20.6557 10.6508C20.6557 13.1304 19.6384 15.5084 17.8276 17.2617C16.0168 19.015 13.5609 20 11 20ZM12.0729 10.6508V5.45681H9.92714V12.7284H15.2914V10.6508H12.0729ZM0 3.67216L3.79255 0L5.31064 1.46886L1.51595 5.14206L0 3.67216ZM18.2064 0L22 3.67216L20.483 5.14206L16.6894 1.46886L18.2075 0H18.2064Z" fill="white"/>
</svg>
