<svg width="26" height="37" viewBox="0 0 26 37" fill="none" xmlns="http://www.w3.org/2000/svg">
<path d="M12.9989 36.3333C10.4942 36.3331 8.04727 35.5804 5.97545 34.1728C3.90362 32.7653 2.30244 30.7677 1.37951 28.4392C0.456587 26.1107 0.254484 23.5586 0.799407 21.1139C1.34433 18.6691 2.61115 16.4445 4.4356 14.7283C6.67227 12.6233 12.1656 8.83333 11.3323 0.5C21.3323 7.16667 26.3323 13.8333 16.3323 23.8333C17.9989 23.8333 20.4989 23.8333 24.6656 19.7167C25.1156 21.005 25.4989 22.39 25.4989 23.8333C25.4989 27.1485 24.182 30.328 21.8378 32.6722C19.4936 35.0164 16.3141 36.3333 12.9989 36.3333Z" fill="#687BFE"/>
</svg>
