<svg width="40" height="40" viewBox="0 0 40 40" fill="none" xmlns="http://www.w3.org/2000/svg">
<path d="M19.9985 36.6665C18.0287 36.6665 16.0781 36.2785 14.2582 35.5247C12.4384 34.7708 10.7848 33.6659 9.39189 32.2731C7.99901 30.8802 6.89412 29.2266 6.1403 27.4067C5.38648 25.5868 4.99849 23.6363 4.99849 21.6665C4.99849 19.6966 5.38648 17.7461 6.1403 15.9262C6.89412 14.1063 7.99901 12.4527 9.39189 11.0599C10.7848 9.66698 12.4384 8.56209 14.2582 7.80827C16.0781 7.05445 18.0287 6.66646 19.9985 6.66646C23.9767 6.66646 27.792 8.24681 30.6051 11.0599C33.4181 13.8729 34.9985 17.6882 34.9985 21.6665C34.9985 25.6447 33.4181 29.46 30.6051 32.2731C27.792 35.0861 23.9767 36.6665 19.9985 36.6665V36.6665ZM21.6652 21.6665V13.3331H18.3318V24.9998H26.6652V21.6665H21.6652ZM2.91016 10.4698L8.80182 4.57812L11.1602 6.93479L5.26516 12.8281L2.91016 10.4698ZM31.1935 4.57812L37.0868 10.4698L34.7302 12.8281L28.8368 6.93479L31.1952 4.57812H31.1935Z" fill="#687BFE"/>
</svg>
