<svg width="22" height="20" viewBox="0 0 22 20" fill="none" xmlns="http://www.w3.org/2000/svg">
<path d="M13.1716 8.28596C12.9796 8.08974 12.7192 7.9795 12.4477 7.9795C12.1763 7.9795 11.9159 8.08974 11.7239 8.28596L11 9.02492C10.8111 9.22486 10.5851 9.38433 10.3353 9.49404C10.0855 9.60376 9.81678 9.6615 9.54489 9.66392C9.27299 9.66634 9.00335 9.61337 8.75169 9.50811C8.50003 9.40286 8.2714 9.24742 8.07913 9.05087C7.88686 8.85431 7.73481 8.62058 7.63185 8.36332C7.52889 8.10605 7.47708 7.8304 7.47944 7.55244C7.4818 7.27448 7.53829 6.99979 7.64561 6.74439C7.75293 6.48899 7.90893 6.258 8.10451 6.0649L13.8689 0.169971C15.2336 -0.147356 16.6615 -0.0167593 17.9494 0.543192C19.2374 1.10314 20.3199 2.06394 21.043 3.28898C21.7661 4.51401 22.093 5.94091 21.9772 7.36679C21.8614 8.79267 21.3088 10.1449 20.3981 11.2313L18.2397 13.466L13.1716 8.28491V8.28596ZM1.95006 1.99329C3.00952 0.910371 4.39528 0.224376 5.8833 0.0462175C7.37133 -0.131941 8.87464 0.208149 10.1502 1.0115L6.65574 4.58488C5.8989 5.35705 5.46748 6.4012 5.45366 7.49421C5.43985 8.58722 5.84473 9.64241 6.5818 10.4343C7.31887 11.2262 8.32967 11.692 9.39822 11.7322C10.4668 11.7724 11.5083 11.3838 12.3003 10.6494L12.4477 10.506L16.792 14.946L12.4477 19.3871C12.0637 19.7795 11.543 20 11 20C10.457 20 9.93626 19.7795 9.55226 19.3871L1.94904 11.6144C0.701085 10.3385 0 8.60814 0 6.80385C0 4.99957 0.701085 3.26917 1.94904 1.99329H1.95006Z" fill="#38D086"/>
</svg>
