<svg width="40" height="40" viewBox="0 0 40 40" fill="none" xmlns="http://www.w3.org/2000/svg">
<path d="M15.5513 19.1686H19.168C21.1571 19.1686 23.0647 19.9588 24.4713 21.3653C25.8778 22.7719 26.668 24.6795 26.668 26.6686H14.9996L15.0013 28.3353H28.3346V26.6686C28.3294 24.8952 27.817 23.1603 26.858 21.6686H31.668C33.2434 21.6682 34.7867 22.1144 36.1189 22.9554C37.451 23.7964 38.5175 24.9978 39.1946 26.4203C35.253 31.622 28.8713 35.002 21.668 35.002C17.0663 35.002 13.168 34.0186 10.0013 32.2936V16.787C12.029 17.0774 13.9438 17.8991 15.5513 19.1686ZM6.66797 15.002C7.07619 15.002 7.4702 15.1519 7.77526 15.4232C8.08031 15.6944 8.27521 16.0682 8.32297 16.4736L8.33464 16.6686V31.6686C8.33464 32.1107 8.15904 32.5346 7.84648 32.8471C7.53392 33.1597 7.11 33.3353 6.66797 33.3353H3.33464C2.89261 33.3353 2.46868 33.1597 2.15612 32.8471C1.84356 32.5346 1.66797 32.1107 1.66797 31.6686V16.6686C1.66797 16.2266 1.84356 15.8027 2.15612 15.4901C2.46868 15.1776 2.89261 15.002 3.33464 15.002H6.66797ZM22.7446 5.96029L23.3346 6.55196L23.9246 5.96196C24.311 5.57232 24.7705 5.26284 25.2768 5.05126C25.783 4.83969 26.3261 4.7302 26.8748 4.72907C27.4235 4.72795 27.9671 4.83522 28.4742 5.04472C28.9814 5.25422 29.4421 5.56182 29.8301 5.94987C30.218 6.33792 30.5255 6.79878 30.7348 7.30598C30.9442 7.81318 31.0513 8.35673 31.05 8.90544C31.0487 9.45415 30.9391 9.9972 30.7274 10.5034C30.5157 11.0096 30.206 11.4691 29.8163 11.8553L23.3346 18.3353L16.8513 11.852C16.4617 11.4656 16.1522 11.0061 15.9406 10.4998C15.729 9.99355 15.6195 9.45047 15.6184 8.90176C15.6173 8.35305 15.7246 7.80952 15.9341 7.30238C16.1436 6.79524 16.4512 6.33448 16.8392 5.94653C17.2273 5.55859 17.6881 5.25112 18.1953 5.04176C18.7025 4.83241 19.2461 4.7253 19.7948 4.72657C20.3435 4.72785 20.8865 4.8375 21.3928 5.04921C21.899 5.26093 22.3584 5.57055 22.7446 5.96029Z" fill="#687BFE"/>
</svg>
