<svg width="36" height="33" viewBox="0 0 36 33" fill="none" xmlns="http://www.w3.org/2000/svg">
<path d="M17.9985 32.6665C16.0287 32.6665 14.0781 32.2785 12.2582 31.5247C10.4384 30.7708 8.78477 29.6659 7.39189 28.2731C5.99901 26.8802 4.89412 25.2266 4.1403 23.4067C3.38648 21.5868 2.99849 19.6363 2.99849 17.6665C2.99849 15.6966 3.38648 13.7461 4.1403 11.9262C4.89412 10.1063 5.99901 8.45273 7.39189 7.05986C8.78477 5.66698 10.4384 4.56209 12.2582 3.80827C14.0781 3.05445 16.0287 2.66646 17.9985 2.66646C21.9767 2.66646 25.792 4.24681 28.6051 7.05986C31.4181 9.8729 32.9985 13.6882 32.9985 17.6665C32.9985 21.6447 31.4181 25.46 28.6051 28.2731C25.792 31.0861 21.9767 32.6665 17.9985 32.6665ZM19.6652 17.6665V9.33313H16.3318V20.9998H24.6652V17.6665H19.6652ZM0.910156 6.46979L6.80182 0.578125L9.16016 2.93479L3.26516 8.82812L0.910156 6.46979ZM29.1935 0.578125L35.0868 6.46979L32.7302 8.82812L26.8368 2.93479L29.1952 0.578125H29.1935Z" fill="#687BFE"/>
</svg>
