<svg width="40" height="40" viewBox="0 0 40 40" fill="none" xmlns="http://www.w3.org/2000/svg">
<path d="M19.9987 18.332C22.2088 18.332 24.3285 19.21 25.8913 20.7728C27.4541 22.3356 28.332 24.4552 28.332 26.6654V36.6654H11.6654V26.6654C11.6654 24.4552 12.5433 22.3356 14.1061 20.7728C15.6689 19.21 17.7886 18.332 19.9987 18.332ZM8.81203 23.342C8.54679 24.2367 8.39011 25.16 8.34536 26.092L8.33203 26.6654V36.6654H3.33203V29.1654C3.3317 27.728 3.86208 26.3411 4.82142 25.2707C5.78077 24.2003 7.10153 23.5218 8.53036 23.3654L8.8137 23.342H8.81203ZM31.1854 23.342C32.6685 23.4324 34.0614 24.0853 35.0797 25.1674C36.098 26.2496 36.6651 27.6794 36.6654 29.1654V36.6654H31.6654V26.6654C31.6654 25.5104 31.4987 24.3954 31.1854 23.342ZM9.16536 13.332C10.2704 13.332 11.3302 13.771 12.1116 14.5524C12.893 15.3338 13.332 16.3936 13.332 17.4987C13.332 18.6038 12.893 19.6636 12.1116 20.445C11.3302 21.2264 10.2704 21.6654 9.16536 21.6654C8.0603 21.6654 7.00049 21.2264 6.21909 20.445C5.43768 19.6636 4.9987 18.6038 4.9987 17.4987C4.9987 16.3936 5.43768 15.3338 6.21909 14.5524C7.00049 13.771 8.0603 13.332 9.16536 13.332V13.332ZM30.832 13.332C31.9371 13.332 32.9969 13.771 33.7783 14.5524C34.5597 15.3338 34.9987 16.3936 34.9987 17.4987C34.9987 18.6038 34.5597 19.6636 33.7783 20.445C32.9969 21.2264 31.9371 21.6654 30.832 21.6654C29.727 21.6654 28.6672 21.2264 27.8858 20.445C27.1044 19.6636 26.6654 18.6038 26.6654 17.4987C26.6654 16.3936 27.1044 15.3338 27.8858 14.5524C28.6672 13.771 29.727 13.332 30.832 13.332V13.332ZM19.9987 3.33203C21.7668 3.33203 23.4625 4.03441 24.7127 5.28465C25.963 6.5349 26.6654 8.23059 26.6654 9.9987C26.6654 11.7668 25.963 13.4625 24.7127 14.7127C23.4625 15.963 21.7668 16.6654 19.9987 16.6654C18.2306 16.6654 16.5349 15.963 15.2847 14.7127C14.0344 13.4625 13.332 11.7668 13.332 9.9987C13.332 8.23059 14.0344 6.5349 15.2847 5.28465C16.5349 4.03441 18.2306 3.33203 19.9987 3.33203V3.33203Z" fill="#687BFE"/>
</svg>
