<svg width="21" height="20" viewBox="0 0 21 20" fill="none" xmlns="http://www.w3.org/2000/svg">
<path d="M11.0795 6.04206L12.5192 7.48178C13.1807 8.14315 13.7054 8.92833 14.0633 9.79249C14.4213 10.6566 14.6056 11.5829 14.6056 12.5182C14.6056 13.4536 14.4213 14.3798 14.0633 15.244C13.7054 16.1081 13.1807 16.8933 12.5192 17.5547L12.1591 17.9138C10.8233 19.2496 9.01165 20 7.12261 20C5.23358 20 3.42191 19.2496 2.08616 17.9138C0.750416 16.5781 1.40744e-08 14.7664 0 12.8774C-1.40744e-08 10.9884 0.750416 9.17669 2.08616 7.84094L3.52588 9.28065C3.05008 9.7523 2.67213 10.3133 2.41371 10.9314C2.1553 11.5495 2.02153 12.2126 2.02006 12.8825C2.01859 13.5525 2.14946 14.2161 2.40517 14.8353C2.66087 15.4546 3.03636 16.0172 3.51009 16.4909C3.98381 16.9647 4.54645 17.3401 5.16568 17.5959C5.78491 17.8516 6.44856 17.9824 7.11851 17.981C7.78845 17.9795 8.45152 17.8457 9.06963 17.5873C9.68773 17.3289 10.2487 16.9509 10.7204 16.4751L11.0805 16.115C12.0343 15.1609 12.57 13.8672 12.57 12.5182C12.57 11.1692 12.0343 9.8755 11.0805 8.92149L9.64083 7.48178L11.0805 6.04308L11.0795 6.04206ZM17.9149 12.158L16.4762 10.7193C16.952 10.2477 17.3299 9.68672 17.5883 9.06861C17.8467 8.4505 17.9805 7.78744 17.982 7.11749C17.9834 6.44754 17.8526 5.7839 17.5969 5.16466C17.3412 4.54543 16.9657 3.9828 16.4919 3.50907C16.0182 3.03534 15.4556 2.65985 14.8364 2.40415C14.2171 2.14845 13.5535 2.01757 12.8835 2.01904C12.2136 2.02051 11.5505 2.15429 10.9324 2.4127C10.3143 2.67111 9.75332 3.04906 9.28167 3.52486L8.92149 3.88504C7.96776 4.83905 7.43199 6.1328 7.43199 7.48178C7.43199 8.83075 7.96776 10.1245 8.92149 11.0785L10.3612 12.5182L8.92149 13.9569L7.48279 12.5182C6.82135 11.8569 6.29667 11.0717 5.9387 10.2075C5.58072 9.34335 5.39648 8.41714 5.39648 7.48178C5.39648 6.54641 5.58072 5.6202 5.9387 4.75604C6.29667 3.89188 6.82135 3.1067 7.48279 2.44533L7.84298 2.08616C9.17872 0.750416 10.9904 0 12.8794 0C14.7685 0 16.5801 0.750416 17.9159 2.08616C19.2516 3.42191 20.002 5.23358 20.002 7.12261C20.002 9.01165 19.2516 10.8233 17.9159 12.1591L17.9149 12.158Z" fill="#687BFE"/>
</svg>
