<svg width="20" height="17" viewBox="0 0 20 17" fill="none" xmlns="http://www.w3.org/2000/svg">
<path d="M7.7737 8.58464H9.58203C10.5766 8.58464 11.5304 8.97972 12.2337 9.68299C12.9369 10.3862 13.332 11.3401 13.332 12.3346H7.49786L7.4987 13.168H14.1654V12.3346C14.1627 11.4479 13.9066 10.5805 13.427 9.83463H15.832C16.6197 9.83442 17.3914 10.0575 18.0575 10.478C18.7236 10.8985 19.2568 11.4992 19.5954 12.2105C17.6245 14.8113 14.4337 16.5013 10.832 16.5013C8.5312 16.5013 6.58203 16.0096 4.9987 15.1471V7.3938C6.01254 7.53903 6.96993 7.94987 7.7737 8.58464ZM4.16536 14.8346C4.16536 15.0556 4.07757 15.2676 3.92129 15.4239C3.76501 15.5802 3.55305 15.668 3.33203 15.668H1.66536C1.44435 15.668 1.23239 15.5802 1.07611 15.4239C0.919829 15.2676 0.832031 15.0556 0.832031 14.8346V7.33464C0.832031 7.11362 0.919829 6.90166 1.07611 6.74538C1.23239 6.5891 1.44435 6.5013 1.66536 6.5013H3.33203C3.55305 6.5013 3.76501 6.5891 3.92129 6.74538C4.07757 6.90166 4.16536 7.11362 4.16536 7.33464V14.8346ZM14.9987 3.16797C15.6617 3.16797 16.2976 3.43136 16.7665 3.9002C17.2353 4.36904 17.4987 5.00493 17.4987 5.66797C17.4987 6.33101 17.2353 6.9669 16.7665 7.43574C16.2976 7.90458 15.6617 8.16797 14.9987 8.16797C14.3357 8.16797 13.6998 7.90458 13.2309 7.43574C12.7621 6.9669 12.4987 6.33101 12.4987 5.66797C12.4987 5.00493 12.7621 4.36904 13.2309 3.9002C13.6998 3.43136 14.3357 3.16797 14.9987 3.16797ZM9.16537 0.667969C9.82841 0.667969 10.4643 0.931361 10.9331 1.4002C11.402 1.86904 11.6654 2.50493 11.6654 3.16797C11.6654 3.83101 11.402 4.46689 10.9331 4.93574C10.4643 5.40458 9.82841 5.66797 9.16537 5.66797C8.50232 5.66797 7.86644 5.40458 7.3976 4.93574C6.92876 4.46689 6.66536 3.83101 6.66536 3.16797C6.66536 2.50493 6.92876 1.86904 7.3976 1.4002C7.86644 0.931361 8.50232 0.667969 9.16537 0.667969Z" fill="#F6D214"/>
</svg>
