<svg width="22" height="20" viewBox="0 0 22 20" fill="none" xmlns="http://www.w3.org/2000/svg">
<path d="M1.58936 3.60922L5.88549 6.51392L10.1673 0.434807C10.2619 0.300329 10.3868 0.190714 10.5317 0.115085C10.6765 0.0394563 10.837 0 10.9999 0C11.1628 0 11.3234 0.0394563 11.4682 0.115085C11.613 0.190714 11.7379 0.300329 11.8326 0.434807L16.1144 6.51392L20.4105 3.60922C20.5731 3.49952 20.7633 3.4393 20.9585 3.4357C21.1538 3.43211 21.346 3.48527 21.5124 3.58891C21.6788 3.69256 21.8125 3.84235 21.8976 4.02059C21.9828 4.19882 22.0159 4.39806 21.9929 4.59474L20.3123 19.084C20.283 19.3363 20.1634 19.569 19.9762 19.7378C19.7889 19.9067 19.5471 20 19.2966 20H2.70328C2.45274 20 2.21093 19.9067 2.0237 19.7378C1.83648 19.569 1.71687 19.3363 1.68755 19.084L0.00694712 4.59371C-0.015761 4.3971 0.0174677 4.19802 0.102711 4.01994C0.187954 3.84187 0.321652 3.69225 0.488023 3.58875C0.654394 3.48524 0.846492 3.43217 1.04164 3.4358C1.23679 3.43942 1.42684 3.4996 1.58936 3.60922ZM10.9999 13.7757C11.5425 13.7757 12.0629 13.5571 12.4465 13.168C12.8302 12.7789 13.0457 12.2511 13.0457 11.7009C13.0457 11.1506 12.8302 10.6229 12.4465 10.2338C12.0629 9.84468 11.5425 9.62609 10.9999 9.62609C10.4574 9.62609 9.93701 9.84468 9.55335 10.2338C9.16969 10.6229 8.95416 11.1506 8.95416 11.7009C8.95416 12.2511 9.16969 12.7789 9.55335 13.168C9.93701 13.5571 10.4574 13.7757 10.9999 13.7757Z" fill="#FF7F5F"/>
</svg>
