<svg width="40" height="40" viewBox="0 0 40 40" fill="none" xmlns="http://www.w3.org/2000/svg">
<path d="M20.0013 11.667C23.5375 11.667 26.9289 13.0718 29.4294 15.5723C31.9299 18.0728 33.3346 21.4641 33.3346 25.0004C33.3346 28.5366 31.9299 31.928 29.4294 34.4285C26.9289 36.9289 23.5375 38.3337 20.0013 38.3337C16.4651 38.3337 13.0737 36.9289 10.5732 34.4285C8.07273 31.928 6.66797 28.5366 6.66797 25.0004C6.66797 21.4641 8.07273 18.0728 10.5732 15.5723C13.0737 13.0718 16.4651 11.667 20.0013 11.667ZM20.0013 17.5004L17.7963 21.967L12.868 22.6837L16.4346 26.1587L15.593 31.0687L20.0013 28.7504L24.4096 31.067L23.568 26.1587L27.1346 22.682L22.2063 21.9654L20.0013 17.5004ZM21.668 3.33203L30.0013 3.3337V8.3337L27.7296 10.2304C25.8445 9.24134 23.7864 8.62508 21.668 8.41536V3.3337V3.33203ZM18.3346 3.33203V8.41536C16.2169 8.62478 14.1593 9.24045 12.2746 10.2287L10.0013 8.3337V3.3337L18.3346 3.33203Z" fill="#687BFE"/>
</svg>
