<svg width="34" height="34" viewBox="0 0 34 34" fill="none" xmlns="http://www.w3.org/2000/svg">
<path d="M16.9987 15.332C19.2088 15.332 21.3285 16.21 22.8913 17.7728C24.4541 19.3356 25.332 21.4552 25.332 23.6654V33.6654H8.66536V23.6654C8.66536 21.4552 9.54334 19.3356 11.1061 17.7728C12.6689 16.21 14.7886 15.332 16.9987 15.332ZM5.81203 20.342C5.54679 21.2367 5.39011 22.16 5.34536 23.092L5.33203 23.6654V33.6654H0.332031V26.1654C0.331703 24.728 0.862078 23.3411 1.82142 22.2707C2.78077 21.2003 4.10153 20.5218 5.53036 20.3654L5.8137 20.342H5.81203ZM28.1854 20.342C29.6685 20.4324 31.0614 21.0853 32.0797 22.1674C33.098 23.2496 33.6651 24.6794 33.6654 26.1654V33.6654H28.6654V23.6654C28.6654 22.5104 28.4987 21.3954 28.1854 20.342ZM6.16536 10.332C7.27043 10.332 8.33024 10.771 9.11164 11.5524C9.89304 12.3338 10.332 13.3936 10.332 14.4987C10.332 15.6038 9.89304 16.6636 9.11164 17.445C8.33024 18.2264 7.27043 18.6654 6.16536 18.6654C5.0603 18.6654 4.00049 18.2264 3.21909 17.445C2.43768 16.6636 1.9987 15.6038 1.9987 14.4987C1.9987 13.3936 2.43768 12.3338 3.21909 11.5524C4.00049 10.771 5.0603 10.332 6.16536 10.332ZM27.832 10.332C28.9371 10.332 29.9969 10.771 30.7783 11.5524C31.5597 12.3338 31.9987 13.3936 31.9987 14.4987C31.9987 15.6038 31.5597 16.6636 30.7783 17.445C29.9969 18.2264 28.9371 18.6654 27.832 18.6654C26.727 18.6654 25.6672 18.2264 24.8858 17.445C24.1044 16.6636 23.6654 15.6038 23.6654 14.4987C23.6654 13.3936 24.1044 12.3338 24.8858 11.5524C25.6672 10.771 26.727 10.332 27.832 10.332ZM16.9987 0.332031C18.7668 0.332031 20.4625 1.03441 21.7127 2.28465C22.963 3.5349 23.6654 5.23059 23.6654 6.9987C23.6654 8.76681 22.963 10.4625 21.7127 11.7127C20.4625 12.963 18.7668 13.6654 16.9987 13.6654C15.2306 13.6654 13.5349 12.963 12.2847 11.7127C11.0344 10.4625 10.332 8.76681 10.332 6.9987C10.332 5.23059 11.0344 3.5349 12.2847 2.28465C13.5349 1.03441 15.2306 0.332031 16.9987 0.332031Z" fill="#687BFE"/>
</svg>
