<svg width="40" height="40" viewBox="0 0 40 40" fill="none" xmlns="http://www.w3.org/2000/svg">
<path d="M19.9989 38.3333C17.4942 38.3331 15.0473 37.5804 12.9754 36.1728C10.9036 34.7653 9.30244 32.7677 8.37951 30.4392C7.45659 28.1107 7.25448 25.5586 7.79941 23.1139C8.34433 20.6691 9.61115 18.4445 11.4356 16.7283C13.6723 14.6233 19.1656 10.8333 18.3323 2.5C28.3323 9.16667 33.3323 15.8333 23.3323 25.8333C24.9989 25.8333 27.4989 25.8333 31.6656 21.7167C32.1156 23.005 32.4989 24.39 32.4989 25.8333C32.4989 29.1485 31.182 32.328 28.8378 34.6722C26.4936 37.0164 23.3141 38.3333 19.9989 38.3333Z" fill="#687BFE"/>
</svg>
