<svg width="23" height="12" viewBox="0 0 23 12" fill="none" xmlns="http://www.w3.org/2000/svg">
<path d="M23 5.79248V5.84662C23 7.14587 22.7342 8.25865 22.2026 9.18496C21.671 10.0992 20.9622 10.797 20.0763 11.2782C19.2021 11.7594 18.2453 12 17.2057 12C16.3552 12 15.6168 11.8556 14.9908 11.5669C14.3765 11.2662 13.8154 10.8632 13.3074 10.3579C12.8112 9.85263 12.3092 9.30526 11.8012 8.71579C11.6831 8.5594 11.5886 8.47519 11.5177 8.46316C11.4468 8.4391 11.3405 8.51729 11.1988 8.69775C11.0452 8.86617 10.8148 9.13083 10.5077 9.49173C10.2124 9.8406 9.82845 10.2135 9.35593 10.6105C8.89522 10.9955 8.35182 11.3263 7.72573 11.603C7.09964 11.8677 6.37905 12 5.56394 12C4.57165 12 3.65023 11.7534 2.79969 11.2602C1.94915 10.7669 1.2699 10.0752 0.761942 9.18496C0.253981 8.28271 0 7.22406 0 6.00902C0 4.80601 0.253981 3.75338 0.761942 2.85113C1.28172 1.94887 1.9905 1.25113 2.88829 0.757895C3.78608 0.252632 4.81382 0 5.9715 0C6.83385 0 7.56626 0.132331 8.16872 0.396992C8.77119 0.661654 9.31459 1.02256 9.79892 1.4797C10.2951 1.93684 10.7971 2.45414 11.3051 3.03158C11.4941 3.21203 11.6359 3.30225 11.7304 3.30225C11.8249 3.30225 11.9548 3.21203 12.1202 3.03158C12.51 2.58647 12.9471 2.12932 13.4314 1.66015C13.9276 1.19098 14.5064 0.799999 15.168 0.487216C15.8295 0.162405 16.6091 0 17.5069 0C18.5583 0 19.4974 0.234586 20.3243 0.703759C21.1513 1.17293 21.801 1.8406 22.2735 2.70677C22.7578 3.57293 23 4.6015 23 5.79248ZM5.77658 9.32932H5.86518C6.39676 9.32932 6.90473 9.19699 7.38906 8.93233C7.8734 8.65564 8.31048 8.32481 8.70031 7.93985C9.10195 7.54286 9.42681 7.16391 9.67489 6.80301C9.89933 6.49023 10.0056 6.26165 9.99384 6.11729C9.98202 5.9609 9.85799 5.70226 9.62173 5.34135C9.06651 4.47519 8.47586 3.79549 7.84977 3.30225C7.23549 2.80902 6.53262 2.56241 5.74114 2.56241C4.83154 2.56241 4.08731 2.87519 3.50847 3.50075C2.94145 4.11429 2.65794 4.91429 2.65794 5.90075C2.65794 6.91128 2.95917 7.73534 3.56163 8.37293C4.17591 9.01053 4.91423 9.32932 5.77658 9.32932ZM17.3652 2.56241H17.3297C16.5028 2.56241 15.7704 2.85113 15.1325 3.42857C14.5064 4.00602 13.9335 4.6015 13.4137 5.21504C13.1893 5.49173 13.0948 5.75038 13.1302 5.99098C13.1775 6.21955 13.272 6.41805 13.4137 6.58647C13.9807 7.39248 14.5182 7.99399 15.0262 8.39098C15.546 8.77594 16.0126 9.02857 16.426 9.14887C16.8513 9.26917 17.1998 9.32932 17.4715 9.32932C18.0858 9.32932 18.6055 9.1609 19.0308 8.82406C19.4561 8.48722 19.775 8.06015 19.9877 7.54286C20.2003 7.01353 20.3066 6.4782 20.3066 5.93684C20.3066 5.04662 20.0408 4.26466 19.5092 3.59098C18.9895 2.90526 18.2748 2.56241 17.3652 2.56241Z" fill="#8C94A3"/>
</svg>
