<svg width="201" height="194" viewBox="0 0 201 194" fill="none" xmlns="http://www.w3.org/2000/svg">
<g opacity="0.6">
<path d="M131.868 54.2019C131.923 54.1198 131.979 54.0375 132.034 53.9553C132.026 53.9273 131.969 54.0122 131.868 54.2019Z" fill="#A8B1EF"/>
<path d="M-17.6823 97.4588L-3.48836 100.195L-12.955 111.119L-17.6823 97.4588ZM132.034 53.9553L133.243 53.6326L133.389 54.1808L133.074 54.6521L132.034 53.9553ZM-8.42592 103.829C5.49005 114.13 26.385 122.197 50.6866 117.44C74.9811 112.684 102.921 95.0633 130.829 53.504L132.908 54.8998C104.759 96.8177 76.3119 114.975 51.1676 119.897C26.0304 124.818 4.43444 116.464 -9.91557 105.841L-8.42592 103.829ZM130.829 53.5039C130.884 53.4222 130.939 53.3404 130.994 53.2584L133.074 54.6521C133.018 54.7347 132.963 54.8173 132.908 54.8998L130.829 53.5039ZM130.824 54.2779C130.855 54.3919 130.932 54.6189 131.14 54.8295C131.382 55.0755 131.708 55.2044 132.038 55.2019C132.32 55.1997 132.526 55.1036 132.623 55.0507C132.73 54.9928 132.804 54.9316 132.844 54.8968C132.923 54.8278 132.972 54.7658 132.987 54.7469C133.008 54.7207 133.021 54.7013 133.025 54.6948C133.035 54.6798 133.021 54.7007 132.974 54.7895L130.763 53.6143C130.817 53.5134 130.881 53.397 130.947 53.2992C130.962 53.2768 131.051 53.1391 131.194 53.0139C131.237 52.9756 131.316 52.9118 131.425 52.8521C131.526 52.7974 131.735 52.7004 132.019 52.6982C132.351 52.6957 132.68 52.8255 132.924 53.0732C133.133 53.2856 133.212 53.5152 133.243 53.6326L130.824 54.2779ZM132.974 54.7895C132.278 56.0991 129.177 63.1393 126.123 72.6732C123.073 82.1979 120.107 94.1007 119.617 105.153C119.126 116.26 121.148 126.172 127.684 132.112C134.176 138.012 145.55 140.366 164.706 135.319L165.344 137.74C145.882 142.868 133.432 140.719 126 133.965C118.613 127.252 116.615 116.361 117.116 105.043C117.62 93.6704 120.659 81.5262 123.739 71.9096C126.816 62.3022 129.969 55.1068 130.763 53.6143L132.974 54.7895Z" fill="#A8B1EF"/>
<circle r="5.99487" transform="matrix(0.866025 0.5 0.5 -0.866025 168.289 135.135)" fill="#A8B1EF" stroke="#A8B1EF" stroke-width="1.33219"/>
</g>
</svg>
