<svg width="56" height="56" viewBox="0 0 56 56" fill="none" xmlns="http://www.w3.org/2000/svg">
<rect opacity="0.2" width="56" height="56" rx="28" fill="#38D086"/>
<path d="M36.9483 31.0658V22.3125C36.9483 20.0688 35.1295 18.25 32.8858 18.25H23.3958C21.1522 18.25 19.3333 20.0688 19.3333 22.3125V33.7308C19.3333 35.6514 20.8902 37.2083 22.8108 37.2083H36.1358C36.5845 37.2083 36.9483 36.8446 36.9483 36.3958C36.9483 35.9471 36.5845 35.5833 36.1358 35.5833H22.8108C21.7877 35.5833 20.9583 34.7539 20.9583 33.7308C20.9583 32.7077 21.7877 31.8783 22.8108 31.8783H36.1358C36.5845 31.8783 36.9483 31.5146 36.9483 31.0658Z" fill="#38D086"/>
<path d="M22.8108 32.9183C22.3621 32.9183 21.9983 33.2821 21.9983 33.7308C21.9983 34.1796 22.3621 34.5433 22.8108 34.5433H34.8033C35.252 34.5433 35.6158 34.1796 35.6158 33.7308C35.6158 33.2821 35.252 32.9183 34.8033 32.9183H22.8108Z" fill="#38D086"/>
</svg>
