<svg width="220" height="194" viewBox="0 0 220 194" fill="none" xmlns="http://www.w3.org/2000/svg">
<g opacity="0.3">
<path d="M150.868 54.2019C150.923 54.1198 150.979 54.0375 151.034 53.9553C151.026 53.9273 150.969 54.0122 150.868 54.2019Z" fill="#A8B1EF"/>
<path d="M1.31773 97.4588L15.5116 100.195L6.04504 111.119L1.31773 97.4588ZM151.034 53.9553L152.243 53.6326L152.389 54.1808L152.074 54.6521L151.034 53.9553ZM10.5741 103.829C24.49 114.13 45.385 122.197 69.6866 117.44C93.9811 112.684 121.921 95.0633 149.829 53.504L151.908 54.8998C123.759 96.8177 95.3119 114.975 70.1676 119.897C45.0304 124.818 23.4344 116.464 9.08443 105.841L10.5741 103.829ZM149.829 53.5039C149.884 53.4222 149.939 53.3404 149.994 53.2584L152.074 54.6521C152.018 54.7347 151.963 54.8173 151.908 54.8998L149.829 53.5039ZM149.824 54.2779C149.855 54.3919 149.932 54.6189 150.14 54.8295C150.382 55.0755 150.708 55.2044 151.038 55.2019C151.32 55.1997 151.526 55.1036 151.623 55.0507C151.73 54.9928 151.804 54.9316 151.844 54.8968C151.923 54.8278 151.972 54.7658 151.987 54.7469C152.008 54.7207 152.021 54.7013 152.025 54.6948C152.035 54.6798 152.021 54.7007 151.974 54.7895L149.763 53.6143C149.817 53.5134 149.881 53.397 149.947 53.2992C149.962 53.2768 150.051 53.1391 150.194 53.0139C150.237 52.9756 150.316 52.9118 150.425 52.8521C150.526 52.7974 150.735 52.7004 151.019 52.6982C151.351 52.6957 151.68 52.8255 151.924 53.0732C152.133 53.2856 152.212 53.5152 152.243 53.6326L149.824 54.2779ZM151.974 54.7895C151.278 56.0991 148.177 63.1393 145.123 72.6732C142.073 82.1979 139.107 94.1007 138.617 105.153C138.126 116.26 140.148 126.172 146.684 132.112C153.176 138.012 164.55 140.366 183.706 135.319L184.344 137.74C164.882 142.868 152.432 140.719 145 133.965C137.613 127.252 135.615 116.361 136.116 105.043C136.62 93.6704 139.659 81.5262 142.739 71.9096C145.816 62.3022 148.969 55.1068 149.763 53.6143L151.974 54.7895Z" fill="#A8B1EF"/>
<circle r="5.99487" transform="matrix(0.866025 0.5 0.5 -0.866025 187.29 135.136)" fill="#A8B1EF" stroke="#A8B1EF" stroke-width="1.33219"/>
</g>
</svg>
