<svg width="350" height="364" viewBox="0 0 350 364" fill="none" xmlns="http://www.w3.org/2000/svg">
<path opacity="0.1" d="M280.242 -75.8928L251.382 -75.2303L266.386 -50.5681L280.242 -75.8928ZM136.58 210.871L136.769 208.378L136.58 210.871ZM188.918 -3.44699L186.967 -5.00973L188.918 -3.44699ZM51.0881 195.992L49.0638 194.525L51.0881 195.992ZM211.609 87.3809L209.493 88.7113L211.609 87.3809ZM260.298 -66.2963C256.585 -63.8534 252.477 -61.0906 248.127 -58.0676L250.98 -53.9616C255.292 -56.9578 259.364 -59.697 263.046 -62.1194L260.298 -66.2963ZM236.16 -49.5073C232.306 -46.6658 228.375 -43.6812 224.456 -40.5873L227.554 -36.6626C231.425 -39.7186 235.311 -42.6699 239.127 -45.4827L236.16 -49.5073ZM213.069 -31.2299C209.299 -27.9944 205.619 -24.6815 202.112 -21.3238L205.57 -17.7122C209.002 -20.9985 212.614 -24.2504 216.326 -27.4357L213.069 -31.2299ZM191.778 -10.6831C190.092 -8.79608 188.483 -6.90312 186.967 -5.00973L190.87 -1.88425C192.324 -3.70058 193.874 -5.52485 195.507 -7.35169L191.778 -10.6831ZM186.967 -5.00973C185.497 -3.17403 184.005 -1.28439 182.495 0.655011L186.441 3.72646C187.937 1.80466 189.414 -0.0669489 190.87 -1.88425L186.967 -5.00973ZM173.758 12.1732C170.953 15.9638 168.115 19.89 165.266 23.9276L169.352 26.8102C172.179 22.8031 174.995 18.9073 177.777 15.147L173.758 12.1732ZM157.063 35.8276C154.393 39.7909 151.734 43.8324 149.103 47.9324L153.311 50.6327C155.922 46.5647 158.561 42.5541 161.21 38.6205L157.063 35.8276ZM141.43 60.1992C138.919 64.3205 136.454 68.4799 134.052 72.6588L138.387 75.1505C140.767 71.0102 143.21 66.8874 145.7 62.8005L141.43 60.1992ZM127.005 85.3264C124.696 89.624 122.472 93.9233 120.352 98.204L124.833 100.423C126.926 96.1952 129.125 91.9453 131.41 87.6928L127.005 85.3264ZM114.158 111.344C112.142 115.861 110.267 120.336 108.558 124.743L113.22 126.551C114.896 122.229 116.738 117.831 118.724 113.382L114.158 111.344ZM103.705 138.52C102.185 143.363 100.913 148.091 99.9275 152.665L104.815 153.718C105.764 149.314 106.995 144.735 108.476 140.017L103.705 138.52ZM97.7606 167.259C97.3784 172.551 97.5193 177.567 98.2808 182.216L103.215 181.408C102.529 177.22 102.387 172.606 102.748 167.619L97.7606 167.259ZM103.474 196.584C106.185 200.913 109.874 204.526 114.619 207.29L117.136 202.97C113.081 200.608 109.987 197.563 107.711 193.93L103.474 196.584ZM128.95 212.402C131.292 212.844 133.771 213.166 136.392 213.364L136.769 208.378C134.317 208.193 132.022 207.894 129.878 207.489L128.95 212.402ZM136.392 213.364C138.978 213.56 141.514 213.652 144 213.644L143.985 208.644C141.632 208.651 139.227 208.564 136.769 208.378L136.392 213.364ZM159.19 212.291C164.367 211.357 169.269 209.958 173.883 208.15L172.06 203.495C167.75 205.183 163.162 206.494 158.302 207.37L159.19 212.291ZM187.493 201.156C191.823 198.34 195.798 195.123 199.408 191.581L195.907 188.012C192.526 191.328 188.81 194.335 184.767 196.964L187.493 201.156ZM209.242 179.908C212.149 175.726 214.671 171.289 216.799 166.679L212.259 164.583C210.249 168.938 207.872 173.12 205.137 177.055L209.242 179.908ZM221.999 152.379C223.338 147.468 224.27 142.457 224.786 137.426L219.812 136.916C219.324 141.675 218.442 146.417 217.175 151.064L221.999 152.379ZM225.065 122.206C224.721 117.098 223.931 112.047 222.679 107.139L217.835 108.375C219.008 112.976 219.752 117.725 220.076 122.541L225.065 122.206ZM217.448 92.7655C216.331 90.4637 215.09 88.2214 213.726 86.0504L209.493 88.7113C210.758 90.7246 211.91 92.8072 212.95 94.9491L217.448 92.7655ZM213.726 86.0504C212.365 83.8852 210.92 81.9392 209.392 80.2074L205.642 83.5147C206.976 85.0263 208.262 86.7529 209.493 88.7113L213.726 86.0504ZM197.513 71.5876C192.916 69.7431 188.009 69.1723 182.917 69.6445L183.379 74.6232C187.796 74.2135 191.891 74.7194 195.651 76.2279L197.513 71.5876ZM169.049 73.174C164.929 74.8142 160.723 76.9589 156.464 79.5193L159.04 83.8045C163.116 81.3546 167.078 79.3405 170.899 77.8193L169.049 73.174ZM144.937 87.3233C141.371 89.9898 137.775 92.8965 134.168 96.0011L137.43 99.7907C140.962 96.7503 144.468 93.9167 147.931 91.3278L144.937 87.3233ZM123.961 105.264C120.696 108.374 117.431 111.615 114.18 114.959L117.765 118.445C120.976 115.142 124.195 111.946 127.409 108.886L123.961 105.264ZM104.747 124.979C101.678 128.338 98.6312 131.766 95.6186 135.236L99.3942 138.514C102.382 135.073 105.4 131.677 108.438 128.352L104.747 124.979ZM86.7319 145.702C83.794 149.236 80.9007 152.788 78.0633 156.331L81.9662 159.456C84.786 155.935 87.6599 152.407 90.5768 148.899L86.7319 145.702ZM69.5725 167.114C66.7214 170.793 63.9443 174.435 61.2545 178.009L65.2495 181.016C67.9264 177.459 70.6892 173.836 73.5249 170.176L69.5725 167.114ZM53.0935 188.997C51.7189 190.872 50.3749 192.716 49.0638 194.525L53.1124 197.459C54.4183 195.657 55.7568 193.821 57.1255 191.954L53.0935 188.997ZM49.0638 194.525C47.5092 196.671 46.0016 198.818 44.5395 200.964L48.6718 203.779C50.107 201.672 51.5868 199.565 53.1124 197.459L49.0638 194.525ZM36.0633 214.2C33.2913 218.808 30.7203 223.38 28.3368 227.882L32.7557 230.221C35.0985 225.796 37.6249 221.304 40.348 216.777L36.0633 214.2ZM21.3617 241.948C19.0624 246.908 16.9919 251.731 15.1297 256.364L19.7691 258.229C21.6007 253.671 23.6371 248.929 25.8981 244.05L21.3617 241.948ZM9.64919 271.093C7.77832 276.551 6.22825 281.587 4.95301 286.087L9.76361 287.45C11.0159 283.031 12.5393 278.081 14.3791 272.714L9.64919 271.093ZM1.13123 301.32C0.597216 303.796 0.227029 305.737 -0.0105248 307.065C-0.129322 307.729 -0.214948 308.24 -0.271357 308.588C-0.299553 308.762 -0.320435 308.895 -0.334509 308.986C-0.341534 309.032 -0.346858 309.067 -0.350549 309.092C-0.352388 309.104 -0.353812 309.114 -0.354844 309.121C-0.355357 309.124 -0.355767 309.127 -0.356082 309.129C-0.356242 309.13 -0.356367 309.131 -0.356479 309.132C-0.35652 309.132 -0.356575 309.132 -0.356613 309.133C-0.356632 309.133 -0.356667 309.133 -0.356677 309.133C-0.356707 309.133 -0.356714 309.133 2.11695 309.495C4.59062 309.857 4.5906 309.857 4.5906 309.857C4.59059 309.857 4.59057 309.857 4.59057 309.857C4.59054 309.858 4.59053 309.858 4.59054 309.858C4.59052 309.858 4.59053 309.858 4.59059 309.857C4.59067 309.857 4.59084 309.856 4.59113 309.854C4.5917 309.85 4.59265 309.843 4.59402 309.834C4.59676 309.816 4.60112 309.787 4.60718 309.748C4.61929 309.669 4.63812 309.549 4.66421 309.388C4.71638 309.066 4.79745 308.582 4.91133 307.946C5.1391 306.673 5.49797 304.79 6.0189 302.374L1.13123 301.32Z" fill="white"/>
</svg>
