<svg width="56" height="56" viewBox="0 0 56 56" fill="none" xmlns="http://www.w3.org/2000/svg">
<rect opacity="0.4" width="56" height="56" rx="28" fill="#98C0E8"/>
<path fill-rule="evenodd" clip-rule="evenodd" d="M37.8077 30.2983C37.811 30.9763 38.1091 31.6193 38.6243 32.06C40.386 33.635 39.1377 36.33 36.641 36.33H32.2077C31.633 37.8984 30.1447 38.9449 28.4743 38.955C26.7985 38.9622 25.3012 37.9094 24.741 36.33H20.3077C17.811 36.33 16.5627 33.635 18.3243 32.06C18.8396 31.6193 19.1376 30.9763 19.141 30.2983V24.6633C19.141 20.0667 23.3177 16.3333 28.4743 16.3333C33.631 16.3333 37.8077 20.0667 37.8077 24.6633V30.2983ZM26.701 36.33C27.1256 36.8795 27.7799 37.2024 28.4743 37.205C29.1523 37.1882 29.7866 36.8668 30.201 36.33H26.701Z" fill="#98C0E8"/>
</svg>
