<svg width="72" height="72" viewBox="0 0 72 72" fill="none" xmlns="http://www.w3.org/2000/svg">
<rect opacity="0.2" width="72" height="72" rx="36" fill="#687BFE"/>
<path d="M38.65 46H29.36C28.3496 45.9639 27.4083 45.4774 26.7946 44.6739C26.1808 43.8704 25.959 42.8343 26.19 41.85L26.42 40.71C26.696 39.1668 28.0226 38.0327 29.59 38H38.41C39.9797 38.0319 41.3096 39.1652 41.59 40.71L41.82 41.85C42.0472 42.8339 41.8239 43.8679 41.2109 44.6704C40.5979 45.4729 39.659 45.9603 38.65 46Z" fill="#687BFE"/>
<path d="M34.5 36H33.5C31.2909 36 29.5 34.2091 29.5 32V29.36C29.5 27.5043 31.0043 26 32.86 26H35.14C36.0319 25.9973 36.8881 26.3505 37.5188 26.9812C38.1495 27.6119 38.5027 28.4681 38.5 29.36V32C38.5 34.2091 36.7091 36 34.5 36Z" fill="#687BFE"/>
<path d="M45 30.25H43.63V28.88C43.63 28.4658 43.2942 28.13 42.88 28.13C42.4658 28.13 42.13 28.4658 42.13 28.88V30.25H40.77C40.3558 30.25 40.02 30.5858 40.02 31C40.02 31.4142 40.3558 31.75 40.77 31.75H42.13V33.12C42.13 33.5342 42.4658 33.87 42.88 33.87C43.2942 33.87 43.63 33.5342 43.63 33.12V31.75H45C45.4142 31.75 45.75 31.4142 45.75 31C45.75 30.5858 45.4142 30.25 45 30.25Z" fill="#687BFE"/>
</svg>
