<svg width="303" height="315" viewBox="0 0 303 315" fill="none" xmlns="http://www.w3.org/2000/svg">
<path d="M221.866 370.946C221.976 371.199 222.086 371.452 222.195 371.705C222.266 371.726 222.153 371.464 221.866 370.946Z" fill="white"/>
<path d="M222.195 371.705L222.057 372.211L221.857 372.151L221.768 371.945L222.195 371.705ZM315.883 -58.5613C274.46 -46.5349 220.095 -10.6561 191.563 57.8869C163.035 126.417 160.28 227.721 222.294 370.706L221.438 371.186C159.351 228.03 162.019 126.385 190.706 57.4724C219.387 -11.4279 274.028 -47.4862 315.672 -59.5766L315.883 -58.5613ZM222.294 370.706C222.403 370.959 222.513 371.212 222.623 371.464L221.768 371.945C221.658 371.692 221.548 371.439 221.438 371.186L222.294 370.706ZM222.334 371.198C222.296 371.186 222.209 371.166 222.099 371.198C221.97 371.236 221.863 371.333 221.802 371.456C221.75 371.559 221.744 371.651 221.743 371.691C221.742 371.737 221.747 371.77 221.749 371.785C221.757 371.826 221.764 371.831 221.737 371.768C221.692 371.665 221.603 371.488 221.461 371.231L222.272 370.661C222.416 370.923 222.526 371.136 222.592 371.288C222.62 371.352 222.661 371.451 222.679 371.552C222.684 371.581 222.69 371.627 222.689 371.683C222.688 371.733 222.68 371.834 222.625 371.943C222.56 372.072 222.449 372.173 222.314 372.213C222.198 372.247 222.104 372.226 222.057 372.211L222.334 371.198ZM221.461 371.231C219.363 367.438 207.804 349.632 190.81 328.477C173.818 307.324 151.421 282.859 127.655 265.72C103.87 248.568 78.8268 238.837 56.4902 246.912C34.1802 254.978 14.3505 280.896 1.15536 335.646L0.24159 335.406C13.466 280.534 33.4338 254.154 56.2235 245.915C78.9867 237.685 104.346 247.641 128.189 264.835C152.052 282.043 174.511 306.583 191.525 327.764C208.538 348.943 220.136 366.798 222.272 370.661L221.461 371.231Z" fill="#161D37"/>
</svg>
