<svg width="119" height="186" viewBox="0 0 119 186" fill="none" xmlns="http://www.w3.org/2000/svg">
<path d="M2.54142 183.472L19.7111 185.344L12.6812 169.446L2.54142 183.472ZM45.2459 42.1433L44.7629 43.5657L45.2459 42.1433ZM49.2048 152.366L50.4045 153.269L49.2048 152.366ZM104.051 57.3704L102.785 56.564L104.051 57.3704ZM18.7914 102.058L19.5992 100.795L18.7914 102.058ZM12.8044 180.331C14.7356 179.366 16.8685 178.265 19.1185 177.047L17.6944 174.395C15.4764 175.596 13.3726 176.682 11.4669 177.634L12.8044 180.331ZM25.3254 173.54C27.3337 172.354 29.3732 171.095 31.3935 169.776L29.7593 167.249C27.7811 168.541 25.78 169.776 23.8051 170.942L25.3254 173.54ZM37.2774 165.695C39.234 164.247 41.124 162.744 42.8936 161.198L40.9286 158.922C39.2292 160.407 37.4035 161.859 35.5007 163.267L37.2774 165.695ZM48.0811 156.112C48.9149 155.178 49.6931 154.229 50.4045 153.269L48.005 151.464C47.3537 152.343 46.6337 153.222 45.8531 154.097L48.0811 156.112ZM50.4045 153.269C51.2132 152.177 52.03 151.053 52.8512 149.898L50.4177 148.14C49.6079 149.279 48.8024 150.388 48.005 151.464L50.4045 153.269ZM57.5534 143.007C59.0468 140.723 60.5305 138.356 61.9812 135.923L59.4159 134.367C57.9877 136.763 56.5261 139.094 55.054 141.345L57.5534 143.007ZM66.1015 128.646C67.4143 126.196 68.6761 123.698 69.866 121.166L67.1622 119.87C65.9964 122.351 64.7585 124.802 63.4685 127.21L66.1015 128.646ZM73.2052 113.469C74.2469 110.842 75.1933 108.194 76.0218 105.541L73.1689 104.628C72.3649 107.204 71.4443 109.781 70.4276 112.345L73.2052 113.469ZM78.1747 97.3744C78.7721 94.5639 79.2116 91.7614 79.4653 88.9857L76.4878 88.6989C76.2461 91.3435 75.8259 94.0277 75.2507 96.7341L78.1747 97.3744ZM79.6226 80.4442C79.4482 77.5527 79.0268 74.7121 78.3227 71.9476L75.4264 72.6849C76.0792 75.2478 76.4741 77.8977 76.638 80.6154L79.6226 80.4442ZM75.302 63.8607C74.0271 61.3439 72.4538 58.9318 70.5538 56.6466L68.2638 58.5732C70.0183 60.6836 71.4668 62.9054 72.6392 65.22L75.302 63.8607ZM64.4115 50.641C62.3029 48.9477 59.9533 47.3603 57.3483 45.8895L55.893 48.5133C58.3656 49.9094 60.5789 51.4065 62.5522 52.9912L64.4115 50.641ZM49.7113 42.2205C48.4309 41.6986 47.1038 41.1985 45.7289 40.7209L44.7629 43.5657C46.0901 44.0267 47.368 44.5084 48.598 45.0097L49.7113 42.2205ZM45.7289 40.7209C44.3693 40.2486 43.021 39.8624 41.6867 39.5582L41.0366 42.4936C42.262 42.7729 43.5049 43.1287 44.7629 43.5657L45.7289 40.7209ZM33.3256 38.6937C30.4265 38.7611 27.6426 39.2165 25.0081 40.0044L25.8696 42.8899C28.2537 42.1769 30.775 41.7639 33.4058 41.7028L33.3256 38.6937ZM17.3347 43.4642C14.9364 44.9494 12.7446 46.7338 10.7955 48.7505L12.9425 50.8535C14.7263 49.0078 16.7268 47.3805 18.9084 46.0294L17.3347 43.4642ZM5.70639 55.4409C4.27886 57.8568 3.12737 60.4426 2.28945 63.1342L5.14303 64.044C5.91104 61.577 6.96732 59.2044 8.27775 56.9868L5.70639 55.4409ZM0.755588 71.4363C0.582933 74.2322 0.750792 77.0702 1.29637 79.8874L4.23114 79.3221C3.7359 76.7649 3.58249 74.1837 3.73993 71.6343L0.755588 71.4363ZM3.96874 87.9366C5.15186 90.3906 6.66933 92.771 8.54395 95.032L10.8367 93.1086C9.11669 91.034 7.73298 88.8607 6.65785 86.6307L3.96874 87.9366ZM14.5807 100.886C15.6486 101.727 16.7824 102.54 17.9835 103.321L19.5992 100.795C18.4725 100.062 17.413 99.3023 16.4186 98.5185L14.5807 100.886ZM17.9835 103.321C19.1418 104.074 20.2921 104.772 21.4344 105.415L22.8869 102.789C21.8019 102.178 20.706 101.514 19.5992 100.795L17.9835 103.321ZM28.7459 108.851C31.4038 109.851 34.0144 110.56 36.5773 111.001L37.0702 108.034C34.7009 107.626 32.2725 106.969 29.7835 106.032L28.7459 108.851ZM44.7063 111.522C47.4579 111.399 50.1371 110.973 52.7431 110.284L51.9739 107.373C49.5624 108.01 47.0928 108.402 44.5626 108.515L44.7063 111.522ZM60.3366 107.474C62.7349 106.331 65.0615 104.977 67.3173 103.453L65.6441 100.952C63.4973 102.403 61.299 103.68 59.0485 104.753L60.3366 107.474ZM73.6697 98.5792C75.6633 96.8674 77.5986 95.0344 79.4762 93.1104L77.3393 90.997C75.5154 92.866 73.6439 94.638 71.7243 96.2861L73.6697 98.5792ZM84.8267 87.2258C86.537 85.2178 88.196 83.1499 89.8044 81.0488L87.4333 79.2061C85.8524 81.2714 84.226 83.2983 82.5536 85.2618L84.8267 87.2258ZM94.4854 74.6625C96.0198 72.4837 97.5036 70.2964 98.9371 68.1287L96.4461 66.4544C95.0256 68.6023 93.5585 70.765 92.0439 72.9158L94.4854 74.6625ZM103.22 61.5039C103.933 60.3798 104.631 59.2693 105.316 58.1767L102.785 56.564C102.103 57.6535 101.407 58.7593 100.698 59.8775L103.22 61.5039ZM105.316 58.1767C105.986 57.1072 106.623 56.0323 107.227 54.9541L104.622 53.4677C104.041 54.504 103.429 55.5368 102.785 56.564L105.316 58.1767ZM110.569 48.2628C111.602 45.9259 112.5 43.5942 113.281 41.2894L110.451 40.3083C109.697 42.5327 108.831 44.7802 107.836 47.0306L110.569 48.2628ZM115.377 34.1123C115.999 31.6001 116.493 29.1498 116.882 26.7919L113.933 26.2877C113.555 28.5725 113.077 30.9446 112.476 33.3745L115.377 34.1123ZM117.819 19.3878C118.059 16.6741 118.171 14.1648 118.203 11.9237L115.213 11.8694C115.182 14.0423 115.074 16.4763 114.84 19.109L117.819 19.3878ZM118.012 4.43017C117.931 3.24183 117.84 2.30759 117.768 1.66625C117.732 1.34556 117.701 1.09802 117.679 0.928462C117.668 0.843684 117.659 0.778402 117.653 0.733217C117.65 0.710628 117.647 0.693054 117.645 0.680577C117.644 0.674348 117.644 0.669388 117.643 0.665706C117.643 0.663867 117.643 0.662353 117.642 0.661151C117.642 0.660552 117.642 0.660043 117.642 0.6596C117.642 0.659385 117.642 0.659191 117.642 0.659014C117.642 0.658921 117.642 0.658803 117.642 0.658765C117.642 0.658647 117.642 0.658533 116.164 0.877585C114.685 1.09662 114.685 1.09652 114.685 1.09643C114.685 1.0964 114.685 1.09632 114.685 1.09627C114.685 1.09617 114.685 1.09609 114.685 1.09604C114.685 1.09592 114.685 1.09588 114.685 1.09594C114.685 1.09602 114.685 1.09644 114.685 1.09716C114.686 1.09863 114.686 1.10136 114.687 1.10537C114.688 1.11336 114.69 1.12642 114.692 1.14446C114.697 1.18056 114.705 1.23659 114.715 1.31196C114.735 1.4627 114.763 1.69077 114.797 1.99133C114.864 2.59253 114.951 3.48344 115.029 4.6256L118.012 4.43017Z" fill="#FF7F5F"/>
</svg>
