<svg width="44" height="106" viewBox="0 0 44 106" fill="none" xmlns="http://www.w3.org/2000/svg">
<path d="M13.6673 105.063L3.17802 100.315L12.603 93.5728L13.6673 105.063ZM29.9352 35.6338L29.7399 36.6161L29.9352 35.6338ZM1.66066 80.7825L0.667169 80.9037L1.66066 80.7825ZM1.66066 27.8019L2.65998 27.7581L1.66066 27.8019ZM26.5315 67.0839L26.4862 66.0853L26.5315 67.0839ZM7.15853 97.0373C6.0432 95.147 4.90573 93.0667 3.89739 90.9332L5.70673 90.0673C6.68301 92.1331 7.78995 94.1588 8.88296 96.0112L7.15853 97.0373ZM1.38066 84.4056C1.04569 83.215 0.79709 82.0387 0.667169 80.9037L2.65416 80.6614C2.76945 81.6686 2.99334 82.7385 3.30617 83.8505L1.38066 84.4056ZM0.667169 80.9037C0.520208 79.6198 0.390688 78.2751 0.285951 76.8853L2.28024 76.72C2.38297 78.0831 2.51002 79.4022 2.65416 80.6614L0.667169 80.9037ZM0.00574622 68.8C0.0276 66.1242 0.171212 63.3934 0.479266 60.6976L2.46626 60.9098C2.1674 63.5251 2.02699 66.1846 2.00562 68.8012L0.00574622 68.8ZM1.97542 52.6712C2.71672 49.9386 3.70394 47.3384 4.99679 44.9918L6.74675 45.9468C5.5469 48.1246 4.61392 50.5692 3.90532 53.1812L1.97542 52.6712ZM10.2614 38.4867C12.3614 36.7512 14.8481 35.4476 17.7691 34.7051L18.2479 36.6433C15.6175 37.3119 13.3998 38.478 11.5284 40.0245L10.2614 38.4867ZM26.0365 34.0935C27.3426 34.1944 28.7065 34.3788 30.1305 34.6516L29.7399 36.6161C28.3836 36.3562 27.0938 36.1823 25.8676 36.0877L26.0365 34.0935ZM30.1305 34.6516C31.5504 34.9236 32.863 35.3378 34.0663 35.8741L33.2406 37.7019C32.1812 37.2297 31.015 36.8603 29.7399 36.6161L30.1305 34.6516ZM40.4374 41.0366C42.068 43.3059 43.0513 45.9528 43.3976 48.6789L41.4135 48.9457C41.106 46.5248 40.2352 44.1949 38.8103 42.2118L40.4374 41.0366ZM42.528 56.839C41.6179 59.409 40.0909 61.7916 37.9428 63.7005L36.6207 62.2098C38.4967 60.5427 39.8392 58.4548 40.6433 56.1841L42.528 56.839ZM30.633 67.4874C29.3678 67.8033 28.0153 68.0064 26.5768 68.0826L26.4862 66.0853C27.8029 66.0156 29.0278 65.8304 30.1623 65.5471L30.633 67.4874ZM26.5768 68.0826C24.95 68.1687 23.4203 68.1286 21.9822 67.9715L22.2143 65.9832C23.5368 66.1278 24.9582 66.1662 26.4862 66.0853L26.5768 68.0826ZM13.2567 65.0166C10.6017 63.3215 8.52741 61.0289 6.9033 58.3701L8.61213 57.3181C10.108 59.767 11.9831 61.8224 14.342 63.3285L13.2567 65.0166ZM3.37676 50.0014C2.57139 47.1622 2.01839 44.1743 1.62825 41.1844L3.61142 40.9108C3.99282 43.8338 4.52936 46.7215 5.3011 49.442L3.37676 50.0014ZM0.854252 32.2851C0.773169 30.7617 0.713116 29.2743 0.661348 27.8457L2.65998 27.7581C2.71156 29.1815 2.77114 30.6564 2.85137 32.1637L0.854252 32.2851ZM0.661348 27.8457C0.616408 26.6055 0.634985 25.3899 0.707104 24.2029L2.70336 24.3091C2.635 25.4342 2.61747 26.5852 2.65998 27.7581L0.661348 27.8457ZM1.80634 17.0222C2.42529 14.4884 3.23387 12.1724 4.09157 10.1319L5.93437 10.8951C5.11204 12.8514 4.33935 15.066 3.74895 17.483L1.80634 17.0222ZM7.39459 3.66873C7.98392 2.70394 8.49424 1.95009 8.85958 1.43444C9.04228 1.17657 9.18884 0.978123 9.29102 0.842506C9.34212 0.77469 9.38213 0.722576 9.41003 0.686575C9.42398 0.66857 9.43491 0.654602 9.44268 0.644709C9.44656 0.639766 9.44966 0.635844 9.45195 0.632943C9.4531 0.631492 9.45404 0.630302 9.45478 0.629366C9.45515 0.628898 9.45547 0.628499 9.45574 0.628161C9.45588 0.627992 9.456 0.627838 9.45611 0.6277C9.45616 0.627631 9.45623 0.627539 9.45626 0.627508C9.45633 0.627416 9.45639 0.62734 10.2369 1.24657C11.0174 1.8658 11.0174 1.86573 11.0175 1.86566C11.0175 1.86564 11.0175 1.86557 11.0176 1.86554C11.0176 1.86546 11.0177 1.86541 11.0177 1.86537C11.0178 1.86528 11.0178 1.86527 11.0178 1.86531C11.0177 1.8654 11.0174 1.86574 11.0169 1.86634C11.016 1.86755 11.0142 1.86976 11.0117 1.87298C11.0066 1.87942 10.9984 1.8899 10.9872 1.90436C10.9648 1.93327 10.9304 1.97808 10.885 2.03839C10.7941 2.159 10.6592 2.3415 10.4885 2.58249C10.1469 3.06457 9.66223 3.7801 9.09915 4.70191L7.39459 3.66873Z" fill="#FF7F5F"/>
</svg>
