<svg width="235" height="100" viewBox="0 0 235 100" fill="none" xmlns="http://www.w3.org/2000/svg">
<path d="M237.59 132.496C237.698 132.601 237.805 132.706 237.912 132.811C237.909 132.854 237.798 132.746 237.59 132.496Z" fill="#161D37"/>
<path d="M0.517525 112.491L5.77011 110.03L0.963835 106.787L0.517525 112.491ZM237.912 132.811L238.416 132.843L238.43 132.619L238.268 132.46L237.912 132.811ZM3.48941 109.11C18.8526 88.1152 47.8627 65.3068 87.7067 62.0973C127.537 58.8889 178.313 75.2576 237.235 132.847L237.946 132.145C178.889 74.4234 127.838 57.8701 87.6219 61.1095C47.4193 64.3479 18.1634 87.3573 2.66977 108.531L3.48941 109.11ZM237.235 132.847C237.342 132.951 237.449 133.056 237.556 133.161L238.268 132.46C238.16 132.355 238.053 132.25 237.946 132.145L237.235 132.847ZM237.409 132.778C237.412 132.733 237.424 132.641 237.488 132.544C237.564 132.432 237.682 132.357 237.811 132.333C237.921 132.312 238.008 132.334 238.049 132.346C238.093 132.36 238.125 132.377 238.141 132.386C238.19 132.413 238.21 132.438 238.184 132.412C238.149 132.378 238.083 132.306 237.981 132.183L237.2 132.809C237.306 132.936 237.399 133.042 237.473 133.114C237.5 133.141 237.562 133.2 237.639 133.244C237.661 133.257 237.7 133.277 237.75 133.292C237.796 133.306 237.888 133.328 238.002 133.307C238.134 133.282 238.255 133.206 238.332 133.09C238.399 132.99 238.412 132.893 238.416 132.843L237.409 132.778ZM237.981 132.183C236.472 130.369 229.67 120.831 222.219 107.647C214.77 94.4675 206.693 77.6852 202.608 61.3823C198.517 45.0586 198.459 29.3451 206.86 18.1788C215.247 7.03144 232.205 0.237698 262.6 2.08371L262.66 1.09452C232.137 -0.759216 214.738 6.03784 206.048 17.5885C197.372 29.1201 197.517 45.2118 201.628 61.617C205.745 78.0431 213.869 94.9136 221.337 108.127C228.804 121.337 235.638 130.932 237.2 132.809L237.981 132.183Z" fill="#161D37"/>
</svg>
