<svg width="52" height="18" viewBox="0 0 52 18" fill="none" xmlns="http://www.w3.org/2000/svg">
<path d="M64.3104 18.89L61.4794 23.9517L58.5341 19.0214L64.3104 18.89ZM22.7973 7.97246L23.2802 8.09744L22.7973 7.97246ZM49.181 25.0352L49.2074 25.5339L49.181 25.0352ZM17.0735 23.6934L17.0832 23.1937L17.0735 23.6934ZM41.7391 10.6853L41.2388 10.6888L41.7391 10.6853ZM63.3841 20.0296L62.9504 20.2835L62.4518 19.4227L62.8856 19.1688L63.3841 20.0296ZM60.508 20.4942L60.9519 20.2586L61.4135 21.1401L60.9696 21.3757L60.508 20.4942ZM58.4961 22.6197L58.0422 22.8349L57.6216 21.9329L58.0755 21.7176L58.4961 22.6197ZM55.5909 22.8137L56.0562 22.625L56.4236 23.5504L55.9582 23.7391L55.5909 22.8137ZM53.3401 24.687L52.8613 24.8371L52.5716 23.8838L53.0504 23.7337L53.3401 24.687ZM50.4575 24.3784L50.9514 24.2933L51.1106 25.2781L50.6167 25.3632L50.4575 24.3784ZM47.6217 25.617L47.1217 25.6373L47.0922 24.6387L47.5923 24.6183L47.6217 25.617ZM44.4534 24.6718L44.9536 24.6754L44.935 25.6748L44.4349 25.6712L44.4534 24.6718ZM41.2521 25.5659L40.7531 25.5358L40.8246 24.5382L41.3236 24.5683L41.2521 25.5659ZM38.2106 24.2855L38.7063 24.3468L38.5724 25.3387L38.0766 25.2775L38.2106 24.2855ZM34.9245 24.7669L34.4355 24.6671L34.6464 23.6878L35.1354 23.7876L34.9245 24.7669ZM32.1326 23.0203L32.6083 23.1696L32.2984 24.1234L31.8228 23.974L32.1326 23.0203ZM28.8285 22.8083L28.3793 22.5934L28.8198 21.691L29.269 21.9059L28.8285 22.8083ZM26.664 20.3397L27.0602 20.6402L26.4494 21.4387L26.0532 21.1381L26.664 20.3397ZM23.737 18.8341L23.4392 18.436L24.2432 17.832L24.541 18.2301L23.737 18.8341ZM23.1707 15.5974L23.3257 16.0707L22.3744 16.3912L22.2194 15.9179L23.1707 15.5974ZM21.6768 12.6858L21.6629 12.1865L22.6631 12.1475L22.6769 12.6468L21.6768 12.6858ZM22.9355 9.60303L22.844 10.0953L21.8603 9.92357L21.9519 9.43127L22.9355 9.60303ZM22.7934 6.47349L22.9931 6.0131L23.9104 6.40181L23.7106 6.86219L22.7934 6.47349ZM25.0998 4.6793L24.7654 5.05474L24.0212 4.39512L24.3557 4.01968L25.0998 4.6793ZM26.6115 2.1805L27.0454 1.92691L27.5433 2.78812L27.1094 3.04171L26.6115 2.1805ZM29.5273 2.06187L29.041 2.18455L28.8064 1.21567L29.2927 1.09299L29.5273 2.06187ZM32.1472 0.754573L32.6474 0.758908L32.6273 1.75833L32.1272 1.754L32.1472 0.754573ZM34.7172 2.1029L34.2353 1.97429L34.5037 1.0085L34.9856 1.13711L34.7172 2.1029ZM37.6302 2.23785L38.0588 2.49069L37.5428 3.35279L37.1142 3.09995L37.6302 2.23785ZM39.1105 4.72323L38.778 4.35367L39.5255 3.6809L39.858 4.05045L39.1105 4.72323ZM41.4157 6.47138L41.6148 6.92754L40.6969 7.33569L40.4978 6.87953L41.4157 6.47138ZM41.1648 9.37561L41.1051 8.88016L42.0985 8.74966L42.1582 9.24511L41.1648 9.37561ZM42.1499 12.3123L42.0958 12.8096L41.1011 12.7129L41.1552 12.2155L42.1499 12.3123ZM40.4566 15.1436L40.6396 14.6765L41.5708 15.0315L41.3878 15.4987L40.4566 15.1436ZM39.7155 18.3509L39.3957 18.7388L38.6263 18.1086L38.946 17.7207L39.7155 18.3509ZM36.7082 19.7321L37.1246 19.4504L37.6791 20.276L37.2627 20.5577L36.7082 19.7321ZM34.3717 22.0754L33.9062 22.2638L33.5395 21.3382L34.005 21.1497L34.3717 22.0754ZM31.0649 22.0862L31.5519 21.9663L31.781 22.9365L31.294 23.0565L31.0649 22.0862ZM28.1469 23.6602L27.651 23.7318L27.5189 22.7427L28.0147 22.671L28.1469 23.6602ZM24.9133 23.0051L25.4126 22.9674L25.4766 23.964L24.9774 24.0017L24.9133 23.0051ZM21.8057 24.1613L21.3055 24.1755L21.2884 23.1764L21.7886 23.1622L21.8057 24.1613ZM18.6518 23.2012L19.1521 23.2015L19.1401 24.201L18.6398 24.2007L18.6518 23.2012ZM15.6123 24.1376L15.1136 24.1036L15.193 23.1065L15.6917 23.1405L15.6123 24.1376ZM12.9335 22.7906L13.4244 22.8815L13.2312 23.8643L12.7404 23.7734L12.9335 22.7906ZM9.93378 23.0943L9.45603 22.9515L9.75284 21.9937L10.2306 22.1365L9.93378 23.0943ZM7.60887 21.2057L8.06948 21.3954L7.67902 22.32L7.21842 22.1302L7.60887 21.2057ZM4.61232 20.9062L4.17245 20.6732L4.649 19.789L5.08888 20.0221L4.61232 20.9062ZM2.70293 18.602L3.11635 18.8787L2.55294 19.711L2.13952 19.4343L2.70293 18.602ZM60.9696 21.3757C60.2185 21.7743 59.3828 22.1992 58.4961 22.6197L58.0755 21.7176C58.9463 21.3048 59.7682 20.8868 60.508 20.4942L60.9696 21.3757ZM55.9582 23.7391C55.0961 24.0889 54.215 24.4127 53.3401 24.687L53.0504 23.7337C53.8942 23.4691 54.749 23.1552 55.5909 22.8137L55.9582 23.7391ZM50.6167 25.3632C50.1369 25.4459 49.6654 25.5045 49.2074 25.5339L49.1546 24.5365C49.572 24.5097 50.0076 24.4559 50.4575 24.3784L50.6167 25.3632ZM49.2074 25.5339C48.6936 25.5668 48.1641 25.5949 47.6217 25.617L47.5923 24.6183C48.1267 24.5966 48.6484 24.5689 49.1546 24.5365L49.2074 25.5339ZM44.4349 25.6712C43.3935 25.6638 42.3272 25.6307 41.2521 25.5659L41.3236 24.5683C42.3796 24.6319 43.4282 24.6645 44.4534 24.6718L44.4349 25.6712ZM38.0766 25.2775C37.0149 25.1462 35.959 24.9781 34.9245 24.7669L35.1354 23.7876C36.1416 23.993 37.1716 24.1571 38.2106 24.2855L38.0766 25.2775ZM31.8228 23.974C30.777 23.6456 29.7722 23.2598 28.8285 22.8083L29.269 21.9059C30.1646 22.3344 31.125 22.7038 32.1326 23.0203L31.8228 23.974ZM26.0532 21.1381C25.1699 20.4681 24.3875 19.7039 23.737 18.8341L24.541 18.2301C25.1301 19.0179 25.8448 19.7183 26.664 20.3397L26.0532 21.1381ZM22.2194 15.9179C21.8959 14.9302 21.7092 13.8546 21.6768 12.6858L22.6769 12.6468C22.7068 13.7255 22.8787 14.7058 23.1707 15.5974L22.2194 15.9179ZM21.9519 9.43127C22.0474 8.91789 22.1679 8.39008 22.3143 7.84749L23.2802 8.09744C23.1403 8.6156 23.0259 9.1173 22.9355 9.60303L21.9519 9.43127ZM22.3143 7.84749C22.4444 7.36553 22.605 6.90748 22.7934 6.47349L23.7106 6.86219C23.5422 7.25031 23.3977 7.66193 23.2802 8.09744L22.3143 7.84749ZM24.3557 4.01968C25.0153 3.27905 25.7796 2.66669 26.6115 2.1805L27.1094 3.04171C26.3646 3.47699 25.6847 4.02259 25.0998 4.6793L24.3557 4.01968ZM29.2927 1.09299C30.2232 0.858285 31.1862 0.746245 32.1472 0.754573L32.1272 1.754C31.2492 1.74639 30.3719 1.84882 29.5273 2.06187L29.2927 1.09299ZM34.9856 1.13711C35.9122 1.38437 36.8055 1.75137 37.6302 2.23785L37.1142 3.09995C36.3707 2.66139 35.5613 2.32817 34.7172 2.1029L34.9856 1.13711ZM39.858 4.05045C40.4866 4.74902 41.0165 5.55677 41.4157 6.47138L40.4978 6.87953C40.1419 6.06408 39.6702 5.34524 39.1105 4.72323L39.858 4.05045ZM42.1582 9.24511C42.2138 9.70686 42.2416 10.1858 42.2394 10.6818L41.2388 10.6888C41.2408 10.2329 41.2154 9.79516 41.1648 9.37561L42.1582 9.24511ZM42.2394 10.6818C42.2369 11.2471 42.2066 11.7903 42.1499 12.3123L41.1552 12.2155C41.208 11.7298 41.2365 11.2213 41.2388 10.6888L42.2394 10.6818ZM41.3878 15.4987C40.9669 16.573 40.401 17.5193 39.7155 18.3509L38.946 17.7207C39.5642 16.9709 40.0751 16.1173 40.4566 15.1436L41.3878 15.4987ZM37.2627 20.5577C36.3762 21.1573 35.4037 21.6576 34.3717 22.0754L34.005 21.1497C34.9821 20.7542 35.8897 20.2857 36.7082 19.7321L37.2627 20.5577ZM31.294 23.0565C30.2719 23.3082 29.2168 23.5056 28.1469 23.6602L28.0147 22.671C29.0578 22.5204 30.08 22.3288 31.0649 22.0862L31.294 23.0565ZM24.9774 24.0017C23.9142 24.0818 22.8514 24.1316 21.8057 24.1613L21.7886 23.1622C22.8221 23.1329 23.8689 23.0838 24.9133 23.0051L24.9774 24.0017ZM18.6398 24.2007C18.1039 24.2003 17.5776 24.1973 17.0638 24.1931L17.0832 23.1937C17.5956 23.1979 18.1192 23.2009 18.6518 23.2012L18.6398 24.2007ZM17.0638 24.1931C16.5725 24.1891 16.0885 24.1701 15.6123 24.1376L15.6917 23.1405C16.1485 23.1716 16.6125 23.1899 17.0832 23.1937L17.0638 24.1931ZM12.7404 23.7734C11.7573 23.5914 10.8195 23.3591 9.93378 23.0943L10.2306 22.1365C11.0849 22.3919 11.988 22.6155 12.9335 22.7906L12.7404 23.7734ZM7.21842 22.1302C6.25136 21.7318 5.37821 21.3119 4.61232 20.9062L5.08888 20.0221C5.82963 20.4145 6.67404 20.8205 7.60887 21.2057L7.21842 22.1302ZM2.13952 19.4343C1.76065 19.1807 1.46762 18.9693 1.26808 18.8203C1.1683 18.7458 1.09186 18.6868 1.03972 18.646C1.01365 18.6255 0.993656 18.6096 0.979847 18.5986C0.972945 18.5931 0.967587 18.5887 0.963793 18.5857C0.961896 18.5841 0.960391 18.5829 0.959278 18.582C0.958718 18.5815 0.95826 18.5812 0.957902 18.5809C0.957719 18.5807 0.957565 18.5806 0.957433 18.5805C0.957367 18.5804 0.957309 18.5804 0.957254 18.5803C0.957228 18.5803 0.957191 18.5803 0.95718 18.5803C0.957144 18.5803 0.957115 18.5802 1.27682 18.1923C1.59652 17.8043 1.59649 17.8043 1.59647 17.8042C1.59646 17.8042 1.59643 17.8042 1.59642 17.8042C1.59639 17.8042 1.59636 17.8042 1.59635 17.8041C1.59632 17.8041 1.59631 17.8041 1.59632 17.8041C1.59635 17.8041 1.59649 17.8043 1.59671 17.8044C1.59716 17.8048 1.598 17.8055 1.59923 17.8065C1.60169 17.8085 1.60568 17.8117 1.61122 17.8161C1.62229 17.825 1.63948 17.8387 1.66269 17.8569C1.7091 17.8932 1.77953 17.9476 1.87303 18.0174C2.06004 18.1571 2.33922 18.3586 2.70293 18.602L2.13952 19.4343Z" fill="#FF7F5F"/>
</svg>
