<svg width="30" height="22" viewBox="0 0 30 22" fill="none" xmlns="http://www.w3.org/2000/svg">
<path d="M-6.42196 21.9178L-5.82236 15.7392L-1.52901 18.8738L-6.42196 21.9178ZM19.7718 11.4875L19.3167 11.6358L19.7718 11.4875ZM0.579985 12.8462L0.353304 12.4097L0.579985 12.8462ZM19.0542 1.08193L18.8529 0.627048L19.0542 1.08193ZM8.39009 17.4277L7.97978 17.7221L8.39009 17.4277ZM-6.04247 20.3849L-5.76159 19.9285L-5.02737 20.4869L-5.30825 20.9434L-6.04247 20.3849ZM-3.73731 18.5297L-4.03976 18.9685L-4.73887 18.3561L-4.43642 17.9173L-3.73731 18.5297ZM-2.69389 15.5565L-2.36447 15.1435L-1.71594 15.8241L-2.04536 16.237L-2.69389 15.5565ZM-0.195443 14.1609L-0.566597 14.5228L-1.11764 13.7344L-0.74648 13.3725L-0.195443 14.1609ZM1.61377 11.4687L2.02297 11.172L2.45295 12.0625L2.04374 12.3593L1.61377 11.4687ZM4.57309 10.634L4.15155 10.9031L3.77224 9.97799L4.19378 9.70892L4.57309 10.634ZM6.85984 8.1376L7.29442 7.90399L7.6094 8.86682L7.17482 9.10043L6.85984 8.1376ZM9.84485 7.83198L9.39623 8.01416L9.17351 7.0079L9.62214 6.82572L9.84485 7.83198ZM12.499 5.91831L12.9598 5.8211L13.0323 6.87349L12.5715 6.9707L12.499 5.91831ZM15.2647 6.81198L14.8134 6.75123L15.0132 5.68795L15.4645 5.74869L15.2647 6.81198ZM18.1952 6.9741L18.5397 7.28748L17.9234 8.15495L17.5788 7.84157L18.1952 6.9741ZM18.9775 10.1734L18.8228 9.69047L19.694 9.22946L19.8486 9.71238L18.9775 10.1734ZM20.2668 13.0484L20.2089 13.5834L19.2917 13.5604L19.3496 13.0254L20.2668 13.0484ZM18.3783 15.7038L18.6638 15.2509L19.3908 15.8209L19.1053 16.2738L18.3783 15.7038ZM16.9203 18.6757L16.5195 18.989L16.059 18.1214L16.4599 17.8081L16.9203 18.6757ZM14.0774 19.1041L14.5322 18.9541L14.6977 19.9814L14.243 20.1314L14.0774 19.1041ZM11.3604 20.4057L10.9121 20.3295L11.1381 19.2702L11.5863 19.3464L11.3604 20.4057ZM9.50349 18.2061L9.81886 18.5572L9.14298 19.3647L8.8276 19.0136L9.50349 18.2061ZM7.37908 15.9757L7.2709 15.4713L8.16971 15.1141L8.27789 15.6185L7.37908 15.9757ZM8.46783 12.3432L8.30211 12.86L7.43908 12.5822L7.60481 12.0654L8.46783 12.3432ZM9.43745 8.66147L9.75587 8.23737L10.426 8.88997L10.1076 9.31407L9.43745 8.66147ZM12.4443 6.74961L12.0678 7.10363L11.5315 6.30112L11.908 5.9471L12.4443 6.74961ZM14.6177 3.6525L15.0196 3.34115L15.4764 4.21154L15.0746 4.52289L14.6177 3.6525ZM17.8442 2.50302L17.4306 2.79037L17.0179 1.88756L17.4315 1.60021L17.8442 2.50302ZM20.0979 -0.150108L20.528 -0.396802L20.8666 0.552885L20.4365 0.799576L20.0979 -0.150108ZM22.8975 -0.382587L22.4478 -0.205464L22.234 -1.21534L22.6838 -1.39246L22.8975 -0.382587ZM25.3509 -2.23114L25.8107 -2.34073L25.905 -1.29322L25.4451 -1.18363L25.3509 -2.23114ZM28.0277 -1.60543L27.5657 -1.56591L27.5936 -2.63319L28.0556 -2.67271L28.0277 -1.60543ZM-4.43642 17.9173C-3.90867 17.1516 -3.31805 16.339 -2.69389 15.5565L-2.04536 16.237C-2.64792 16.9924 -3.22152 17.7813 -3.73731 18.5297L-4.43642 17.9173ZM-0.74648 13.3725C-0.382987 13.0181 -0.0147445 12.6924 0.353304 12.4097L0.806666 13.2828C0.478974 13.5345 0.143479 13.8305 -0.195443 14.1609L-0.74648 13.3725ZM0.353304 12.4097C0.754382 12.1016 1.17578 11.7864 1.61377 11.4687L2.04374 12.3593C1.61387 12.671 1.20026 12.9804 0.806666 13.2828L0.353304 12.4097ZM4.19378 9.70892C5.05779 9.15743 5.95351 8.62478 6.85984 8.1376L7.17482 9.10043C6.29322 9.57432 5.41908 10.094 4.57309 10.634L4.19378 9.70892ZM9.62214 6.82572C10.5976 6.42962 11.5656 6.1152 12.499 5.91831L12.5715 6.9707C11.6993 7.15471 10.7823 7.45132 9.84485 7.83198L9.62214 6.82572ZM15.4645 5.74869C16.4876 5.88639 17.4201 6.26909 18.1952 6.9741L17.5788 7.84157C16.9417 7.26198 16.1609 6.93259 15.2647 6.81198L15.4645 5.74869ZM19.8486 9.71238C20.0066 10.2056 20.1332 10.7472 20.2268 11.3392L19.3167 11.6358C19.2312 11.0946 19.1169 10.6086 18.9775 10.1734L19.8486 9.71238ZM20.2268 11.3392C20.3177 11.9144 20.3276 12.4869 20.2668 13.0484L19.3496 13.0254C19.3988 12.5712 19.3911 12.1065 19.3167 11.6358L20.2268 11.3392ZM19.1053 16.2738C18.5215 17.1998 17.7642 18.0161 16.9203 18.6757L16.4599 17.8081C17.2136 17.219 17.8762 16.5002 18.3783 15.7038L19.1053 16.2738ZM14.243 20.1314C13.2784 20.4496 12.2881 20.5633 11.3604 20.4057L11.5863 19.3464C12.3672 19.479 13.2223 19.3862 14.0774 19.1041L14.243 20.1314ZM8.8276 19.0136C8.50409 18.6534 8.21884 18.224 7.97978 17.7221L8.8004 17.1333C9.00211 17.5567 9.23928 17.9119 9.50349 18.2061L8.8276 19.0136ZM7.97978 17.7221C7.70241 17.1399 7.50387 16.5575 7.37908 15.9757L8.27789 15.6185C8.38367 16.1117 8.55437 16.6168 8.8004 17.1333L7.97978 17.7221ZM7.60481 12.0654C7.98923 10.8667 8.63557 9.7295 9.43745 8.66147L10.1076 9.31407C9.36267 10.3063 8.7966 11.318 8.46783 12.3432L7.60481 12.0654ZM11.908 5.9471C12.7646 5.1417 13.6847 4.37542 14.6177 3.6525L15.0746 4.52289C14.1606 5.23102 13.2686 5.97456 12.4443 6.74961L11.908 5.9471ZM17.4315 1.60021C17.9171 1.26287 18.3935 0.938169 18.8529 0.627048L19.2554 1.53681C18.7977 1.84683 18.325 2.16899 17.8442 2.50302L17.4315 1.60021ZM18.8529 0.627048C19.2694 0.344936 19.6853 0.086546 20.0979 -0.150108L20.4365 0.799576C20.0447 1.02431 19.6502 1.26944 19.2554 1.53681L18.8529 0.627048ZM22.6838 -1.39246C23.635 -1.76711 24.536 -2.03695 25.3509 -2.23114L25.4451 -1.18363C24.6657 -0.997861 23.8049 -0.739987 22.8975 -0.382587L22.6838 -1.39246ZM28.0556 -2.67271C28.4808 -2.70908 28.8201 -2.72121 29.0548 -2.72416C29.1722 -2.72564 29.2635 -2.72482 29.3263 -2.72359C29.3577 -2.72298 29.3821 -2.72226 29.399 -2.72167C29.4074 -2.72138 29.4141 -2.72112 29.4188 -2.72092C29.4211 -2.72082 29.423 -2.72074 29.4245 -2.72067C29.4252 -2.72064 29.4258 -2.72061 29.4262 -2.72059C29.4265 -2.72058 29.4267 -2.72057 29.4268 -2.72056C29.4269 -2.72056 29.427 -2.72055 29.4271 -2.72055C29.4271 -2.72055 29.4272 -2.72054 29.4272 -2.72054C29.4272 -2.72054 29.4273 -2.72054 29.3599 -2.18591C29.2926 -1.65129 29.2926 -1.65128 29.2927 -1.65128C29.2927 -1.65128 29.2927 -1.65128 29.2927 -1.65128C29.2928 -1.65128 29.2928 -1.65127 29.2928 -1.65127C29.2929 -1.65127 29.2929 -1.65127 29.2929 -1.65127C29.2929 -1.65127 29.2928 -1.65128 29.2925 -1.65129C29.2921 -1.65131 29.2911 -1.65135 29.2897 -1.65141C29.2869 -1.65153 29.2822 -1.65172 29.2756 -1.65194C29.2626 -1.6524 29.2422 -1.65301 29.2148 -1.65354C29.1601 -1.65461 29.0773 -1.65539 28.9687 -1.65402C28.7516 -1.65129 28.4318 -1.63999 28.0277 -1.60543L28.0556 -2.67271Z" fill="#FF7F5F"/>
</svg>
