<svg width="52" height="56" viewBox="0 0 52 56" fill="none" xmlns="http://www.w3.org/2000/svg">
<path d="M112.385 45.2725L105.307 55.1027L100.316 43.9804L112.385 45.2725ZM42.0956 12.2531L43.0638 12.6685L43.0638 12.6685L42.0956 12.2531ZM83.8052 52.5772L83.7131 53.626L83.8052 52.5772ZM27.3629 40.6053L27.5359 39.5673L27.3629 40.6053ZM74.8316 22.9858L73.794 22.8145L74.8316 22.9858ZM111.11 46.997L110.148 47.4131L109.305 45.4772L110.267 45.0611L111.11 46.997ZM106.865 46.4637L107.84 46.08L108.619 48.0424L107.644 48.4262L106.865 46.4637ZM104.13 49.7429L103.142 50.0945L102.428 48.108L103.415 47.7565L104.13 49.7429ZM99.9244 48.9282L100.925 48.6136L101.566 50.6246L100.566 50.9392L99.9244 48.9282ZM96.9478 51.9913L95.9341 52.2605L95.3833 50.2232L96.3969 49.954L96.9478 51.9913ZM92.8348 50.7949L93.8628 50.5852L94.2951 52.6503L93.2671 52.8599L92.8348 50.7949ZM89.5121 53.4776L88.4701 53.6032L88.2051 51.5111L89.2471 51.3854L89.5121 53.4776ZM85.6602 51.6118L86.7106 51.6161L86.7165 53.7233L85.6661 53.7189L85.6602 51.6118ZM81.5291 53.3964L80.4847 53.2764L80.7095 51.1829L81.7539 51.303L81.5291 53.3964ZM77.4759 50.7269L78.5151 50.8877L78.209 52.9702L77.1698 52.8094L77.4759 50.7269ZM72.8316 52.0472L71.7996 51.8434L72.1916 49.776L73.2235 49.9798L72.8316 52.0472ZM69.0108 49.0492L70.0327 49.3002L69.5465 51.3467L68.5246 51.0958L69.0108 49.0492ZM64.2618 49.9326L63.2541 49.6283L63.8468 47.6109L64.8545 47.9152L64.2618 49.9326ZM60.7783 46.5498L61.7657 46.9159L61.0494 48.8918L60.0619 48.5256L60.7783 46.5498ZM55.9522 46.8301L54.9944 46.3909L55.857 44.4756L56.8148 44.9148L55.9522 46.8301ZM53.0173 42.963L53.9307 43.4898L52.8929 45.3147L51.9796 44.7879L53.0173 42.963ZM48.2191 42.3243L47.3738 41.693L48.6208 40.0059L49.4662 40.6372L48.2191 42.3243ZM46.2826 37.8787L47.0234 38.6307L45.5342 40.1065L44.7933 39.3545L46.2826 37.8787ZM41.8964 35.8182L41.31 34.94L43.0529 33.7758L43.6393 34.6539L41.8964 35.8182ZM41.7276 30.9896L42.1086 31.974L40.1509 32.7248L39.7699 31.7403L41.7276 30.9896ZM38.604 27.2881L38.4521 26.2446L40.5308 25.9543L40.6828 26.9978L38.604 27.2881ZM40.5116 22.8535L40.4526 23.905L38.3551 23.7721L38.4141 22.7206L40.5116 22.8535ZM39.0467 18.2446L39.2748 17.2178L41.3255 17.6897L41.0974 18.7165L39.0467 18.2446ZM42.2844 14.6633L41.9284 15.6521L39.9519 14.9242L40.3079 13.9355L42.2844 14.6633ZM42.1074 9.82212L42.6184 8.9052L44.4539 9.94312L43.9429 10.86L42.1074 9.82212ZM46.2801 7.64975L45.561 8.41269L44.0297 6.95947L44.7488 6.19652L46.2801 7.64975ZM48.2413 3.36144L49.136 2.81582L50.2365 4.61843L49.3417 5.16405L48.2413 3.36144ZM52.9556 3.57402L51.9489 3.86756L51.3496 1.84381L52.3563 1.55027L52.9556 3.57402ZM56.7877 0.842594L57.8371 0.805072L57.9265 2.91092L56.8771 2.94844L56.7877 0.842594ZM60.8553 3.27694L59.8241 3.06908L60.2243 1.00331L61.2555 1.21117L60.8553 3.27694ZM65.524 2.60035L66.4814 3.04039L65.6173 4.95498L64.6598 4.51495L65.524 2.60035ZM68.0675 6.60326L67.241 5.94723L68.5377 4.29838L69.3641 4.9544L68.0675 6.60326ZM72.5255 8.18688L73.1619 9.02948L71.4906 10.2945L70.8542 9.45191L72.5255 8.18688ZM72.8246 12.9126L72.4242 11.9357L74.3665 11.1462L74.7668 12.123L72.8246 12.9126ZM75.9489 16.4703L76.1023 17.5137L74.024 17.8068L73.8706 16.7635L75.9489 16.4703ZM74.0202 20.7938L74.0887 19.743L76.1851 19.8951L76.1165 20.9459L74.0202 20.7938ZM75.4708 25.2596L75.2415 26.2862L73.1914 25.812L73.4206 24.7854L75.4708 25.2596ZM72.2742 28.5848L72.6569 27.6063L74.6133 28.3875L74.2307 29.366L72.2742 28.5848ZM72.2939 33.2288L71.7344 34.1166L69.9564 32.982L70.5158 32.0942L72.2939 33.2288ZM68.1028 35.1494L68.838 34.402L70.3384 35.8874L69.6031 36.6347L68.1028 35.1494ZM66.249 39.3773L65.3723 39.9515L64.2151 38.1848L65.0918 37.6106L66.249 39.3773ZM61.6214 39.4328L62.5896 39.031L63.4042 40.979L62.4359 41.3808L61.6214 39.4328ZM58.3707 42.708L57.3529 42.9613L56.8338 40.9159L57.8516 40.6626L58.3707 42.708ZM53.9176 41.3933L54.9584 41.2586L55.2415 43.3485L54.2007 43.4832L53.9176 41.3933ZM49.9965 43.8319L48.9473 43.8745L48.8477 41.769L49.8969 41.7264L49.9965 43.8319ZM45.8375 41.7477L46.8877 41.7762L46.8455 43.8826L45.7953 43.8541L45.8375 41.7477ZM41.6151 43.6268L40.5674 43.5436L40.7188 41.443L41.7665 41.5262L41.6151 43.6268ZM37.6951 41.1173L38.7389 41.2422L38.5045 43.3345L37.4606 43.2096L37.6951 41.1173ZM33.3319 42.6509L32.2919 42.4955L32.5873 40.4113L33.6273 40.5667L33.3319 42.6509ZM29.5648 39.9163L30.6017 40.0916L30.2667 42.1694L29.2297 41.9942L29.5648 39.9163ZM25.2447 41.2543L24.2183 41.0229L24.6655 38.9672L25.6918 39.1986L25.2447 41.2543ZM22.0679 38.1976L23.0684 38.5252L22.4292 40.528L21.4286 40.2004L22.0679 38.1976ZM17.7252 38.7996L16.7573 38.3835L17.5734 36.4476L18.5414 36.8636L17.7252 38.7996ZM15.1375 35.2259L16.0676 35.722L15.0913 37.581L14.1612 37.0849L15.1375 35.2259ZM10.7512 35.0874L9.86272 34.5192L10.9834 32.7447L11.8719 33.313L10.7512 35.0874ZM8.7616 31.1539L9.60525 31.7875L8.35366 33.4711L7.51001 32.8376L8.7616 31.1539ZM4.44065 30.3496L3.64609 29.655L5.02019 28.0707L5.81475 28.7653L4.44065 30.3496ZM3.06274 26.16L3.7976 26.918L2.29648 28.3817L1.56162 27.6237L3.06274 26.16ZM107.644 48.4262C106.585 48.8428 105.401 49.2906 104.13 49.7429L103.415 47.7565C104.662 47.3127 105.824 46.8731 106.865 46.4637L107.644 48.4262ZM100.566 50.9392C99.3921 51.3083 98.1788 51.6644 96.9478 51.9913L96.3969 49.954C97.5938 49.6362 98.7769 49.2891 99.9244 48.9282L100.566 50.9392ZM93.2671 52.8599C92.007 53.1169 90.7474 53.3286 89.5121 53.4776L89.2471 51.3854C90.4175 51.2443 91.6206 51.0425 92.8348 50.7949L93.2671 52.8599ZM85.6661 53.7189C85.0003 53.7162 84.3476 53.6865 83.7131 53.626L83.8974 51.5283C84.4616 51.5821 85.0503 51.6092 85.6602 51.6118L85.6661 53.7189ZM83.7131 53.626C83 53.5581 82.2712 53.4817 81.5291 53.3964L81.7539 51.303C82.4823 51.3867 83.1976 51.4616 83.8974 51.5283L83.7131 53.626ZM77.1698 52.8094C75.748 52.5895 74.2971 52.3365 72.8316 52.0472L73.2235 49.9798C74.6588 50.2632 76.0811 50.5111 77.4759 50.7269L77.1698 52.8094ZM68.5246 51.0958C67.1004 50.7461 65.6751 50.3594 64.2618 49.9326L64.8545 47.9152C66.2299 48.3305 67.6195 48.7076 69.0108 49.0492L68.5246 51.0958ZM60.0619 48.5256C58.6626 48.0068 57.288 47.4428 55.9522 46.8301L56.8148 44.9148C58.0982 45.5034 59.4237 46.0475 60.7783 46.5498L60.0619 48.5256ZM51.9796 44.7879C50.6624 44.0281 49.403 43.2084 48.2191 42.3243L49.4662 40.6372C50.5761 41.4662 51.7647 42.2405 53.0173 42.963L51.9796 44.7879ZM44.7933 39.3545C43.7133 38.2582 42.7398 37.0812 41.8964 35.8182L43.6393 34.6539C44.4018 35.7957 45.2882 36.8693 46.2826 37.8787L44.7933 39.3545ZM39.7699 31.7403C39.227 30.3379 38.8322 28.8547 38.604 27.2881L40.6828 26.9978C40.8879 28.4066 41.2421 29.7353 41.7276 30.9896L39.7699 31.7403ZM38.4141 22.7206C38.4946 21.2851 38.7025 19.7937 39.0467 18.2446L41.0974 18.7165C40.7763 20.1616 40.5853 21.5396 40.5116 22.8535L38.4141 22.7206ZM40.3079 13.9355C40.5558 13.2467 40.8288 12.5475 41.1275 11.8377L43.0638 12.6685C42.7789 13.3456 42.5194 14.0104 42.2844 14.6633L40.3079 13.9355ZM41.1275 11.8377C41.4247 11.1312 41.7522 10.4595 42.1074 9.82212L43.9429 10.86C43.6258 11.4289 43.3319 12.0315 43.0638 12.6685L41.1275 11.8377ZM44.7488 6.19652C45.8112 5.0694 46.9868 4.12638 48.2413 3.36144L49.3417 5.16405C48.2437 5.8336 47.2133 6.65963 46.2801 7.64975L44.7488 6.19652ZM52.3563 1.55027C53.8022 1.12868 55.2925 0.89605 56.7877 0.842594L56.8771 2.94844C55.5487 2.99593 54.23 3.20245 52.9556 3.57402L52.3563 1.55027ZM61.2555 1.21117C62.7222 1.50682 64.1579 1.97251 65.524 2.60035L64.6598 4.51495C63.4437 3.95599 62.1638 3.54069 60.8553 3.27694L61.2555 1.21117ZM69.3641 4.9544C70.5352 5.88393 71.6017 6.96394 72.5255 8.18688L70.8542 9.45191C70.0424 8.37715 69.1029 7.42511 68.0675 6.60326L69.3641 4.9544ZM74.7668 12.123C75.3185 13.4692 75.7211 14.9208 75.9489 16.4703L73.8706 16.7635C73.6675 15.3821 73.3101 14.0973 72.8246 12.9126L74.7668 12.123ZM76.1165 20.9459C76.0694 21.6678 75.9876 22.4051 75.8692 23.1572L73.794 22.8145C73.9027 22.1239 73.9774 21.4502 74.0202 20.7938L76.1165 20.9459ZM75.8692 23.1572C75.7553 23.8804 75.6223 24.581 75.4708 25.2596L73.4206 24.7854C73.5621 24.1519 73.6868 23.4952 73.794 22.8145L75.8692 23.1572ZM74.2307 29.366C73.6809 30.7719 73.0323 32.057 72.2939 33.2288L70.5158 32.0942C71.1808 31.0389 71.7706 29.8728 72.2742 28.5848L74.2307 29.366ZM69.6031 36.6347C68.5734 37.6813 67.4498 38.5908 66.249 39.3773L65.0918 37.6106C66.1745 36.9014 67.182 36.0852 68.1028 35.1494L69.6031 36.6347ZM62.4359 41.3808C61.1319 41.9219 59.7717 42.3595 58.3707 42.708L57.8516 40.6626C59.163 40.3363 60.4233 39.9299 61.6214 39.4328L62.4359 41.3808ZM54.2007 43.4832C52.8215 43.6617 51.4161 43.7742 49.9965 43.8319L49.8969 41.7264C51.2627 41.6709 52.6063 41.563 53.9176 41.3933L54.2007 43.4832ZM45.7953 43.8541C44.4034 43.8164 43.0065 43.7374 41.6151 43.6268L41.7665 41.5262C43.1263 41.6343 44.4865 41.7111 45.8375 41.7477L45.7953 43.8541ZM37.4606 43.2096C36.0658 43.0428 34.6859 42.8532 33.3319 42.6509L33.6273 40.5667C34.9649 40.7666 36.3242 40.9533 37.6951 41.1173L37.4606 43.2096ZM29.2297 41.9942C28.5388 41.8774 27.8582 41.7599 27.1898 41.6432L27.5359 39.5673C28.2018 39.6836 28.8786 39.8004 29.5648 39.9163L29.2297 41.9942ZM27.1898 41.6432C26.5314 41.5283 25.883 41.3982 25.2447 41.2543L25.6918 39.1986C26.2973 39.3351 26.9121 39.4585 27.5359 39.5673L27.1898 41.6432ZM21.4286 40.2004C20.1434 39.7796 18.9081 39.308 17.7252 38.7996L18.5414 36.8636C19.6694 37.3485 20.8458 37.7976 22.0679 38.1976L21.4286 40.2004ZM14.1612 37.0849C12.9535 36.4407 11.8156 35.7682 10.7512 35.0874L11.8719 33.313C12.8925 33.9657 13.9823 34.6097 15.1375 35.2259L14.1612 37.0849ZM7.51001 32.8376C6.35842 31.9727 5.33274 31.1295 4.44065 30.3496L5.81475 28.7653C6.67077 29.5137 7.65564 30.3234 8.7616 31.1539L7.51001 32.8376ZM1.56162 27.6237C1.12268 27.171 0.786866 26.8038 0.558909 26.5476C0.444918 26.4194 0.357852 26.3189 0.298305 26.2493C0.268528 26.2145 0.245634 26.1874 0.229681 26.1684C0.221701 26.1589 0.215464 26.1514 0.210976 26.146C0.208725 26.1433 0.20692 26.1412 0.205545 26.1395C0.204857 26.1387 0.204284 26.138 0.203815 26.1374C0.203577 26.1371 0.203371 26.1369 0.203197 26.1367C0.203103 26.1366 0.203022 26.1365 0.202947 26.1364C0.20291 26.1363 0.20286 26.1363 0.202841 26.1362C0.202791 26.1362 0.202741 26.1361 1.01036 25.4681C1.81799 24.8 1.81793 24.8 1.81789 24.7999C1.81789 24.7999 1.81784 24.7999 1.81782 24.7998C1.81777 24.7998 1.81773 24.7997 1.81769 24.7997C1.81762 24.7996 1.81758 24.7996 1.81756 24.7995C1.81753 24.7995 1.81761 24.7996 1.81779 24.7998C1.81816 24.8003 1.81897 24.8012 1.8202 24.8027C1.82266 24.8057 1.82685 24.8107 1.83276 24.8177C1.84456 24.8318 1.86323 24.8539 1.88868 24.8837C1.93959 24.9432 2.01761 25.0332 2.12216 25.1508C2.33128 25.3859 2.64639 25.7306 3.06274 26.16L1.56162 27.6237Z" fill="#FF7F5F"/>
</svg>
