<svg width="78" height="54" viewBox="0 0 78 54" fill="none" xmlns="http://www.w3.org/2000/svg">
<path d="M-21.6856 49.2765L-22.3274 37.1805L-11.4689 42.7227L-21.6856 49.2765ZM53.7867 30.9794L52.7718 31.2622L52.7718 31.2622L53.7867 30.9794ZM-3.98548 25.6786L-4.57071 24.8034L-3.98548 25.6786ZM47.5084 -0.349271L48.0237 0.568191L47.5084 -0.349271ZM21.547 43.1218L22.4631 42.6054L21.547 43.1218ZM-21.7721 47.1334L-21.2828 46.2064L-19.4129 47.1872L-19.9022 48.1142L-21.7721 47.1334ZM-18.1293 44.8898L-18.6493 45.8001L-20.4857 44.7584L-19.9657 43.8481L-18.1293 44.8898ZM-18.052 40.6206L-17.5024 39.7278L-15.7008 40.8284L-16.2505 41.7212L-18.052 40.6206ZM-14.2636 38.621L-14.8461 39.4929L-16.6058 38.3271L-16.0232 37.4552L-14.2636 38.621ZM-13.8624 34.3687L-13.2409 33.5239L-11.5353 34.7667L-12.1567 35.6115L-13.8624 34.3687ZM-9.90703 32.7246L-10.5769 33.532L-12.2076 32.1932L-11.5377 31.3858L-9.90703 32.7246ZM-8.99775 28.552L-8.26426 27.8013L-6.74704 29.266L-7.48053 30.0167L-8.99775 28.552ZM-4.8265 27.5932L-5.64797 28.2478L-6.97264 26.6091L-6.15117 25.9544L-4.8265 27.5932ZM-2.72458 23.6141L-1.83536 23.0534L-0.699084 24.826L-1.58831 25.3867L-2.72458 23.6141ZM2.10701 23.1557L1.1963 23.6814L0.130282 21.8664L1.041 21.3407L2.10701 23.1557ZM4.8999 19.2171L5.8319 18.7294L6.82158 20.5864L5.88957 21.0741L4.8999 19.2171ZM9.75618 19.1602L8.80246 19.6048L7.89929 17.7051L8.853 17.2605L9.75618 19.1602ZM12.9043 15.4966L13.8804 15.1024L14.6822 17.0462L13.7061 17.4404L12.9043 15.4966ZM17.7388 15.951L16.7398 16.2842L16.0603 14.2954L17.0594 13.9622L17.7388 15.951ZM21.3248 12.7091L22.3465 12.4515L22.8741 14.4848L21.8523 14.7424L21.3248 12.7091ZM26.035 13.8847L24.9931 14.0463L24.6587 11.9738L25.7006 11.8122L26.035 13.8847ZM30.1752 11.3766L31.2295 11.3392L31.3144 13.4353L30.26 13.4728L30.1752 11.3766ZM34.4696 13.6286L33.421 13.5066L33.6572 11.4233L34.7058 11.5453L34.4696 13.6286ZM39.1792 12.4868L40.1865 12.8039L39.5573 14.8033L38.5501 14.4862L39.1792 12.4868ZM42.3358 16.1447L41.422 15.6161L42.4776 13.8045L43.3914 14.3331L42.3358 16.1447ZM47.0892 17.073L47.8614 17.7912L46.423 19.3197L45.6509 18.6015L47.0892 17.073ZM48.3805 21.7246L47.7678 20.8681L49.4859 19.6576L50.0987 20.5142L48.3805 21.7246ZM52.4097 24.3993L52.8751 25.3425L50.9811 26.2594L50.5157 25.3161L52.4097 24.3993ZM52.1297 29.219L51.7877 28.2253L53.7843 27.5544L54.1262 28.5481L52.1297 29.219ZM55.3004 32.8816L55.4765 33.9164L53.3957 34.2573L53.2196 33.2224L55.3004 32.8816ZM53.409 37.1889L53.4915 36.1437L55.5955 36.3171L55.5129 37.3623L53.409 37.1889ZM54.5668 41.76L54.2112 42.7458L52.2242 42.0302L52.5798 41.0443L54.5668 41.76ZM50.7591 44.5477L51.3599 43.6882L53.0948 44.8902L52.494 45.7497L50.7591 44.5477ZM49.4833 49.0774L48.6889 49.7641L47.2999 48.1787L48.0944 47.492L49.4833 49.0774ZM44.7878 49.7282L45.7217 49.2442L46.704 51.105L45.77 51.589L44.7878 49.7282ZM41.5727 53.1803L40.5508 53.4371L40.0249 51.4034L41.0468 51.1466L41.5727 53.1803ZM37.0824 51.6537L38.1376 51.6473L38.1599 53.7448L37.1047 53.7512L37.0824 51.6537ZM32.6156 53.2121L31.5917 52.954L32.1019 50.921L33.1258 51.1791L32.6156 53.2121ZM29.422 49.7161L30.346 50.2267L29.3267 52.0588L28.4027 51.5482L29.422 49.7161ZM24.7579 48.9003L23.9847 48.1831L25.421 46.6526L26.1941 47.3698L24.7579 48.9003ZM23.5527 44.3221L24.1576 45.1841L22.4283 46.3788L21.8234 45.5168L23.5527 44.3221ZM19.6244 41.75L19.1599 40.8062L21.055 39.8914L21.5194 40.8352L19.6244 41.75ZM20.0328 37.1556L20.3475 38.158L18.3331 38.7748L18.0184 37.7723L20.0328 37.1556ZM17.1081 33.5482L16.988 32.5057L19.0847 32.2762L19.2049 33.3186L17.1081 33.5482ZM19.1717 29.4256L19.0668 30.4687L16.9668 30.2509L17.0717 29.2078L19.1717 29.4256ZM17.968 24.9688L18.2916 23.972L20.3003 24.6241L19.9767 25.6209L17.968 24.9688ZM21.5402 22.0265L21.0372 22.9462L19.182 21.9382L19.685 21.0185L21.5402 22.0265ZM22.0221 17.4372L22.6568 16.6022L24.3428 17.8713L23.7081 18.7063L22.0221 17.4372ZM26.3167 15.6722L25.5898 16.4293L24.0599 14.9777L24.7868 14.2206L26.3167 15.6722ZM27.8453 11.315L28.6364 10.6245L30.033 12.2032L29.2419 12.8938L27.8453 11.315ZM32.3926 10.3341L31.5562 10.9698L30.2695 9.30153L31.1059 8.66582L32.3926 10.3341ZM34.5066 6.22418L35.3753 5.6327L36.5733 7.36483L35.7046 7.95631L34.5066 6.22418ZM39.1342 5.72446L38.2423 6.28106L37.1143 4.5033L38.0062 3.9467L39.1342 5.72446ZM41.5743 1.79575L42.4823 1.26535L43.5577 3.07489L42.6497 3.60528L41.5743 1.79575ZM46.2237 1.56716L45.3056 2.08019L44.2651 0.250753L45.1831 -0.262279L46.2237 1.56716ZM48.7528 -2.18213L49.6977 -2.64473L50.637 -0.762263L49.6921 -0.299665L48.7528 -2.18213ZM53.1438 -1.78979L52.1587 -1.41828L51.4023 -3.3798L52.3875 -3.75131L53.1438 -1.78979ZM56.1516 -4.97948L57.1667 -5.26157L57.7433 -3.24133L56.7283 -2.95924L56.1516 -4.97948ZM60.4074 -3.81511L59.3716 -3.61913L58.9681 -5.67972L60.0038 -5.8757L60.4074 -3.81511ZM63.9131 -6.45507L64.9615 -6.56877L65.1997 -4.48359L64.1512 -4.3699L63.9131 -6.45507ZM67.928 -4.63553L66.8735 -4.60083L66.7944 -6.69722L67.8488 -6.73192L67.928 -4.63553ZM71.7998 -6.71556L72.8543 -6.67188L72.7758 -4.57617L71.7213 -4.61984L71.7998 -6.71556ZM75.4985 -4.31322L74.4509 -4.44362L74.704 -6.52488L75.7516 -6.39447L75.4985 -4.31322ZM-19.9657 43.8481C-19.4013 42.8599 -18.7593 41.7694 -18.052 40.6206L-16.2505 41.7212C-16.9444 42.8483 -17.5747 43.9189 -18.1293 44.8898L-19.9657 43.8481ZM-16.0232 37.4552C-15.3398 36.4323 -14.6171 35.3947 -13.8624 34.3687L-12.1567 35.6115C-12.8905 36.6091 -13.5952 37.6207 -14.2636 38.621L-16.0232 37.4552ZM-11.5377 31.3858C-10.7164 30.3961 -9.86733 29.442 -8.99775 28.552L-7.48053 30.0167C-8.30439 30.8599 -9.11572 31.7709 -9.90703 32.7246L-11.5377 31.3858ZM-6.15117 25.9544C-5.63049 25.5395 -5.10321 25.1537 -4.57071 24.8034L-3.40025 26.5539C-3.87372 26.8655 -4.3496 27.2131 -4.8265 27.5932L-6.15117 25.9544ZM-4.57071 24.8034C-3.97233 24.4096 -3.35645 24.0126 -2.72458 23.6141L-1.58831 25.3867C-2.20853 25.7778 -2.81302 26.1675 -3.40025 26.5539L-4.57071 24.8034ZM1.041 21.3407C2.28701 20.6214 3.57639 19.9096 4.8999 19.2171L5.88957 21.0741C4.5933 21.7524 3.32939 22.4501 2.10701 23.1557L1.041 21.3407ZM8.853 17.2605C10.1822 16.6408 11.5354 16.0493 12.9043 15.4966L13.7061 17.4404C12.374 17.9783 11.0546 18.5549 9.75618 19.1602L8.853 17.2605ZM17.0594 13.9622C18.4751 13.49 19.8998 13.0684 21.3248 12.7091L21.8523 14.7424C20.4832 15.0876 19.1093 15.4939 17.7388 15.951L17.0594 13.9622ZM25.7006 11.8122C27.2033 11.5792 28.6985 11.4292 30.1752 11.3766L30.26 13.4728C28.8755 13.5221 27.464 13.6631 26.035 13.8847L25.7006 11.8122ZM34.7058 11.5453C36.2345 11.7232 37.7305 12.0308 39.1792 12.4868L38.5501 14.4862C37.2405 14.0739 35.877 13.7924 34.4696 13.6286L34.7058 11.5453ZM43.3914 14.3331C44.6931 15.0862 45.93 15.9948 47.0892 17.073L45.6509 18.6015C44.6084 17.632 43.4999 16.8182 42.3358 16.1447L43.3914 14.3331ZM50.0987 20.5142C50.9352 21.6835 51.7075 22.9762 52.4097 24.3993L50.5157 25.3161C49.8606 23.9886 49.1463 22.7949 48.3805 21.7246L50.0987 20.5142ZM54.1262 28.5481C54.3644 29.2403 54.5897 29.9563 54.8015 30.6966L52.7718 31.2622C52.5697 30.5559 52.3555 29.8751 52.1297 29.219L54.1262 28.5481ZM54.8015 30.6966C55.0124 31.4335 55.178 32.1623 55.3004 32.8816L53.2196 33.2224C53.1103 32.5804 52.962 31.9266 52.7718 31.2622L54.8015 30.6966ZM55.5129 37.3623C55.391 38.9064 55.0654 40.3779 54.5668 41.76L52.5798 41.0443C53.0162 39.8346 53.3018 38.5453 53.409 37.1889L55.5129 37.3623ZM52.494 45.7497C51.6311 46.9841 50.6152 48.099 49.4833 49.0774L48.0944 47.492C49.1001 46.6228 49.9985 45.6357 50.7591 44.5477L52.494 45.7497ZM45.77 51.589C44.4416 52.2774 43.0308 52.8139 41.5727 53.1803L41.0468 51.1466C42.3449 50.8204 43.6027 50.3423 44.7878 49.7282L45.77 51.589ZM37.1047 53.7512C35.6097 53.7603 34.1017 53.5866 32.6156 53.2121L33.1258 51.1791C34.4319 51.5082 35.7606 51.6617 37.0824 51.6537L37.1047 53.7512ZM28.4027 51.5482C27.1294 50.8446 25.9062 49.9654 24.7579 48.9003L26.1941 47.3698C27.2178 48.3193 28.3013 49.0968 29.422 49.7161L28.4027 51.5482ZM21.8234 45.5168C21.4079 44.9246 21.0098 44.2987 20.6309 43.6383L22.4631 42.6054C22.811 43.2118 23.1749 43.7836 23.5527 44.3221L21.8234 45.5168ZM20.6309 43.6383C20.2666 43.0033 19.9314 42.3739 19.6244 41.75L21.5194 40.8352C21.806 41.4176 22.1202 42.0077 22.4631 42.6054L20.6309 43.6383ZM18.0184 37.7723C17.5662 36.3321 17.2667 34.9242 17.1081 33.5482L19.2049 33.3186C19.3477 34.5578 19.6185 35.8362 20.0328 37.1556L18.0184 37.7723ZM17.0717 29.2078C17.2187 27.7469 17.5247 26.3341 17.968 24.9688L19.9767 25.6209C19.5771 26.852 19.3031 28.1194 19.1717 29.4256L17.0717 29.2078ZM19.685 21.0185C20.3624 19.7797 21.1485 18.5865 22.0221 17.4372L23.7081 18.7063C22.8903 19.7822 22.1626 20.8885 21.5402 22.0265L19.685 21.0185ZM24.7868 14.2206C25.75 13.2174 26.7749 12.2493 27.8453 11.315L29.2419 12.8938C28.2121 13.7926 27.2324 14.7184 26.3167 15.6722L24.7868 14.2206ZM31.1059 8.66582C32.2146 7.82321 33.3528 7.0097 34.5066 6.22418L35.7046 7.95631C34.577 8.72402 33.4687 9.51627 32.3926 10.3341L31.1059 8.66582ZM38.0062 3.9467C39.1979 3.20296 40.3922 2.4863 41.5743 1.79575L42.6497 3.60528C41.4819 4.28748 40.3055 4.99346 39.1342 5.72446L38.0062 3.9467ZM45.1831 -0.262279C45.7948 -0.604117 46.3989 -0.938915 46.993 -1.26673L48.0237 0.568191C47.4319 0.894775 46.8312 1.22767 46.2237 1.56716L45.1831 -0.262279ZM46.993 -1.26673C47.5781 -1.5896 48.1651 -1.89442 48.7528 -2.18213L49.6921 -0.299665C49.1346 -0.0267708 48.5782 0.262231 48.0237 0.568191L46.993 -1.26673ZM52.3875 -3.75131C53.6528 -4.22848 54.9111 -4.63476 56.1516 -4.97948L56.7283 -2.95924C55.5452 -2.63048 54.347 -2.24353 53.1438 -1.78979L52.3875 -3.75131ZM60.0038 -5.8757C61.3487 -6.13017 62.6569 -6.31885 63.9131 -6.45507L64.1512 -4.3699C62.9467 -4.23928 61.6938 -4.05852 60.4074 -3.81511L60.0038 -5.8757ZM67.8488 -6.73192C69.2882 -6.77927 70.6159 -6.76459 71.7998 -6.71556L71.7213 -4.61984C70.5853 -4.6669 69.3104 -4.68101 67.928 -4.63553L67.8488 -6.73192ZM75.7516 -6.39447C76.3774 -6.31658 76.8691 -6.24077 77.2073 -6.18383C77.3765 -6.15536 77.5073 -6.1316 77.5973 -6.11464C77.6423 -6.10616 77.6771 -6.09938 77.7015 -6.09456C77.7136 -6.09216 77.7232 -6.09024 77.7301 -6.08884C77.7335 -6.08814 77.7363 -6.08758 77.7384 -6.08715C77.7395 -6.08693 77.7403 -6.08675 77.7411 -6.0866C77.7414 -6.08653 77.7417 -6.08646 77.742 -6.0864C77.7422 -6.08638 77.7423 -6.08635 77.7424 -6.08633C77.7425 -6.08631 77.7425 -6.0863 77.7426 -6.08629C77.7426 -6.08627 77.7427 -6.08626 77.5317 -5.05961C77.3207 -4.03297 77.3208 -4.03296 77.3209 -4.03294C77.3209 -4.03293 77.3209 -4.03292 77.321 -4.03292C77.3211 -4.0329 77.3211 -4.03288 77.3212 -4.03288C77.3213 -4.03285 77.3213 -4.03284 77.3214 -4.03284C77.3214 -4.03283 77.3213 -4.03285 77.321 -4.03291C77.3204 -4.03303 77.3192 -4.03327 77.3173 -4.03366C77.3135 -4.03442 77.3071 -4.03571 77.2981 -4.0375C77.2801 -4.04106 77.2517 -4.0466 77.2132 -4.05385C77.1363 -4.06834 77.019 -4.08968 76.8639 -4.11579C76.5536 -4.16803 76.092 -4.23933 75.4985 -4.31322L75.7516 -6.39447Z" fill="#FF7F5F"/>
</svg>
