<svg width="120" height="120" viewBox="0 0 120 120" fill="none" xmlns="http://www.w3.org/2000/svg">
<path d="M119.306 113.319L103.117 119.334L106.043 102.2L119.306 113.319ZM61.412 17.6455L62.2328 18.9036L61.412 17.6455ZM79.2218 99.2646L78.2835 100.437L79.2218 99.2646ZM21.1262 39.8695L22.1519 38.7744L21.1262 39.8695ZM92.0827 56.6355L90.9867 55.6122L92.0827 56.6355ZM108.475 112.709C106.316 112.206 103.947 111.609 101.489 110.912L102.298 108.013C104.705 108.695 107.027 109.281 109.148 109.775L108.475 112.709ZM94.5899 108.742C92.2948 107.939 90.0096 107.048 87.8271 106.065L89.0468 103.316C91.1362 104.257 93.3395 105.117 95.5703 105.897L94.5899 108.742ZM81.3282 102.615C80.2458 101.927 79.224 101.201 78.2835 100.437L80.16 98.0927C80.9978 98.7736 81.9235 99.4323 82.9236 100.068L81.3282 102.615ZM78.2835 100.437C77.2248 99.5761 76.1447 98.676 75.051 97.7393L76.9868 95.4447C78.0605 96.3644 79.1208 97.248 80.16 98.0927L78.2835 100.437ZM68.776 92.0731C66.7732 90.1648 64.7727 88.1553 62.8197 86.0615L64.9976 83.9991C66.9069 86.0461 68.8655 88.0137 70.8295 89.8849L68.776 92.0731ZM57.2471 79.6655C55.4542 77.4507 53.7487 75.1672 52.1754 72.8312L54.6484 71.14C56.1669 73.3946 57.8189 75.6074 59.563 77.7619L57.2471 79.6655ZM47.7895 65.4767C46.4429 62.8721 45.2976 60.2194 44.4123 57.5392L47.2479 56.5879C48.0764 59.0961 49.156 61.6015 50.4401 64.0852L47.7895 65.4767ZM42.5514 49.0267C42.2554 46.0934 42.3353 43.1523 42.8672 40.2345L45.8067 40.7783C45.3301 43.392 45.2547 46.046 45.5247 48.7217L42.5514 49.0267ZM45.7316 31.8979C47.003 29.4473 48.6569 27.0555 50.7291 24.7384L52.9492 26.754C51.0334 28.8963 49.5273 31.0816 48.3801 33.2927L45.7316 31.8979ZM57.1002 18.878C58.1956 18.0344 59.3586 17.2039 60.5913 16.3874L62.2328 18.9036C61.0564 19.6829 59.9513 20.4723 58.9148 21.2705L57.1002 18.878ZM60.5913 16.3874C61.7018 15.6517 62.8246 15.0119 63.955 14.4637L65.2508 17.1772C64.2427 17.666 63.2351 18.2396 62.2328 18.9036L60.5913 16.3874ZM71.3417 12.1543C73.9848 11.7596 76.5924 11.8146 79.0986 12.2536L78.5864 15.2205C76.3851 14.8349 74.0982 14.7868 71.7795 15.1331L71.3417 12.1543ZM86.432 14.7508C88.7285 15.9436 90.8458 17.471 92.7162 19.2602L90.6584 21.4442C88.9879 19.8463 87.1012 18.4865 85.0623 17.4274L86.432 14.7508ZM97.5177 25.3378C98.822 27.5689 99.8189 29.9945 100.437 32.5455L97.534 33.2603C96.9877 31.0064 96.1045 28.854 94.9426 26.8665L97.5177 25.3378ZM101.098 40.3246C100.921 42.84 100.364 45.3943 99.3758 47.9304L96.5939 46.8302C97.4714 44.5783 97.9616 42.3236 98.1165 40.1129L101.098 40.3246ZM95.6301 54.685C94.8924 55.6905 94.0763 56.683 93.1787 57.6589L90.9867 55.6122C91.8115 54.7154 92.5568 53.8084 93.2268 52.8951L95.6301 54.685ZM93.1787 57.6589C92.1665 58.7595 91.1444 59.7749 90.113 60.7084L88.116 58.4683C89.0761 57.5992 90.0334 56.6488 90.9867 55.6122L93.1787 57.6589ZM83.0914 65.7645C80.3979 67.2388 77.6679 68.2329 74.92 68.8074L74.3132 65.8588C76.7703 65.3451 79.2246 64.4541 81.665 63.1184L83.0914 65.7645ZM66.2268 69.2993C63.3829 69.0528 60.5615 68.4322 57.7827 67.5219L58.707 64.6581C61.3011 65.5079 63.8977 66.075 66.4833 66.299L66.2268 69.2993ZM49.9162 64.1744C47.4394 62.8903 45.0044 61.4222 42.6252 59.8306L44.2784 57.3218C46.5817 58.8626 48.921 60.2717 51.2838 61.4966L49.9162 64.1744ZM35.8062 54.8539C33.5875 53.108 31.4294 51.2946 29.345 49.4686L31.306 47.1959C33.3596 48.995 35.4767 50.7735 37.6459 52.4805L35.8062 54.8539ZM23.1361 43.8299C22.0989 42.86 21.0862 41.9019 20.1005 40.9646L22.1519 38.7744C23.1339 39.7083 24.1402 40.6602 25.1693 41.6226L23.1361 43.8299ZM20.1005 40.9646C19.1679 40.0778 18.2781 39.1724 17.4294 38.2531L19.6177 36.2019C20.4235 37.0747 21.2676 37.9336 22.1519 38.7744L20.1005 40.9646ZM12.6361 32.3589C11.1092 30.2268 9.76535 28.0721 8.58327 25.9441L11.1912 24.4731C12.3219 26.5085 13.6048 28.5652 15.0597 30.5966L12.6361 32.3589ZM5.25847 19.1254C4.18442 16.5967 3.32781 14.1922 2.64702 12.0085L5.49826 11.1057C6.15243 13.204 6.97524 15.5134 8.00604 17.9403L5.25847 19.1254ZM0.757452 4.65468C0.521435 3.47793 0.366937 2.53673 0.27094 1.88491C0.222946 1.55896 0.189553 1.30524 0.167896 1.13046C0.157068 1.04307 0.149178 0.975402 0.143859 0.928302C0.141201 0.90475 0.13919 0.886339 0.13777 0.87317C0.13706 0.866585 0.136502 0.861312 0.136085 0.857361C0.135884 0.855388 0.135705 0.853738 0.135572 0.852429C0.13551 0.851782 0.135444 0.851202 0.135394 0.850714C0.135374 0.850476 0.135346 0.850245 0.135329 0.850047C0.135322 0.849947 0.135306 0.849812 0.135296 0.849757C0.135281 0.849622 0.135274 0.8495 1.62169 0.694893C3.10812 0.540293 3.10811 0.540177 3.10809 0.540063C3.10809 0.540039 3.10808 0.539928 3.10807 0.539868C3.10806 0.539751 3.10805 0.539651 3.10804 0.539573C3.10803 0.539418 3.10802 0.539342 3.10802 0.539356C3.10803 0.539375 3.10805 0.539713 3.10813 0.540391C3.10827 0.541738 3.10855 0.544401 3.10898 0.548363C3.10983 0.556289 3.11126 0.569405 3.11332 0.587618C3.11743 0.624034 3.12404 0.680818 3.13349 0.757127C3.1524 0.909771 3.18269 1.14047 3.22719 1.44258C3.31618 2.04689 3.46191 2.93637 3.68684 4.05785L0.757452 4.65468Z" fill="#687BFE"/>
</svg>
