<svg width="55" height="89" viewBox="0 0 55 89" fill="none" xmlns="http://www.w3.org/2000/svg">
<path d="M51.134 88.0098L39.6378 88.6449L44.8821 78.3113L51.134 88.0098ZM34.0925 21.2847L34.3731 22.2461L34.0925 21.2847ZM30.0176 72.5701L29.1924 73.1365L30.0176 72.5701ZM6.3806 27.191L7.24666 26.6905L6.3806 27.191ZM45.2085 49.741L44.707 48.8762L45.2085 49.741ZM41.9605 84.069C40.1613 82.9472 38.258 81.6723 36.4414 80.2939L37.6461 78.6902C39.4029 80.0231 41.2539 81.2638 43.0159 82.3624L41.9605 84.069ZM31.3694 75.822C30.5503 74.9506 29.8113 74.0526 29.1924 73.1365L30.8428 72.0037C31.3897 72.8132 32.0575 73.6282 32.8206 74.4401L31.3694 75.822ZM29.1924 73.1365C28.4935 72.1021 27.7824 71.0077 27.0724 69.8637L28.7648 68.7957C29.4607 69.9171 30.1578 70.9898 30.8428 72.0037L29.1924 73.1365ZM23.2238 63.0609C22.0483 60.7584 20.9525 58.3543 20.0131 55.9065L21.8734 55.1768C22.7837 57.5489 23.8494 59.8883 24.998 62.1381L23.2238 63.0609ZM17.7121 48.3592C17.1275 45.6859 16.8126 43.0155 16.8731 40.4255L18.8663 40.464C18.8103 42.8614 19.1014 45.3687 19.6594 47.92L17.7121 48.3592ZM18.4829 32.4923C19.5093 30.0641 21.0606 27.834 23.235 25.8914L24.5551 27.3892C22.6042 29.132 21.2279 31.116 20.317 33.2709L18.4829 32.4923ZM30.0528 21.6732C31.2177 21.1763 32.4694 20.7254 33.812 20.3234L34.3731 22.2461C33.0966 22.6283 31.9155 23.0544 30.8242 23.5198L30.0528 21.6732ZM33.812 20.3234C35.152 19.9222 36.4636 19.6908 37.7362 19.6131L37.8483 21.6157C36.7329 21.6837 35.5718 21.8871 34.3731 22.2461L33.812 20.3234ZM45.5138 21.1961C47.9282 22.415 49.9555 24.2474 51.4714 26.4322L49.835 27.5854C48.4945 25.6534 46.7134 24.0502 44.6136 22.9901L45.5138 21.1961ZM54.3729 33.8242C54.7408 36.437 54.4953 39.1648 53.5049 41.764L51.6437 41.0528C52.5045 38.7937 52.7224 36.4123 52.3988 34.1141L54.3729 33.8242ZM48.924 48.2824C47.9796 49.119 46.9099 49.8977 45.71 50.6057L44.707 48.8762C45.8018 48.2302 46.7666 47.5263 47.6102 46.779L48.924 48.2824ZM45.71 50.6057C44.3535 51.4061 43.0238 52.0551 41.7201 52.5629L41.0074 50.6923C42.2028 50.2267 43.4357 49.6263 44.707 48.8762L45.71 50.6057ZM32.9129 53.927C29.8765 53.659 27.0721 52.6188 24.4913 51.0639L25.5208 49.3414C27.891 50.7694 30.4091 51.6913 33.0956 51.9284L32.9129 53.927ZM17.7298 45.4634C15.7719 43.3894 13.9641 41.0755 12.2954 38.6877L13.9279 37.529C15.558 39.8614 17.3048 42.094 19.1781 44.0784L17.7298 45.4634ZM7.66069 31.4084C6.91143 30.1395 6.19627 28.8921 5.51453 27.6915L7.24666 26.6905C7.92585 27.8866 8.63476 29.1231 9.37585 30.3782L7.66069 31.4084ZM5.51453 27.6915C4.9222 26.6483 4.39525 25.5978 3.92701 24.548L5.74655 23.72C6.18955 24.7132 6.68753 25.7059 7.24666 26.6905L5.51453 27.6915ZM1.66295 17.9014C1.06216 15.453 0.72119 13.1067 0.545341 10.9747L2.53226 10.8003C2.7006 12.8412 3.02657 15.081 3.59868 17.4126L1.66295 17.9014ZM0.490911 3.96007C0.565299 2.86991 0.666153 1.99576 0.749119 1.39041C0.790613 1.08767 0.827659 0.851977 0.854731 0.689913C0.868265 0.608874 0.879311 0.546229 0.887174 0.502796C0.891109 0.481078 0.894245 0.464161 0.896503 0.452151C0.897628 0.446139 0.898538 0.441364 0.899214 0.437818C0.899553 0.436049 0.899833 0.434588 0.900057 0.433441C0.900167 0.432865 0.900262 0.432365 0.900345 0.43195C0.900385 0.431739 0.900421 0.431547 0.900455 0.431382C0.900472 0.431295 0.900492 0.431181 0.900503 0.43114C0.900522 0.431027 0.900544 0.430929 1.87882 0.619565C2.85709 0.8082 2.85711 0.808111 2.85712 0.808017C2.85713 0.807996 2.85715 0.80791 2.85715 0.807863C2.85717 0.807774 2.85719 0.807699 2.8572 0.807649C2.85722 0.807536 2.85722 0.807506 2.85722 0.807554C2.8572 0.807641 2.85712 0.808044 2.85699 0.808754C2.85672 0.810167 2.85621 0.812802 2.85549 0.816656C2.85404 0.824359 2.85171 0.836912 2.84857 0.854215C2.84231 0.888821 2.83284 0.942415 2.82085 1.01418C2.79688 1.15772 2.76283 1.37387 2.72415 1.65611C2.64677 2.22072 2.55093 3.04903 2.47997 4.08894L0.490911 3.96007Z" fill="#687BFE"/>
</svg>
