<svg width="234" height="17" viewBox="0 0 234 17" fill="none" xmlns="http://www.w3.org/2000/svg">
<path fill-rule="evenodd" clip-rule="evenodd" d="M14.1877 8.5534C12.9877 8.68595 11.7268 8.7929 11.1849 9.3036C12.3209 9.13313 13.6508 9.0836 14.1877 8.5534ZM91.2542 2.38967C96.6239 2.69112 101.759 2.65081 107.023 2.79714C114.569 3.00628 122.105 3.19735 129.855 3.72353C134.617 4.04726 139.239 4.1248 144.058 4.5126C155.296 5.41746 166.468 6.18495 177.819 7.34674C186.931 8.27941 196.024 9.16084 205.168 10.1999C213.274 11.1214 221.413 12.3451 229.547 13.5104C230.688 13.6736 231.844 13.89 232.819 14.3211C232.678 14.7491 231.422 14.1508 231.275 14.5224C232.017 14.8572 233.837 14.7154 233.612 15.2858C233.428 15.7521 232.411 16.0995 230.73 15.9764C228.392 15.8053 226.094 15.2029 223.773 14.9359C213.479 13.7512 203.157 12.4354 192.925 11.5128C186.631 10.9454 180.272 10.2596 174.114 9.95371C170.7 9.78366 167.131 9.14291 163.822 9.1424C163.009 9.14212 162.047 8.90331 161.473 9.25262C161.261 9.38209 160.111 9.58701 159.537 8.87046C159.416 8.71927 158.854 8.75119 158.481 8.72883C154.452 8.48716 150.243 8.02321 146.431 8.04303C142.72 8.06232 138.832 7.70291 135.091 7.62783C132.448 7.57443 129.473 6.91447 126.782 6.94559C125.671 6.95802 124.453 6.84415 123.469 7.00481C123.028 6.97373 122.588 6.94315 122.148 6.91207C119.099 6.6113 116.144 6.45276 113.423 6.64576C110.219 6.32654 107.182 6.24705 104.329 6.43336C101.013 6.24616 97.684 6.00491 94.8066 6.42248C93.6111 6.5958 91.9875 6.44894 90.5918 6.48372C85.8379 6.60185 81.1072 6.74512 76.3483 6.85662C75.4679 6.87729 74.6245 7.04402 73.531 6.69493C70.8835 6.49168 68.5653 6.64309 66.3594 6.91474C64.1829 7.23446 61.5632 7.10603 59.1564 7.18308C56.0552 7.28262 53.0445 7.37316 50.411 7.91698C48.2443 8.36436 45.2906 8.22209 42.8063 8.47847C37.3774 9.03976 31.666 9.45599 27.0359 10.5279C22 11.6937 15.8418 12.0702 11.1766 13.4575C9.98698 13.8116 9.15342 14.344 7.62651 14.536C6.06996 14.7313 3.09018 14.2665 1.49217 13.3353C0.185146 12.5736 -0.137853 11.8011 0.938707 11.2255C2.78307 10.2402 5.05499 9.45956 7.48658 8.76761C17.9493 5.79079 30.1926 4.03999 43.2046 2.83717C55.9159 1.66184 69.2181 1.06808 82.9854 0.946232C89.9922 0.884369 97.1927 1.09197 104.349 1.23126C111.712 1.37457 119.098 1.56532 126.634 1.9934C133.345 2.37469 140.118 2.87555 146.882 3.36244C154.803 3.93211 162.74 4.54998 170.725 5.31861C189.878 7.16226 209.08 9.15977 228.523 12.4034C229.834 12.6222 231.288 12.5312 232.577 13.2756C231.438 13.5545 230.049 13.3323 228.686 13.1117C218.706 11.4951 208.787 10.2247 198.85 9.04169C184.204 7.2977 169.79 6.17435 155.309 4.86545C148.305 4.23237 141.435 3.951 134.477 3.45001C125.349 2.79192 116.424 2.4812 107.52 2.19171C102.195 2.01858 96.8947 1.92599 91.8569 2.14397C91.4908 2.15997 91.1905 2.19928 91.2849 2.41301C90.1197 2.02059 89.1983 2.19551 88.2306 2.19445C80.6947 2.18688 73.3146 2.35639 65.9939 2.59679C61.3989 2.74791 56.9644 3.05669 52.4213 3.25769C47.6398 3.46889 43.1405 3.98688 38.7064 4.51808C37.4503 4.66836 35.4219 4.44563 35.1189 5.24591C32.6716 4.86976 31.4838 5.48427 29.9893 5.8557C31.8057 5.73593 33.6436 5.63206 35.0773 5.21547C35.5638 5.2044 36.0914 5.22652 36.5316 5.17768C49.53 3.71999 63.2249 2.92148 77.4626 2.63833C82.0524 2.54677 86.6565 2.47222 91.2542 2.38967Z" fill="#FF7F5F"/>
</svg>
