<svg width="56" height="56" viewBox="0 0 56 56" fill="none" xmlns="http://www.w3.org/2000/svg">
<rect opacity="0.4" width="56" height="56" rx="28" fill="white"/>
<path d="M36.948 31.0658V22.3125C36.948 20.0688 35.1292 18.25 32.8855 18.25H23.3955C21.1519 18.25 19.333 20.0688 19.333 22.3125V33.7308C19.333 35.6514 20.8899 37.2083 22.8105 37.2083H36.1355C36.5842 37.2083 36.948 36.8446 36.948 36.3958C36.948 35.9471 36.5842 35.5833 36.1355 35.5833H22.8105C21.7874 35.5833 20.958 34.7539 20.958 33.7308C20.958 32.7077 21.7874 31.8783 22.8105 31.8783H36.1355C36.5842 31.8783 36.948 31.5146 36.948 31.0658Z" fill="white"/>
<path d="M22.8105 32.918C22.3618 32.918 21.998 33.2817 21.998 33.7305C21.998 34.1792 22.3618 34.543 22.8105 34.543H34.803C35.2518 34.543 35.6155 34.1792 35.6155 33.7305C35.6155 33.2817 35.2518 32.918 34.803 32.918H22.8105Z" fill="white"/>
</svg>
