<svg width="253" height="112" viewBox="0 0 253 112" fill="none" xmlns="http://www.w3.org/2000/svg">
<circle cx="7.55829" cy="86.2261" r="5.75084" transform="rotate(-10.6402 7.55829 86.2261)" fill="#687BFE"/>
<path d="M252.813 18.7356L239.311 10.6455L239.056 26.3838L252.813 18.7356ZM240.492 17.1744C205.645 18.444 153.633 34.214 126.163 73.1953L128.391 74.7658C155.182 36.7493 206.202 21.1519 240.591 19.899L240.492 17.1744ZM126.163 73.1953C122.291 78.6889 120.063 83.2835 119.241 87.0465C118.413 90.8361 118.992 93.9287 120.941 96.1303C122.847 98.2838 125.826 99.307 129.208 99.5409C132.611 99.7763 136.61 99.2297 140.821 98.0446C149.247 95.6738 158.772 90.6783 166.525 83.7744C174.274 76.8746 180.369 67.9611 181.683 57.7308L178.978 57.3836C177.776 66.7474 172.16 75.1064 164.712 81.7383C157.269 88.366 148.112 93.161 140.083 95.4202C136.067 96.5502 132.394 97.0284 129.396 96.8211C126.376 96.6122 124.223 95.7251 122.982 94.3232C121.784 92.9694 121.198 90.8616 121.905 87.6283C122.617 84.3683 124.62 80.1175 128.391 74.7658L126.163 73.1953ZM181.683 57.7308C182.338 52.6291 181.752 48.1123 179.931 44.2769C178.107 40.4349 175.09 37.3746 171.051 35.1194C163.027 30.6394 150.929 29.3063 135.677 31.1499C105.119 34.8435 61.0737 51.3922 9.23972 82.975L10.6583 85.3032C62.3277 53.8207 105.989 37.4845 136.004 33.8565C151.039 32.0392 162.444 33.4361 169.722 37.4998C173.334 39.5165 175.918 42.1814 177.468 45.4461C179.021 48.7172 179.581 52.6883 178.978 57.3836L181.683 57.7308Z" fill="#687BFE"/>
</svg>
