<svg width="56" height="56" viewBox="0 0 56 56" fill="none" xmlns="http://www.w3.org/2000/svg">
<rect opacity="0.4" width="56" height="56" rx="28" fill="white"/>
<path fill-rule="evenodd" clip-rule="evenodd" d="M37.8077 30.298C37.811 30.976 38.1091 31.619 38.6243 32.0597C40.386 33.6347 39.1377 36.3297 36.641 36.3297H32.2077C31.633 37.8981 30.1447 38.9446 28.4743 38.9547C26.7985 38.9618 25.3012 37.9091 24.741 36.3297H20.3077C17.811 36.3297 16.5627 33.6347 18.3243 32.0597C18.8396 31.619 19.1376 30.976 19.141 30.298V24.663C19.141 20.0663 23.3177 16.333 28.4743 16.333C33.631 16.333 37.8077 20.0663 37.8077 24.663V30.298ZM26.701 36.3297C27.1256 36.8792 27.7799 37.2021 28.4743 37.2047C29.1523 37.1879 29.7866 36.8665 30.201 36.3297H26.701Z" fill="white"/>
</svg>
