<svg width="56" height="56" viewBox="0 0 56 56" fill="none" xmlns="http://www.w3.org/2000/svg">
<rect opacity="0.4" width="56" height="56" rx="28" fill="white"/>
<path fill-rule="evenodd" clip-rule="evenodd" d="M21.4993 16.083H35.5827C37.9759 16.083 39.916 18.0231 39.916 20.4163V34.4997C39.916 36.8929 37.9759 38.833 35.5827 38.833H21.4993C19.1061 38.833 17.166 36.8929 17.166 34.4997V20.4163C17.166 18.0231 19.1061 16.083 21.4993 16.083ZM34.4993 28.8122C34.9481 28.8122 35.3118 28.4484 35.3118 27.9997V24.7063C35.306 24.26 34.9456 23.8997 34.4993 23.8938H31.2493C30.8006 23.8938 30.4368 24.2576 30.4368 24.7063C30.4368 25.1551 30.8006 25.5188 31.2493 25.5188H32.2135L28.3568 29.3755L26.1902 27.2088C25.6152 26.6359 24.6851 26.6359 24.1102 27.2088L21.326 29.993C21.0092 30.3102 21.0092 30.8241 21.326 31.1413C21.4776 31.2948 21.6845 31.3807 21.9002 31.3797C22.1161 31.3819 22.3235 31.2958 22.4743 31.1413L25.1935 28.5413L27.3602 30.708C27.9351 31.281 28.8652 31.281 29.4402 30.708L33.6868 26.4288V27.9997C33.6868 28.4484 34.0506 28.8122 34.4993 28.8122Z" fill="white"/>
</svg>
