<svg width="56" height="56" viewBox="0 0 56 56" fill="none" xmlns="http://www.w3.org/2000/svg">
<rect opacity="0.4" width="56" height="56" rx="28" fill="white"/>
<path fill-rule="evenodd" clip-rule="evenodd" d="M25.3747 21.4897C25.8553 21.4834 26.2434 21.0953 26.2497 20.6147V17.208C26.2497 16.7248 25.8579 16.333 25.3747 16.333C24.8914 16.333 24.4997 16.7248 24.4997 17.208V20.6147C24.4997 21.0979 24.8914 21.4897 25.3747 21.4897ZM19.2128 19.1661C19.546 18.8329 20.0832 18.8234 20.428 19.1447L22.878 21.548C23.0448 21.7105 23.1388 21.9335 23.1388 22.1663C23.1388 22.3992 23.0448 22.6222 22.878 22.7847C22.7156 22.9511 22.4922 23.0438 22.2597 23.0413C22.0114 23.0556 21.769 22.962 21.5947 22.7847L19.1913 20.3813C18.8701 20.0366 18.8796 19.4993 19.2128 19.1661ZM27.218 24.6863L37.893 28.0697C38.6492 28.2969 39.2019 28.9464 39.3051 29.7292C39.4083 30.512 39.0428 31.2826 38.3713 31.698L34.638 34.0313C34.397 34.1907 34.1907 34.397 34.0313 34.638L31.698 38.3713C31.2709 39.0268 30.5018 39.3742 29.7276 39.2614C28.9535 39.1487 28.3155 38.5964 28.093 37.8463L24.7447 27.1597C24.5143 26.4574 24.6985 25.6853 25.2211 25.1627C25.7437 24.6402 26.5158 24.456 27.218 24.6863ZM29.2597 21.1863C29.0901 21.3491 28.8647 21.4409 28.6297 21.443C28.3914 21.4281 28.169 21.3189 28.0113 21.1397C27.8446 20.9772 27.7505 20.7542 27.7505 20.5213C27.7505 20.2885 27.8446 20.0655 28.0113 19.903L30.4263 17.5697C30.5789 17.3969 30.7942 17.2923 31.0242 17.2792C31.2543 17.266 31.4801 17.3454 31.6513 17.4997C31.9925 17.8413 31.9925 18.3947 31.6513 18.7363L29.2597 21.1863ZM19.9963 27.9647L17.593 30.403C17.2905 30.7331 17.2905 31.2396 17.593 31.5697C17.7569 31.7338 17.9794 31.8261 18.2113 31.8263C18.4423 31.8213 18.663 31.7297 18.8297 31.5697L21.233 29.2363C21.5742 28.8947 21.5742 28.3413 21.233 27.9997C21.0753 27.8282 20.8549 27.7278 20.6221 27.7212C20.3892 27.7146 20.1635 27.8024 19.9963 27.9647ZM17.208 24.4997H20.6147C21.0979 24.4997 21.4897 24.8914 21.4897 25.3747C21.4897 25.8579 21.0979 26.2497 20.6147 26.2497H17.208C16.7248 26.2497 16.333 25.8579 16.333 25.3747C16.333 24.8914 16.7248 24.4997 17.208 24.4997Z" fill="white"/>
</svg>
