<svg width="549" height="414" viewBox="0 0 549 414" fill="none" xmlns="http://www.w3.org/2000/svg">
<path opacity="0.4" d="M548.501 -111.678L519.992 -116.212L530.32 -89.2556L548.501 -111.678ZM243.11 297.301L241.97 299.526L243.11 297.301ZM384.671 -24.302L383.032 -26.19L384.671 -24.302ZM111.62 248.749L113.348 250.556L111.62 248.749ZM394.227 124.511L396.12 122.877L394.227 124.511ZM515.082 -100.986C508.576 -98.225 501.36 -95.0767 493.691 -91.591L495.76 -87.0391C503.386 -90.5054 510.563 -93.6367 517.035 -96.3829L515.082 -100.986ZM472.528 -81.6206C465.688 -78.2778 458.69 -74.7335 451.679 -71.0161L454.021 -66.5986C460.978 -70.2874 467.927 -73.8068 474.723 -77.1284L472.528 -81.6206ZM431.212 -59.6427C424.398 -55.6636 417.706 -51.5402 411.276 -47.2997L414.028 -43.1255C420.373 -47.3092 426.987 -51.3849 433.733 -55.3251L431.212 -59.6427ZM392.132 -33.6518C388.969 -31.1923 385.927 -28.7035 383.032 -26.19L386.309 -22.4141C389.13 -24.8629 392.102 -27.2947 395.201 -29.7046L392.132 -33.6518ZM383.032 -26.19C380.243 -23.769 377.413 -21.2906 374.551 -18.7583L377.863 -15.0131C380.714 -17.535 383.532 -20.0032 386.309 -22.4141L383.032 -26.19ZM357.765 -3.63012C352.31 1.3789 346.783 6.54657 341.226 11.8504L344.678 15.4676C350.211 10.1867 355.714 5.04094 361.146 0.0526817L357.765 -3.63012ZM325.029 27.6218C319.716 32.9028 314.41 38.2878 309.145 43.7574L312.748 47.2247C317.985 41.783 323.265 36.4243 328.553 31.168L325.029 27.6218ZM293.648 60.2537C288.541 65.8295 283.508 71.4704 278.584 77.1573L282.364 80.4301C287.255 74.7808 292.257 69.1748 297.335 63.6311L293.648 60.2537ZM264.022 94.526C259.213 100.46 254.556 106.424 250.089 112.396L254.093 115.391C258.518 109.475 263.135 103.562 267.906 97.6739L264.022 94.526ZM236.911 130.882C232.571 137.3 228.493 143.705 224.724 150.073L229.027 152.619C232.739 146.347 236.763 140.026 241.053 133.683L236.911 130.882ZM213.89 170.064C210.425 177.145 207.417 184.151 204.937 191.042L209.642 192.735C212.052 186.038 214.985 179.201 218.381 172.262L213.89 170.064ZM198.798 213.16C197.308 221.08 196.69 228.797 197.079 236.236L202.072 235.975C201.707 228.99 202.284 221.675 203.712 214.084L198.798 213.16ZM201.927 258.99C204.746 266.06 208.815 272.695 214.253 278.813L217.99 275.491C212.93 269.798 209.171 263.659 206.571 257.138L201.927 258.99ZM231.939 293.752C235.056 295.77 238.397 297.696 241.97 299.526L244.25 295.076C240.818 293.318 237.623 291.475 234.655 289.555L231.939 293.752ZM241.97 299.526C245.678 301.426 249.524 302.905 253.476 303.989L254.799 299.168C251.168 298.171 247.644 296.816 244.25 295.076L241.97 299.526ZM277.809 306.041C285.614 305.395 293.571 303.621 301.507 300.908L299.89 296.176C292.285 298.776 284.734 300.451 277.397 301.058L277.809 306.041ZM323.5 291.033C330.363 287.228 337.105 282.815 343.613 277.912L340.605 273.919C334.269 278.691 327.721 282.975 321.075 286.66L323.5 291.033ZM361.84 262.322C367.598 256.759 373.039 250.839 378.058 244.665L374.179 241.511C369.287 247.528 363.982 253.301 358.366 258.726L361.84 262.322ZM391.985 225.104C396.286 218.116 399.999 210.952 402.991 203.735L398.373 201.82C395.491 208.769 391.903 215.698 387.727 222.483L391.985 225.104ZM409.963 180.561C411.462 172.301 411.829 164.123 410.844 156.231L405.883 156.85C406.796 164.17 406.465 171.833 405.043 179.668L409.963 180.561ZM403.244 132.961C401.258 129.456 398.89 126.086 396.12 122.877L392.335 126.144C394.894 129.108 397.071 132.21 398.893 135.426L403.244 132.961ZM396.12 122.877C393.649 120.015 391.089 117.407 388.444 115.045L385.113 118.774C387.59 120.986 389.999 123.438 392.335 126.144L396.12 122.877ZM370.093 103.065C363.352 100.055 356.274 98.2201 348.932 97.4224L348.392 102.393C355.253 103.139 361.82 104.847 368.054 107.63L370.093 103.065ZM327.152 97.8625C320.262 98.8011 313.216 100.445 306.057 102.697L307.557 107.466C314.487 105.287 321.256 103.712 327.827 102.817L327.152 97.8625ZM285.987 110.4C279.659 113.238 273.264 116.465 266.83 120.023L269.249 124.399C275.578 120.899 281.847 117.736 288.033 114.963L285.987 110.4ZM248.452 130.98C242.556 134.736 236.643 138.723 230.732 142.897L233.616 146.981C239.469 142.848 245.316 138.906 251.138 135.197L248.452 130.98ZM213.563 155.527C207.963 159.804 202.379 164.214 196.828 168.722L199.981 172.604C205.497 168.124 211.041 163.744 216.598 159.501L213.563 155.527ZM180.464 182.356C175.061 186.964 169.706 191.634 164.412 196.33L167.73 200.07C173.002 195.393 178.334 190.745 183.709 186.16L180.464 182.356ZM148.607 210.58C143.319 215.418 138.114 220.248 133.008 225.031L136.426 228.68C141.52 223.908 146.711 219.091 151.982 214.268L148.607 210.58ZM117.569 239.617C114.977 242.084 112.417 244.528 109.892 246.942L113.348 250.556C115.87 248.144 118.427 245.703 121.016 243.239L117.569 239.617ZM109.892 246.942C106.853 249.848 103.886 252.771 100.991 255.705L104.55 259.217C107.412 256.317 110.344 253.428 113.348 250.556L109.892 246.942ZM83.9782 273.957C78.3343 280.364 73.0144 286.77 68.0072 293.122L71.9337 296.217C76.8871 289.934 82.1488 283.597 87.73 277.262L83.9782 273.957ZM53.0987 313.102C48.0917 320.195 43.4812 327.137 39.2502 333.844L43.4789 336.512C47.6663 329.874 52.2288 323.004 57.1835 315.986L53.0987 313.102ZM26.4865 355.287C22.0068 363.279 18.1488 370.703 14.8735 377.367L19.3609 379.572C22.5991 372.983 26.4152 365.64 30.848 357.732L26.4865 355.287ZM4.56419 400.055C3.02564 403.765 1.89641 406.685 1.14988 408.682C0.776573 409.681 0.498946 410.449 0.313645 410.97C0.220963 411.231 0.15138 411.43 0.104467 411.566C0.0810107 411.633 0.0632187 411.685 0.0510588 411.721C0.0449519 411.739 0.0402908 411.752 0.0369676 411.762C0.0353276 411.767 0.0340436 411.771 0.0331049 411.773C0.0326194 411.775 0.0322202 411.776 0.0319504 411.777C0.0317994 411.777 0.0316591 411.778 0.0315512 411.778C0.0315188 411.778 0.0314541 411.778 0.0313894 411.778C0.031357 411.779 0.0312815 411.779 2.39968 412.579C4.76809 413.38 4.76804 413.38 4.76799 413.38C4.76799 413.38 4.76793 413.38 4.76795 413.38C4.76792 413.38 4.76792 413.38 4.76795 413.38C4.76798 413.38 4.76815 413.38 4.76837 413.379C4.7688 413.378 4.76959 413.375 4.77073 413.372C4.77302 413.365 4.77663 413.355 4.78169 413.34C4.79182 413.31 4.80754 413.264 4.82888 413.203C4.87158 413.08 4.93683 412.893 5.02506 412.644C5.20152 412.148 5.46988 411.405 5.83337 410.433C6.56046 408.487 7.66817 405.623 9.1829 401.97L4.56419 400.055Z" fill="white"/>
</svg>
