<svg width="264" height="124" viewBox="0 0 264 124" fill="none" xmlns="http://www.w3.org/2000/svg">
<path opacity="0.1" d="M1.29592 79.1876C0.390214 80.2297 0.500817 81.8088 1.54296 82.7145C2.5851 83.6202 4.16415 83.5096 5.06985 82.4675L1.29592 79.1876ZM263.124 4.00225L234.53 0.0393135L245.395 26.7841L263.124 4.00225ZM9.66254 78.2005C10.7852 77.3967 11.0437 75.835 10.2399 74.7124C9.4361 73.5898 7.87444 73.3313 6.7518 74.135L9.66254 78.2005ZM21.3823 70.2484C20.0119 70.0797 18.7643 71.0539 18.5956 72.4242C18.427 73.7946 19.4011 75.0422 20.7715 75.2109L21.3823 70.2484ZM32.2721 79.9342C33.4307 80.6852 34.9788 80.3549 35.7298 79.1963C36.4809 78.0378 36.1506 76.4897 34.992 75.7386L32.2721 79.9342ZM46.0252 84.4782C45.0043 83.5487 43.4231 83.6229 42.4936 84.6438C41.5641 85.6648 41.6382 87.246 42.6592 88.1755L46.0252 84.4782ZM52.3751 97.6189C53.346 98.6006 54.9289 98.6092 55.9106 97.6383C56.8922 96.6673 56.9009 95.0844 55.9299 94.1028L52.3751 97.6189ZM65.5452 103.762C64.5564 102.798 62.9736 102.819 62.01 103.808C61.0464 104.797 61.0669 106.379 62.0557 107.343L65.5452 103.762ZM72.5199 116.61C73.6165 117.449 75.1856 117.24 76.0246 116.143C76.8636 115.047 76.6548 113.478 75.5582 112.639L72.5199 116.61ZM86.5906 118.486C85.242 118.19 83.9089 119.044 83.613 120.393C83.3171 121.741 84.1705 123.074 85.5192 123.37L86.5906 118.486ZM100.356 119.895C101.489 119.106 101.767 117.547 100.977 116.415C100.188 115.282 98.6295 115.004 97.4969 115.794L100.356 119.895ZM105.413 106.334C104.753 107.547 105.201 109.065 106.413 109.725C107.626 110.386 109.144 109.938 109.804 108.725L105.413 106.334ZM115.246 95.8124C115.697 94.5076 115.005 93.0839 113.701 92.6324C112.396 92.1809 110.972 92.8726 110.521 94.1774L115.246 95.8124ZM114.822 81.2585C114.371 82.5633 115.063 83.987 116.367 84.4385C117.672 84.89 119.096 84.1983 119.548 82.8935L114.822 81.2585ZM124.655 70.7367C125.315 69.5241 124.868 68.0059 123.655 67.3456C122.442 66.6853 120.924 67.1331 120.264 68.3457L124.655 70.7367ZM129.712 57.1755C128.579 57.9652 128.301 59.5235 129.091 60.6561C129.88 61.7887 131.439 62.0667 132.571 61.2771L129.712 57.1755ZM143.553 57.4366C144.917 57.2252 145.852 55.9478 145.641 54.5834C145.429 53.2189 144.152 52.2842 142.787 52.4955L143.553 57.4366ZM155.468 52.1448C154.093 52.025 152.88 53.0429 152.76 54.4184C152.641 55.7939 153.659 57.0061 155.034 57.126L155.468 52.1448ZM166.65 59.0592C167.997 59.3614 169.334 58.5142 169.636 57.1669C169.938 55.8197 169.091 54.4826 167.744 54.1804L166.65 59.0592ZM179.539 56.9656C178.191 56.6634 176.854 57.5106 176.552 58.8579C176.25 60.2051 177.097 61.5422 178.444 61.8444L179.539 56.9656ZM190.72 63.88C192.096 63.9998 193.308 62.9819 193.428 61.6064C193.547 60.2309 192.53 59.0187 191.154 58.8988L190.72 63.88ZM202.635 58.5882C201.271 58.7996 200.336 60.077 200.548 61.4414C200.759 62.8059 202.036 63.7406 203.401 63.5293L202.635 58.5882ZM216.414 59.1522C217.587 58.4238 217.948 56.8824 217.219 55.7095C216.491 54.5366 214.949 54.1762 213.776 54.9047L216.414 59.1522ZM221.599 45.8276C220.966 47.055 221.449 48.5626 222.676 49.1949C223.904 49.8272 225.411 49.3447 226.044 48.1173L221.599 45.8276ZM231.475 35.6016C232.028 34.3364 231.451 32.8626 230.185 32.3099C228.92 31.7571 227.446 32.3347 226.894 33.5999L231.475 35.6016ZM233.743 21.367C232.923 22.4773 233.157 24.0427 234.268 24.8634C235.378 25.6842 236.943 25.4494 237.764 24.3391L233.743 21.367ZM246.736 15.3384C247.839 14.5078 248.06 12.9404 247.23 11.8374C246.399 10.7345 244.831 10.5137 243.729 11.3442L246.736 15.3384ZM255.811 4.27689C254.555 4.84881 253.999 6.33119 254.571 7.58788C255.143 8.84458 256.626 9.39971 257.882 8.8278L255.811 4.27689ZM5.06985 82.4675C6.62023 80.6835 8.1539 79.2806 9.66254 78.2005L6.7518 74.135C4.88166 75.474 3.06417 77.153 1.29592 79.1876L5.06985 82.4675ZM20.7715 75.2109C24.4083 75.6586 28.2394 77.3199 32.2721 79.9342L34.992 75.7386C30.6122 72.8993 26.051 70.823 21.3823 70.2484L20.7715 75.2109ZM42.6592 88.1755C45.8946 91.121 49.1317 94.3398 52.3751 97.6189L55.9299 94.1028C52.6768 90.8138 49.363 87.5169 46.0252 84.4782L42.6592 88.1755ZM62.0557 107.343C65.554 110.752 69.0561 113.96 72.5199 116.61L75.5582 112.639C72.327 110.167 68.9894 107.118 65.5452 103.762L62.0557 107.343ZM85.5192 123.37C88.1769 123.953 90.8657 123.96 93.5214 123.175L92.1043 118.38C90.3719 118.892 88.5498 118.916 86.5906 118.486L85.5192 123.37ZM93.5214 123.175C96.0653 122.423 98.3308 121.308 100.356 119.895L97.4969 115.794C95.9017 116.906 94.1217 117.784 92.1043 118.38L93.5214 123.175ZM109.804 108.725C111.969 104.749 113.691 100.305 115.246 95.8124L110.521 94.1774C108.995 98.5869 107.379 102.723 105.413 106.334L109.804 108.725ZM119.548 82.8935C121.073 78.484 122.689 74.3477 124.655 70.7367L120.264 68.3457C118.099 72.3217 116.377 76.766 114.822 81.2585L119.548 82.8935ZM132.571 61.2771C134.166 60.1649 135.946 59.2872 137.964 58.691L136.547 53.896C134.003 54.6478 131.737 55.7632 129.712 57.1755L132.571 61.2771ZM137.964 58.691C139.86 58.1305 141.721 57.7203 143.553 57.4366L142.787 52.4955C140.74 52.8126 138.661 53.271 136.547 53.896L137.964 58.691ZM155.034 57.126C158.927 57.4651 162.766 58.1882 166.65 59.0592L167.744 54.1804C163.763 53.2876 159.679 52.5117 155.468 52.1448L155.034 57.126ZM178.444 61.8444C182.425 62.7372 186.509 63.5131 190.72 63.88L191.154 58.8988C187.261 58.5597 183.422 57.8366 179.539 56.9656L178.444 61.8444ZM203.401 63.5293C205.448 63.2122 207.527 62.7538 209.641 62.1288L208.224 57.3338C206.328 57.8943 204.467 58.3045 202.635 58.5882L203.401 63.5293ZM209.641 62.1288C212.223 61.3658 214.458 60.3669 216.414 59.1522L213.776 54.9047C212.234 55.8624 210.415 56.6862 208.224 57.3338L209.641 62.1288ZM226.044 48.1173C228.016 44.2876 229.659 39.7586 231.475 35.6016L226.894 33.5999C224.875 38.2215 223.492 42.1528 221.599 45.8276L226.044 48.1173ZM237.764 24.3391C240.053 21.2425 242.932 18.2032 246.736 15.3384L243.729 11.3442C239.521 14.513 236.305 17.9016 233.743 21.367L237.764 24.3391Z" fill="white"/>
</svg>
