<svg width="72" height="72" viewBox="0 0 72 72" fill="none" xmlns="http://www.w3.org/2000/svg">
<rect opacity="0.2" width="72" height="72" rx="36" fill="#687BFE"/>
<path d="M36.2098 35.2417C38.1202 35.2419 39.6779 33.7102 39.7098 31.8V30.4933C39.7099 29.7178 39.3987 28.9747 38.8459 28.4307C38.2932 27.8868 37.5452 27.5875 36.7698 27.6H35.6615C34.0681 27.6064 32.7798 28.8999 32.7798 30.4933V31.8C32.8108 33.6832 34.3266 35.2042 36.2098 35.2417Z" fill="#687BFE"/>
<path d="M48.5766 41.2617L48.4366 39.5C48.2852 38.6153 47.5257 37.9635 46.6282 37.9483H41.5882C41.5109 37.9363 41.4322 37.9363 41.3549 37.9483C40.9077 37.4461 40.2656 37.1612 39.5932 37.1667H32.8382C32.1261 37.1635 31.4516 37.4858 31.0065 38.0417C30.8159 37.972 30.6145 37.9364 30.4115 37.9367H25.3715C24.4704 37.9529 23.7095 38.6106 23.5632 39.5L23.4232 41.32C23.306 41.8781 23.4407 42.4595 23.7915 42.9092C24.1422 43.3589 24.6733 43.6311 25.2432 43.6533H30.5515C30.6562 43.6654 30.7619 43.6654 30.8665 43.6533C31.3293 44.164 31.9857 44.4563 32.6749 44.4583H39.7565C40.4247 44.4551 41.0621 44.1766 41.5182 43.6883H46.7566C47.3471 43.672 47.8979 43.387 48.2524 42.9144C48.6069 42.4418 48.7263 41.8332 48.5766 41.2617Z" fill="#687BFE"/>
<path d="M44.1665 36.1283C45.584 36.1283 46.7332 34.9792 46.7332 33.5617V32.57C46.7334 31.9873 46.498 31.4293 46.0805 31.0228C45.6631 30.6163 45.099 30.3959 44.5165 30.4117H43.6998C42.5078 30.4117 41.5415 31.378 41.5415 32.57V33.5617C41.5413 34.2526 41.8197 34.9144 42.3138 35.3975C42.8078 35.8806 43.4757 36.144 44.1665 36.1283Z" fill="#687BFE"/>
<path d="M27.8916 36.1283C29.3091 36.1283 30.4583 34.9792 30.4583 33.5617V32.57C30.4583 31.378 29.492 30.4117 28.3 30.4117H27.4833C26.2913 30.4117 25.325 31.378 25.325 32.57V33.5617C25.325 34.9792 26.4741 36.1283 27.8916 36.1283Z" fill="#687BFE"/>
</svg>
