<svg width="72" height="72" viewBox="0 0 72 72" fill="none" xmlns="http://www.w3.org/2000/svg">
<rect opacity="0.2" y="0.000366211" width="72" height="72" rx="36" fill="#687BFE"/>
<ellipse cx="35.7666" cy="35.7787" rx="2.28667" ry="2.28667" fill="#687BFE"/>
<path fill-rule="evenodd" clip-rule="evenodd" d="M44.4308 32.1863C44.653 32.7278 45.1796 33.082 45.7649 33.0837C46.1486 33.0837 46.5166 33.2361 46.7879 33.5074C47.0592 33.7787 47.2116 34.1467 47.2116 34.5304V37.027C47.2116 37.826 46.5639 38.4737 45.7649 38.4737C45.1796 38.4754 44.653 38.8296 44.4308 39.3711C44.2086 39.9126 44.3345 40.5347 44.7499 40.947C45.3072 41.5181 45.3072 42.4293 44.7499 43.0004L42.9999 44.7504C42.4289 45.3076 41.5176 45.3076 40.9466 44.7504C40.5342 44.335 39.9122 44.209 39.3707 44.4312C38.8292 44.6534 38.475 45.1801 38.4733 45.7654C38.4733 46.5643 37.8256 47.212 37.0266 47.212H34.5299C33.7309 47.212 33.0833 46.5643 33.0833 45.7654C33.0815 45.1801 32.7273 44.6534 32.1858 44.4312C31.6443 44.209 31.0223 44.335 30.6099 44.7504C30.0389 45.3076 29.1276 45.3076 28.5566 44.7504L26.8066 43.0004C26.2493 42.4293 26.2493 41.5181 26.8066 40.947C27.2235 40.5332 27.3487 39.9083 27.1235 39.3657C26.8983 38.8232 26.3674 38.4707 25.7799 38.4737C24.9809 38.4737 24.3333 37.826 24.3333 37.027V34.5304C24.3333 33.7314 24.9809 33.0837 25.7799 33.0837C26.3652 33.082 26.8918 32.7278 27.1141 32.1863C27.3363 31.6448 27.2103 31.0227 26.7949 30.6104C26.2377 30.0394 26.2377 29.1281 26.7949 28.557L28.5449 26.807C29.1159 26.2498 30.0272 26.2498 30.5983 26.807C31.0121 27.2239 31.637 27.3492 32.1796 27.124C32.7221 26.8988 33.0746 26.3678 33.0716 25.7804C33.0716 24.9814 33.7193 24.3337 34.5183 24.3337H37.0266C37.4103 24.3337 37.7782 24.4861 38.0495 24.7574C38.3208 25.0287 38.4733 25.3967 38.4733 25.7804C38.4702 26.3678 38.8227 26.8988 39.3653 27.124C39.9078 27.3492 40.5327 27.2239 40.9466 26.807C41.5176 26.2498 42.4289 26.2498 42.9999 26.807L44.7499 28.557C45.3072 29.1281 45.3072 30.0394 44.7499 30.6104C44.3345 31.0227 44.2086 31.6448 44.4308 32.1863ZM31.7299 35.7787C31.7299 38.0081 33.5372 39.8154 35.7666 39.8154C37.996 39.8154 39.8033 38.0081 39.8033 35.7787C39.8033 33.5493 37.996 31.742 35.7666 31.742C33.5372 31.742 31.7299 33.5493 31.7299 35.7787Z" fill="#687BFE"/>
</svg>
