<svg width="54" height="132" viewBox="0 0 54 132" fill="none" xmlns="http://www.w3.org/2000/svg">
<path d="M16.6179 131.901L10.3243 129.052L15.9793 125.007L16.6179 131.901ZM37.1175 44.4115L37.0003 45.0008L37.1175 44.4115ZM1.4879 101.305L0.891798 101.377L1.4879 101.305ZM1.4879 34.5422L2.08748 34.516L1.4879 34.5422ZM32.8284 84.0427L32.8012 83.4435L32.8284 84.0427ZM8.9851 121.449C7.58701 119.08 6.16372 116.476 4.90366 113.81L5.98927 113.291C7.23009 115.916 8.63506 118.487 10.0198 120.834L8.9851 121.449ZM1.7706 105.687C1.3558 104.213 1.05069 102.766 0.891798 101.377L2.08399 101.232C2.23411 102.543 2.5244 103.927 2.9259 105.354L1.7706 105.687ZM0.891798 101.377C0.743468 100.082 0.609301 98.7362 0.494112 97.3518L1.68995 97.2433C1.80409 98.6151 1.93703 99.9481 2.08399 101.232L0.891798 101.377ZM0.0785239 89.2474C0.02964 86.5861 0.0694223 83.8609 0.225309 81.1303L1.42332 81.1897C1.26935 83.8868 1.22989 86.5816 1.27829 89.2162L0.0785239 89.2474ZM1.06019 73.0365C1.48113 70.3053 2.05103 67.6258 2.79968 65.0609L3.95138 65.3891C3.21969 67.8959 2.66032 70.523 2.24612 73.2105L1.06019 73.0365ZM5.78696 57.4263C7.07378 54.9189 8.62296 52.6293 10.4772 50.6486L11.3503 51.4652C9.58448 53.3514 8.09728 55.5446 6.85366 57.9678L5.78696 57.4263ZM17.0886 45.6796C19.4258 44.5082 22.0523 43.6906 24.9956 43.2921L25.1477 44.4812C22.329 44.8629 19.8315 45.6431 17.6197 46.7516L17.0886 45.6796ZM33.1763 43.221C34.4814 43.3545 35.8337 43.5538 37.2346 43.8222L37.0003 45.0008C35.6315 44.7386 34.3137 44.5445 33.0452 44.4148L33.1763 43.221ZM37.2346 43.8222C38.5246 44.0693 39.7401 44.4116 40.8808 44.8386L40.4526 45.9629C39.3766 45.56 38.226 45.2357 37.0003 45.0008L37.2346 43.8222ZM47.3087 48.7688C49.2072 50.5262 50.675 52.6139 51.7131 54.8829L50.6213 55.389C49.645 53.2551 48.2675 51.2978 46.49 49.6523L47.3087 48.7688ZM53.5495 62.1957C53.7211 64.7132 53.4552 67.2679 52.7514 69.7089L51.5986 69.3845C52.2629 67.0803 52.5145 64.6662 52.3523 62.2863L53.5495 62.1957ZM49.3638 76.4896C47.8682 78.4543 45.9773 80.1791 43.6929 81.5331L43.0869 80.5019C45.2335 79.2296 47.0077 77.6109 48.4111 75.7673L49.3638 76.4896ZM36.6142 84.1836C35.4221 84.4171 34.1691 84.5724 32.8556 84.6419L32.8012 83.4435C34.0606 83.3769 35.2575 83.2282 36.3923 83.006L36.6142 84.1836ZM32.8556 84.6419C31.3643 84.7208 29.9416 84.7141 28.5844 84.627L28.6703 83.4294C29.978 83.5134 31.3537 83.5202 32.8012 83.4435L32.8556 84.6419ZM20.2668 82.8294C17.4899 81.7223 15.1168 80.161 13.0895 78.2486L13.9164 77.3727C15.8393 79.1868 18.0863 80.6649 20.7185 81.7142L20.2668 82.8294ZM7.94536 71.4874C6.61477 69.0778 5.54744 66.4451 4.68685 63.6816L5.83278 63.3169C6.67457 66.02 7.71265 68.5757 8.99682 70.9012L7.94536 71.4874ZM2.73624 55.4773C2.2496 52.7186 1.89722 49.9137 1.63445 47.1363L2.82909 47.0143C3.08959 49.7677 3.43816 52.5399 3.91801 55.2602L2.73624 55.4773ZM1.06069 38.7565C0.992713 37.3276 0.937558 35.9276 0.888307 34.5685L2.08748 34.516C2.13665 35.8726 2.19162 37.2677 2.2593 38.6904L1.06069 38.7565ZM0.888307 34.5685C0.832481 33.028 0.855548 31.5174 0.945183 30.042L2.14294 30.1058C2.05556 31.544 2.03312 33.0157 2.08748 34.516L0.888307 34.5685ZM2.31266 21.1105C3.08319 17.9562 4.09026 15.0712 5.1594 12.5276L6.26508 12.9855C5.21716 15.4786 4.23162 18.3028 3.47822 21.387L2.31266 21.1105ZM9.27601 4.47234C10.01 3.27075 10.6446 2.33345 11.0971 1.69475C11.3234 1.37537 11.5042 1.13056 11.6292 0.964623C11.6918 0.881645 11.7403 0.81838 11.7737 0.775357C11.7904 0.753838 11.8032 0.737383 11.8121 0.726055C11.8166 0.720406 11.82 0.716015 11.8225 0.71293C11.8237 0.711379 11.8247 0.710151 11.8254 0.709261C11.8257 0.708816 11.826 0.708447 11.8263 0.708156C11.8264 0.708002 11.8265 0.707879 11.8266 0.707787C11.8266 0.707726 11.8266 0.707664 11.8267 0.707649C11.8267 0.707588 11.8268 0.707526 12.295 1.07907C12.7633 1.45061 12.7634 1.45056 12.7634 1.45053C12.7634 1.45052 12.7634 1.45049 12.7634 1.45049C12.7635 1.45046 12.7635 1.45046 12.7634 1.45047C12.7634 1.45052 12.7633 1.45063 12.7632 1.45082C12.7629 1.45122 12.7623 1.45193 12.7615 1.45297C12.7598 1.45505 12.7572 1.45839 12.7535 1.46303C12.7463 1.47228 12.735 1.48664 12.72 1.50602C12.69 1.54479 12.6447 1.60367 12.5856 1.68214C12.4674 1.83908 12.2936 2.07432 12.0744 2.38358C11.6362 3.00214 11.017 3.91644 10.2987 5.09224L9.27601 4.47234Z" fill="#B0C5DE"/>
</svg>
