<svg width="277" height="284" viewBox="0 0 277 284" fill="none" xmlns="http://www.w3.org/2000/svg">
<g opacity="0.5">
<path d="M207.971 177.163C208.074 177.243 208.177 177.323 208.28 177.403C208.283 177.441 208.176 177.359 207.971 177.163Z" fill="#B0C5DE"/>
<path d="M2.59746 184.916L11.6062 179.455L2.37223 174.384L2.59746 184.916ZM208.28 177.403L209.191 177.35L209.167 176.937L208.841 176.683L208.28 177.403ZM7.3274 178.197C19.228 158.643 41.8781 137.351 75.1659 131.522C108.438 125.695 152.537 135.283 207.411 177.883L208.53 176.442C153.394 133.638 108.785 123.782 74.8511 129.725C40.9321 135.664 17.8761 157.355 5.76869 177.248L7.3274 178.197ZM207.411 177.883C207.514 177.963 207.617 178.043 207.72 178.123L208.841 176.683C208.737 176.603 208.634 176.522 208.53 176.442L207.411 177.883ZM207.37 177.457C207.365 177.372 207.366 177.198 207.461 177.005C207.572 176.78 207.768 176.617 207.997 176.543C208.191 176.481 208.355 176.5 208.433 176.514C208.519 176.53 208.583 176.555 208.617 176.569C208.685 176.598 208.729 176.627 208.74 176.634C208.748 176.639 208.755 176.644 208.758 176.646C208.76 176.648 208.761 176.648 208.762 176.649C208.762 176.65 208.763 176.65 208.763 176.65C208.763 176.65 208.763 176.65 208.762 176.649C208.761 176.649 208.76 176.648 208.759 176.647C208.757 176.645 208.753 176.642 208.749 176.639C208.74 176.631 208.729 176.621 208.714 176.608C208.685 176.582 208.648 176.547 208.601 176.503L207.34 177.822C207.447 177.924 207.553 178.02 207.644 178.091C207.671 178.112 207.773 178.193 207.906 178.249C207.947 178.266 208.017 178.293 208.107 178.31C208.19 178.325 208.358 178.344 208.556 178.28C208.787 178.206 208.985 178.04 209.098 177.813C209.194 177.617 209.196 177.439 209.191 177.35L207.37 177.457ZM208.601 176.503C207.142 175.108 200.309 167.53 192.517 156.827C184.73 146.129 176.037 132.379 170.81 118.639C165.569 104.863 163.898 91.3289 169.796 80.879C175.673 70.4674 189.275 62.7608 215.47 61.1429L215.357 59.3217C188.933 60.9538 174.539 68.7646 168.207 79.9821C161.898 91.1614 163.808 105.368 169.104 119.288C174.414 133.245 183.214 147.146 191.042 157.901C198.867 168.649 205.772 176.322 207.34 177.822L208.601 176.503Z" fill="#B0C5DE"/>
<circle cx="220.08" cy="60.6297" r="6.61785" transform="rotate(-48.2944 220.08 60.6297)" fill="#B0C5DE" stroke="#B0C5DE" stroke-width="0.970886"/>
</g>
</svg>
