<svg width="214" height="126" viewBox="0 0 214 126" fill="none" xmlns="http://www.w3.org/2000/svg">
<path d="M205.971 118.163C206.074 118.243 206.177 118.323 206.28 118.403C206.283 118.441 206.176 118.359 205.971 118.163Z" fill="#B0C5DE"/>
<path d="M0.597455 125.916L9.60616 120.455L0.372235 115.384L0.597455 125.916ZM206.28 118.403L207.191 118.35L207.167 117.937L206.841 117.683L206.28 118.403ZM5.3274 119.197C17.228 99.6431 39.8781 78.3512 73.1659 72.5219C106.438 66.6952 150.537 76.2831 205.411 118.883L206.53 117.442C151.394 74.6379 106.785 64.782 72.8511 70.7245C38.9321 76.6644 15.8761 98.3547 3.76869 118.248L5.3274 119.197ZM205.411 118.883C205.514 118.963 205.617 119.043 205.72 119.123L206.841 117.683C206.737 117.603 206.634 117.522 206.53 117.442L205.411 118.883ZM205.37 118.457C205.365 118.372 205.366 118.198 205.461 118.005C205.572 117.78 205.768 117.617 205.997 117.543C206.191 117.481 206.355 117.5 206.433 117.514C206.519 117.53 206.583 117.555 206.617 117.569C206.685 117.598 206.729 117.627 206.74 117.634C206.748 117.639 206.755 117.644 206.758 117.646C206.76 117.648 206.761 117.648 206.762 117.649C206.762 117.65 206.763 117.65 206.763 117.65C206.763 117.65 206.763 117.65 206.762 117.649C206.761 117.649 206.76 117.648 206.759 117.647C206.757 117.645 206.753 117.642 206.749 117.639C206.74 117.631 206.729 117.621 206.714 117.608C206.685 117.582 206.648 117.547 206.601 117.503L205.34 118.822C205.447 118.924 205.553 119.02 205.644 119.091C205.671 119.112 205.773 119.193 205.906 119.249C205.947 119.266 206.017 119.293 206.107 119.31C206.19 119.325 206.358 119.344 206.556 119.28C206.787 119.206 206.985 119.04 207.098 118.813C207.194 118.617 207.196 118.439 207.191 118.35L205.37 118.457ZM206.601 117.503C205.142 116.108 198.309 108.53 190.517 97.8267C182.73 87.1294 174.037 73.3785 168.81 59.6393C163.569 45.8632 161.898 32.3289 167.796 21.879C173.673 11.4674 187.275 3.76078 213.47 2.14291L213.357 0.321704C186.933 1.95376 172.539 9.76462 166.207 20.9821C159.898 32.1614 161.808 46.3679 167.104 60.2881C172.414 74.2452 181.214 88.1464 189.042 98.9006C196.867 109.649 203.772 117.322 205.34 118.822L206.601 117.503Z" fill="#B0C5DE"/>
</svg>
