<svg width="56" height="56" viewBox="0 0 56 56" fill="none" xmlns="http://www.w3.org/2000/svg">
<rect opacity="0.2" width="56" height="56" rx="28" fill="#FF7F5F"/>
<path fill-rule="evenodd" clip-rule="evenodd" d="M25.375 21.49C25.8556 21.4837 26.2437 21.0956 26.25 20.615V17.2083C26.25 16.7251 25.8582 16.3333 25.375 16.3333C24.8917 16.3333 24.5 16.7251 24.5 17.2083V20.615C24.5 21.0982 24.8917 21.49 25.375 21.49ZM19.2131 19.1664C19.5463 18.8332 20.0836 18.8237 20.4283 19.145L22.8783 21.5483C23.0451 21.7108 23.1391 21.9338 23.1391 22.1667C23.1391 22.3995 23.0451 22.6225 22.8783 22.785C22.7159 22.9514 22.4925 23.0441 22.26 23.0417C22.0117 23.0559 21.7693 22.9623 21.595 22.785L19.1916 20.3817C18.8704 20.0369 18.8799 19.4997 19.2131 19.1664ZM27.2183 24.6867L37.8933 28.07C38.6495 28.2972 39.2022 28.9467 39.3054 29.7295C39.4086 30.5124 39.0431 31.2829 38.3716 31.6983L34.6383 34.0317C34.3973 34.191 34.191 34.3973 34.0316 34.6383L31.6983 38.3717C31.2712 39.0271 30.5021 39.3745 29.728 39.2618C28.9538 39.149 28.3158 38.5967 28.0933 37.8467L24.745 27.16C24.5146 26.4578 24.6988 25.6857 25.2214 25.1631C25.744 24.6405 26.5161 24.4563 27.2183 24.6867ZM29.26 21.1867C29.0904 21.3494 28.865 21.4412 28.63 21.4433C28.3918 21.4284 28.1693 21.3192 28.0116 21.14C27.8449 20.9775 27.7508 20.7545 27.7508 20.5217C27.7508 20.2888 27.8449 20.0658 28.0116 19.9033L30.4266 17.57C30.5792 17.3972 30.7945 17.2926 31.0245 17.2795C31.2546 17.2664 31.4804 17.3457 31.6516 17.5C31.9928 17.8416 31.9928 18.395 31.6516 18.7367L29.26 21.1867ZM19.9966 27.965L17.5933 30.4033C17.2908 30.7334 17.2908 31.2399 17.5933 31.57C17.7572 31.7341 17.9797 31.8265 18.2116 31.8267C18.4426 31.8216 18.6633 31.73 18.83 31.57L21.2333 29.2367C21.5745 28.895 21.5745 28.3416 21.2333 28C21.0756 27.8285 20.8552 27.7281 20.6224 27.7215C20.3895 27.7149 20.1638 27.8027 19.9966 27.965ZM17.2083 24.5H20.615C21.0982 24.5 21.49 24.8917 21.49 25.375C21.49 25.8582 21.0982 26.25 20.615 26.25H17.2083C16.7251 26.25 16.3333 25.8582 16.3333 25.375C16.3333 24.8917 16.7251 24.5 17.2083 24.5Z" fill="#FF7F5F"/>
</svg>
