<svg width="56" height="56" viewBox="0 0 56 56" fill="none" xmlns="http://www.w3.org/2000/svg">
<rect opacity="0.4" width="56" height="56" rx="28" fill="#A8B1EF"/>
<path fill-rule="evenodd" clip-rule="evenodd" d="M21.5 16.0833H35.5834C37.9766 16.0833 39.9167 18.0234 39.9167 20.4166V34.5C39.9167 36.8932 37.9766 38.8333 35.5834 38.8333H21.5C19.1068 38.8333 17.1667 36.8932 17.1667 34.5V20.4166C17.1667 18.0234 19.1068 16.0833 21.5 16.0833ZM34.5 28.8125C34.9488 28.8125 35.3125 28.4487 35.3125 28V24.7066C35.3067 24.2604 34.9463 23.9 34.5 23.8941H31.25C30.8013 23.8941 30.4375 24.2579 30.4375 24.7066C30.4375 25.1554 30.8013 25.5191 31.25 25.5191H32.2142L28.3575 29.3758L26.1909 27.2091C25.6159 26.6362 24.6858 26.6362 24.1109 27.2091L21.3267 29.9933C21.0099 30.3105 21.0099 30.8244 21.3267 31.1416C21.4782 31.2951 21.6852 31.381 21.9009 31.38C22.1168 31.3822 22.3242 31.2961 22.475 31.1416L25.1942 28.5416L27.3609 30.7083C27.9358 31.2813 28.8659 31.2813 29.4409 30.7083L33.6875 26.4291V28C33.6875 28.4487 34.0513 28.8125 34.5 28.8125Z" fill="#A8B1EF"/>
</svg>
