<svg width="37" height="37" viewBox="0 0 37 37" fill="none" xmlns="http://www.w3.org/2000/svg">
<path d="M0 18.5C0 8.28273 8.28273 0 18.5 0C28.7173 0 37 8.28273 37 18.5C37 28.7173 28.7173 37 18.5 37C8.28273 37 0 28.7173 0 18.5Z" fill="#D9E1FF"/>
<path d="M24.0489 25.0005H13.6489C13.4765 25.0005 13.3112 24.932 13.1893 24.8101C13.0674 24.6882 12.9989 24.5229 12.9989 24.3505V12.6505C12.9989 12.4781 13.0674 12.3128 13.1893 12.1909C13.3112 12.069 13.4765 12.0005 13.6489 12.0005H24.0489C24.2213 12.0005 24.3866 12.069 24.5085 12.1909C24.6304 12.3128 24.6989 12.4781 24.6989 12.6505V24.3505C24.6989 24.5229 24.6304 24.6882 24.5085 24.8101C24.3866 24.932 24.2213 25.0005 24.0489 25.0005ZM16.2489 15.2505V16.5505H21.4489V15.2505H16.2489ZM16.2489 17.8505V19.1505H21.4489V17.8505H16.2489ZM16.2489 20.4505V21.7505H19.4989V20.4505H16.2489Z" fill="#687BFE"/>
</svg>
