<svg width="37" height="37" viewBox="0 0 37 37" fill="none" xmlns="http://www.w3.org/2000/svg">
<rect opacity="0.2" width="37" height="37" rx="18.5" fill="#A8B1EF"/>
<path d="M16.6995 18.5H18.1842C19.0008 18.5 19.7839 18.8244 20.3614 19.4018C20.9388 19.9792 21.2632 20.7624 21.2632 21.5789H16.473L16.4737 22.2632H21.9474V21.5789C21.9452 20.8509 21.7349 20.1387 21.3412 19.5263H23.3158C23.9625 19.5261 24.5961 19.7093 25.143 20.0546C25.6899 20.3998 26.1277 20.893 26.4057 21.477C24.7875 23.6124 22.1677 25 19.2105 25C17.3214 25 15.7211 24.5963 14.4211 23.8882V17.5223C15.2535 17.6415 16.0395 17.9788 16.6995 18.5ZM13.7368 23.6316C13.7368 23.813 13.6648 23.9871 13.5364 24.1154C13.4081 24.2437 13.2341 24.3158 13.0526 24.3158H11.6842C11.5027 24.3158 11.3287 24.2437 11.2004 24.1154C11.0721 23.9871 11 23.813 11 23.6316V17.4737C11 17.2922 11.0721 17.1182 11.2004 16.9899C11.3287 16.8616 11.5027 16.7895 11.6842 16.7895H13.0526C13.2341 16.7895 13.4081 16.8616 13.5364 16.9899C13.6648 17.1182 13.7368 17.2922 13.7368 17.4737V23.6316ZM22.6316 14.0526C23.176 14.0526 23.6981 14.2689 24.083 14.6538C24.468 15.0388 24.6842 15.5609 24.6842 16.1053C24.6842 16.6497 24.468 17.1718 24.083 17.5567C23.6981 17.9416 23.176 18.1579 22.6316 18.1579C22.0872 18.1579 21.5651 17.9416 21.1801 17.5567C20.7952 17.1718 20.5789 16.6497 20.5789 16.1053C20.5789 15.5609 20.7952 15.0388 21.1801 14.6538C21.5651 14.2689 22.0872 14.0526 22.6316 14.0526ZM17.8421 12C18.3865 12 18.9086 12.2163 19.2935 12.6012C19.6785 12.9861 19.8947 13.5082 19.8947 14.0526C19.8947 14.597 19.6785 15.1191 19.2935 15.5041C18.9086 15.889 18.3865 16.1053 17.8421 16.1053C17.2977 16.1053 16.7756 15.889 16.3907 15.5041C16.0057 15.1191 15.7895 14.597 15.7895 14.0526C15.7895 13.5082 16.0057 12.9861 16.3907 12.6012C16.7756 12.2163 17.2977 12 17.8421 12Z" fill="#A8B1EF"/>
</svg>
