<svg width="13" height="12" viewBox="0 0 13 12" fill="none" xmlns="http://www.w3.org/2000/svg">
<path d="M12.381 2H8.04762C7.06253 2 6.11779 2.42143 5.42122 3.17157C4.72466 3.92172 4.33333 4.93913 4.33333 6C4.33333 7.06087 4.72466 8.07828 5.42122 8.82843C6.11779 9.57857 7.06253 10 8.04762 10H12.381V11.3333C12.381 11.5101 12.3157 11.6797 12.1996 11.8047C12.0835 11.9298 11.9261 12 11.7619 12H0.619048C0.454866 12 0.297409 11.9298 0.181315 11.8047C0.0652209 11.6797 0 11.5101 0 11.3333V0.666667C0 0.489856 0.0652209 0.320286 0.181315 0.195262C0.297409 0.0702379 0.454866 0 0.619048 0H11.7619C11.9261 0 12.0835 0.0702379 12.1996 0.195262C12.3157 0.320286 12.381 0.489856 12.381 0.666667V2ZM8.04762 3.33333H13V8.66667H8.04762C7.39089 8.66667 6.76106 8.38572 6.29669 7.88562C5.83231 7.38552 5.57143 6.70724 5.57143 6C5.57143 5.29276 5.83231 4.61448 6.29669 4.11438C6.76106 3.61428 7.39089 3.33333 8.04762 3.33333ZM8.04762 5.33333V6.66667H9.90476V5.33333H8.04762Z" fill="#38D086"/>
</svg>
