<svg width="37" height="37" viewBox="0 0 37 37" fill="none" xmlns="http://www.w3.org/2000/svg">
<rect opacity="0.2" width="37" height="37" rx="18.5" fill="#EA7E32"/>
<path d="M13.2331 22.309L15.7746 19.7675L17.6134 21.6057L20.5846 18.6352L21.75 19.8V16.55H18.5L19.6655 17.7154L17.6134 19.7675L15.7752 17.9286L12.5603 21.1435C12.1898 20.3116 11.9988 19.4108 12 18.5C12 14.91 14.9101 12 18.5 12C22.09 12 25 14.91 25 18.5C25 22.0899 22.09 25 18.5 25C17.4717 25.0007 16.458 24.757 15.5422 24.2892C14.6265 23.8213 13.8351 23.1426 13.2331 22.309V22.309Z" fill="#FF7F5F"/>
</svg>
