<svg width="13" height="13" viewBox="0 0 13 13" fill="none" xmlns="http://www.w3.org/2000/svg">
<path d="M7.15001 10.2632V11.6316H9.75001V13H3.25002V11.6316H5.85002V10.2632H0.644825C0.559471 10.2626 0.475057 10.2444 0.39642 10.2094C0.317784 10.1745 0.246471 10.1235 0.18657 10.0595C0.12667 9.99553 0.0793577 9.9197 0.0473468 9.83641C0.0153359 9.75312 -0.000744777 9.664 2.64848e-05 9.57416V0.689C2.64848e-05 0.308579 0.295776 0 0.644825 0H12.3552C12.7114 0 13 0.307211 13 0.689V9.57416C13 9.95458 12.7043 10.2632 12.3552 10.2632H7.15001Z" fill="#6B75B5"/>
</svg>
