<svg width="13" height="11" viewBox="0 0 13 11" fill="none" xmlns="http://www.w3.org/2000/svg">
<path d="M4.80947 5.5H6.06236C6.75143 5.5 7.41228 5.77448 7.89953 6.26306C8.38677 6.75165 8.66051 7.4143 8.66051 8.10526H4.61836L4.61894 8.68421H9.23787V8.10526C9.23605 7.48924 9.05856 6.88659 8.72633 6.36842H10.3926C10.9384 6.36827 11.473 6.52325 11.9345 6.81539C12.396 7.10754 12.7654 7.52487 13 8.019C11.6345 9.82589 9.42379 11 6.92841 11C5.3343 11 3.98383 10.6584 2.88684 10.0592V4.67268C3.58927 4.77358 4.25258 5.05901 4.80947 5.5ZM2.30947 9.8421C2.30947 9.99565 2.24864 10.1429 2.14036 10.2515C2.03208 10.3601 1.88523 10.4211 1.7321 10.4211H0.577367C0.42424 10.4211 0.277384 10.3601 0.169107 10.2515C0.0608296 10.1429 0 9.99565 0 9.8421V4.63158C0 4.47803 0.0608296 4.33078 0.169107 4.2222C0.277384 4.11363 0.42424 4.05263 0.577367 4.05263H1.7321C1.88523 4.05263 2.03208 4.11363 2.14036 4.2222C2.24864 4.33078 2.30947 4.47803 2.30947 4.63158V9.8421ZM9.81524 1.73684C10.2746 1.73684 10.7152 1.91983 11.04 2.24555C11.3649 2.57127 11.5473 3.01305 11.5473 3.47368C11.5473 3.93432 11.3649 4.3761 11.04 4.70182C10.7152 5.02754 10.2746 5.21053 9.81524 5.21053C9.35586 5.21053 8.91529 5.02754 8.59046 4.70182C8.26563 4.3761 8.08314 3.93432 8.08314 3.47368C8.08314 3.01305 8.26563 2.57127 8.59046 2.24555C8.91529 1.91983 9.35586 1.73684 9.81524 1.73684ZM5.77367 0C6.23305 0 6.67362 0.182988 6.99845 0.508709C7.32329 0.83443 7.50577 1.2762 7.50577 1.73684C7.50577 2.19748 7.32329 2.63925 6.99845 2.96497C6.67362 3.2907 6.23305 3.47368 5.77367 3.47368C5.31429 3.47368 4.87372 3.2907 4.54889 2.96497C4.22406 2.63925 4.04157 2.19748 4.04157 1.73684C4.04157 1.2762 4.22406 0.83443 4.54889 0.508709C4.87372 0.182988 5.31429 0 5.77367 0Z" fill="#6B75B5"/>
</svg>
