<svg width="100" height="100" viewBox="0 0 100 100" fill="none" xmlns="http://www.w3.org/2000/svg">
<g filter="url(#filter0_d_4274_360194)">
<rect x="14" y="10" width="72" height="72" rx="36" fill="#687BFE" shape-rendering="crispEdges"/>
<path d="M45.6285 55.7218C48.5817 55.7218 50.9757 53.3278 50.9757 50.3746C50.9757 47.4213 48.5817 45.0273 45.6285 45.0273C42.6753 45.0273 40.2812 47.4213 40.2812 50.3746C40.2812 51.3485 40.5416 52.2616 40.9966 53.0482L40.5486 55.4544L42.9549 55.0064C43.7414 55.4614 44.6545 55.7218 45.6285 55.7218Z" stroke="white" stroke-width="1.45833" stroke-linecap="round" stroke-linejoin="round"/>
<path d="M53.1946 51.7335C54.1438 51.5806 55.0354 51.2559 55.8367 50.7923L59.3367 51.444L58.6851 47.944C59.3469 46.8 59.7256 45.4717 59.7256 44.0551C59.7256 39.7596 56.2434 36.2773 51.9479 36.2773C48.0323 36.2773 44.7926 39.1707 44.25 42.9359" stroke="white" stroke-width="1.45833" stroke-linecap="round" stroke-linejoin="round"/>
</g>
<defs>
<filter id="filter0_d_4274_360194" x="0.388889" y="0.277778" width="99.2222" height="99.2222" filterUnits="userSpaceOnUse" color-interpolation-filters="sRGB">
<feFlood flood-opacity="0" result="BackgroundImageFix"/>
<feColorMatrix in="SourceAlpha" type="matrix" values="0 0 0 0 0 0 0 0 0 0 0 0 0 0 0 0 0 0 127 0" result="hardAlpha"/>
<feOffset dy="3.88889"/>
<feGaussianBlur stdDeviation="6.80556"/>
<feComposite in2="hardAlpha" operator="out"/>
<feColorMatrix type="matrix" values="0 0 0 0 0.576471 0 0 0 0 0.580392 0 0 0 0 0.654902 0 0 0 0.17 0"/>
<feBlend mode="normal" in2="BackgroundImageFix" result="effect1_dropShadow_4274_360194"/>
<feBlend mode="normal" in="SourceGraphic" in2="effect1_dropShadow_4274_360194" result="shape"/>
</filter>
</defs>
</svg>
