<svg width="56" height="57" viewBox="0 0 56 57" fill="none" xmlns="http://www.w3.org/2000/svg">
<rect opacity="0.4" y="0.542969" width="56" height="56.3996" rx="28" fill="white"/>
<path d="M29.3436 32.9191L25.6494 33.7099C25.5054 33.7257 25.3601 33.7257 25.2161 33.7099C24.7036 33.7143 24.2112 33.5111 23.8511 33.1466C23.3882 32.6718 23.1966 31.9952 23.3419 31.3482L24.1327 27.6649C24.3007 26.9406 24.6774 26.2815 25.2161 25.7691L31.3911 19.5941H21.6411C20.4328 19.5794 19.2697 20.0529 18.4152 20.9074C17.5607 21.7618 17.0872 22.9249 17.1019 24.1332V35.3457C17.1019 37.8227 19.1099 39.8307 21.5869 39.8307H32.8102C35.2872 39.8307 37.2952 37.8227 37.2952 35.3457V25.8232L31.2502 31.8791C30.7297 32.4042 30.0669 32.7657 29.3436 32.9191Z" fill="white"/>
<path fill-rule="evenodd" clip-rule="evenodd" d="M33.165 19.3682C34.4188 17.9298 36.5956 17.7657 38.0509 18.9998C38.6608 19.7021 38.965 20.619 38.8958 21.5466C38.8267 22.4742 38.3899 23.3358 37.6825 23.9398L30.4567 31.1657C30.0756 31.5261 29.5973 31.7672 29.0809 31.859L25.4192 32.6823C25.1179 32.7702 24.7929 32.6815 24.578 32.4528C24.363 32.2242 24.2946 31.8943 24.4009 31.599L25.1917 27.9157C25.3125 27.4139 25.5715 26.9561 25.9392 26.594L33.165 19.3682ZM33.6092 24.4165L36.0359 21.9898C36.3342 21.6697 36.3254 21.1708 36.016 20.8614C35.7065 20.552 35.2077 20.5432 34.8875 20.8415L32.4609 23.2682C32.144 23.5854 32.144 24.0993 32.4609 24.4165C32.7781 24.7333 33.292 24.7333 33.6092 24.4165Z" fill="white"/>
</svg>
