<svg width="56" height="57" viewBox="0 0 56 57" fill="none" xmlns="http://www.w3.org/2000/svg">
<rect opacity="0.2" y="0.230469" width="56" height="56.3996" rx="28" fill="#FF7F5F"/>
<rect x="16.7578" y="18.25" width="8.66667" height="8.66667" rx="2.25" fill="#FF7F5F"/>
<rect x="16.7578" y="29.082" width="8.66667" height="8.66667" rx="2.25" fill="#FF7F5F"/>
<path d="M29.7578 22.3125H35.1745C35.6232 22.3125 35.987 21.9487 35.987 21.5C35.987 21.0513 35.6232 20.6875 35.1745 20.6875H29.7578C29.3091 20.6875 28.9453 21.0513 28.9453 21.5C28.9453 21.9487 29.3091 22.3125 29.7578 22.3125Z" fill="#FF7F5F"/>
<path d="M29.7578 25.5625H38.4245C38.8732 25.5625 39.237 25.1987 39.237 24.75C39.237 24.3013 38.8732 23.9375 38.4245 23.9375H29.7578C29.3091 23.9375 28.9453 24.3013 28.9453 24.75C28.9453 25.1987 29.3091 25.5625 29.7578 25.5625Z" fill="#FF7F5F"/>
<path d="M29.7578 33.1445H35.1745C35.6232 33.1445 35.987 32.7808 35.987 32.332C35.987 31.8833 35.6232 31.5195 35.1745 31.5195H29.7578C29.3091 31.5195 28.9453 31.8833 28.9453 32.332C28.9453 32.7808 29.3091 33.1445 29.7578 33.1445Z" fill="#FF7F5F"/>
<path d="M38.4245 34.7695H29.7578C29.3091 34.7695 28.9453 35.1333 28.9453 35.582C28.9453 36.0308 29.3091 36.3945 29.7578 36.3945H38.4245C38.8732 36.3945 39.237 36.0308 39.237 35.582C39.237 35.1333 38.8732 34.7695 38.4245 34.7695Z" fill="#FF7F5F"/>
</svg>
