<svg width="70" height="70" viewBox="0 0 70 70" fill="none" xmlns="http://www.w3.org/2000/svg">
<rect opacity="0.2" width="70" height="70" rx="35" fill="#687BFE"/>
<path fill-rule="evenodd" clip-rule="evenodd" d="M32.816 28.8106C33.2165 28.8052 33.5399 28.4726 33.5451 28.0606V25.1406C33.5451 24.7264 33.2187 24.3906 32.816 24.3906C32.4133 24.3906 32.0868 24.7264 32.0868 25.1406V28.0606C32.0868 28.4748 32.4133 28.8106 32.816 28.8106ZM27.6811 26.819C27.9587 26.5334 28.4065 26.5253 28.6938 26.8006L30.7354 28.8606C30.8744 28.9999 30.9528 29.191 30.9528 29.3906C30.9528 29.5902 30.8744 29.7813 30.7354 29.9206C30.6001 30.0632 30.4139 30.1427 30.2201 30.1406C30.0132 30.1528 29.8113 30.0726 29.666 29.9206L27.6632 27.8606C27.3955 27.5651 27.4034 27.1046 27.6811 26.819ZM34.3521 31.5506L43.2479 34.4506C43.8781 34.6454 44.3387 35.2021 44.4247 35.8731C44.5107 36.5441 44.2061 37.2046 43.6465 37.5606L40.5354 39.5606C40.3346 39.6972 40.1626 39.8741 40.0299 40.0806L38.0854 43.2806C37.7295 43.8424 37.0886 44.1402 36.4435 44.0436C35.7983 43.9469 35.2666 43.4735 35.0812 42.8306L32.291 33.6706C32.099 33.0687 32.2525 32.4069 32.688 31.959C33.1235 31.511 33.7669 31.3531 34.3521 31.5506ZM36.0535 28.5506C35.9121 28.6901 35.7243 28.7688 35.5285 28.7706C35.3299 28.7578 35.1445 28.6643 35.0132 28.5106C34.8742 28.3713 34.7958 28.1802 34.7958 27.9806C34.7958 27.781 34.8742 27.5899 35.0132 27.4506L37.0257 25.4506C37.1528 25.3026 37.3322 25.2129 37.5239 25.2016C37.7157 25.1904 37.9038 25.2584 38.0465 25.3906C38.3309 25.6834 38.3309 26.1578 38.0465 26.4506L36.0535 28.5506ZM28.334 34.3606L26.3312 36.4506C26.0792 36.7335 26.0792 37.1677 26.3312 37.4506C26.4679 37.5913 26.6532 37.6704 26.8465 37.6706C27.039 37.6663 27.2229 37.5878 27.3618 37.4506L29.3646 35.4506C29.6489 35.1578 29.6489 34.6834 29.3646 34.3906C29.2331 34.2437 29.0495 34.1576 28.8555 34.1519C28.6614 34.1463 28.4733 34.2215 28.334 34.3606ZM26.0104 31.3906H28.8493C29.252 31.3906 29.5785 31.7264 29.5785 32.1406C29.5785 32.5548 29.252 32.8906 28.8493 32.8906H26.0104C25.6077 32.8906 25.2812 32.5548 25.2812 32.1406C25.2812 31.7264 25.6077 31.3906 26.0104 31.3906Z" fill="#687BFE"/>
</svg>
