<svg width="56" height="57" viewBox="0 0 56 57" fill="none" xmlns="http://www.w3.org/2000/svg">
<rect opacity="0.2" y="0.00390625" width="56" height="56.3996" rx="28" fill="#38D086"/>
<path d="M33.0299 39.1152H22.9766C21.8815 39.0751 20.8614 38.5446 20.1949 37.6686C19.5285 36.7926 19.2852 35.6627 19.5316 34.5873L19.7916 33.3435C20.0906 31.6597 21.5277 30.4224 23.2257 30.3867H32.7807C34.4787 30.4224 35.9159 31.6597 36.2149 33.3435L36.4749 34.5873C36.7213 35.6627 36.478 36.7926 35.8115 37.6686C35.145 38.5446 34.125 39.0751 33.0299 39.1152Z" fill="#38D086"/>
<path d="M28.5417 28.2036H27.4584C25.0651 28.2036 23.125 26.2497 23.125 23.8394V20.959C23.1221 19.9858 23.5047 19.0516 24.188 18.3635C24.8712 17.6754 25.7987 17.2901 26.765 17.293H29.235C30.2013 17.2901 31.1288 17.6754 31.8121 18.3635C32.4953 19.0516 32.8779 19.9858 32.875 20.959V23.8394C32.875 24.9968 32.4185 26.1069 31.6058 26.9254C30.7932 27.7438 29.691 28.2036 28.5417 28.2036Z" fill="#38D086"/>
</svg>
