<svg width="70" height="70" viewBox="0 0 70 70" fill="none" xmlns="http://www.w3.org/2000/svg">
<rect opacity="0.2" width="70" height="70" rx="35" fill="#687BFE"/>
<path d="M40.0824 26.1987L33.81 37.1783C33.6893 37.3872 33.6883 37.6443 33.8072 37.8542C33.9261 38.064 34.1473 38.1953 34.3884 38.1991H37.9614C38.7068 38.1991 39.3111 38.8034 39.3111 39.5489V44.0859C39.312 44.3858 39.5089 44.6497 39.7961 44.7359C40.0833 44.8221 40.3931 44.7101 40.5588 44.4602L46.7292 35.1933C46.8677 34.988 46.8815 34.723 46.7651 34.5044C46.6487 34.2858 46.4211 34.1494 46.1734 34.1498H42.6459C41.8941 34.1498 41.2847 33.5404 41.2847 32.7887V26.5049C41.248 26.2347 41.051 26.0138 40.7868 25.9465C40.5226 25.8792 40.2439 25.979 40.0824 26.1987Z" fill="#687BFE"/>
<path d="M31.3108 30.5881H25.8663C25.3965 30.5881 25.0156 30.2072 25.0156 29.7374C25.0156 29.2676 25.3965 28.8867 25.8663 28.8867H31.3108C31.7806 28.8867 32.1615 29.2676 32.1615 29.7374C32.1615 30.2072 31.7806 30.5881 31.3108 30.5881Z" fill="#687BFE"/>
<path d="M29.9514 35.9514H24.5069C24.203 35.9514 23.9222 35.7892 23.7702 35.526C23.6183 35.2628 23.6183 34.9386 23.7702 34.6753C23.9222 34.4121 24.203 34.25 24.5069 34.25H29.9514C30.4212 34.25 30.8021 34.6309 30.8021 35.1007C30.8021 35.5705 30.4212 35.9514 29.9514 35.9514Z" fill="#687BFE"/>
<path d="M31.3108 42.4983H25.8663C25.3965 42.4983 25.0156 42.1174 25.0156 41.6476C25.0156 41.1777 25.3965 40.7969 25.8663 40.7969H31.3108C31.7806 40.7969 32.1615 41.1777 32.1615 41.6476C32.1615 42.1174 31.7806 42.4983 31.3108 42.4983Z" fill="#687BFE"/>
</svg>
