<svg width="70" height="70" viewBox="0 0 70 70" fill="none" xmlns="http://www.w3.org/2000/svg">
<rect opacity="0.2" width="70" height="70" rx="35" fill="#687BFE"/>
<path fill-rule="evenodd" clip-rule="evenodd" d="M38.9057 25.5731V25.3803C38.9057 24.4281 38.1338 23.6562 37.1816 23.6562H32.0321C31.0799 23.6562 30.308 24.4281 30.308 25.3803V25.5391C27.8225 25.7464 25.9152 27.8316 25.9298 30.3257V42.3942C25.9298 43.6657 26.4356 44.8849 27.3357 45.7829C28.2358 46.6808 29.4562 47.1838 30.7277 47.1808H38.4974C39.7688 47.1838 40.9892 46.6808 41.8893 45.7829C42.7894 44.8849 43.2953 43.6657 43.2953 42.3942V30.3257C43.2862 27.8428 41.3801 25.7791 38.9057 25.5731ZM32.0309 25.3803H37.2031V26.7301H32.0309V25.3803ZM34.6655 31.7549H31.1266C30.6568 31.7549 30.2759 32.1357 30.2759 32.6056C30.2759 33.0754 30.6568 33.4563 31.1266 33.4563H34.6655C35.1353 33.4563 35.5162 33.0754 35.5162 32.6056C35.5162 32.1357 35.1353 31.7549 34.6655 31.7549ZM37.1495 40.3185H31.1266C30.6568 40.3185 30.2759 39.9376 30.2759 39.4678C30.2759 38.998 30.6568 38.6171 31.1266 38.6171H37.1495C37.6193 38.6171 38.0002 38.998 38.0002 39.4678C38.0002 39.9376 37.6193 40.3185 37.1495 40.3185ZM31.1266 36.9951H38.0909C38.5608 36.9951 38.9416 36.6143 38.9416 36.1444C38.9416 35.6746 38.5608 35.2938 38.0909 35.2938H31.1266C30.6568 35.2938 30.2759 35.6746 30.2759 36.1444C30.2759 36.6143 30.6568 36.9951 31.1266 36.9951Z" fill="#687BFE"/>
</svg>
