<svg width="60" height="60" viewBox="0 0 60 60" fill="none" xmlns="http://www.w3.org/2000/svg">
<rect opacity="0.2" width="60" height="60" rx="30" fill="#687BFE"/>
<g clip-path="url(#clip0_4354_360888)">
<path d="M21.3468 36.206C20.1452 34.9297 19.5 33.4982 19.5 31.1777C19.5 27.0943 22.3665 23.4345 26.535 21.625L27.5768 23.2327C23.686 25.3373 22.9253 28.0685 22.622 29.7905C23.2485 29.4662 24.0687 29.353 24.8725 29.4277C26.9772 29.6225 28.6362 31.3503 28.6362 33.4982C28.6362 34.5811 28.206 35.6197 27.4402 36.3855C26.6744 37.1513 25.6358 37.5815 24.5528 37.5815C23.301 37.5815 22.104 37.0098 21.3468 36.206ZM33.0135 36.206C31.8118 34.9297 31.1667 33.4982 31.1667 31.1777C31.1667 27.0943 34.0332 23.4345 38.2017 21.625L39.2435 23.2327C35.3527 25.3373 34.592 28.0685 34.2887 29.7905C34.9152 29.4662 35.7353 29.353 36.5392 29.4277C38.6438 29.6225 40.3028 31.3503 40.3028 33.4982C40.3028 34.5811 39.8726 35.6197 39.1069 36.3855C38.3411 37.1513 37.3025 37.5815 36.2195 37.5815C34.9677 37.5815 33.7707 37.0098 33.0135 36.206Z" fill="#687BFE"/>
</g>
<defs>
<clipPath id="clip0_4354_360888">
<rect width="28" height="28" fill="white" transform="translate(16 16)"/>
</clipPath>
</defs>
</svg>
