<svg width="60" height="60" viewBox="0 0 60 60" fill="none" xmlns="http://www.w3.org/2000/svg">
<rect opacity="0.2" width="60" height="60" rx="30" fill="#38D086"/>
<path d="M30.2191 29.2397C32.1295 29.24 33.6872 27.7082 33.7191 25.798V24.4914C33.7192 23.7159 33.4079 22.9728 32.8552 22.4288C32.3024 21.8848 31.5545 21.5855 30.7791 21.598H29.6707C28.0773 21.6045 26.789 22.898 26.7891 24.4914V25.798C26.8201 27.6813 28.3359 29.2023 30.2191 29.2397Z" fill="#38D086"/>
<path d="M42.5853 35.2591L42.4453 33.4975C42.294 32.6128 41.5344 31.961 40.637 31.9458H35.597C35.5197 31.9338 35.441 31.9338 35.3637 31.9458C34.9165 31.4436 34.2744 31.1587 33.602 31.1641H26.847C26.1349 31.161 25.4604 31.4833 25.0153 32.0391C24.8247 31.9694 24.6233 31.9339 24.4203 31.9341H19.3803C18.4792 31.9503 17.7183 32.6081 17.572 33.4975L17.432 35.3175C17.3148 35.8756 17.4495 36.457 17.8002 36.9067C18.151 37.3564 18.6821 37.6286 19.252 37.6508H24.5603C24.665 37.6629 24.7707 37.6629 24.8753 37.6508C25.3381 38.1615 25.9945 38.4538 26.6837 38.4558H33.7653C34.4335 38.4526 35.0708 38.1741 35.527 37.6858H40.7653C41.3559 37.6695 41.9067 37.3845 42.2612 36.9119C42.6157 36.4392 42.735 35.8307 42.5853 35.2591Z" fill="#38D086"/>
<path d="M38.1797 30.1276C39.5972 30.1276 40.7464 28.9785 40.7464 27.5609V26.5693C40.7466 25.9866 40.5112 25.4286 40.0937 25.0221C39.6762 24.6156 39.1122 24.3952 38.5297 24.4109H37.713C36.521 24.4109 35.5547 25.3773 35.5547 26.5693V27.5609C35.5545 28.2519 35.8329 28.9137 36.327 29.3968C36.821 29.8798 37.4889 30.1433 38.1797 30.1276Z" fill="#38D086"/>
<path d="M21.8948 30.1268C23.3123 30.1268 24.4615 28.9777 24.4615 27.5602V26.5685C24.4615 25.3765 23.4951 24.4102 22.3031 24.4102H21.4865C20.2944 24.4102 19.3281 25.3765 19.3281 26.5685V27.5602C19.3281 28.9777 20.4773 30.1268 21.8948 30.1268Z" fill="#38D086"/>
</svg>
