<svg width="60" height="60" viewBox="0 0 60 60" fill="none" xmlns="http://www.w3.org/2000/svg">
<rect opacity="0.2" width="60" height="60" rx="30" fill="#38D086"/>
<path fill-rule="evenodd" clip-rule="evenodd" d="M32.8626 20.4371L38.6984 24.7476C39.8231 25.5615 40.4923 26.863 40.5 28.2513V36.0544C40.4277 38.5566 38.3494 40.5312 35.8468 40.4755H24.1642C21.6574 40.5374 19.5723 38.561 19.5 36.0544V28.2513C19.5077 26.863 20.1769 25.5615 21.3016 24.7476L27.1374 20.4371C28.8413 19.1876 31.1587 19.1876 32.8626 20.4371ZM25.0236 35.8022H34.9709C35.4287 35.8022 35.7999 35.4311 35.7999 34.9733C35.7999 34.5154 35.4287 34.1443 34.9709 34.1443H25.0236C24.5657 34.1443 24.1946 34.5154 24.1946 34.9733C24.1946 35.4311 24.5657 35.8022 25.0236 35.8022Z" fill="#38D086"/>
</svg>
