<svg width="24" height="24" viewBox="0 0 24 24" fill="none" xmlns="http://www.w3.org/2000/svg">
<path d="M7.29253 21.3898C10.2458 21.3898 12.6398 18.9958 12.6398 16.0425C12.6398 13.0893 10.2458 10.6953 7.29253 10.6953C4.33934 10.6953 1.94531 13.0893 1.94531 16.0425C1.94531 17.0165 2.2057 17.9296 2.66067 18.7161L2.21267 21.1224L4.61892 20.6744C5.40543 21.1294 6.31857 21.3898 7.29253 21.3898Z" stroke="white" stroke-width="1.45833" stroke-linecap="round" stroke-linejoin="round"/>
<path d="M14.8587 17.4015C15.8079 17.2486 16.6995 16.9239 17.5008 16.4603L21.0008 17.112L20.3491 13.612C21.0109 12.468 21.3897 11.1397 21.3897 9.72309C21.3897 5.42754 17.9075 1.94531 13.6119 1.94531C9.69641 1.94531 6.45667 4.83863 5.91406 8.60391" stroke="white" stroke-width="1.45833" stroke-linecap="round" stroke-linejoin="round"/>
</svg>
