<svg width="99" height="99" viewBox="0 0 99 99" fill="none" xmlns="http://www.w3.org/2000/svg">
<g filter="url(#filter0_d_4354_361014)">
<rect x="14" y="10" width="71.3333" height="71.3333" rx="35.6667" fill="#687BFE" shape-rendering="crispEdges"/>
<path d="M45.2925 55.3898C48.2458 55.3898 50.6398 52.9958 50.6398 50.0425C50.6398 47.0893 48.2458 44.6953 45.2925 44.6953C42.3393 44.6953 39.9453 47.0893 39.9453 50.0425C39.9453 51.0165 40.2057 51.9296 40.6607 52.7161L40.2127 55.1224L42.6189 54.6744C43.4054 55.1294 44.3186 55.3898 45.2925 55.3898Z" stroke="white" stroke-width="1.45833" stroke-linecap="round" stroke-linejoin="round"/>
<path d="M52.8587 51.4015C53.8079 51.2486 54.6995 50.9239 55.5008 50.4603L59.0008 51.112L58.3491 47.612C59.0109 46.468 59.3897 45.1397 59.3897 43.7231C59.3897 39.4275 55.9075 35.9453 51.6119 35.9453C47.6964 35.9453 44.4567 38.8386 43.9141 42.6039" stroke="white" stroke-width="1.45833" stroke-linecap="round" stroke-linejoin="round"/>
</g>
<defs>
<filter id="filter0_d_4354_361014" x="0.388889" y="0.277778" width="98.5582" height="98.5543" filterUnits="userSpaceOnUse" color-interpolation-filters="sRGB">
<feFlood flood-opacity="0" result="BackgroundImageFix"/>
<feColorMatrix in="SourceAlpha" type="matrix" values="0 0 0 0 0 0 0 0 0 0 0 0 0 0 0 0 0 0 127 0" result="hardAlpha"/>
<feOffset dy="3.88889"/>
<feGaussianBlur stdDeviation="6.80556"/>
<feComposite in2="hardAlpha" operator="out"/>
<feColorMatrix type="matrix" values="0 0 0 0 0.576471 0 0 0 0 0.580392 0 0 0 0 0.654902 0 0 0 0.17 0"/>
<feBlend mode="normal" in2="BackgroundImageFix" result="effect1_dropShadow_4354_361014"/>
<feBlend mode="normal" in="SourceGraphic" in2="effect1_dropShadow_4354_361014" result="shape"/>
</filter>
</defs>
</svg>
