<svg width="277" height="284" viewBox="0 0 277 284" fill="none" xmlns="http://www.w3.org/2000/svg">
<g opacity="0.5">
<path d="M208.346 177.338C208.449 177.418 208.552 177.499 208.655 177.579C208.658 177.617 208.551 177.534 208.346 177.338Z" fill="#B0C5DE"/>
<path d="M2.97246 185.092L11.9812 179.631L2.74723 174.56L2.97246 185.092ZM208.655 177.579L209.566 177.525L209.542 177.113L209.216 176.859L208.655 177.579ZM7.7024 178.373C19.603 158.819 42.2531 137.527 75.5409 131.698C108.813 125.871 152.912 135.459 207.786 178.059L208.905 176.618C153.769 133.814 109.16 123.958 75.2261 129.9C41.3071 135.84 18.2511 157.53 6.14369 177.424L7.7024 178.373ZM207.786 178.059C207.889 178.139 207.992 178.219 208.095 178.299L209.216 176.859C209.112 176.778 209.009 176.698 208.905 176.618L207.786 178.059ZM207.745 177.632C207.74 177.548 207.741 177.374 207.836 177.181C207.947 176.956 208.143 176.793 208.372 176.719C208.566 176.657 208.73 176.676 208.808 176.69C208.894 176.706 208.958 176.73 208.992 176.745C209.06 176.773 209.104 176.803 209.115 176.81C209.123 176.815 209.13 176.82 209.133 176.822C209.135 176.823 209.136 176.824 209.137 176.825C209.137 176.825 209.138 176.826 209.138 176.826C209.138 176.826 209.138 176.826 209.137 176.825C209.136 176.825 209.135 176.824 209.134 176.823C209.132 176.821 209.128 176.818 209.124 176.814C209.115 176.807 209.104 176.797 209.089 176.784C209.06 176.758 209.023 176.723 208.976 176.679L207.715 177.998C207.822 178.099 207.928 178.196 208.019 178.267C208.046 178.288 208.148 178.369 208.281 178.425C208.322 178.442 208.392 178.469 208.482 178.485C208.565 178.5 208.733 178.52 208.931 178.456C209.162 178.382 209.36 178.216 209.473 177.988C209.569 177.793 209.571 177.615 209.566 177.525L207.745 177.632ZM208.976 176.679C207.517 175.284 200.684 167.706 192.892 157.003C185.105 146.305 176.412 132.554 171.185 118.815C165.944 105.039 164.273 91.5047 170.171 81.0548C176.048 70.6432 189.65 62.9366 215.845 61.3187L215.732 59.4975C189.308 61.1295 174.914 68.9404 168.582 80.1579C162.273 91.3372 164.183 105.544 169.479 119.464C174.789 133.421 183.589 147.322 191.417 158.076C199.242 168.825 206.147 176.498 207.715 177.998L208.976 176.679Z" fill="#B0C5DE"/>
<circle cx="220.459" cy="60.8055" r="6.61785" transform="rotate(-48.2944 220.459 60.8055)" fill="#B0C5DE" stroke="#B0C5DE" stroke-width="0.970886"/>
</g>
</svg>
