<svg width="337" height="400" viewBox="0 0 337 400" fill="none" xmlns="http://www.w3.org/2000/svg">
<path opacity="0.4" d="M336.718 5.16085L308.358 0.361437L318.411 27.5091L336.718 5.16085ZM107.827 313.503L108.985 311.281L107.827 313.503ZM213.268 69.9709L211.645 68.0672L213.268 69.9709ZM8.15419 275.085L9.86766 276.906L8.15419 275.085ZM221.238 183.469L219.349 185.105L221.238 183.469ZM303.238 15.7931C296.652 18.6209 289.423 21.8481 281.897 25.4107L284.015 29.9533C291.478 26.4202 298.652 23.2179 305.191 20.4102L303.238 15.7931ZM260.915 35.9025C254.009 39.5604 247.113 43.4405 240.47 47.4985L243.052 51.7902C249.594 47.794 256.4 43.964 263.232 40.345L260.915 35.9025ZM220.89 60.6526C217.644 63.0817 214.548 65.5557 211.645 68.0672L214.891 71.8746C217.692 69.4502 220.695 67.05 223.859 64.6819L220.89 60.6526ZM211.645 68.0672C208.944 70.4048 206.193 72.8143 203.402 75.2899L206.694 79.0567C209.469 76.5949 212.204 74.199 214.891 71.8746L211.645 68.0672ZM187.162 90.0586C181.914 94.9515 176.602 100.026 171.287 105.247L174.764 108.84C180.046 103.651 185.327 98.6073 190.545 93.7423L187.162 90.0586ZM155.826 120.873C150.762 126.145 145.75 131.523 140.847 136.979L144.539 140.348C149.402 134.937 154.376 129.599 159.405 124.364L155.826 120.873ZM126.449 153.626C121.7 159.349 117.121 165.122 112.775 170.914L116.747 173.941C121.04 168.221 125.567 162.512 130.27 156.846L126.449 153.626ZM100.053 188.97C95.8737 195.338 92.046 201.693 88.6519 207.991L93.029 210.386C96.3453 204.233 100.097 198.003 104.207 191.738L100.053 188.97ZM79.2548 228.192C76.4257 235.533 74.3376 242.75 73.1472 249.762L78.0568 250.608C79.1809 243.988 81.1659 237.098 83.8981 230.008L79.2548 228.192ZM72.7484 272.455C73.948 280.045 76.6323 287.203 81.0307 293.774L85.1604 290.968C81.1883 285.033 78.7588 278.571 77.6675 271.666L72.7484 272.455ZM97.0253 309.829C99.9612 311.908 103.173 313.875 106.67 315.725L108.985 311.281C105.663 309.524 102.637 307.668 99.8895 305.723L97.0253 309.829ZM106.67 315.725C110.053 317.514 113.58 318.845 117.213 319.756L118.416 314.886C115.157 314.069 112.004 312.877 108.985 311.281L106.67 315.725ZM139.427 320.55C146.43 319.487 153.525 317.305 160.508 314.233L158.515 309.634C151.866 312.559 145.192 314.6 138.685 315.587L139.427 320.55ZM179.583 303.508C185.502 299.443 191.209 294.816 196.561 289.77L193.158 286.105C187.984 290.983 182.477 295.447 176.778 299.36L179.583 303.508ZM211.315 273.651C215.907 267.815 219.999 261.681 223.437 255.395L219.075 252.973C215.78 258.996 211.845 264.899 207.412 270.533L211.315 273.651ZM231.986 235.068C234.146 227.662 235.236 220.228 234.988 213.004L230.01 213.178C230.237 219.779 229.243 226.673 227.207 233.653L231.986 235.068ZM229.46 191.227C227.764 187.948 225.661 184.806 223.127 181.834L219.349 185.105C221.638 187.79 223.525 190.612 225.043 193.547L229.46 191.227ZM223.127 181.834C220.609 178.882 217.972 176.27 215.224 173.984L212.053 177.855C214.57 179.949 217.006 182.357 219.349 185.105L223.127 181.834ZM195.699 163.525C188.704 161.493 181.348 160.9 173.752 161.495L174.139 166.499C181.23 165.943 187.978 166.505 194.319 168.347L195.699 163.525ZM152.397 165.917C145.82 168.035 139.123 170.816 132.36 174.135L134.54 178.647C141.129 175.414 147.603 172.729 153.913 170.698L152.397 165.917ZM113.523 184.587C107.565 188.247 101.582 192.234 95.6084 196.47L98.4748 200.574C104.372 196.392 110.264 192.467 116.116 188.872L113.523 184.587ZM78.4255 209.314C72.8402 213.69 67.2887 218.224 61.7999 222.85L64.9955 226.699C70.4454 222.106 75.9506 217.611 81.483 213.276L78.4255 209.314ZM45.6182 236.881C40.234 241.67 34.9404 246.491 29.7672 251.276L33.1356 254.973C38.2897 250.205 43.5589 245.407 48.9147 240.643L45.6182 236.881ZM14.1668 265.906C11.547 268.391 8.97007 270.847 6.44071 273.264L9.86766 276.906C12.3942 274.492 14.9667 272.04 17.581 269.56L14.1668 265.906ZM6.44071 273.264C3.37539 276.192 0.408886 279.145 -2.46087 282.112L1.10614 285.614C3.9313 282.694 6.85112 279.787 9.86766 276.906L6.44071 273.264ZM-19.1793 300.777C-24.7396 307.476 -29.8347 314.141 -34.4886 320.659L-30.4454 323.59C-25.8577 317.165 -20.8364 310.596 -15.3584 303.996L-19.1793 300.777ZM-48.3369 341.577C-53.1302 349.4 -57.2319 356.767 -60.6934 363.434L-56.28 365.76C-52.8687 359.191 -48.825 351.927 -44.0986 344.213L-48.3369 341.577ZM-71.4059 386.151C-72.9653 389.85 -74.1046 392.786 -74.8563 394.804C-75.2321 395.813 -75.5111 396.592 -75.6973 397.123C-75.7904 397.389 -75.8603 397.592 -75.9075 397.731C-75.9311 397.8 -75.949 397.853 -75.9613 397.89C-75.9675 397.908 -75.9722 397.923 -75.9756 397.933C-75.9773 397.938 -75.9786 397.942 -75.9796 397.945C-75.9801 397.946 -75.9805 397.947 -75.9808 397.948C-75.981 397.949 -75.9811 397.949 -75.9812 397.95C-75.9813 397.95 -75.9814 397.95 -75.9814 397.95C-75.9814 397.95 -75.9815 397.951 -73.6185 398.743C-71.2556 399.536 -71.2556 399.536 -71.2556 399.536C-71.2556 399.536 -71.2557 399.536 -71.2557 399.536C-71.2557 399.536 -71.2558 399.536 -71.2557 399.536C-71.2557 399.536 -71.2556 399.536 -71.2554 399.535C-71.255 399.534 -71.2542 399.532 -71.2532 399.529C-71.251 399.522 -71.2474 399.511 -71.2424 399.496C-71.2325 399.467 -71.217 399.421 -71.1958 399.359C-71.1536 399.234 -71.0888 399.046 -71.0008 398.795C-70.825 398.294 -70.5571 397.545 -70.1929 396.567C-69.4645 394.611 -68.3514 391.742 -66.8214 388.113L-71.4059 386.151Z" fill="white"/>
</svg>
