<svg width="277" height="224" viewBox="0 0 277 224" fill="none" xmlns="http://www.w3.org/2000/svg">
<g opacity="0.3">
<path d="M93.1202 152.544C93.0647 152.647 93.0091 152.75 92.9536 152.853C92.9655 152.885 93.0231 152.779 93.1202 152.544Z" fill="#A8B1EF"/>
<path d="M264.052 84.7892L247.056 83.1763L256.951 69.2635L264.052 84.7892ZM92.9536 152.853L91.568 153.369L91.3343 152.741L91.6522 152.151L92.9536 152.853ZM252.45 78.3466C234.926 67.8083 209.449 60.6848 181.416 69.0238C153.392 77.3604 122.535 101.234 94.4209 153.247L91.8195 151.841C120.176 99.3791 151.568 74.8177 180.573 66.1895C209.57 57.5637 235.903 64.9455 253.974 75.8125L252.45 78.3466ZM94.4209 153.247C94.3656 153.35 94.3104 153.452 94.2551 153.555L91.6522 152.151C91.7079 152.048 91.7637 151.944 91.8195 151.841L94.4209 153.247ZM94.3393 152.337C94.2907 152.207 94.1737 151.948 93.9061 151.724C93.5936 151.462 93.195 151.347 92.8073 151.388C92.4767 151.422 92.2449 151.558 92.1367 151.632C92.0183 151.712 91.9373 151.792 91.8946 151.838C91.8098 151.927 91.7587 152.006 91.7433 152.03C91.7219 152.063 91.7086 152.087 91.7042 152.095C91.6941 152.114 91.7088 152.088 91.7543 151.978L94.4862 153.11C94.4345 153.235 94.3719 153.379 94.3057 153.501C94.2906 153.529 94.2013 153.701 94.0475 153.865C94.0005 153.915 93.9155 153.998 93.7935 154.081C93.6817 154.157 93.4467 154.294 93.1131 154.329C92.7226 154.37 92.3213 154.254 92.0067 153.99C91.7368 153.764 91.618 153.503 91.568 153.369L94.3393 152.337ZM91.7543 151.978C92.4247 150.36 95.2746 141.733 97.7869 130.179C100.297 118.637 102.439 104.308 101.765 91.2582C101.088 78.1448 97.591 66.7204 89.2354 60.4754C80.9368 54.2731 67.2984 52.7906 45.3482 60.8886L44.3247 58.1143C66.6249 49.8871 81.5058 51.0066 91.0057 58.1068C100.449 65.1644 104.029 77.7428 104.719 91.1057C105.412 104.533 103.211 119.154 100.676 130.807C98.1448 142.45 95.2503 151.266 94.4862 153.11L91.7543 151.978Z" fill="#A8B1EF"/>
<circle r="7.0804" transform="matrix(-0.909891 -0.414847 -0.414847 0.909891 41.1563 61.5078)" fill="#A8B1EF" stroke="#A8B1EF" stroke-width="1.57342"/>
</g>
</svg>
