<svg width="240" height="175" viewBox="0 0 240 175" fill="none" xmlns="http://www.w3.org/2000/svg">
<path opacity="0.6" d="M0.932231 174.77L0.656689 157.452L15.7926 165.873L0.932231 174.77ZM181.888 121.65L183.377 121.473L181.888 121.65ZM39.4178 123.772L38.4919 122.592L39.4178 123.772ZM148.68 51.7289L149.538 52.9592L148.68 51.7289ZM115.994 162.479L116.885 161.272L115.994 162.479ZM5.67882 163.565C6.94776 161.479 8.38619 159.173 9.96493 156.734L12.4833 158.364C10.9215 160.777 9.49797 163.059 8.24183 165.124L5.67882 163.565ZM14.4608 150.014C15.9601 147.849 17.5393 145.644 19.1817 143.45L21.5834 145.248C19.9657 147.409 18.4081 149.584 16.9273 151.722L14.4608 150.014ZM24.1786 137.075C25.9182 134.963 27.7063 132.908 29.5263 130.959L31.7187 133.007C29.9472 134.904 28.2003 136.911 26.4942 138.983L24.1786 137.075ZM35.3492 125.23C36.3911 124.3 37.4397 123.418 38.4919 122.592L40.3437 124.953C39.3464 125.735 38.3467 126.576 37.3472 127.468L35.3492 125.23ZM38.4919 122.592C39.5544 121.759 40.667 120.93 41.8261 120.107L43.563 122.553C42.4402 123.35 41.366 124.151 40.3437 124.953L38.4919 122.592ZM48.769 115.575C51.0639 114.192 53.4806 112.833 55.9998 111.509L57.3958 114.164C54.9246 115.463 52.5592 116.793 50.318 118.145L48.769 115.575ZM63.4113 107.847C65.8706 106.705 68.4012 105.597 70.9885 104.531L72.1319 107.304C69.5839 108.355 67.0935 109.445 64.6752 110.568L63.4113 107.847ZM78.6823 101.543C81.252 100.604 83.8615 99.7094 86.4982 98.8638L87.4144 101.72C84.8156 102.554 82.2437 103.436 79.7114 104.361L78.6823 101.543ZM94.4102 96.4995C97.0678 95.7632 99.7404 95.0812 102.416 94.4592L103.095 97.3812C100.462 97.9935 97.8295 98.6652 95.2112 99.3906L94.4102 96.4995ZM110.501 92.7671C113.24 92.2586 115.971 91.8194 118.678 91.4559L119.077 94.4293C116.422 94.7858 113.741 95.2169 111.048 95.7167L110.501 92.7671ZM126.907 90.5844C129.72 90.37 132.492 90.2483 135.209 90.2273L135.232 93.2272C132.589 93.2476 129.885 93.3661 127.135 93.5757L126.907 90.5844ZM143.512 90.4999C146.374 90.7192 149.149 91.0729 151.816 91.5725L151.264 94.5212C148.715 94.0436 146.048 93.7031 143.283 93.4911L143.512 90.4999ZM159.951 93.6846C162.707 94.6284 165.294 95.7822 167.674 97.1657L166.166 99.7593C163.976 98.4861 161.571 97.4106 158.979 96.5227L159.951 93.6846ZM174.48 102.345C176.5 104.357 178.231 106.646 179.629 109.227L176.991 110.655C175.735 108.337 174.182 106.282 172.363 104.471L174.48 102.345ZM182.64 117.252C182.957 118.605 183.203 120.011 183.377 121.473L180.398 121.827C180.237 120.472 180.009 119.175 179.719 117.936L182.64 117.252ZM183.377 121.473C183.548 122.906 183.661 124.317 183.718 125.705L180.721 125.829C180.667 124.52 180.56 123.185 180.398 121.827L183.377 121.473ZM183.364 134.199C182.989 137.105 182.357 139.877 181.498 142.503L178.646 141.57C179.447 139.124 180.037 136.536 180.388 133.815L183.364 134.199ZM178.052 150.317C176.625 152.835 174.966 155.161 173.114 157.281L170.855 155.308C172.575 153.338 174.117 151.177 175.442 148.838L178.052 150.317ZM166.882 163.114C164.61 164.851 162.177 166.352 159.626 167.603L158.305 164.909C160.681 163.744 162.946 162.346 165.061 160.731L166.882 163.114ZM151.639 170.596C148.893 171.329 146.073 171.797 143.221 171.982L143.027 168.988C145.68 168.816 148.307 168.381 150.864 167.697L151.639 170.596ZM134.69 171.684C131.896 171.304 129.115 170.642 126.386 169.682L127.381 166.852C129.915 167.743 132.499 168.359 135.095 168.712L134.69 171.684ZM118.662 166.056C117.453 165.334 116.265 164.544 115.103 163.686L116.885 161.272C117.969 162.073 119.076 162.809 120.201 163.481L118.662 166.056ZM115.103 163.686C113.939 162.826 112.854 161.913 111.845 160.951L113.917 158.781C114.833 159.655 115.821 160.487 116.885 161.272L115.103 163.686ZM106.529 154.329C105.066 151.912 103.929 149.322 103.088 146.596L105.955 145.712C106.729 148.22 107.769 150.584 109.095 152.776L106.529 154.329ZM101.455 138.349C101.184 135.645 101.139 132.857 101.296 130.011L104.292 130.177C104.142 132.884 104.186 135.516 104.44 138.051L101.455 138.349ZM102.274 121.772C102.748 119.112 103.372 116.421 104.132 113.718L107.02 114.53C106.285 117.146 105.683 119.742 105.227 122.298L102.274 121.772ZM106.695 105.882C107.641 103.339 108.694 100.799 109.843 98.2782L112.573 99.5224C111.452 101.981 110.427 104.455 109.507 106.928L106.695 105.882ZM113.494 90.9199C114.786 88.5132 116.158 86.1377 117.601 83.8075L120.151 85.3865C118.741 87.6651 117.399 89.9873 116.137 92.3389L113.494 90.9199ZM122.133 76.9587C123.723 74.7072 125.374 72.516 127.076 70.3998L129.414 72.2797C127.752 74.3466 126.138 76.488 124.583 78.6894L122.133 76.9587ZM132.432 64.1697C134.323 62.1158 136.258 60.161 138.225 58.323L140.274 60.5151C138.364 62.299 136.482 64.2001 134.639 66.2015L132.432 64.1697ZM144.494 52.9557C145.597 52.0957 146.707 51.2757 147.821 50.4986L149.538 52.9592C148.469 53.7047 147.402 54.4932 146.337 55.3222L144.494 52.9557ZM147.821 50.4986C148.971 49.697 150.16 48.8864 151.383 48.0686L153.05 50.5629C151.841 51.3706 150.669 52.17 149.538 52.9592L147.821 50.4986ZM158.631 43.3883C161.008 41.8998 163.469 40.3983 165.989 38.8941L167.526 41.4699C165.023 42.9646 162.58 44.455 160.223 45.9309L158.631 43.3883ZM173.422 34.5411C175.896 33.1183 178.4 31.7015 180.914 30.2994L182.375 32.9193C179.872 34.3157 177.379 35.726 174.918 37.1416L173.422 34.5411ZM188.453 26.1491C191 24.7648 193.534 23.4042 196.032 22.0764L197.44 24.7255C194.949 26.0492 192.424 27.4053 189.886 28.7849L188.453 26.1491ZM203.643 18.0722C206.268 16.7047 208.822 15.3877 211.275 14.1328L212.641 16.8037C210.194 18.0555 207.646 19.3691 205.029 20.7328L203.643 18.0722ZM218.96 10.2369C221.762 8.82882 224.348 7.54301 226.654 6.40399L227.983 9.09392C225.682 10.2301 223.103 11.5128 220.308 12.9174L218.96 10.2369ZM234.371 2.62967C235.606 2.03213 236.572 1.56812 237.229 1.25331C237.558 1.0959 237.81 0.975794 237.98 0.894952C238.064 0.854519 238.129 0.823911 238.172 0.803353C238.194 0.793078 238.21 0.785318 238.221 0.780097C238.227 0.777494 238.231 0.775509 238.233 0.774193C238.235 0.773521 238.236 0.773016 238.237 0.772675C238.237 0.772501 238.237 0.772371 238.238 0.772279C238.238 0.772225 238.238 0.772181 238.238 0.772153C238.238 0.772143 238.238 0.772132 238.238 0.772132C238.238 0.772116 238.238 0.772122 238.88 2.1275C239.523 3.48288 239.523 3.48289 239.523 3.48289C239.523 3.4829 239.523 3.4829 239.523 3.4829C239.523 3.48291 239.523 3.48293 239.523 3.48298C239.523 3.48304 239.522 3.48315 239.522 3.48329C239.522 3.4836 239.521 3.48406 239.519 3.48466C239.517 3.48591 239.513 3.48779 239.507 3.4903C239.497 3.49532 239.481 3.50288 239.46 3.51296C239.417 3.53311 239.354 3.56333 239.27 3.60335C239.102 3.68338 238.852 3.80266 238.525 3.9592C237.871 4.27228 236.909 4.73445 235.678 5.33003L234.371 2.62967Z" fill="#B0C5DE"/>
</svg>
