<svg width="274" height="173" viewBox="0 0 274 173" fill="none" xmlns="http://www.w3.org/2000/svg">
<circle cx="14.1738" cy="86.2835" r="5.75084" transform="rotate(4.05288 14.1738 86.2835)" fill="#CBDAED"/>
<path d="M268.524 83.2095L257.515 71.9593L253.276 87.1182L268.524 83.2095ZM257.001 78.5742C222.972 70.9636 168.661 73.0257 132.202 103.765L133.959 105.849C169.516 75.8709 222.824 73.7241 256.406 81.2348L257.001 78.5742ZM132.202 103.765C127.064 108.097 123.743 111.976 121.993 115.407C120.231 118.863 120.006 122.001 121.333 124.625C122.631 127.192 125.253 128.937 128.465 130.021C131.697 131.112 135.704 131.597 140.078 131.519C148.83 131.363 159.31 128.947 168.561 124.235C177.806 119.526 185.963 112.45 189.828 102.888L187.301 101.866C183.763 110.619 176.21 117.28 167.324 121.806C158.443 126.329 148.37 128.645 140.03 128.793C135.858 128.868 132.184 128.399 129.337 127.438C126.468 126.47 124.611 125.066 123.766 123.395C122.95 121.781 122.919 119.594 124.422 116.645C125.938 113.673 128.954 110.069 133.959 105.849L132.202 103.765ZM189.828 102.888C191.756 98.1192 192.335 93.6015 191.547 89.4297C190.757 85.2507 188.615 81.5253 185.28 78.3194C178.655 71.9506 167.29 67.5925 152.07 65.5073C121.574 61.3294 74.7715 66.1652 16.6219 83.5679L17.4035 86.1798C75.3685 68.8324 121.746 64.1048 151.7 68.2084C166.704 70.264 177.381 74.5079 183.391 80.2848C186.373 83.1517 188.197 86.385 188.868 89.9359C189.54 93.4939 189.075 97.4773 187.301 101.866L189.828 102.888Z" fill="#CBDAED"/>
</svg>
