<svg width="315" height="340" viewBox="0 0 315 340" fill="none" xmlns="http://www.w3.org/2000/svg">
<g opacity="0.5">
<path d="M121.668 77.275C121.568 77.1263 121.469 76.9774 121.369 76.8283C121.382 76.7777 121.486 76.9315 121.668 77.275Z" fill="#B0C5DE"/>
<path d="M392.566 155.631L378.477 158.866L388.323 169.45L392.566 155.631ZM121.369 76.8283L120.159 76.5056L120.013 77.0538L120.329 77.5251L121.369 76.8283ZM383.51 162.348C359.584 182.697 320.905 200.68 275.027 193.937C229.17 187.196 175.848 155.711 122.708 76.5771L120.629 77.9729C174.024 157.486 227.894 189.539 274.663 196.414C321.411 203.285 360.79 184.957 385.132 164.255L383.51 162.348ZM122.708 76.5771C122.608 76.4288 122.508 76.2802 122.409 76.1315L120.329 77.5251C120.429 77.6745 120.529 77.8238 120.629 77.9729L122.708 76.5771ZM122.578 77.1511C122.548 77.2636 122.471 77.4895 122.264 77.6995C122.023 77.9447 121.697 78.0733 121.368 78.0707C121.088 78.0686 120.883 77.9728 120.787 77.9206C120.682 77.8634 120.608 77.8033 120.57 77.7699C120.495 77.7038 120.449 77.646 120.439 77.6327C120.43 77.6216 120.424 77.6133 120.421 77.6088C120.419 77.6064 120.418 77.6046 120.417 77.6034C120.416 77.6023 120.416 77.6017 120.416 77.6017C120.416 77.6016 120.416 77.6021 120.417 77.603C120.417 77.6039 120.418 77.6053 120.419 77.607C120.422 77.6107 120.425 77.6157 120.429 77.6224C120.437 77.6358 120.448 77.6538 120.461 77.677C120.488 77.7238 120.522 77.7851 120.563 77.8627L122.774 76.6874C122.679 76.5096 122.583 76.3376 122.494 76.2061C122.468 76.1669 122.37 76.018 122.221 75.887C122.175 75.8473 122.096 75.7824 121.985 75.722C121.883 75.6666 121.673 75.5693 121.388 75.5671C121.054 75.5645 120.725 75.6946 120.48 75.943C120.27 76.1561 120.191 76.3867 120.159 76.5056L122.578 77.1511ZM120.563 77.8626C121.863 80.309 127.502 93.1247 133.042 110.424C138.58 127.715 143.983 149.374 144.875 169.524C145.769 189.729 142.116 208.081 129.931 219.155C117.791 230.188 96.7502 234.369 61.9275 225.194L61.2896 227.615C96.4178 236.871 118.535 232.895 131.615 221.007C144.65 209.161 148.28 189.83 147.376 169.414C146.47 148.943 140.993 127.043 135.426 109.661C129.863 92.2876 124.171 79.3167 122.774 76.6874L120.563 77.8626Z" fill="#B0C5DE"/>
<circle cx="55.6935" cy="223.878" r="9.08063" transform="rotate(150 55.6935 223.878)" fill="#B0C5DE" stroke="#B0C5DE" stroke-width="1.33219"/>
</g>
</svg>
