<svg width="217" height="176" viewBox="0 0 217 176" fill="none" xmlns="http://www.w3.org/2000/svg">
<g opacity="0.6">
<path d="M74.0151 135.872C73.9728 135.961 73.9305 136.05 73.8882 136.14C73.8997 136.167 73.9436 136.074 74.0151 135.872Z" fill="#A8B1EF"/>
<path d="M215.466 70.8475L201.023 70.2534L208.759 58.0424L215.466 70.8475ZM73.8882 136.14L72.7401 136.639L72.5139 136.119L72.7561 135.606L73.8882 136.14ZM205.365 65.9258C190.072 57.8093 168.209 52.94 144.886 61.2597C121.569 69.5769 96.5615 91.1584 75.1466 136.407L72.8836 135.336C94.4832 89.6969 119.912 67.5096 144.044 58.9015C168.17 50.2958 190.768 55.3446 206.539 63.7142L205.365 65.9258ZM75.1466 136.407C75.1045 136.496 75.0624 136.585 75.0203 136.674L72.7561 135.606C72.7986 135.516 72.841 135.426 72.8836 135.336L75.1466 136.407ZM75.0363 135.641C74.9893 135.533 74.8787 135.32 74.6423 135.142C74.3663 134.935 74.0241 134.856 73.6983 134.908C73.4203 134.952 73.2305 135.078 73.1423 135.144C73.0458 135.218 72.9809 135.289 72.9468 135.33C72.8793 135.409 72.8396 135.478 72.8277 135.499C72.8111 135.528 72.8009 135.549 72.7976 135.556C72.7899 135.573 72.8011 135.55 72.8346 135.455L75.1956 136.288C75.1576 136.396 75.1112 136.521 75.0607 136.627C75.0492 136.652 74.9815 136.801 74.8588 136.946C74.8213 136.99 74.7533 137.065 74.6538 137.14C74.5627 137.209 74.3702 137.336 74.0898 137.381C73.7615 137.433 73.4171 137.353 73.1391 137.145C72.9008 136.966 72.7885 136.751 72.7401 136.639L75.0363 135.641ZM72.8346 135.455C73.3282 134.056 75.3471 126.633 76.9481 116.751C78.5476 106.879 79.7102 94.6669 78.5497 83.6644C77.3836 72.608 73.9093 63.1073 66.5622 58.2057C59.2651 53.3376 47.6671 52.7016 29.4754 60.542L28.4844 58.2428C46.9662 50.2773 59.5983 50.5501 67.9517 56.1229C76.2549 61.6624 79.8513 72.135 81.0396 83.4018C82.2336 94.7224 81.0345 107.184 79.4196 117.152C77.8062 127.11 75.7581 134.694 75.1956 136.288L72.8346 135.455Z" fill="#A8B1EF"/>
<circle r="5.99487" transform="matrix(-0.930773 -0.365599 -0.365599 0.930773 25.9587 61.2568)" fill="#A8B1EF" stroke="#A8B1EF" stroke-width="1.33219"/>
</g>
</svg>
