<svg width="235" height="192" viewBox="0 0 235 192" fill="none" xmlns="http://www.w3.org/2000/svg">
<g opacity="0.3">
<path d="M78.9032 130.902C78.8561 130.989 78.809 131.076 78.7619 131.164C78.772 131.191 78.8208 131.101 78.9032 130.902Z" fill="#A8B1EF"/>
<path d="M223.655 73.3955L209.268 72.0425L217.655 60.2532L223.655 73.3955ZM78.7619 131.164L77.5886 131.602L77.3911 131.07L77.6608 130.57L78.7619 131.164ZM213.838 67.9485C199.011 59.0376 177.449 53.0245 153.712 60.1075C129.982 67.1885 103.843 87.4288 80.0038 131.497L77.8027 130.308C101.847 85.8598 128.44 65.0366 153 57.7079C177.553 50.3814 199.84 56.6125 215.13 65.8013L213.838 67.9485ZM80.0038 131.497C79.9569 131.583 79.91 131.67 79.8631 131.757L77.6608 130.57C77.708 130.483 77.7553 130.395 77.8027 130.308L80.0038 131.497ZM79.9353 130.726C79.8942 130.615 79.7954 130.397 79.569 130.207C79.3048 129.985 78.9674 129.889 78.6393 129.923C78.3594 129.952 78.163 130.068 78.0714 130.13C77.971 130.198 77.9024 130.266 77.8662 130.305C77.7944 130.381 77.7511 130.447 77.738 130.468C77.7199 130.496 77.7086 130.516 77.7048 130.523C77.6962 130.539 77.7088 130.517 77.7473 130.424L80.0591 131.38C80.0153 131.486 79.9622 131.608 79.9061 131.712C79.8932 131.736 79.8175 131.881 79.6872 132.02C79.6473 132.062 79.5753 132.133 79.4719 132.203C79.3772 132.267 79.1781 132.384 78.8957 132.414C78.5652 132.448 78.2257 132.351 77.9595 132.128C77.7313 131.936 77.6309 131.716 77.5886 131.602L79.9353 130.726ZM77.7473 130.424C78.3161 129.053 80.7351 121.745 82.8706 111.959C85.004 102.183 86.8283 90.0469 86.2678 78.9967C85.7045 67.8923 82.7523 58.2204 75.6837 52.9384C68.6633 47.6924 57.119 46.4472 38.5312 53.3216L37.6669 50.973C56.551 43.989 69.1474 44.9258 77.1841 50.9312C85.1726 56.9006 88.1938 67.5497 88.7679 78.8653C89.3446 90.235 87.4702 102.618 85.3162 112.489C83.1643 122.35 80.7074 129.818 80.0591 131.38L77.7473 130.424Z" fill="#A8B1EF"/>
<circle r="5.99487" transform="matrix(-0.909365 -0.414104 -0.415582 0.91042 34.9793 53.8528)" fill="#A8B1EF" stroke="#A8B1EF" stroke-width="1.33219"/>
</g>
</svg>
