<svg width="177" height="49" viewBox="0 0 177 49" fill="none" xmlns="http://www.w3.org/2000/svg">
<g clip-path="url(#clip0_4354_360785)">
<path d="M28.8394 12.0039H7.84809C5.76851 12.01 3.77583 12.8388 2.30534 14.3092C0.834848 15.7797 0.00605413 17.7724 0 19.852H0C0.00605413 21.9316 0.834848 23.9243 2.30534 25.3947C3.77583 26.8652 5.76851 27.694 7.84809 27.7001H20.9971V19.852C21.0031 17.7734 21.8311 15.7816 23.3004 14.3113C24.7696 12.8409 26.7608 12.0115 28.8394 12.0039Z" fill="#7EBFAE"/>
<path d="M28.8424 27.6997H21V40.8257C21 42.9077 21.8255 44.9048 23.2956 46.3792C24.7656 47.8536 26.7603 48.6849 28.8424 48.691C29.8762 48.6925 30.9002 48.4902 31.8558 48.0956C32.8114 47.701 33.6798 47.1219 34.4114 46.3914C35.143 45.6609 35.7233 44.7933 36.1193 43.8383C36.5153 42.8833 36.7191 41.8596 36.7191 40.8257V19.8516C36.7131 21.9361 35.8803 23.9331 34.4036 25.4044C32.9269 26.8757 30.9269 27.7012 28.8424 27.6997Z" fill="#6B75B5"/>
<path d="M28.8424 12.0039C26.7638 12.0115 24.7726 12.8409 23.3033 14.3113C21.8341 15.7816 21.006 17.7734 21 19.852V27.7001H28.8424C30.9269 27.7016 32.9269 26.8762 34.4036 25.4049C35.8803 23.9336 36.7131 21.9365 36.7191 19.852C36.7131 17.7675 35.8803 15.7704 34.4036 14.2991C32.9269 12.8278 30.9269 12.0024 28.8424 12.0039Z" fill="#243255"/>
<path d="M57.6406 42.4153V18.2801C57.6406 14.8138 54.8307 12.0039 51.3644 12.0039H48.2264C44.7601 12.0039 41.9502 14.8138 41.9502 18.2801V42.4153C41.9502 45.8815 44.7601 48.6914 48.2264 48.6914H51.3644C54.8307 48.6914 57.6406 45.8815 57.6406 42.4153Z" fill="#DA7E61"/>
<path d="M68.5703 15.3572H71.5019C71.5019 11.0488 71.5937 8.47294 71.7141 7.71567C71.7914 6.88112 72.0341 6.07032 72.4281 5.33059C72.8221 4.59087 73.3595 3.93703 74.0089 3.40725C75.294 2.35166 77.1183 1.8755 79.5049 1.81813C81.6927 1.74277 83.8831 1.83676 86.0564 2.09924V8.79995C84.7713 8.74258 83.188 8.77126 82.4077 8.77126C81.6523 8.70725 80.8994 8.92147 80.2908 9.37364C79.9695 9.6796 79.8089 10.3049 79.8089 11.2496L79.7458 15.3572H84.9721V22.339H79.7458V48.2355H71.5019V22.339H68.5703V15.3572Z" fill="white"/>
<path d="M89.9141 2.66406H98.1637V48.2323H89.9141V2.66406Z" fill="white"/>
<path d="M128.596 15.356H136.846V48.2342H128.596V44.7576C127.197 46.1468 125.556 47.2687 123.754 48.0678C122.083 48.7493 120.293 49.0925 118.488 49.0775C114.243 49.0775 110.569 47.431 107.467 44.138C104.365 40.8451 102.816 36.7508 102.82 31.8553C102.82 26.7762 104.32 22.617 107.318 19.3775C108.682 17.8278 110.365 16.5909 112.251 15.7513C114.137 14.9116 116.182 14.4892 118.247 14.5126C120.155 14.5004 122.045 14.8812 123.8 15.6313C125.602 16.424 127.232 17.5622 128.596 18.9817V15.356ZM119.905 22.1255C118.721 22.1021 117.547 22.3309 116.458 22.7968C115.37 23.2627 114.394 23.955 113.594 24.8276C111.875 26.7187 110.966 29.2094 111.064 31.7635C110.954 34.3419 111.863 36.86 113.594 38.774C114.393 39.6593 115.372 40.3627 116.465 40.8368C117.559 41.3109 118.742 41.5446 119.934 41.522C121.138 41.554 122.335 41.3296 123.445 40.8638C124.556 40.3979 125.555 39.7012 126.376 38.8199C128.086 37.0185 128.939 34.6568 128.935 31.7348C128.935 28.8702 128.082 26.5544 126.376 24.7875C125.544 23.9153 124.538 23.2276 123.423 22.769C122.308 22.3105 121.11 22.0912 119.905 22.1255Z" fill="white"/>
<path d="M147.176 1.81325C147.868 1.80773 148.554 1.9444 149.192 2.21478C149.829 2.48516 150.404 2.88351 150.882 3.38516C151.384 3.88257 151.78 4.47655 152.046 5.13126C152.312 5.78596 152.443 6.48782 152.431 7.19447C152.442 7.89316 152.312 8.58697 152.048 9.23386C151.784 9.88076 151.391 10.4673 150.893 10.9579C150.422 11.4565 149.852 11.8521 149.22 12.1197C148.588 12.3873 147.908 12.5211 147.222 12.5126C146.52 12.5236 145.824 12.388 145.178 12.1143C144.532 11.8407 143.95 11.4351 143.47 10.9235C142.965 10.4192 142.567 9.81848 142.3 9.15707C142.033 8.49566 141.902 7.78719 141.915 7.07399C141.905 6.38233 142.036 5.69588 142.3 5.05665C142.565 4.41743 142.957 3.8389 143.452 3.35648C143.934 2.85761 144.513 2.46317 145.154 2.19768C145.794 1.93219 146.482 1.80133 147.176 1.81325ZM143.051 15.3524H151.301V48.2306H143.051V15.3524Z" fill="white"/>
<path d="M165.022 19.3656C165 19.3879 164.98 19.4129 164.965 19.4401V15.3612H156.445V48.205H164.965V35.2453C164.965 31.0115 165.921 27.8906 167.833 25.8827C169.745 23.8748 172.354 22.8708 175.658 22.8708H176.066V15.4128C168.912 14.7932 165.481 18.7804 165.022 19.3656Z" fill="white"/>
</g>
<defs>
<clipPath id="clip0_4354_360785">
<rect width="176.4" height="49" fill="white"/>
</clipPath>
</defs>
</svg>
