<svg width="72" height="20" viewBox="0 0 72 20" fill="none" xmlns="http://www.w3.org/2000/svg">
<g clip-path="url(#clip0_6868_428161)">
<path d="M11.7712 4.89844H3.2033C2.35449 4.90091 1.54116 5.23919 0.940955 5.83939C0.340754 6.43959 0.00247107 7.25293 0 8.10174H0C0.00247107 8.95055 0.340754 9.76389 0.940955 10.3641C1.54116 10.9643 2.35449 11.3026 3.2033 11.305H8.57024V8.10174C8.57271 7.25334 8.91067 6.44035 9.51036 5.84022C10.1101 5.24008 10.9228 4.90153 11.7712 4.89844Z" fill="#7EBFAE"/>
<path d="M11.7713 11.3049H8.57031V16.6624C8.57031 17.5122 8.90725 18.3274 9.50728 18.9292C10.1073 19.531 10.9215 19.8703 11.7713 19.8728C12.1933 19.8734 12.6112 19.7908 13.0013 19.6297C13.3913 19.4687 13.7457 19.2323 14.0443 18.9341C14.3429 18.636 14.5798 18.2819 14.7415 17.8921C14.9031 17.5023 14.9863 17.0844 14.9863 16.6624V8.10156C14.9838 8.9524 14.6439 9.7675 14.0412 10.368C13.4385 10.9686 12.6221 11.3055 11.7713 11.3049Z" fill="#6B75B5"/>
<path d="M11.7713 4.89844C10.9229 4.90153 10.1101 5.24008 9.51044 5.84022C8.91074 6.44035 8.57278 7.25334 8.57031 8.10174V11.305H11.7713C12.6221 11.3057 13.4385 10.9688 14.0412 10.3682C14.6439 9.76768 14.9838 8.95258 14.9863 8.10174C14.9838 7.25091 14.6439 6.4358 14.0412 5.83527C13.4385 5.23473 12.6221 4.89781 11.7713 4.89844Z" fill="#243255"/>
<path d="M23.5312 17.3112V7.46014C23.5312 6.04535 22.3843 4.89844 20.9695 4.89844H19.6887C18.2739 4.89844 17.127 6.04535 17.127 7.46014V17.3112C17.127 18.726 18.2739 19.8729 19.6887 19.8729H20.9695C22.3843 19.8729 23.5312 18.726 23.5312 17.3112Z" fill="#DA7E61"/>
<path d="M27.9844 6.2669H29.1809C29.1809 4.50836 29.2184 3.45699 29.2676 3.1479C29.2991 2.80727 29.3982 2.47633 29.559 2.1744C29.7198 1.87247 29.9391 1.6056 30.2042 1.38936C30.7287 0.958506 31.4734 0.764154 32.4475 0.740738C33.3404 0.70998 34.2345 0.748341 35.1216 0.855476V3.59046C34.597 3.56704 33.9508 3.57875 33.6323 3.57875C33.3239 3.55262 33.0167 3.64006 32.7683 3.82462C32.6371 3.9495 32.5716 4.20474 32.5716 4.59032L32.5458 6.2669H34.679V9.11662H32.5458V19.6866H29.1809V9.11662H27.9844V6.2669Z" fill="white"/>
<path d="M36.7031 1.08594H40.0703V19.6852H36.7031V1.08594Z" fill="white"/>
<path d="M52.4895 6.26647H55.8568V19.6862H52.4895V18.2671C51.9186 18.8342 51.2488 19.2921 50.5132 19.6182C49.831 19.8964 49.1004 20.0365 48.3636 20.0304C46.6309 20.0304 45.1315 19.3583 43.8654 18.0143C42.5994 16.6702 41.9672 14.9991 41.9688 13.0009C41.9688 10.9278 42.5807 9.23015 43.8046 7.90793C44.3614 7.27539 45.0482 6.77051 45.818 6.42781C46.5879 6.08511 47.4227 5.91266 48.2653 5.92225C49.0442 5.91726 49.8158 6.07269 50.532 6.37887C51.2676 6.7024 51.9326 7.16699 52.4895 7.74636V6.26647ZM48.942 9.02955C48.459 9.01997 47.9795 9.11337 47.5353 9.30354C47.0912 9.4937 46.6927 9.77627 46.3663 10.1324C45.6644 10.9043 45.2936 11.9209 45.3336 12.9634C45.2888 14.0158 45.6597 15.0436 46.3663 15.8249C46.6921 16.1862 47.0917 16.4733 47.5381 16.6668C47.9845 16.8603 48.4673 16.9557 48.9537 16.9465C49.4452 16.9595 49.9338 16.868 50.3871 16.6778C50.8405 16.4877 51.2482 16.2033 51.5833 15.8436C52.2811 15.1083 52.6293 14.1444 52.6277 12.9517C52.6277 11.7825 52.2796 10.8373 51.5833 10.1161C51.2437 9.76006 50.8331 9.47938 50.3781 9.29221C49.9231 9.10505 49.4338 9.01556 48.942 9.02955Z" fill="white"/>
<path d="M60.0695 0.738586C60.3521 0.736336 60.6322 0.792118 60.8924 0.902478C61.1526 1.01284 61.3873 1.17543 61.5821 1.38018C61.7871 1.58321 61.9488 1.82565 62.0574 2.09288C62.1661 2.3601 62.2195 2.64657 62.2144 2.935C62.2192 3.22018 62.166 3.50337 62.0581 3.76741C61.9503 4.03145 61.7899 4.27084 61.5868 4.47109C61.3944 4.67463 61.1619 4.83609 60.904 4.94531C60.646 5.05453 60.3683 5.10912 60.0882 5.10566C59.8018 5.11017 59.5177 5.05481 59.254 4.94311C58.9903 4.83142 58.7528 4.66585 58.5568 4.45704C58.3509 4.25124 58.1885 4.00603 58.0795 3.73607C57.9705 3.4661 57.917 3.17693 57.9222 2.88583C57.9181 2.60352 57.9716 2.32333 58.0795 2.06243C58.1874 1.80152 58.3474 1.56538 58.5498 1.36848C58.7463 1.16486 58.9827 1.00386 59.2441 0.895496C59.5056 0.787133 59.7865 0.733722 60.0695 0.738586ZM58.3859 6.26475H61.7531V19.6844H58.3859V6.26475Z" fill="white"/>
<path d="M67.3523 7.90559C67.3432 7.91469 67.3353 7.92492 67.3288 7.93603V6.27115H63.8516V19.6768H67.3288V14.3871C67.3288 12.659 67.7191 11.3852 68.4996 10.5656C69.2802 9.74608 70.3448 9.3363 71.6936 9.3363H71.8598V6.29223C68.9399 6.03934 67.5396 7.66674 67.3523 7.90559Z" fill="white"/>
</g>
<defs>
<clipPath id="clip0_6868_428161">
<rect width="72" height="20" fill="white"/>
</clipPath>
</defs>
</svg>
